<svg width="729" height="294" viewBox="0 0 729 294" fill="none" xmlns="http://www.w3.org/2000/svg">
<g clip-path="url(#clip0_377_4257)">
<path d="M225.412 203.693C225.412 203.674 225.412 203.674 225.393 203.674C224.935 203.14 224.421 202.644 223.887 202.167C223.887 202.148 223.887 202.148 223.868 202.148C223.41 201.615 222.895 201.119 222.361 200.642C222.361 200.623 222.361 200.623 222.342 200.623C221.884 200.089 221.37 199.593 220.836 199.136C220.836 199.116 220.836 199.116 220.817 199.116C220.359 198.583 219.844 198.087 219.31 197.61C219.31 197.591 219.31 197.591 219.291 197.591C218.833 197.057 218.319 196.561 217.785 196.085C217.785 196.065 217.785 196.065 217.766 196.065C217.308 195.532 216.793 195.036 216.259 194.578C216.259 194.559 216.259 194.559 216.24 194.559C215.782 194.025 215.268 193.529 214.734 193.053C214.734 193.034 214.734 193.034 214.715 193.034C214.257 192.5 213.742 192.004 213.208 191.527C213.208 191.508 213.208 191.508 213.189 191.508C212.731 190.974 212.217 190.478 211.683 190.021C211.683 190.002 211.683 190.002 211.664 190.002C210.119 188.324 208.346 186.893 206.343 185.73V35.8685C206.343 35.0867 205.962 34.6672 205.962 33.8854C205.962 32.684 205.962 32.2836 205.562 31.5018C205.562 31.1013 205.18 30.3004 205.18 29.9C204.78 28.6987 204.78 28.2982 204.379 27.5164C203.979 27.116 203.597 26.3151 203.597 25.9146C202.797 24.7133 202.396 24.3128 201.996 23.9315C201.595 23.531 201.214 22.7301 200.794 22.3297L199.193 20.7279C199.193 20.48 198.887 20.2512 198.544 20.0796C198.334 19.8698 198.087 19.6219 197.762 19.2978L197.686 19.2215C197.686 18.9736 197.381 18.7448 197.038 18.5731C196.828 18.3634 196.58 18.1155 196.256 17.7913L196.18 17.715C196.18 17.4671 195.875 17.2383 195.531 17.0667C195.322 16.8569 195.074 16.6091 194.75 16.2849L194.673 16.2086C194.673 15.9607 194.368 15.7319 194.025 15.5603C193.815 15.3505 193.567 15.1026 193.243 14.7784L193.167 14.6831C193.167 14.4352 192.862 14.2064 192.518 14.0348C192.309 13.825 192.061 13.5771 191.737 13.2529L191.66 13.1767C191.66 12.9288 191.355 12.6999 191.012 12.5283C190.802 12.3186 190.554 12.0707 190.23 11.7465L190.135 11.6321C190.135 11.3842 189.83 11.1554 189.487 10.9838C189.277 10.774 189.029 10.5261 188.705 10.2019L188.628 10.1257C188.628 9.87777 188.323 9.64894 187.98 9.47732C187.77 9.26756 187.522 9.01967 187.198 8.6955L187.122 8.61923C187.122 8.37133 186.817 8.14251 186.474 7.97089C186.264 7.76113 186.016 7.51324 185.692 7.18907L185.616 7.11279C185.616 6.8649 185.31 6.63607 184.967 6.46445L184.09 5.58729C184.09 5.20591 183.308 4.80547 182.889 4.80547C182.889 4.40502 182.507 4.40502 182.507 4.40502C181.706 4.02365 181.287 3.6232 180.505 3.20369C180.105 2.80324 179.304 2.42187 178.522 1.60191C178.122 1.60191 177.321 1.22053 176.92 1.22053C176.138 0.82009 174.918 0.82009 174.537 0.419645C173.755 0.419645 173.335 0.419645 172.534 0.038269H170.151C169.769 0.038269 169.769 0.038269 169.369 0.038269C168.969 0.038269 168.587 0.038269 168.587 0.038269H165.803C165.403 0.419645 164.602 0.419645 164.201 0.419645C163 0.82009 162.218 0.82009 161.818 1.22053C161.036 1.22053 160.616 1.60191 160.216 2.42187C159.015 2.42187 158.633 2.80324 157.832 3.20369C157.451 3.60413 156.631 4.00458 156.231 4.40502C155.849 4.80547 155.449 5.20591 154.247 5.60636C153.866 6.40725 153.466 6.80769 153.046 7.20814C152.646 7.60858 152.646 7.98996 152.264 7.98996L4.9006 191.127C-2.25019 200.127 -1.56372 212.693 6.88376 220.416C7.34141 220.969 7.85627 221.465 8.40926 221.942C8.86691 222.495 9.38177 222.991 9.93477 223.467C10.3924 224.02 10.9073 224.516 11.4603 224.993C11.9179 225.546 12.4328 226.042 12.9858 226.518C13.4434 227.071 13.9583 227.567 14.5113 228.044C14.9689 228.597 15.4838 229.093 16.0368 229.569C16.4944 230.122 17.0093 230.618 17.5623 231.095C18.0199 231.648 18.5348 232.144 19.0878 232.62C19.5454 233.173 20.0603 233.669 20.6133 234.146C21.5286 235.176 22.5774 236.148 23.7215 237.025C27.7069 240.61 32.4741 241.792 37.2603 241.792H147.516V256.876C147.516 263.474 150.224 269.251 154.629 273.218L154.686 273.275C155.144 273.79 155.639 274.267 156.135 274.724C156.154 274.743 156.173 274.743 156.173 274.762C156.631 275.296 157.146 275.773 157.642 276.231L157.699 276.288C158.156 276.803 158.652 277.279 159.148 277.737C159.167 277.756 159.186 277.756 159.186 277.775C159.644 278.309 160.159 278.786 160.655 279.244L160.712 279.301C161.169 279.816 161.665 280.292 162.161 280.75C162.18 280.769 162.199 280.769 162.199 280.788C162.657 281.322 163.172 281.799 163.667 282.256L163.725 282.314C164.182 282.828 164.678 283.305 165.174 283.763C165.193 283.782 165.212 283.782 165.212 283.801C165.67 284.335 166.184 284.812 166.68 285.269L166.737 285.327C167.195 285.841 167.691 286.318 168.187 286.776C168.206 286.795 168.225 286.795 168.225 286.814C172.191 291.162 177.931 293.85 184.471 293.85C196.809 293.85 206.362 284.278 206.362 271.94V241.678H210.348C222.685 241.678 232.639 232.125 232.639 219.787C232.696 213.494 229.874 207.717 225.412 203.693ZM147.459 118.417V182.775H95.6109L147.459 118.417Z" fill="#FFC800"/>
<path opacity="0.1" d="M225.412 203.693C225.412 203.674 225.412 203.674 225.393 203.674C224.935 203.14 224.421 202.644 223.887 202.167C223.887 202.148 223.887 202.148 223.868 202.148C223.41 201.615 222.895 201.119 222.361 200.642C222.361 200.623 222.361 200.623 222.342 200.623C221.884 200.089 221.37 199.593 220.836 199.136C220.836 199.116 220.836 199.116 220.817 199.116C220.359 198.583 219.844 198.087 219.31 197.61C219.31 197.591 219.31 197.591 219.291 197.591C218.833 197.057 218.319 196.561 217.785 196.085C217.785 196.065 217.785 196.065 217.766 196.065C217.308 195.532 216.793 195.036 216.259 194.578C216.259 194.559 216.259 194.559 216.24 194.559C215.782 194.025 215.268 193.529 214.734 193.053C214.734 193.034 214.734 193.034 214.715 193.034C214.257 192.5 213.742 192.004 213.208 191.527C213.208 191.508 213.208 191.508 213.189 191.508C212.731 190.974 212.217 190.478 211.683 190.021C211.683 190.002 211.683 190.002 211.664 190.002C210.119 188.324 208.346 186.893 206.343 185.73V35.8685C206.343 35.0867 205.962 34.6672 205.962 33.8854C205.962 32.684 205.962 32.2836 205.562 31.5018C205.562 31.1013 205.18 30.3004 205.18 29.9C204.78 28.6987 204.78 28.2982 204.379 27.5164C203.979 27.116 203.597 26.3151 203.597 25.9146C202.797 24.7133 202.396 24.3128 201.996 23.9315C201.595 23.531 201.214 22.7301 200.794 22.3297L199.193 20.7279C199.193 20.48 198.887 20.2512 198.544 20.0796C198.334 19.8698 198.087 19.6219 197.762 19.2978L197.686 19.2215C197.686 18.9736 197.381 18.7448 197.038 18.5731C196.828 18.3634 196.58 18.1155 196.256 17.7913L196.18 17.715C196.18 17.4671 195.875 17.2383 195.531 17.0667C195.322 16.8569 195.074 16.6091 194.75 16.2849L194.673 16.2086C194.673 15.9607 194.368 15.7319 194.025 15.5603C193.815 15.3505 193.567 15.1026 193.243 14.7784L193.167 14.6831C193.167 14.4352 192.862 14.2064 192.518 14.0348C192.309 13.825 192.061 13.5771 191.737 13.2529L191.66 13.1767C191.66 12.9288 191.355 12.6999 191.012 12.5283C190.802 12.3186 190.554 12.0707 190.23 11.7465L190.135 11.6321C190.135 11.3842 189.83 11.1554 189.487 10.9838C189.277 10.774 189.029 10.5261 188.705 10.2019L188.628 10.1257C188.628 9.87777 188.323 9.64894 187.98 9.47732C187.77 9.26756 187.522 9.01967 187.198 8.6955L187.122 8.61923C187.122 8.37133 186.817 8.14251 186.474 7.97089C186.264 7.76113 186.016 7.51324 185.692 7.18907L185.616 7.11279C185.616 6.8649 185.31 6.63607 184.967 6.46445L184.09 5.58729C184.09 5.20591 183.308 4.80547 182.889 4.80547C182.889 4.40502 182.507 4.40502 182.507 4.40502C181.706 4.02365 181.287 3.6232 180.505 3.20369C180.105 2.80324 179.304 2.42187 178.522 1.60191C178.122 1.60191 177.321 1.22053 176.92 1.22053C176.138 0.82009 174.918 0.82009 174.537 0.419645C173.755 0.419645 173.335 0.419645 172.534 0.038269H170.151C169.769 0.038269 169.769 0.038269 169.369 0.038269C168.969 0.038269 168.587 0.038269 168.587 0.038269H165.803C165.403 0.419645 164.602 0.419645 164.201 0.419645C163 0.82009 162.218 0.82009 161.818 1.22053C161.036 1.22053 160.616 1.60191 160.216 2.42187C159.015 2.42187 158.633 2.80324 157.832 3.20369C157.451 3.60413 156.631 4.00458 156.231 4.40502C155.849 4.80547 155.449 5.20591 154.247 5.60636C153.866 6.40725 153.466 6.80769 153.046 7.20814C152.646 7.60858 152.646 7.98996 152.264 7.98996L4.9006 191.127C-2.25019 200.127 -1.56372 212.693 6.88376 220.416C7.34141 220.969 7.85627 221.465 8.40926 221.942C8.86691 222.495 9.38177 222.991 9.93477 223.467C10.3924 224.02 10.9073 224.516 11.4603 224.993C11.9179 225.546 12.4328 226.042 12.9858 226.518C13.4434 227.071 13.9583 227.567 14.5113 228.044C14.9689 228.597 15.4838 229.093 16.0368 229.569C16.4944 230.122 17.0093 230.618 17.5623 231.095C18.0199 231.648 18.5348 232.144 19.0878 232.62C19.5454 233.173 20.0603 233.669 20.6133 234.146C21.5286 235.176 22.5774 236.148 23.7215 237.025C27.7069 240.61 32.4741 241.792 37.2603 241.792H147.516V256.876C147.516 263.474 150.224 269.251 154.629 273.218L154.686 273.275C155.144 273.79 155.639 274.267 156.135 274.724C156.154 274.743 156.173 274.743 156.173 274.762C156.631 275.296 157.146 275.773 157.642 276.231L157.699 276.288C158.156 276.803 158.652 277.279 159.148 277.737C159.167 277.756 159.186 277.756 159.186 277.775C159.644 278.309 160.159 278.786 160.655 279.244L160.712 279.301C161.169 279.816 161.665 280.292 162.161 280.75C162.18 280.769 162.199 280.769 162.199 280.788C162.657 281.322 163.172 281.799 163.667 282.256L163.725 282.314C164.182 282.828 164.678 283.305 165.174 283.763C165.193 283.782 165.212 283.782 165.212 283.801C165.67 284.335 166.184 284.812 166.68 285.269L166.737 285.327C167.195 285.841 167.691 286.318 168.187 286.776C168.206 286.795 168.225 286.795 168.225 286.814C172.191 291.162 177.931 293.85 184.471 293.85C196.809 293.85 206.362 284.278 206.362 271.94V241.678H210.348C222.685 241.678 232.639 232.125 232.639 219.787C232.696 213.494 229.874 207.717 225.412 203.693ZM147.459 118.417V182.775H95.6109L147.459 118.417Z" fill="black"/>
<path d="M217.519 204.665C217.519 217.003 207.565 226.556 195.227 226.556H191.242V256.819C191.242 269.156 181.688 278.71 169.351 278.71C157.013 278.71 147.441 269.156 147.441 256.819V226.556H22.8263H22.4259H22.0254C17.2392 226.556 12.472 225.355 8.4866 221.77C-1.46731 214.2 -2.66865 200.661 4.90166 191.107L152.227 7.97075C152.628 7.97075 152.628 7.5703 153.028 7.16986C153.429 6.76941 153.829 6.36897 154.229 5.56808C155.412 5.16763 155.812 4.76719 156.213 4.36674C156.613 3.9663 157.414 3.56586 157.814 3.16541C158.615 2.76497 159.016 2.36452 160.198 2.36452C160.598 1.56363 160.999 1.16319 161.8 1.16319C162.2 0.762742 163.001 0.762742 164.183 0.362298C164.584 0.362298 165.366 0.362298 165.766 -0.038147C166.567 -0.038147 167.749 -0.038147 168.55 -0.038147C168.55 -0.038147 168.951 -0.038147 169.351 -0.038147C169.751 -0.038147 169.751 -0.038147 170.152 -0.038147C170.953 -0.038147 172.135 -0.038147 172.535 -0.038147C173.336 0.362298 173.737 0.362298 174.519 0.362298C174.919 0.762742 176.101 0.762742 176.902 1.16319C177.303 1.16319 178.104 1.56363 178.504 1.56363C179.305 2.36452 180.087 2.76497 180.487 3.14634C181.288 3.54679 181.688 3.94723 182.47 4.34768C182.47 4.34768 182.871 4.34768 182.871 4.74812C183.271 4.74812 184.072 5.14857 184.072 5.54901C184.873 6.3499 185.254 6.75034 185.655 7.15079C186.055 7.55123 186.456 8.35212 186.856 8.7335C187.257 9.13394 187.657 9.53439 188.458 10.7167C188.458 11.1171 188.858 11.918 189.259 12.3184C189.659 13.1193 189.659 13.5198 190.06 14.702C190.06 15.1025 190.46 15.9034 190.46 16.2847C190.861 17.0856 190.861 17.4861 190.861 18.6683C190.861 19.4692 191.261 19.8697 191.261 20.6515C191.261 21.0519 191.261 21.4524 191.261 21.8528V182.717H195.246C207.565 182.755 217.519 192.709 217.519 204.665ZM147.441 84.4175L68.2101 182.755H147.441V84.4175Z" fill="#FFC800"/>
<path d="M450.443 59.3612C445.905 52.4583 440.699 46.0702 434.864 40.4068C434.635 40.1589 434.426 39.9491 434.178 39.7394C434.12 39.6822 434.063 39.6059 433.968 39.5296C433.777 39.3199 433.606 39.1292 433.396 38.9385C432.881 38.3855 432.347 37.8897 431.813 37.3558C431.775 37.3176 431.718 37.2604 431.68 37.2414C431.489 37.0507 431.317 36.8791 431.127 36.6884C431.069 36.6312 431.012 36.5549 430.917 36.4786C430.726 36.2688 430.555 36.0782 430.345 35.8875C429.83 35.3345 429.296 34.8387 428.762 34.3048C428.724 34.2666 428.667 34.2094 428.629 34.1903C428.438 33.9997 428.266 33.828 428.076 33.6374C428.018 33.5801 427.961 33.5039 427.866 33.4276C427.675 33.2178 427.504 33.0272 427.294 32.8365C426.779 32.2835 426.245 31.7877 425.711 31.2538C425.673 31.2156 425.616 31.1584 425.578 31.1393C425.387 30.9487 425.215 30.777 425.025 30.5863C424.967 30.5291 424.91 30.4529 424.815 30.3766C424.624 30.1668 424.453 29.9761 424.243 29.7855C423.728 29.2325 423.194 28.7367 422.66 28.2027C422.622 28.1646 422.565 28.1074 422.527 28.0883C422.336 27.8786 422.183 27.707 421.974 27.5353C421.916 27.4781 421.859 27.4019 421.764 27.3256C405.86 10.9074 384.999 0 361.602 0C330.138 0 304.262 18.7065 287.539 44.1824C270.014 69.6774 260.88 102.724 260.461 139.355C260.861 175.585 270.014 209.032 287.539 234.527C292.058 241.258 297.207 247.589 302.946 253.215C303.213 253.481 303.48 253.729 303.728 253.977C303.766 253.996 303.804 254.035 303.823 254.073C304.281 254.549 304.777 255.026 305.234 255.484C305.482 255.751 305.711 255.999 305.959 256.227C306.226 256.494 306.493 256.742 306.741 256.99C306.779 257.009 306.817 257.047 306.836 257.086C307.294 257.562 307.79 258.039 308.247 258.497C308.495 258.764 308.724 259.011 308.972 259.24C309.239 259.507 309.506 259.755 309.754 260.003C309.792 260.022 309.83 260.06 309.849 260.098C310.307 260.575 310.803 261.052 311.26 261.509C311.508 261.776 311.737 262.024 311.985 262.253C312.252 262.52 312.519 262.768 312.767 263.016C312.805 263.035 312.843 263.073 312.862 263.111C313.32 263.588 313.815 264.065 314.273 264.522C314.521 264.789 314.75 265.037 314.998 265.266C315.265 265.533 315.532 265.781 315.78 266.029C315.818 266.048 315.856 266.086 315.875 266.124C316.333 266.601 316.828 267.078 317.286 267.535C333.018 283.248 353.326 293.793 376.666 293.793C407.31 293.793 433.587 274.667 450.329 249.591C467.453 224.096 477.006 190.65 477.006 154.419C477.121 117.902 467.548 84.8561 450.443 59.3612ZM398.633 209.833C387.078 226.957 373.958 234.508 361.602 234.508C354.813 234.508 347.643 232.22 340.607 227.281C340.035 226.556 339.501 225.794 338.948 224.993C327.793 208.269 319.822 182.793 319.822 154.514C319.822 125.854 327.793 100.76 338.948 83.6548C350.904 66.9315 364.443 58.9798 376.781 59.3612C383.34 59.1514 390.11 61.3062 396.765 65.9018C397.394 66.7599 398.023 67.5989 398.633 68.4951C409.789 85.6189 417.759 110.694 417.759 139.355C417.74 167.634 409.77 193.11 398.633 209.833Z" fill="#FFC800"/>
<path opacity="0.1" d="M450.443 59.3612C445.905 52.4583 440.699 46.0702 434.864 40.4068C434.635 40.1589 434.426 39.9491 434.178 39.7394C434.12 39.6822 434.063 39.6059 433.968 39.5296C433.777 39.3199 433.606 39.1292 433.396 38.9385C432.881 38.3855 432.347 37.8897 431.813 37.3558C431.775 37.3176 431.718 37.2604 431.68 37.2414C431.489 37.0507 431.317 36.8791 431.127 36.6884C431.069 36.6312 431.012 36.5549 430.917 36.4786C430.726 36.2688 430.555 36.0782 430.345 35.8875C429.83 35.3345 429.296 34.8387 428.762 34.3048C428.724 34.2666 428.667 34.2094 428.629 34.1903C428.438 33.9997 428.266 33.828 428.076 33.6374C428.018 33.5801 427.961 33.5039 427.866 33.4276C427.675 33.2178 427.504 33.0272 427.294 32.8365C426.779 32.2835 426.245 31.7877 425.711 31.2538C425.673 31.2156 425.616 31.1584 425.578 31.1393C425.387 30.9487 425.215 30.777 425.025 30.5863C424.967 30.5291 424.91 30.4529 424.815 30.3766C424.624 30.1668 424.453 29.9761 424.243 29.7855C423.728 29.2325 423.194 28.7367 422.66 28.2027C422.622 28.1646 422.565 28.1074 422.527 28.0883C422.336 27.8786 422.183 27.707 421.974 27.5353C421.916 27.4781 421.859 27.4019 421.764 27.3256C405.86 10.9074 384.999 0 361.602 0C330.138 0 304.262 18.7065 287.539 44.1824C270.014 69.6774 260.88 102.724 260.461 139.355C260.861 175.585 270.014 209.032 287.539 234.527C292.058 241.258 297.207 247.589 302.946 253.215C303.213 253.481 303.48 253.729 303.728 253.977C303.766 253.996 303.804 254.035 303.823 254.073C304.281 254.549 304.777 255.026 305.234 255.484C305.482 255.751 305.711 255.999 305.959 256.227C306.226 256.494 306.493 256.742 306.741 256.99C306.779 257.009 306.817 257.047 306.836 257.086C307.294 257.562 307.79 258.039 308.247 258.497C308.495 258.764 308.724 259.011 308.972 259.24C309.239 259.507 309.506 259.755 309.754 260.003C309.792 260.022 309.83 260.06 309.849 260.098C310.307 260.575 310.803 261.052 311.26 261.509C311.508 261.776 311.737 262.024 311.985 262.253C312.252 262.52 312.519 262.768 312.767 263.016C312.805 263.035 312.843 263.073 312.862 263.111C313.32 263.588 313.815 264.065 314.273 264.522C314.521 264.789 314.75 265.037 314.998 265.266C315.265 265.533 315.532 265.781 315.78 266.029C315.818 266.048 315.856 266.086 315.875 266.124C316.333 266.601 316.828 267.078 317.286 267.535C333.018 283.248 353.326 293.793 376.666 293.793C407.31 293.793 433.587 274.667 450.329 249.591C467.453 224.096 477.006 190.65 477.006 154.419C477.121 117.902 467.548 84.8561 450.443 59.3612ZM398.633 209.833C387.078 226.957 373.958 234.508 361.602 234.508C354.813 234.508 347.643 232.22 340.607 227.281C340.035 226.556 339.501 225.794 338.948 224.993C327.793 208.269 319.822 182.793 319.822 154.514C319.822 125.854 327.793 100.76 338.948 83.6548C350.904 66.9315 364.443 58.9798 376.781 59.3612C383.34 59.1514 390.11 61.3062 396.765 65.9018C397.394 66.7599 398.023 67.5989 398.633 68.4951C409.789 85.6189 417.759 110.694 417.759 139.355C417.74 167.634 409.77 193.11 398.633 209.833Z" fill="black"/>
<path d="M260.461 139.355C260.861 102.724 270.014 69.6774 287.539 44.1824C304.262 18.7065 330.157 0 361.602 0C392.264 0 418.541 18.7065 435.265 44.2015C452.388 69.6774 461.942 102.724 461.942 139.374C461.942 175.605 452.388 209.051 435.265 234.527C418.541 259.622 392.264 278.729 361.602 278.729C330.138 278.729 304.262 259.622 287.539 234.527C270.033 209.032 260.861 175.585 260.461 139.355ZM417.74 139.355C417.74 110.694 409.77 85.5998 398.633 68.476C387.078 51.7527 373.958 43.782 361.602 44.1824C349.264 43.782 335.725 51.7527 323.769 68.476C312.614 85.5998 304.662 110.675 304.662 139.355C304.662 167.634 312.633 193.11 323.769 209.833C335.706 226.957 349.245 234.527 361.602 234.527C373.939 234.527 387.078 226.957 398.633 209.833C409.789 193.11 417.74 167.634 417.74 139.355Z" fill="#FFC800"/>
<path d="M721.714 203.693C721.714 203.674 721.714 203.674 721.695 203.674C721.218 203.14 720.703 202.644 720.188 202.167C720.188 202.148 720.188 202.148 720.169 202.148C719.693 201.614 719.178 201.118 718.663 200.642C718.663 200.623 718.663 200.623 718.644 200.623C718.167 200.089 717.652 199.593 717.137 199.135C717.137 199.116 717.137 199.116 717.118 199.116C716.642 198.582 716.127 198.087 715.612 197.61C715.612 197.591 715.612 197.591 715.593 197.591C715.116 197.057 714.601 196.561 714.086 196.084C714.086 196.065 714.086 196.065 714.067 196.065C713.591 195.531 713.076 195.035 712.561 194.578C712.561 194.559 712.561 194.559 712.542 194.559C712.065 194.025 711.55 193.529 711.035 193.052C711.035 193.033 711.035 193.033 711.016 193.033C710.54 192.499 710.025 192.004 709.51 191.527C709.51 191.508 709.51 191.508 709.491 191.508C709.014 190.974 708.499 190.478 707.984 190.02C707.984 190.001 707.984 190.001 707.965 190.001C706.421 188.323 704.628 186.874 702.626 185.73V35.8683C702.626 35.0865 702.245 34.6669 702.245 33.8851C702.245 32.6838 702.245 32.2833 701.844 31.5015C701.844 31.1011 701.463 30.3002 701.463 29.8997C701.062 28.6984 701.062 28.298 700.662 27.5161C700.281 27.1157 699.88 26.3148 699.88 25.9144C699.098 24.713 698.679 24.3126 698.278 23.9312C697.878 23.5308 697.496 22.7299 697.077 22.3294L695.475 20.7276C695.475 20.4798 695.17 20.2509 694.827 20.0793C694.617 19.8696 694.369 19.6217 694.045 19.2975L693.969 19.2212C693.969 18.9733 693.664 18.7445 693.32 18.5729C693.111 18.3631 692.863 18.1152 692.539 17.7911L692.462 17.7148C692.462 17.4669 692.157 17.2381 691.814 17.0664C691.604 16.8567 691.356 16.6088 691.032 16.2846L690.956 16.2083C690.956 15.9605 690.651 15.7316 690.308 15.56C690.098 15.3502 689.85 15.1024 689.526 14.7782L689.449 14.7019C689.449 14.454 689.144 14.2252 688.801 14.0536C688.591 13.8438 688.343 13.5959 688.019 13.2718L687.943 13.1955C687.943 12.9476 687.638 12.7188 687.295 12.5471C687.085 12.3374 686.837 12.0895 686.513 11.7653L686.437 11.689C686.437 11.4411 686.132 11.2123 685.788 11.0407C685.579 10.8309 685.331 10.5831 685.006 10.2589L684.93 10.1826C684.93 9.93471 684.625 9.70589 684.282 9.53427C684.072 9.32451 683.824 9.07662 683.5 8.75245L683.424 8.67617C683.424 8.42828 683.119 8.19945 682.775 8.02783C682.566 7.81808 682.318 7.57018 681.994 7.24601L681.917 7.16974C681.917 6.92184 681.612 6.69302 681.269 6.5214L680.392 5.64423C680.392 5.26286 679.61 4.86241 679.19 4.86241C679.19 4.46197 678.79 4.46197 678.79 4.46197C678.008 4.08059 677.589 3.68015 676.807 3.26063C676.406 2.86019 675.606 2.47881 674.824 1.65886C674.423 1.65886 673.622 1.27748 673.222 1.27748C672.44 0.877035 671.239 0.877035 670.838 0.476591C670.037 0.476591 669.637 0.476591 668.836 0.0952148H666.452C666.071 0.0952148 666.071 0.0952148 665.671 0.0952148C665.289 0.0952148 664.889 0.0952148 664.889 0.0952148H662.105C661.704 0.476591 660.903 0.476591 660.503 0.476591C659.302 0.877035 658.52 0.877035 658.119 1.27748C657.338 1.27748 656.918 1.65886 656.518 2.47881C655.335 2.47881 654.935 2.86019 654.134 3.26063C653.753 3.66108 652.933 4.06152 652.551 4.46197C652.151 4.86241 651.75 5.26286 650.549 5.6633C650.149 6.46419 649.767 6.86464 649.348 7.26508C648.947 7.66553 648.947 8.0469 648.566 8.0469L501.24 191.222C494.09 200.222 494.776 212.789 503.224 220.511C503.681 221.064 504.196 221.56 504.749 222.037C505.207 222.59 505.722 223.086 506.275 223.562C506.732 224.115 507.247 224.611 507.8 225.088C508.258 225.641 508.773 226.137 509.326 226.613C509.783 227.166 510.298 227.662 510.851 228.139C511.309 228.692 511.824 229.188 512.377 229.664C512.834 230.217 513.349 230.713 513.902 231.19C514.36 231.743 514.875 232.239 515.428 232.715C515.885 233.268 516.4 233.764 516.953 234.241C517.868 235.271 518.917 236.243 520.061 237.12C524.047 240.705 528.814 241.888 533.6 241.888H643.856V256.971C643.856 263.55 646.564 269.347 650.969 273.313C650.988 273.332 651.007 273.332 651.007 273.351C651.464 273.885 651.979 274.362 652.475 274.819L652.532 274.877C652.99 275.391 653.486 275.868 653.981 276.326C654.001 276.345 654.02 276.345 654.02 276.364C654.477 276.898 654.992 277.375 655.488 277.832L655.545 277.889C656.003 278.404 656.499 278.881 656.994 279.339C657.013 279.358 657.033 279.358 657.033 279.377C657.49 279.911 658.005 280.387 658.501 280.845L658.558 280.902C659.016 281.417 659.511 281.894 660.007 282.352C660.026 282.371 660.045 282.371 660.045 282.39C660.503 282.924 661.018 283.4 661.514 283.858L661.571 283.915C662.029 284.43 662.524 284.907 663.02 285.364C663.039 285.383 663.058 285.383 663.058 285.402C663.516 285.936 664.031 286.413 664.527 286.871L664.584 286.928C668.55 291.276 674.271 293.945 680.811 293.945C693.149 293.945 702.702 284.373 702.702 272.035V241.773H706.688C719.044 241.773 728.998 232.22 728.998 219.882C728.998 213.494 726.176 207.716 721.714 203.693ZM643.742 118.417V182.774H591.894L643.742 118.417Z" fill="#FFC800"/>
<path opacity="0.1" d="M721.714 203.693C721.714 203.674 721.714 203.674 721.695 203.674C721.218 203.14 720.703 202.644 720.188 202.167C720.188 202.148 720.188 202.148 720.169 202.148C719.693 201.614 719.178 201.118 718.663 200.642C718.663 200.623 718.663 200.623 718.644 200.623C718.167 200.089 717.652 199.593 717.137 199.135C717.137 199.116 717.137 199.116 717.118 199.116C716.642 198.582 716.127 198.087 715.612 197.61C715.612 197.591 715.612 197.591 715.593 197.591C715.116 197.057 714.601 196.561 714.086 196.084C714.086 196.065 714.086 196.065 714.067 196.065C713.591 195.531 713.076 195.035 712.561 194.578C712.561 194.559 712.561 194.559 712.542 194.559C712.065 194.025 711.55 193.529 711.035 193.052C711.035 193.033 711.035 193.033 711.016 193.033C710.54 192.499 710.025 192.004 709.51 191.527C709.51 191.508 709.51 191.508 709.491 191.508C709.014 190.974 708.499 190.478 707.984 190.02C707.984 190.001 707.984 190.001 707.965 190.001C706.421 188.323 704.628 186.874 702.626 185.73V35.8683C702.626 35.0865 702.245 34.6669 702.245 33.8851C702.245 32.6838 702.245 32.2833 701.844 31.5015C701.844 31.1011 701.463 30.3002 701.463 29.8997C701.062 28.6984 701.062 28.298 700.662 27.5161C700.281 27.1157 699.88 26.3148 699.88 25.9144C699.098 24.713 698.679 24.3126 698.278 23.9312C697.878 23.5308 697.496 22.7299 697.077 22.3294L695.475 20.7276C695.475 20.4798 695.17 20.2509 694.827 20.0793C694.617 19.8696 694.369 19.6217 694.045 19.2975L693.969 19.2212C693.969 18.9733 693.664 18.7445 693.32 18.5729C693.111 18.3631 692.863 18.1152 692.539 17.7911L692.462 17.7148C692.462 17.4669 692.157 17.2381 691.814 17.0664C691.604 16.8567 691.356 16.6088 691.032 16.2846L690.956 16.2083C690.956 15.9605 690.651 15.7316 690.308 15.56C690.098 15.3502 689.85 15.1024 689.526 14.7782L689.449 14.7019C689.449 14.454 689.144 14.2252 688.801 14.0536C688.591 13.8438 688.343 13.5959 688.019 13.2718L687.943 13.1955C687.943 12.9476 687.638 12.7188 687.295 12.5471C687.085 12.3374 686.837 12.0895 686.513 11.7653L686.437 11.689C686.437 11.4411 686.132 11.2123 685.788 11.0407C685.579 10.8309 685.331 10.5831 685.006 10.2589L684.93 10.1826C684.93 9.93471 684.625 9.70589 684.282 9.53427C684.072 9.32451 683.824 9.07662 683.5 8.75245L683.424 8.67617C683.424 8.42828 683.119 8.19945 682.775 8.02783C682.566 7.81808 682.318 7.57018 681.994 7.24601L681.917 7.16974C681.917 6.92184 681.612 6.69302 681.269 6.5214L680.392 5.64423C680.392 5.26286 679.61 4.86241 679.19 4.86241C679.19 4.46197 678.79 4.46197 678.79 4.46197C678.008 4.08059 677.589 3.68015 676.807 3.26063C676.406 2.86019 675.606 2.47881 674.824 1.65886C674.423 1.65886 673.622 1.27748 673.222 1.27748C672.44 0.877035 671.239 0.877035 670.838 0.476591C670.037 0.476591 669.637 0.476591 668.836 0.0952148H666.452C666.071 0.0952148 666.071 0.0952148 665.671 0.0952148C665.289 0.0952148 664.889 0.0952148 664.889 0.0952148H662.105C661.704 0.476591 660.903 0.476591 660.503 0.476591C659.302 0.877035 658.52 0.877035 658.119 1.27748C657.338 1.27748 656.918 1.65886 656.518 2.47881C655.335 2.47881 654.935 2.86019 654.134 3.26063C653.753 3.66108 652.933 4.06152 652.551 4.46197C652.151 4.86241 651.75 5.26286 650.549 5.6633C650.149 6.46419 649.767 6.86464 649.348 7.26508C648.947 7.66553 648.947 8.0469 648.566 8.0469L501.24 191.222C494.09 200.222 494.776 212.789 503.224 220.511C503.681 221.064 504.196 221.56 504.749 222.037C505.207 222.59 505.722 223.086 506.275 223.562C506.732 224.115 507.247 224.611 507.8 225.088C508.258 225.641 508.773 226.137 509.326 226.613C509.783 227.166 510.298 227.662 510.851 228.139C511.309 228.692 511.824 229.188 512.377 229.664C512.834 230.217 513.349 230.713 513.902 231.19C514.36 231.743 514.875 232.239 515.428 232.715C515.885 233.268 516.4 233.764 516.953 234.241C517.868 235.271 518.917 236.243 520.061 237.12C524.047 240.705 528.814 241.888 533.6 241.888H643.856V256.971C643.856 263.55 646.564 269.347 650.969 273.313C650.988 273.332 651.007 273.332 651.007 273.351C651.464 273.885 651.979 274.362 652.475 274.819L652.532 274.877C652.99 275.391 653.486 275.868 653.981 276.326C654.001 276.345 654.02 276.345 654.02 276.364C654.477 276.898 654.992 277.375 655.488 277.832L655.545 277.889C656.003 278.404 656.499 278.881 656.994 279.339C657.013 279.358 657.033 279.358 657.033 279.377C657.49 279.911 658.005 280.387 658.501 280.845L658.558 280.902C659.016 281.417 659.511 281.894 660.007 282.352C660.026 282.371 660.045 282.371 660.045 282.39C660.503 282.924 661.018 283.4 661.514 283.858L661.571 283.915C662.029 284.43 662.524 284.907 663.02 285.364C663.039 285.383 663.058 285.383 663.058 285.402C663.516 285.936 664.031 286.413 664.527 286.871L664.584 286.928C668.55 291.276 674.271 293.945 680.811 293.945C693.149 293.945 702.702 284.373 702.702 272.035V241.773H706.688C719.044 241.773 728.998 232.22 728.998 219.882C728.998 213.494 726.176 207.716 721.714 203.693ZM643.742 118.417V182.774H591.894L643.742 118.417Z" fill="black"/>
<path d="M713.803 204.665C713.803 217.003 703.85 226.556 691.512 226.556H687.527V256.818C687.527 269.156 677.973 278.709 665.636 278.709C653.298 278.709 643.726 269.156 643.726 256.818V226.556H519.092H518.692H518.291C513.505 226.556 508.738 225.355 504.752 221.77C494.798 214.2 493.597 200.661 501.167 191.107L648.493 7.95164C648.893 7.95164 648.893 7.5512 649.294 7.15075C649.694 6.75031 650.095 6.34986 650.495 5.54897C651.696 5.14853 652.097 4.74809 652.478 4.34764C652.879 3.9472 653.68 3.54675 654.08 3.14631C654.881 2.74586 655.281 2.34542 656.464 2.34542C656.864 1.54453 657.264 1.14408 658.065 1.14408C658.466 0.743638 659.267 0.743638 660.449 0.343194C660.849 0.343194 661.65 0.343194 662.051 -0.057251C662.852 -0.057251 664.034 -0.057251 664.835 -0.057251C664.835 -0.057251 665.235 -0.057251 665.636 -0.057251C666.036 -0.057251 666.036 -0.057251 666.417 -0.057251C667.218 -0.057251 668.401 -0.057251 668.801 -0.057251C669.602 0.343194 670.002 0.343194 670.803 0.343194C671.204 0.743638 672.405 0.743638 673.187 1.14408C673.587 1.14408 674.388 1.54453 674.789 1.54453C675.59 2.34542 676.371 2.74586 676.772 3.12724C677.573 3.52768 677.973 3.92813 678.755 4.32857C678.755 4.32857 679.155 4.32857 679.155 4.72902C679.556 4.72902 680.357 5.12946 680.357 5.52991C681.158 6.3308 681.558 6.73124 681.959 7.13168C682.359 7.53213 682.759 8.33302 683.16 8.7144C683.56 9.11484 683.961 9.51528 684.762 10.6976C684.762 11.098 685.162 11.8989 685.562 12.2993C685.963 13.1002 685.963 13.5007 686.363 14.6829C686.363 15.0834 686.745 15.8843 686.745 16.2656C687.145 17.0665 687.145 17.467 687.145 18.6492C687.145 19.4501 687.546 19.8506 687.546 20.6324C687.546 21.0328 687.546 21.4333 687.546 21.8337V182.698H691.531C703.849 182.755 713.803 192.709 713.803 204.665ZM643.745 84.4175L564.495 182.774H643.745V84.4175Z" fill="#FFC800"/>
</g>
<defs>
<clipPath id="clip0_377_4257">
<rect width="729" height="293.907" fill="white"/>
</clipPath>
</defs>
</svg>
