<svg width="441" height="161" viewBox="0 0 441 161" fill="none" xmlns="http://www.w3.org/2000/svg">
<path d="M440.773 128.239C440.545 124.913 440.317 121.587 440.122 118.262C439.927 114.773 439.699 111.251 439.504 107.763C439.374 105.382 439.179 102.839 439.114 100.361C439.049 98.3069 439.895 94.9159 438.789 93.0573C438.138 91.9487 436.707 91.6227 435.438 91.3944C433.78 91.101 432.121 90.8075 430.462 90.5141C432.706 89.9924 434.885 89.3403 437.032 88.5251C437.52 88.3295 438.008 88.1339 438.333 87.7426C438.626 87.3839 438.724 86.8948 438.789 86.471C439.537 81.9062 439.049 77.0805 439.049 72.4505C439.016 67.7552 439.016 63.0274 438.984 58.3322C438.951 53.8652 438.951 49.3656 438.919 44.8986C438.919 43.4313 439.537 40.2033 438.789 38.8991C438.203 37.8231 436.805 37.8883 435.731 37.7579C434.625 37.6275 433.519 37.6275 432.413 37.6927C430.755 37.7905 429.128 38.0513 427.502 38.3122C429.649 37.7253 431.86 37.4318 434.007 36.9101C435.406 36.5841 436.772 36.1276 438.073 35.4429C438.854 35.019 439.699 34.6603 440.155 33.8452C440.35 33.5191 440.415 33.0953 440.513 32.704C440.708 31.8888 440.74 31.0411 440.805 30.1933C440.935 27.8783 441.033 25.5633 441.066 23.2157C441.098 22.0419 441.098 20.8681 441.066 19.6943C441.066 18.9443 440.773 18.227 440.708 17.4445C440.415 14.2817 439.147 11.2494 437.13 8.80393C435.113 6.3911 432.348 4.63039 429.291 3.81524C428.152 3.52179 427.014 3.35876 425.843 3.29355C288.319 -1.04302 153.528 -1.20605 21.6635 3.35876C21.143 3.39137 20.5901 3.32616 20.0697 3.45658C19.5492 3.61961 19.0288 3.81524 18.4758 4.01088C17.4024 4.40215 16.3291 4.79342 15.2882 5.31511C13.2715 6.29329 11.385 7.59752 10.0839 9.42344C9.33577 10.4994 8.81534 11.7058 8.13227 12.7818C7.77448 13.3361 7.3191 13.76 7.02636 14.3469C5.6277 17.151 4.22904 19.9877 2.27743 22.4658C0.390865 24.8786 -0.162093 28.7261 0.0330687 31.6932C0.325811 35.7363 0.423392 39.8121 0.781188 43.8552C1.36667 50.2785 0.813715 56.7019 1.52931 63.1904C1.62689 64.1034 1.78952 65.1468 2.47259 65.7337C2.96049 66.1575 3.61103 66.3206 4.22904 66.451C6.24571 66.9075 8.29491 67.3314 10.3116 67.7878C7.807 69.4181 4.06641 69.5486 2.7328 72.2222C2.30995 73.1026 2.2449 74.0808 2.17985 75.0589C1.95216 78.5152 1.62689 81.9388 1.3992 85.3624C1.30162 86.8948 1.20404 88.4599 1.17151 89.9924C1.10646 91.4597 1.00888 92.8943 0.846242 94.3616C0.520972 97.7852 -0.357254 102.22 0.683607 105.578C1.69194 108.806 5.72528 108.936 8.49007 109.719C7.02636 109.882 5.92044 111.088 5.04221 112.295C4.61936 112.914 4.2941 113.534 3.90377 114.153C3.54598 114.708 3.22071 115.262 2.92796 115.849C2.34248 117.023 1.85458 118.229 1.49678 119.501C1.26909 120.348 1.13898 121.001 1.10646 121.881C1.07393 122.663 1.0414 123.446 1.00888 124.228C0.943822 125.794 0.911296 127.359 0.878769 128.924C0.813715 132.054 0.781188 135.184 0.813715 138.314C0.846242 141.347 0.130649 144.281 1.3992 147.248C2.66775 150.215 4.84705 152.759 7.57931 154.421C9.79114 155.791 12.2957 156.508 14.8979 156.639C147.51 162.475 282.334 162.41 419.24 156.606C422.851 156.443 426.331 155.008 428.998 152.53C430.267 151.357 431.405 150.313 432.348 148.813C433.519 147.02 434.593 145.161 435.601 143.27C438.073 138.673 441.163 133.554 440.773 128.239Z" fill="url(#paint0_linear_126_2052)"/>
<path d="M425.745 144.901C288.806 150.672 154.015 150.77 21.4024 144.933C15.515 144.933 10.018 140.694 7.80614 135.38C6.83033 132.999 6.63517 130.424 6.76528 127.88C6.79781 127.424 6.83033 127 6.96044 126.543C7.1556 125.859 7.48087 125.272 7.54593 124.555C7.57845 124.163 7.64351 123.837 7.67603 123.446C7.90372 121.424 7.96878 119.37 8.13141 117.349C8.22899 116.207 8.3591 115.034 8.68437 113.925C9.04216 112.653 9.62765 111.512 10.636 110.73C14.9946 107.436 23.5492 107.502 29.8919 107.371C31.1279 107.339 32.2664 107.306 33.3072 107.241C36.072 107.078 38.8368 107.013 41.6016 107.013C35.0312 106.98 28.4933 106.426 22.0204 105.285C18.9629 104.763 15.9053 104.111 12.8803 103.328C12.1647 103.165 11.3841 102.904 10.701 102.578C9.75776 102.154 8.94458 101.535 8.52173 100.622C8.16394 99.8393 8.19646 98.9264 8.19646 98.1112C8.22899 97.2961 8.09888 96.4483 8.16394 95.6332C8.22899 93.8725 8.45668 92.177 8.61931 90.4489C8.78195 89.0468 8.94458 87.6448 9.04216 86.2101C9.26985 82.4604 9.49754 78.7108 9.79028 74.9611C9.88786 73.8199 10.018 72.5809 10.7986 71.7983C11.2865 71.3092 11.9045 71.081 12.5225 70.8528C14.2139 70.2333 15.9379 69.7768 17.6943 69.4833C18.6051 69.3203 19.5158 69.3203 20.2965 69.1247C21.2398 68.8312 21.9553 68.6356 22.9637 68.5378C32.6242 67.3966 42.2847 66.2879 51.9777 65.1468C53.1161 65.0163 54.2871 64.8859 55.4581 64.7555C40.886 62.9948 26.2814 61.1688 11.7094 59.4081C11.0588 59.3103 10.4408 59.2451 9.79028 59.1799C9.2048 59.1147 8.58679 59.0169 8.19646 58.593C8.16394 58.5604 8.13141 58.5278 8.09888 58.4952C7.80614 58.1039 7.77361 57.6474 7.70856 57.1583C7.05802 49.2677 7.80614 41.1163 7.35076 33.1278C7.31824 32.6714 7.18813 30.4542 7.05802 27.9109C6.89539 24.2265 6.63517 20.0203 6.53759 20.0203C5.91958 11.2494 12.6201 3.68481 21.4024 3.39135C153.234 -1.20606 288.026 -1.04304 425.452 3.39135C434.267 3.68481 441.032 11.282 440.349 20.1181C440.121 23.1179 440.707 26.0198 439.959 29.0521C439.796 29.7695 439.568 30.4868 439.016 30.9759C438.528 31.3997 437.877 31.5628 437.259 31.6932C435.6 32.0845 433.941 32.5083 432.282 32.8996C430.071 33.4213 427.891 33.9104 425.647 34.1712C412.376 35.5733 399.17 37.0079 385.932 38.4426C385.574 38.4752 385.216 38.5078 384.858 38.5404C384.435 38.573 384.013 38.6382 383.59 38.6708C384.663 38.6382 385.704 38.6382 386.745 38.6382C403.333 38.3448 419.955 38.0839 436.576 37.7905C437.031 37.7905 437.552 37.7905 437.91 38.0839C438.332 38.41 438.43 38.9643 438.495 39.486C438.593 40.2033 438.593 40.888 438.593 41.5401C438.56 43.6595 438.202 45.6811 438.202 47.8331C438.202 49.7242 438.658 51.5827 438.658 53.5391C438.625 56.3432 438.528 59.1473 438.43 61.984C438.17 68.3747 437.714 74.8633 437.031 81.2866C436.934 82.2322 436.804 83.2104 436.186 83.8951C435.698 84.4168 434.982 84.7102 434.299 84.9385C433.876 85.1015 433.453 85.2319 432.998 85.3297C423.24 88.1338 412.571 85.9166 402.553 87.6448C401.902 87.7426 401.219 87.873 400.601 88.036C400.374 88.0686 400.146 88.1338 399.951 88.1991C400.764 88.2643 401.577 88.2969 402.39 88.3947C413.352 89.1772 424.281 90.2858 435.177 91.6879C436.446 91.8509 437.877 92.0791 438.625 93.1225C439.211 93.9051 439.211 94.9811 439.211 95.9592V99.1872C439.211 102.448 439.211 105.708 439.373 108.969C439.568 113.273 439.829 117.577 440.121 121.913C440.252 124.033 440.382 126.152 440.544 128.239C441.13 136.977 434.462 144.509 425.745 144.901Z" fill="url(#paint1_linear_126_2052)"/>
<path d="M438.659 53.5718C438.626 56.3759 438.529 59.18 438.431 62.0167C432.804 62.5384 427.307 62.9623 421.908 63.5818C420.639 63.7122 419.403 63.8426 418.134 64.0056C413.483 64.4947 408.832 64.9512 404.18 65.3425C401.871 65.5381 399.529 65.7337 397.187 65.9294C395.691 66.0598 394.357 66.6467 392.926 66.8097C390.909 67.038 388.698 66.5163 386.648 66.3859C384.371 66.2554 382.095 66.1902 379.818 66.2228C375.264 66.288 370.678 66.6141 366.156 67.1358C357.049 68.1792 348.071 69.9073 339.029 71.4072C324.554 73.82 310.015 75.6785 295.378 76.8849C303.347 77.6675 311.251 78.9717 319.025 80.765C316.097 80.9933 313.17 81.2215 310.243 81.3845C300.94 81.9714 291.637 82.2649 282.335 82.4279C273.032 82.591 263.697 82.591 254.394 82.5583C245.091 82.5583 235.756 82.5257 226.453 82.591C217.151 82.6888 207.848 82.8844 198.545 83.3083C193.894 83.5365 189.242 83.7974 184.624 84.156C183.453 84.2538 182.314 84.3517 181.143 84.4495C179.745 84.5799 178.378 84.9712 176.947 85.1342C165.856 86.4384 154.764 88.0687 143.802 90.2207C126.758 93.5791 109.617 96.8723 92.2797 98.0461C89.1571 98.2417 86.002 98.4374 82.8794 98.633C67.9496 101.633 51.8162 102.252 37.1791 104.046C32.2025 104.665 27.1283 104.991 22.0541 105.187C18.9966 104.665 15.939 104.013 12.914 103.23C12.1984 103.067 11.4178 102.807 10.7347 102.48C9.79146 102.057 8.97828 101.437 8.55543 100.524C8.19764 99.7416 8.23016 98.8286 8.23016 98.0135C8.26269 97.1984 8.13258 96.3506 8.19764 95.5355C8.26269 93.7747 8.49038 92.0792 8.65301 90.3511C22.0541 89.2425 35.813 85.3624 48.6936 83.4713C65.2499 81.0911 82.1313 79.689 98.8176 78.7435C117.716 77.7001 136.581 79.9499 155.414 79.9499C172.881 79.9499 190.283 78.4174 207.653 77.0154C241.513 74.2765 275.309 71.4398 309.104 68.5052C301.753 68.3748 294.402 68.1792 287.051 67.9183C277.683 67.5923 268.315 67.1684 258.948 66.6793C256.768 66.5815 254.524 66.288 252.377 66.5163C250.133 66.7771 247.856 66.8423 245.612 66.8097C241.155 66.7445 236.699 66.1902 232.373 65.1142C229.836 64.4947 227.299 63.6796 224.729 63.2231C220.371 62.4732 215.915 62.7014 211.458 62.6362C194.902 62.408 178.606 58.0388 162.05 58.2018C157.691 58.2344 153.365 58.5931 149.039 58.9843C144.453 59.4082 139.834 59.8321 135.215 59.9625C133.166 60.0277 131.052 60.1582 129.068 59.7017C127.539 59.343 125.782 59.506 124.221 59.4734C121.424 59.4082 118.627 59.343 115.829 59.2778C110.235 59.1474 104.64 59.0822 99.0128 59.0496C77.7727 58.9517 56.5977 60.1255 35.3576 59.9625C26.3151 59.8973 17.0775 59.7017 8.13258 58.3974C8.10006 58.3648 8.06753 58.3322 8.035 58.2996C7.74226 57.9084 7.70973 57.4519 7.64468 56.9628C6.99414 49.0722 7.74226 40.9207 7.28688 32.9323C7.25436 32.4758 7.12425 30.2586 6.99414 27.7154C17.8256 26.7698 28.7221 26.5416 39.5536 25.759C60.7611 24.194 81.9687 23.5092 103.274 23.607C145.461 23.8027 187.551 26.509 229.608 29.7043C271.698 32.8997 313.69 36.845 355.78 39.8447C377.053 41.3446 398.358 42.2902 419.663 42.2902C425.908 42.2902 432.219 41.8989 438.529 41.4424C438.496 43.5618 438.138 45.5834 438.138 47.7353C438.236 49.7895 438.691 51.648 438.659 53.5718ZM439.342 108.969C439.179 105.708 439.179 102.448 439.179 99.1873C425.746 97.72 412.28 96.2202 398.781 95.2746C375.622 93.6769 352.332 93.9378 329.141 94.8833C324.327 95.079 319.578 95.2094 314.796 95.7963C312.487 96.0898 310.178 96.3832 307.868 96.6441C298.598 97.7527 289.328 98.633 280.025 99.3503C276.415 99.6112 272.772 99.872 269.129 100.1C278.529 100.035 287.929 99.9698 297.329 99.9046C306.73 99.8394 316.13 99.7742 325.53 99.709C330.214 99.6764 334.931 99.6438 339.614 99.6112C341.956 99.5786 344.298 99.5786 346.673 99.546C347.649 99.546 348.689 99.6112 349.665 99.3829C350.251 99.2525 350.836 99.0243 351.422 98.9265C353.536 98.6004 355.878 99.0243 357.992 99.1547C360.334 99.2851 362.643 99.4156 364.985 99.546C369.637 99.8394 374.321 100.165 378.972 100.492C386.323 101.046 393.642 101.665 400.96 102.317C408.962 103.035 416.898 103.98 424.867 104.959C406.783 106.687 388.73 108.48 370.613 109.491C328.913 111.806 287.214 114.708 245.449 113.86C204.27 113.077 163.188 110.697 121.977 110.86C100.249 110.925 78.5534 111.284 56.8904 111.936C40.8872 112.393 24.6888 112.327 8.71807 113.958C8.3928 115.034 8.26269 116.24 8.16511 117.381C8.00247 119.403 7.93742 121.457 7.70973 123.479C25.502 124.196 43.4893 122.99 61.249 122.957C82.9445 122.924 104.64 123.12 126.335 123.642C167.449 124.62 208.531 126.902 249.612 127.62C291.442 128.37 333.174 125.37 374.906 123.25C396.439 122.174 418.102 122.142 439.635 121.914H440.09C439.797 117.577 439.537 113.306 439.342 108.969Z" fill="url(#paint2_linear_126_2052)"/>
<path d="M10.3118 97.7851C10.2793 99.4154 10.2793 101.078 10.7997 102.611C9.85645 102.187 9.04327 101.567 8.62042 100.654C8.26263 99.8719 8.29515 98.959 8.29515 98.1438C8.32768 97.3287 8.19757 96.4809 8.26263 95.6658C8.39273 92.503 8.97822 89.4055 9.14085 86.2427C9.36854 82.493 9.59623 78.7434 9.88897 74.9937C9.98655 73.8525 10.1167 72.6135 10.8973 71.8309C11.3852 71.3418 12.0032 71.1136 12.6212 70.8854C14.3126 70.2658 16.0366 69.8094 17.793 69.5159C18.6062 69.3203 19.5169 69.3203 20.2976 69.1246C21.2409 68.8312 21.9565 68.6356 22.9648 68.5377C32.6253 67.3965 42.2858 66.2879 51.9788 65.1467C41.6027 67.2661 31.2266 69.3203 20.818 71.4397C18.8013 71.8309 16.1016 71.8309 14.4102 73.1678C14.0524 73.4286 13.7597 73.7547 13.4669 74.0807C13.2067 74.3742 12.979 74.7002 12.6863 74.9937C12.1333 75.4828 11.9382 76.2653 11.678 76.95C10.9949 78.939 10.6046 81.0258 10.507 83.1125C10.4745 83.8951 10.4745 84.7102 10.3769 85.4928C10.3443 85.6884 10.3118 85.884 10.2793 86.0797C10.2468 86.3079 10.1167 86.4709 10.0516 86.6992C9.53118 88.2969 9.59623 90.0576 9.82392 91.6879C9.9215 92.2748 10.1167 92.8617 10.2468 93.4486C10.572 94.8506 10.3443 96.3505 10.3118 97.7851Z" fill="#EB924D"/>
<path d="M384.891 38.5732C384.306 38.5406 383.72 38.5079 383.135 38.4753H385.932C385.607 38.4753 385.249 38.5406 384.891 38.5732Z" fill="#EB924D"/>
<path d="M394.455 86.9275C397.155 87.1883 399.855 87.4492 402.554 87.6448C401.904 87.7426 401.221 87.8731 400.603 88.0361C398.521 87.6448 396.439 87.2535 394.455 86.9275Z" fill="#EB924D"/>
<path d="M434.202 82.9169C434.625 81.2214 434.528 79.4606 434.365 77.7325C434.137 74.5372 433.877 71.3092 433.649 68.1138C433.617 67.4943 433.519 66.8096 433.031 66.4183C432.641 66.0923 432.088 66.0923 431.6 66.1249C427.567 66.2553 423.566 66.3857 419.598 66.5161C423.924 66.1249 428.217 64.9837 432.121 63.0925C433.259 62.5382 434.43 61.8535 434.853 60.7123C435.081 60.1254 435.08 59.4733 435.08 58.8212C435.015 53.7673 434.137 48.1265 433.519 43.1052C431.633 41.3118 428.803 41.0836 426.201 40.9206C415.727 40.2685 405.221 39.6489 394.78 38.9968C392.275 38.8338 389.478 38.736 386.811 38.6056C403.399 38.3121 420.021 38.0513 436.642 37.7578C437.097 37.7578 437.618 37.7578 437.975 38.0513C438.398 38.3773 438.496 38.9316 438.561 39.4533C438.919 42.3226 438.236 44.9637 438.236 47.8004C438.236 49.6915 438.691 51.5501 438.691 53.5064C438.528 62.5708 438.04 72.0265 437.032 81.254C436.935 82.1995 436.804 83.1777 436.186 83.8624C435.699 84.3841 434.983 84.6776 434.3 84.9058C433.877 85.0688 433.454 85.1993 432.999 85.2971C433.552 84.645 433.975 83.7972 434.202 82.9169Z" fill="#EB924D"/>
<path d="M7.38329 33.0952C7.31824 32.0192 6.73275 20.0203 6.53759 20.0203C5.91958 11.2494 12.6201 3.68481 21.4024 3.39135C153.234 -1.20606 288.026 -1.04304 425.452 3.39135C434.267 3.68481 441.032 11.282 440.349 20.1181C440.121 23.1179 440.707 26.0198 439.959 29.0521C439.796 29.7695 439.568 30.4868 439.016 30.9759C438.528 31.3997 437.877 31.5628 437.259 31.6932C435.6 32.0845 433.974 32.5409 432.315 32.8996C433.746 31.5954 435.405 30.0629 436.056 28.1718C436.511 26.9001 436.153 25.7915 435.73 24.5851C435.08 22.694 434.95 20.9007 434.885 18.9117C434.787 16.4663 435.21 12.9775 433.291 11.0211C431.827 9.55385 429.908 8.28222 428.086 7.36926C423.565 5.15207 418.328 4.66298 413.352 4.46735C413.092 4.46735 412.864 4.43474 412.604 4.43474C403.431 4.14129 394.226 4.10868 385.053 5.05425C383.947 5.15207 382.972 5.47813 381.898 5.67376C380.565 5.93461 378.971 5.60855 377.605 5.54334C374.482 5.38031 371.392 5.24989 368.27 5.11946C362.057 4.89122 355.812 4.72819 349.567 4.63037C344.883 4.56516 340.231 4.56516 335.547 4.56516C334.084 4.56516 332.587 4.56516 331.124 4.56516C328.294 4.56516 325.464 4.56516 322.602 4.56516C318.666 4.56516 314.73 4.56516 310.794 4.53256C310.599 4.53256 310.404 4.53256 310.241 4.53256C303.996 4.53256 297.784 4.49995 291.538 4.49995C288.416 4.49995 285.293 4.49995 282.203 4.46735C280.772 4.46735 279.178 4.66298 277.78 4.40213C276.348 4.14129 275.21 3.26093 273.714 3.13051C272.348 3.00008 270.949 3.22833 269.615 3.35875C266.2 3.61959 262.817 3.94565 259.434 4.33692C257.906 4.49995 256.214 4.7608 255.206 5.902C254.848 6.29327 254.588 6.78236 254.165 7.10842C253.222 7.79314 251.888 7.33666 250.782 6.94539C248.603 6.19545 246.294 5.77158 243.952 5.67376C241.837 5.57594 239.756 5.96721 237.641 5.83679C236.308 5.77158 235.039 5.44552 233.738 5.18467C228.599 4.17389 223.232 4.10868 218.06 3.71741C214.222 3.42396 210.351 3.22833 206.481 3.0979C194.023 2.64142 181.532 2.90227 169.107 3.42396C162.862 3.68481 156.649 4.01086 150.404 4.40213C147.542 4.56516 144.387 5.18467 141.557 4.7934C140.744 4.69559 139.963 4.36953 139.15 4.2065C138.304 4.04347 137.458 4.07608 136.58 4.07608C133.132 4.10868 129.652 4.14129 126.204 4.14129C122.171 4.17389 118.105 4.14129 114.039 4.14129C112.673 4.14129 111.339 4.40213 110.006 4.40213C108.77 4.40213 107.566 4.14129 106.33 4.14129C103.761 4.17389 101.223 4.66298 98.849 5.64115C97.9382 6.03242 96.995 6.4563 95.9866 6.42369C94.1651 6.32588 92.9291 4.59777 91.2702 3.81523C87.367 1.9567 83.3336 5.51073 79.3328 4.07608C77.3487 3.35875 75.332 3.45657 73.2178 3.45657C70.5506 3.42396 67.8834 3.42396 65.2162 3.42396C56.1737 3.45657 47.1312 3.78262 38.1538 4.69559C33.665 5.15207 29.2089 5.77158 24.7527 6.55412C22.6059 6.94539 20.4266 7.5649 18.2473 7.82574C17.6293 7.89096 17.1414 7.89096 16.5559 8.31483C13.8887 10.1734 6.57012 20.5746 11.807 24.2265C12.1322 24.4547 12.49 24.6503 12.8803 24.8134C13.4333 25.0416 14.0188 25.1394 14.6043 25.3351C15.1898 25.5633 15.9379 25.4003 16.5559 25.4003C18.0521 25.4003 19.5484 25.4003 21.0121 25.3677C22.6059 25.3677 24.1997 25.3351 25.6959 25.7915C22.3131 26.5089 18.9303 27.1936 15.5475 27.8783C14.4416 28.1066 13.3357 28.3348 12.2949 28.7913C12.1322 28.8891 11.9371 28.9217 11.7419 28.9869C11.0263 29.2478 10.5059 30.1281 10.2457 30.8128C9.5626 32.6062 9.98544 34.5625 9.6927 36.421C9.17227 39.7468 9.82281 43.3335 10.1481 46.6267C10.5709 50.8654 11.0914 55.1368 11.7094 59.3755C11.0588 59.2777 10.4408 59.2125 9.79028 59.1473C9.17227 59.0821 8.52173 58.9843 8.09888 58.4952C7.80614 58.1039 7.77361 57.6474 7.70856 57.1583C7.05802 49.2025 7.80614 41.0511 7.38329 33.0952Z" fill="#EB924D"/>
<path d="M440.513 128.239C440.058 121.816 439.667 115.392 439.342 108.969C439.147 104.632 439.179 100.296 439.179 95.9593C439.179 94.9811 439.147 93.9378 438.594 93.1226C437.846 92.0792 436.415 91.851 435.146 91.688C424.249 90.2859 413.32 89.1773 402.359 88.3948C412.117 90.2859 422.2 92.6987 431.47 95.2746C433.292 95.7963 433.422 97.1983 434.17 98.9264C434.886 100.655 434.951 102.611 435.016 104.469C435.048 105.252 435.048 106.035 434.788 106.784C434.235 108.447 432.479 109.36 430.918 110.143C432.088 110.469 433.259 110.795 434.463 111.154C434.756 111.251 435.048 111.317 435.244 111.545C435.471 111.773 435.569 112.164 435.601 112.523C436.057 115.621 435.699 118.881 435.732 122.011C435.764 124.033 435.764 126.054 435.797 128.076C435.829 128.63 436.024 129.152 436.154 129.739C436.349 130.913 436.219 132.119 435.862 133.26C435.146 135.608 433.552 137.695 431.503 139.032C427.958 141.347 423.534 141.836 419.305 142.129C412.247 142.651 405.156 142.586 398.13 143.27C395.788 143.466 393.479 143.694 391.137 143.89C386.486 144.281 381.802 144.607 377.151 144.933C368.336 145.52 359.488 145.977 350.674 146.27C329.791 146.987 308.877 146.922 287.962 146.792C285.457 146.727 282.92 146.727 280.415 146.727C278.366 146.727 276.415 146.987 274.398 146.792C269.486 146.303 264.607 147.183 259.728 147.737C254.036 148.357 247.921 148.422 243.01 145.488C241.448 144.542 239.919 143.303 238.098 143.238C236.602 143.205 235.203 144.053 233.837 144.705C231.235 145.944 228.372 146.629 225.51 146.987C225.445 146.987 225.412 146.987 225.347 147.02C219.265 147.803 213.41 147.379 207.327 146.955C202.871 146.661 198.187 147.411 193.926 145.814C190.641 144.607 187.193 142.879 183.81 143.792C182.607 144.118 181.534 144.77 180.395 145.227C178.183 146.107 175.744 146.27 173.369 146.401C171.873 146.466 170.377 146.531 168.881 146.596C162.668 146.792 156.423 146.759 150.21 146.498C147.608 146.368 144.941 146.401 142.404 145.651C140.647 145.129 138.923 145.455 137.102 145.585C129.556 146.074 121.977 146.205 114.398 145.944C111.308 145.846 108.218 145.683 105.16 145.455C103.664 145.357 102.103 145.064 100.607 145.064C99.5658 145.064 98.6225 145.39 97.5816 145.39C91.3039 145.357 85.0588 145.259 78.7811 145.194C68.0797 145.096 57.3458 144.966 46.6445 144.868C39.3259 145.879 33.1783 144.607 25.9248 143.27C19.9724 142.162 13.4995 139.749 11.0275 134.206C9.98663 131.891 9.82399 129.315 9.92157 126.837C9.9541 126.087 10.0192 125.37 9.92157 124.62C9.82399 123.935 9.5963 123.316 9.49872 122.631C9.17345 120.381 9.85652 117.773 10.4095 115.588C10.7022 114.479 11.06 113.306 11.8732 112.458C12.5888 111.675 13.5971 111.219 14.6054 110.893C17.2727 110.045 20.1025 109.849 22.8998 109.686C26.9332 109.458 30.9665 109.197 34.9998 108.969C35.813 108.936 36.6262 108.871 37.4394 108.839C37.3418 108.447 37.2767 108.056 37.2767 107.632L37.3092 107.469C34.8372 107.404 32.3651 107.404 29.8931 107.371C23.5178 107.502 14.9958 107.469 10.6372 110.73C8.68555 112.197 8.32775 114.903 8.13259 117.316C7.93743 119.696 7.87238 122.142 7.54711 124.522C7.44953 125.239 7.15678 125.826 6.96162 126.511C6.83151 126.967 6.79899 127.391 6.76646 127.848C6.63635 130.424 6.83151 133 7.80732 135.347C9.98663 140.694 15.4837 144.901 21.4036 144.901C154.016 150.737 288.807 150.672 425.746 144.868C434.463 144.509 441.131 136.977 440.513 128.239Z" fill="#EB924D"/>
<path d="M30.998 80.8628C30.998 82.6235 31.0631 84.4168 31.1607 86.1775C31.1932 87.0579 31.2583 87.9383 31.3233 88.8186C31.3558 89.4707 31.3233 90.1881 31.4534 90.8076C31.5835 91.3293 31.7136 91.7857 31.7136 92.34C31.7787 93.8399 31.8437 95.3724 31.9413 96.8722C32.0714 99.9046 32.2341 102.904 32.3642 105.937C32.5593 109.817 32.722 113.664 32.9171 117.544C33.0147 119.696 33.3725 121.555 34.511 123.381C34.7386 123.739 34.9338 124.098 35.194 124.424C35.6169 124.978 36.1373 125.37 36.7878 125.663C39.1623 126.707 41.862 127.261 44.4317 127.652C48.4 128.272 52.4008 128.435 56.4016 128.565C109.128 130.424 161.919 132.315 214.678 131.011C221.118 130.847 227.786 130.684 233.771 133.097C231.039 128.206 224.436 127.489 218.841 127.359C160.228 126.022 101.581 124.522 43.1631 119.631C41.5693 119.501 39.8128 119.305 38.6744 118.131C37.8612 117.316 37.536 116.142 37.2757 115.034C34.2833 102.937 33.6978 90.2533 35.5193 77.9283C35.6169 77.1783 35.8446 76.3632 35.812 75.6133C35.7795 74.8307 35.6819 74.0482 35.6819 73.233C35.6494 71.6027 35.7145 69.9399 35.8771 68.3096C35.6494 67.9183 35.0964 67.9183 34.6736 67.9835C33.5677 68.1139 32.4618 68.2117 31.3233 68.3422C31.3884 69.4182 31.3233 70.4289 31.1932 71.5049C31.1607 71.8636 31.2257 72.1244 31.2583 72.4831C31.3233 73.2004 31.1932 73.9504 31.1607 74.6351C31.0956 75.6785 31.0631 76.7545 31.0306 77.7978C31.0306 78.8086 30.998 79.852 30.998 80.8628Z" fill="#EB924D"/>
<path d="M236.08 133.684C236.731 132.021 238.91 131.728 240.699 131.695C254.913 131.402 269.095 131.141 283.309 130.847C296.71 130.586 310.144 130.326 323.545 130.032C327.871 129.934 332.49 129.934 336.068 132.38C336.003 131.858 335.905 131.336 335.84 130.815C337.369 130.554 338.833 130.228 340.394 130.358C341.24 130.423 342.118 130.13 342.964 130.032C344.948 129.771 346.965 129.673 348.949 129.576C359.975 129.087 371.034 128.924 382.094 128.369C384.891 128.239 387.656 128.043 390.453 127.848C393.218 127.652 396.015 127.489 398.747 127.098C399.138 127.032 399.495 126.902 399.886 126.869C400.406 126.837 400.927 126.804 401.447 126.772C404.244 126.543 407.074 126.022 409.676 124.815C412.929 123.315 415.791 120.642 416.832 117.218C417.288 115.686 417.385 114.088 417.483 112.49C417.808 105.187 417.711 97.8502 417.158 90.5791C416.8 90.2204 415.889 90.8726 415.759 91.3943C414.425 96.709 413.417 102.089 412.766 107.502C412.376 110.729 412.051 114.153 410.067 116.696C407.887 119.468 404.244 120.576 400.797 121.359C382.484 125.598 363.553 126.022 344.785 126.413C327.286 126.772 309.786 127.163 292.319 127.521C277.747 127.032 262.817 129.347 248.343 127.782C244.277 127.326 240.179 126.609 236.113 127.195C235.82 127.228 235.495 127.293 235.267 127.521C235.104 127.685 235.072 127.913 235.007 128.141C234.519 129.836 235.3 131.988 236.08 133.684Z" fill="#EB924D"/>
<path d="M416.899 102.741C416.866 96.5462 416.801 90.3511 416.736 84.1234C416.704 78.1565 416.639 72.2223 416.606 66.2554C416.541 59.0822 416.834 51.8437 415.988 44.7356C415.826 43.3336 415.468 41.8989 415.5 40.4968C415.533 38.3775 415.11 36.7472 414.167 34.7256C412.963 31.9867 411.239 29.4761 409.288 27.1937C405.059 22.1724 398.977 21.9441 392.634 21.6833C385.966 21.3898 379.33 21.6507 372.695 21.6181C365.279 21.5855 357.83 21.5529 350.414 21.4877C341.371 21.4225 332.361 21.3246 323.319 21.2268C314.276 21.129 305.234 21.0312 296.192 20.9334C291.67 20.9008 287.149 20.8355 282.628 20.8029C281.685 20.8029 280.709 20.7051 279.798 20.9334C279.212 21.0638 278.692 21.292 278.107 21.3572C276.09 21.5529 273.78 21.0312 271.796 20.6399C272.057 15.9773 272.87 11.3473 274.236 6.84766C272.382 11.4777 270.268 16.0099 267.861 20.3791C267.698 20.6725 267.535 20.966 267.243 21.0964C266.95 21.2268 266.592 21.1942 266.299 21.1616C265.616 21.0638 264.901 20.9986 264.218 20.8355C262.656 20.4443 260.997 20.6073 259.371 20.6073C252.378 20.5421 245.417 20.5095 238.424 20.4769C224.697 20.4117 210.971 20.4443 197.277 20.5421C182.575 20.6399 167.873 20.4443 153.138 20.3791C149.137 20.3465 145.136 20.3139 141.168 20.3139C139.444 20.3139 137.785 20.2486 136.127 20.6073C134.403 20.9986 132.288 20.6725 130.532 20.5747C129.556 20.5095 128.515 20.4117 127.735 19.7922C126.954 19.2053 126.596 18.2597 126.238 17.3467C125.523 15.4556 124.807 13.5645 124.092 11.6733C124.189 13.8905 124.417 16.0751 124.775 18.2597C124.872 18.977 124.937 19.89 124.287 20.2486C124.092 20.3465 123.831 20.3791 123.604 20.4117C122.823 20.4769 122.01 20.6725 121.229 20.5095C119.733 20.216 118.237 20.3139 116.708 20.3139C99.9891 20.3139 83.3353 20.2486 66.6815 20.1834C57.3463 20.1508 34.9027 15.3904 31.8452 28.1066C31.4224 29.8674 31.4549 31.6933 31.3248 33.5192C30.9995 38.997 31.1947 44.5074 31.2922 50.0177C31.5525 68.1792 32.0729 86.3406 32.7885 104.469C32.8861 107.241 33.0162 110.045 33.374 112.817C33.6667 115.001 33.5041 117.87 35.228 119.566C35.8135 120.153 36.2363 120.707 36.7568 121.392C37.7976 122.729 39.2288 123.739 40.7901 124.457C44.1404 126.022 48.0111 126.446 51.7192 126.609C63.8192 127.196 75.8867 127.685 87.9541 128.043C100.119 128.435 112.252 128.793 124.417 129.022C136.582 129.25 148.714 129.413 160.88 129.478C171.906 129.543 182.933 129.576 193.959 129.609C199.587 129.609 205.214 129.609 210.841 129.609C216.923 129.609 224.274 127.717 229.869 130.619C232.666 132.054 235.008 134.369 236.342 137.238C236.114 134.923 236.179 132.576 236.537 130.261C240.961 129.641 245.384 129.25 249.841 129.185C251.76 129.152 253.614 129.445 255.533 129.413C257.777 129.413 260.054 129.38 262.298 129.38C271.341 129.315 280.383 129.25 289.426 129.152C295.021 129.087 300.615 129.022 306.242 128.956C318.407 128.826 330.54 128.533 342.705 128.076C344.884 127.978 347.096 127.913 349.275 127.815C366.027 127.163 382.778 126.185 399.497 124.848C400.928 124.718 402.294 124.587 403.628 124.326C405.775 123.903 407.791 123.153 409.548 121.653C411.695 119.827 413.776 117.87 415.208 115.458C417.517 111.578 416.931 107.143 416.899 102.741ZM407.824 111.154C406.946 112.621 405.319 114.088 403.986 115.197C403.66 115.458 403.173 115.784 401.904 116.012C400.961 116.208 399.855 116.305 398.749 116.403C382.713 117.675 365.929 118.653 348.885 119.37C346.706 119.468 344.559 119.533 342.38 119.599C329.629 120.055 317.789 120.348 306.145 120.479C271.569 120.903 237.513 121.131 204.856 121.131C190.219 121.131 175.582 121.098 160.912 121.001C148.877 120.903 136.614 120.772 124.579 120.544C112.544 120.316 100.314 119.99 88.2469 119.599C76.1794 119.207 64.0143 118.718 52.1095 118.131C49.4748 118.033 46.4823 117.773 44.3681 116.794C43.8476 116.534 43.5874 116.338 43.5224 116.273C43.132 115.751 42.6441 115.132 42.0912 114.479C42.0587 114.153 42.0261 113.795 41.9936 113.501C41.9285 112.914 41.896 112.36 41.831 111.806C41.5382 109.458 41.4406 107.045 41.3105 104.143C40.5624 86.2102 40.042 67.9509 39.8143 49.9199L39.7818 46.855C39.6842 42.388 39.6191 38.1818 39.8794 34.0409C39.9119 33.5844 39.9119 33.0953 39.9444 32.5736C39.9769 31.5629 40.0095 30.6499 40.1396 30.1282C40.4323 29.0196 43.5549 27.8784 50.0278 27.8784C53.2154 27.8784 56.6307 28.1392 59.6232 28.3675C62.1928 28.5957 64.6323 28.7588 66.7141 28.7588C81.5789 28.824 96.4762 28.8566 111.374 28.8566H119.733C130.857 28.8566 141.981 28.8892 153.138 28.9544L163.872 29.0196C171.711 29.0848 179.582 29.1174 187.421 29.1174C190.707 29.1174 194.024 29.1174 197.375 29.0848C205.669 29.0196 213.931 28.987 222.225 28.987C250.296 28.987 278.92 29.3131 306.568 29.6065C328.263 29.8347 350.739 30.063 372.727 30.1608L373.801 30.1934C375.752 30.1934 377.639 30.1608 379.591 30.1608C381.477 30.1282 383.364 30.1282 385.218 30.1282C387.95 30.1282 390.227 30.1608 392.276 30.2586H392.504C398.456 30.5521 401.221 30.8455 402.847 32.7693C404.506 34.7256 405.645 36.5189 406.425 38.247C407.011 39.5839 407.011 39.9425 407.011 40.4642C406.978 42.1597 407.238 43.627 407.401 44.8008C407.434 45.1269 407.499 45.5181 407.564 45.8442C408.149 50.8003 408.117 55.8868 408.117 61.2993C408.084 62.9949 408.084 64.6904 408.117 66.3859L408.409 102.774C408.442 103.589 408.442 104.339 408.474 105.089C408.507 107.665 408.572 109.947 407.824 111.154Z" fill="url(#paint3_linear_126_2052)"/>
<path d="M31.1615 69.353L41.1147 67.364L40.6919 66.4185L30.3809 67.6575L31.1615 69.353Z" fill="#EB924D"/>
<path d="M405.742 39.5839L417.289 40.5621V37.9536L404.799 38.5079L405.742 39.5839Z" fill="#EB924D"/>
<path d="M406.555 89.4382L419.338 91.8836L419.078 89.8295L405.352 88.623L406.555 89.4382Z" fill="#EB924D"/>
<path d="M369.181 78.4825C359.456 73.0373 343.29 74.7002 335.581 82.0365C330.734 86.6665 330.474 95.3071 335.581 99.9045C346.803 110.045 366.514 105.708 373.637 93.1877C373.767 93.0573 373.897 92.9268 374.06 92.829C379.492 87.9056 375.621 79.7215 369.181 78.4825Z" fill="#EB924D"/>
<path d="M371.49 73.6895C361.764 68.2443 345.598 69.9072 337.889 77.2435C333.043 81.8736 332.783 90.5141 337.889 95.1115C349.111 105.252 368.822 100.915 375.946 88.3947C376.076 88.2643 376.206 88.1339 376.369 88.0361C381.801 83.1126 377.93 74.9285 371.49 73.6895Z" fill="url(#paint4_linear_126_2052)"/>
<path d="M369.181 76.7869C359.456 71.3418 343.29 73.0046 335.581 80.341C330.734 84.971 330.474 93.6115 335.581 98.2089C346.803 108.349 366.514 104.013 373.637 91.4921C373.767 91.3617 373.897 91.2313 374.06 91.1335C379.492 86.21 375.621 78.0259 369.181 76.7869Z" fill="url(#paint5_linear_126_2052)"/>
<path d="M332.198 58.3974C326.05 54.9412 315.869 56.0172 311.023 60.6472C307.965 63.5491 307.802 69.0269 311.023 71.9288C318.113 78.3196 330.539 75.5807 335.027 67.6901C335.125 67.6249 335.19 67.5271 335.288 67.4618C338.703 64.3317 336.263 59.18 332.198 58.3974Z" fill="#EB924D"/>
<path d="M333.66 55.3977C327.513 51.9415 317.332 53.0174 312.485 57.6475C309.428 60.5494 309.265 66.0272 312.485 68.9291C319.576 75.3198 332.002 72.5809 336.49 64.6903C336.588 64.6251 336.653 64.5273 336.75 64.4621C340.166 61.2993 337.726 56.1476 333.66 55.3977Z" fill="url(#paint6_linear_126_2052)"/>
<path d="M332.198 57.3215C326.05 53.8653 315.869 54.9413 311.023 59.5713C307.965 62.5058 307.802 67.951 311.023 70.8529C318.113 77.2436 330.539 74.5048 335.027 66.6142C335.125 66.5489 335.19 66.4511 335.288 66.3859C338.703 63.2558 336.263 58.104 332.198 57.3215Z" fill="url(#paint7_linear_126_2052)"/>
<path d="M81.8714 91.4597C75.7238 88.0035 65.5428 89.0795 60.6963 93.7095C57.6388 96.6114 57.4762 102.089 60.6963 104.991C67.7872 111.382 80.2125 108.643 84.7012 100.752C84.7988 100.687 84.8638 100.589 84.9614 100.524C88.3767 97.3939 85.9372 92.2422 81.8714 91.4597Z" fill="#EB924D"/>
<path d="M83.3342 88.4272C77.1867 84.971 67.0057 86.047 62.1592 90.677C59.1017 93.6115 58.9391 99.0567 62.1592 101.959C69.2501 108.349 81.6754 105.61 86.1641 97.7199C86.2617 97.6547 86.3267 97.5568 86.4243 97.4916C89.8396 94.3615 87.4001 89.2098 83.3342 88.4272Z" fill="url(#paint8_linear_126_2052)"/>
<path d="M81.8714 90.3838C75.7238 86.9275 65.5428 88.0035 60.6963 92.6336C57.6388 95.5681 57.4762 101.013 60.6963 103.915C67.7872 110.306 80.2125 107.567 84.7012 99.6764C84.7988 99.6112 84.8638 99.5134 84.9614 99.4482C88.3767 96.318 85.9372 91.1663 81.8714 90.3838Z" fill="url(#paint9_linear_126_2052)"/>
<path d="M409.384 78.1565C409.351 89.3077 408.7 100.622 407.497 111.969C407.172 115.001 404.602 117.316 401.479 117.512C283.667 125.044 165.367 126.217 47.5865 118.588C44.3989 118.359 41.8618 115.947 41.6016 112.882C39.715 90.6445 37.7309 67.0053 38.6742 44.6377C38.8043 41.0511 38.9994 37.497 39.3247 34.0082C39.5849 30.8781 42.3172 28.4652 45.5699 28.3674C171.319 24.846 289.684 24.9438 400.569 30.9107C403.626 31.0737 406.163 33.2909 406.586 36.2254C408.505 49.659 409.416 63.7773 409.384 78.1565Z" fill="url(#paint10_linear_126_2052)"/>
<path d="M407.205 77.4393C406.749 78.7109 406.326 79.9825 405.936 81.2868C404.732 85.3299 403.822 89.4382 403.236 93.5792C402.944 95.6333 402.618 97.7201 402.618 99.8069C402.618 100.459 402.781 101.078 402.813 101.698C402.846 102.057 402.781 102.383 402.716 102.741C402.618 103.1 402.488 103.459 402.391 103.817C402.26 104.241 401.252 106.295 401.447 106.621C397.609 99.9047 398.032 91.7858 397.674 84.1235C397.316 76.4285 395.56 67.951 389.055 63.484C384.728 60.5169 379.166 60.0278 373.897 59.6039C267.892 51.5177 160.813 47.931 54.4826 48.6484C53.7345 50.6373 53.0514 52.6263 52.4334 54.6152C51.4576 57.6476 50.6119 60.7125 49.8638 63.8101C49.4734 65.3751 49.1482 66.9076 48.8229 68.4727C48.5302 69.8747 48.0423 71.4398 48.0748 72.9071C48.0748 73.3636 48.1724 73.7874 48.1398 74.2439C48.0748 74.9939 47.782 75.7112 47.6194 76.4285C47.2616 77.9936 46.9363 79.5587 46.7087 81.1237C46.481 82.6888 46.3183 84.2865 46.2208 85.8842C46.1232 87.4167 45.9931 89.047 46.1557 90.5794C45.8955 88.134 45.6353 85.6886 45.3751 83.2431C44.6595 76.6567 43.9764 70.0378 43.2608 63.4514C42.903 60.1582 42.5452 56.865 42.1874 53.5718C42.0573 52.3328 42.0898 50.8982 41.4718 49.757C41.2767 49.3983 40.9839 49.0722 40.7562 48.7136C39.9105 47.4419 39.325 46.0073 38.707 44.6052C38.8371 41.0186 39.0323 37.4646 39.3576 33.9757C39.6178 30.8456 42.35 28.4328 45.6027 28.3349C171.352 24.8135 289.717 24.9113 400.602 30.8782C403.659 31.0412 406.196 33.2584 406.619 36.1929C407.432 41.899 408.05 47.6376 408.506 53.4088C408.668 55.5608 408.831 57.7128 408.928 59.8648C409.026 61.8537 409.319 63.9079 409.124 65.8968C408.961 67.5923 409.481 69.19 409.221 70.8855C408.928 72.8419 408.213 74.733 407.53 76.5589C407.4 76.885 407.302 77.1784 407.205 77.4393Z" fill="#FFDF80"/>
<path d="M401.121 111.317C366.545 113.534 332.229 115.164 298.434 116.175C274.169 116.925 250.196 117.349 226.614 117.479C225.996 117.512 225.378 117.512 224.793 117.479C220.369 117.544 215.945 117.544 211.554 117.544C155.998 117.544 100.963 115.784 48.0414 112.36C46.0572 89.112 43.8779 62.9621 45.4067 39.1599C45.4717 37.5948 45.6018 36.0623 45.7319 34.5299C102.426 32.9974 154.079 32.2148 203.683 32.2148C227.427 32.2148 250.424 32.4105 272.802 32.7365C273.16 32.7691 273.518 32.7691 273.876 32.7691C275.892 32.8017 277.909 32.8344 279.926 32.867C300.645 33.2256 320.845 33.7799 340.556 34.4972C360.853 35.182 380.694 36.0623 400.243 37.1057C401.284 44.1486 401.967 51.4197 402.422 58.8538C403.463 75.874 403.008 93.6768 401.121 111.317Z" fill="url(#paint11_linear_126_2052)"/>
<path d="M402.391 58.8541C402.554 61.7234 402.033 64.7883 401.773 67.625C400.537 82.1998 366.709 80.4065 356.984 80.9934C269.811 86.3734 181.176 82.2324 94.0359 78.2545C81.3505 77.6676 68.6649 76.9177 55.9794 76.2656C46.6117 75.8091 47.3598 67.9837 46.8069 60.8756C46.2214 53.6371 45.7335 46.366 45.4082 39.0949C45.4733 37.5299 45.6034 35.9974 45.7335 34.4649C102.428 32.9324 154.081 32.1499 203.684 32.1499C274.853 32.1499 339.126 33.7802 400.212 37.0408C401.22 44.1814 401.936 51.4525 402.391 58.8541Z" fill="url(#paint12_linear_126_2052)"/>
<defs>
<linearGradient id="paint0_linear_126_2052" x1="338.218" y1="-238.135" x2="261.181" y2="-31.3171" gradientUnits="userSpaceOnUse">
<stop stop-color="#CF5C2B"/>
<stop offset="1" stop-color="#59173E"/>
</linearGradient>
<linearGradient id="paint1_linear_126_2052" x1="250.999" y1="-71.1419" x2="180.733" y2="298.56" gradientUnits="userSpaceOnUse">
<stop stop-color="#CF5C2B"/>
<stop offset="1" stop-color="#59173E"/>
</linearGradient>
<linearGradient id="paint2_linear_126_2052" x1="249.866" y1="-59.6483" x2="159.764" y2="399.383" gradientUnits="userSpaceOnUse">
<stop stop-color="#CF5C2B"/>
<stop offset="1" stop-color="#59173E"/>
</linearGradient>
<linearGradient id="paint3_linear_126_2052" x1="231.971" y1="202.62" x2="225.993" y2="101.61" gradientUnits="userSpaceOnUse">
<stop stop-color="#CF5C2B"/>
<stop offset="1" stop-color="#59173E"/>
</linearGradient>
<linearGradient id="paint4_linear_126_2052" x1="373.62" y1="38.0846" x2="349.017" y2="103.698" gradientUnits="userSpaceOnUse">
<stop stop-color="#CF5C2B"/>
<stop offset="1" stop-color="#59173E"/>
</linearGradient>
<linearGradient id="paint5_linear_126_2052" x1="455.793" y1="-149.357" x2="243.518" y2="342.019" gradientUnits="userSpaceOnUse">
<stop stop-color="#CF5C2B"/>
<stop offset="1" stop-color="#59173E"/>
</linearGradient>
<linearGradient id="paint6_linear_126_2052" x1="335.008" y1="32.9189" x2="319.489" y2="74.3039" gradientUnits="userSpaceOnUse">
<stop stop-color="#CF5C2B"/>
<stop offset="1" stop-color="#59173E"/>
</linearGradient>
<linearGradient id="paint7_linear_126_2052" x1="386.838" y1="-85.3087" x2="252.947" y2="224.624" gradientUnits="userSpaceOnUse">
<stop stop-color="#CF5C2B"/>
<stop offset="1" stop-color="#59173E"/>
</linearGradient>
<linearGradient id="paint8_linear_126_2052" x1="84.6714" y1="65.9664" x2="69.1531" y2="107.351" gradientUnits="userSpaceOnUse">
<stop stop-color="#CF5C2B"/>
<stop offset="1" stop-color="#59173E"/>
</linearGradient>
<linearGradient id="paint9_linear_126_2052" x1="136.502" y1="-52.2618" x2="2.61048" y2="257.672" gradientUnits="userSpaceOnUse">
<stop stop-color="#CF5C2B"/>
<stop offset="1" stop-color="#59173E"/>
</linearGradient>
<linearGradient id="paint10_linear_126_2052" x1="223.922" y1="23.2411" x2="223.922" y2="68.886" gradientUnits="userSpaceOnUse">
<stop stop-color="#FFCA2B"/>
<stop offset="1" stop-color="#D15B24"/>
</linearGradient>
<linearGradient id="paint11_linear_126_2052" x1="223.917" y1="146.913" x2="223.917" y2="77.6999" gradientUnits="userSpaceOnUse">
<stop stop-color="#FFCE3B"/>
<stop offset="1" stop-color="#CC6923"/>
</linearGradient>
<linearGradient id="paint12_linear_126_2052" x1="223.915" y1="138.414" x2="223.915" y2="45.4606" gradientUnits="userSpaceOnUse">
<stop stop-color="#FFCE3B"/>
<stop offset="1" stop-color="#CC6923"/>
</linearGradient>
</defs>
</svg>
