<svg width="198" height="170" viewBox="0 0 198 170" fill="none" xmlns="http://www.w3.org/2000/svg">
<g clip-path="url(#clip0_67_5105)">
<path d="M172.965 82.3687C177.48 93.9946 180.784 102.192 182.487 101.484C184.19 100.775 176.786 84.0638 176.786 84.0638C176.786 84.0638 187.961 101.699 189.285 101.016C190.609 100.333 179.208 85.2657 179.208 85.2657C179.208 85.2657 191.58 97.5242 192.602 95.5001C193.636 93.476 180.444 83.4187 180.444 83.4187L172.965 82.3687Z" fill="#888C2F"/>
<path d="M118.051 15.7755C128.431 15.4972 134.068 19.0647 140.248 24.1755C128.481 26.2629 122.768 23.6442 118.051 15.7755Z" fill="#D3BBA1"/>
<path d="M184.732 11.7525C180.86 19.5073 173.469 20.9748 166.003 23.467C170.076 11.4362 177.581 9.67774 184.732 11.7525Z" fill="#D3BBA1"/>
<path d="M121.103 18.4447C128.746 18.7863 132.744 21.0128 137.083 24.1375C128.355 24.7194 124.269 23.0116 121.103 18.4447Z" fill="#A38567"/>
<path d="M181.554 14.814C176.496 19.5074 172.586 20.6966 167.907 21.5695C173.066 15.611 176.723 14.0423 181.554 14.814Z" fill="#A38567"/>
<path d="M141.686 17.7489C133.703 13.3971 138.281 0.619873 138.281 0.619873C133.387 1.16385 129.414 20.8357 141.686 25.4405V17.7489Z" fill="#B78862"/>
<path d="M139.757 19.229C131.559 9.98138 138.268 0.619873 138.268 0.619873C133.375 1.16385 129.061 20.6965 141.674 25.4405L139.757 19.229Z" fill="#EFBA95"/>
<path d="M136.061 20.8104C134.749 20.2285 134.169 19.4948 135.065 18.3309C135.96 17.167 138.798 15.4339 140.639 16.117C142.481 16.8002 142.216 18.6472 142.216 18.6472L136.061 20.8104Z" fill="#B78862"/>
<path d="M161.248 17.0531C166.595 9.70308 157.01 0.113856 157.01 0.113856C161.664 -1.49278 173.62 14.5989 164.527 24.011L161.248 17.0531Z" fill="#EFBA95"/>
<path d="M165.006 16.8002C168.449 4.93384 157.01 0.113925 157.01 0.113925C161.664 -1.49271 173.873 14.3207 164.527 24.0111L165.006 16.8002Z" fill="#B78862"/>
<path d="M167.617 17.4074C168.55 16.3194 168.765 15.4086 167.466 14.7381C166.167 14.0676 162.862 13.7134 161.5 15.1176C160.138 16.5218 161.16 18.0778 161.16 18.0778L167.617 17.4074Z" fill="#B78862"/>
<path d="M138.634 170L136.162 123.117L150.187 110.352L143.591 170H138.634Z" fill="#B28E74"/>
<path d="M51.2437 149.164L61.9136 102.015L81.8915 127.279L58.5083 153.326L59.1894 168.963H54.1949L51.2437 149.164Z" fill="#B28E74"/>
<path d="M68.5603 153.301C66.3027 156.299 60.1227 155.945 62.5568 158.969C65.9117 163.143 69.5945 153.832 69.5945 153.832L68.5603 153.301Z" fill="#FF9E88"/>
<path d="M79.1546 153.984C81.0969 156.793 87.0373 157.134 84.4896 159.487C80.9834 162.726 78.133 154.351 78.133 154.351L79.1546 153.984Z" fill="#FF9E88"/>
<path d="M74.0719 153.782C74.1854 157.59 76.5565 162.055 73.9583 162.119C69.6954 162.233 73.9079 157.653 72.9115 153.39C72.8106 152.922 74.0719 153.782 74.0719 153.782Z" fill="#FF9E88"/>
<path d="M56.957 136.665C54.876 150.999 78.7762 168.71 92.8011 142.915L56.957 136.665Z" fill="#E2765D"/>
<path d="M59.7065 143.067C61.9767 154.212 77.0988 164.206 87.6427 148.064C80.0879 149.847 66.4288 147.203 59.7065 143.067Z" fill="#FF9E88"/>
<path d="M33.0694 57.9908C25.3128 66.7577 18.2121 143.788 87.5544 144.572C156.897 145.356 167.592 85.6072 167.592 64.5059C167.592 43.4045 139.151 30.9056 127.863 43.4045C116.563 55.9034 97.4298 62.2794 75.661 52.26C61.51 45.7449 62.9352 50.6913 57.739 51.2227C55.1408 51.4883 52.8076 49.1353 49.6923 49.9196C46.5771 50.704 45.7951 53.563 42.9448 54.3474C38.253 55.6251 38.1269 52.26 33.0694 57.9908Z" fill="#E5CBB1"/>
<path d="M55.1787 52.222C37.7737 57.0799 14.0627 78.4848 45.0889 109.783C76.115 141.08 124.445 131.162 144.511 95.0193C154.626 76.7896 135.91 51.8678 111.089 56.0172C71.9908 62.5576 72.5836 47.3641 55.1787 52.222Z" fill="#EFD5BD"/>
<path d="M59.3534 56.0679C43.8529 60.3944 21.567 76.4861 49.2005 104.356C76.834 132.225 121.217 121.32 139.088 89.1368C148.106 72.906 134.737 53.095 116.941 58.2944C86.9868 67.0234 74.8538 51.7414 59.3534 56.0679Z" fill="#F9E4CD"/>
<path d="M87.5544 135.059C41.9989 134.54 29.538 100.775 28.529 75.1831C26.4353 100.801 35.2892 144.813 87.34 145.394C156.682 146.179 167.579 85.6073 167.579 64.5186C167.579 63.5824 167.504 62.6716 167.39 61.7607C164.968 86.9862 149.821 135.755 87.5544 135.059Z" fill="#D1B399"/>
<path d="M28.3902 149.164L39.88 105.886C47.8509 116.083 54.3336 121.257 63.4397 127.291L36.7017 153.326L37.4836 168.95H31.7703L28.3902 149.164Z" fill="#E5CBB1"/>
<path d="M120.17 170L117.471 123.117L134.081 111.136L125.58 170H120.17Z" fill="#E5CBB1"/>
<path d="M15.8537 16.8381C25.0102 12.929 44.0925 8.24828 47.3465 53.5631L52.2779 51.6149C46.2366 34.6123 45.0763 3.69403 15.3365 15.0164L15.8537 16.8381Z" fill="#E5CBB1"/>
<path d="M135.922 59.939C142.506 68.2125 159.495 89.9591 161.021 98.5236C161.021 98.5236 168.639 79.2313 168.185 65.948L135.922 59.939Z" fill="#B28E74"/>
<path d="M121.62 51.7413C133.047 40.7985 133.362 19.5832 136.944 17.8754C141.875 15.535 143.414 20.2537 152.003 19.6971C160.05 19.1784 161.878 14.991 166.028 15.788C172.775 17.0911 168.538 40.1406 194.078 67.8836C197.193 71.274 181.327 89.3898 150.906 70.9451C128.569 57.4088 121.62 51.7413 121.62 51.7413Z" fill="#E5CBB1"/>
<path d="M137.625 29.1852C132.189 35.3081 133.11 60.1288 174.516 76.1446C174.516 76.1446 192.123 76.2837 195.805 68.5541C182.714 55.9035 174.995 33.0563 171.691 27.4394C167.592 20.4942 147.463 18.1032 137.625 29.1852Z" fill="#F9E4CD"/>
<path d="M159.28 75.7017C159.154 70.0848 177.455 81.6981 175.121 87.4289C172.775 93.1597 159.533 87.1632 159.28 75.7017Z" fill="#E5CBB1"/>
<path d="M160.138 76.3596C160.037 71.9445 173.848 81.0657 172.082 85.5693C170.316 90.073 160.34 85.3669 160.138 76.3596Z" fill="#F9E4CD"/>
<path d="M168.336 78.6114C162.105 71.0589 146.845 67.4029 148.156 65.5179C149.405 63.7215 164.678 72.2987 164.678 72.2987C164.678 72.2987 149.455 62.545 151.915 61.0902C154.185 59.7492 163.594 70.1607 163.594 70.1607C163.594 70.1607 158.978 62.7601 160.39 61.8745C161.223 61.3432 164.666 70.6035 168.676 73.5764L168.336 78.6114Z" fill="#9BA538"/>
<path d="M168.361 63.7216C172.687 60.5589 177.972 67.365 183.42 68.9337C187.179 70.009 193.813 65.0246 197.18 68.1493C200.56 71.274 193.018 90.035 180.822 87.429C168.626 84.8229 159.797 69.971 168.361 63.7216Z" fill="#AA7248"/>
<path d="M20.0787 15.1935C22.6264 19.2923 20.9868 25.6935 0.201782 24.2007C0.201782 24.2007 12.1456 2.42891 20.0787 15.1935Z" fill="#A06C45"/>
<path d="M14.7185 17.6477C15.6392 23.429 12.7258 25.3393 0 24.2893C0 24.2893 12.8267 5.73072 14.7185 17.6477Z" fill="#CC885A"/>
<path d="M140.16 35.4599C144.007 36.8641 147.803 37.2436 149.846 33.9165L151.826 36.2316C146.34 39.837 142.304 38.5467 139.82 36.4719C140.021 36.0671 140.047 35.7635 140.16 35.4599Z" fill="#A38567"/>
<path d="M172.057 35.4852C168.248 36.4593 164.603 36.4214 163.089 32.8918L160.933 34.9792C165.675 39.1539 169.648 38.319 172.258 36.5352C172.12 36.1051 172.132 35.8015 172.057 35.4852Z" fill="#A38567"/>
<path d="M119.842 164.396L120.17 170H125.58L126.388 164.396H119.842Z" fill="#89715B"/>
<path d="M138.344 164.396L138.634 170H143.591L144.209 164.396H138.344Z" fill="#89715B"/>
<path d="M53.4003 163.649L54.1949 168.963H59.1894L58.9623 163.649H53.4003Z" fill="#89715B"/>
<path d="M30.8622 163.649L31.7703 168.963H37.4837L37.2188 163.649H30.8622Z" fill="#89715B"/>
<path d="M167.958 68.3517C169.849 64.974 171.792 63.6077 180.154 69.9331C188.516 76.2584 193.132 82.0018 183.206 85.6452C177.757 87.6314 163.379 76.5114 167.958 68.3517Z" fill="#C98353"/>
<path d="M195.389 74.1458C194.443 69.3005 190.937 68.8198 181.024 72.3114C171.111 75.803 175.109 82.7862 180.255 85.4302C186.51 88.6434 196.184 78.2193 195.389 74.1458Z" fill="#C98353"/>
<path d="M174.781 78.7885C170.467 77.7385 170.152 69.4017 171.729 68.7692C176.458 66.8716 180.948 80.294 174.781 78.7885Z" fill="#7F4E2D"/>
<path d="M183.521 79.3957C183.786 75.6132 190.71 74.1457 191.479 75.3855C193.737 79.0921 183.143 84.8102 183.521 79.3957Z" fill="#7F4E2D"/>
<path opacity="0.8" d="M53.0724 82.3687C53.7031 79.206 53.4886 69.718 45.2907 68.0354C45.2907 68.0354 57.9029 65.5053 58.3191 59.395C58.584 55.486 56.9444 52.1841 52.0635 49.8691C51.3067 49.7299 50.5248 49.7172 49.6797 49.9197C46.5645 50.704 45.7826 53.5631 42.9322 54.3474C38.253 55.6251 38.1269 52.26 33.0694 57.9908C29.6641 61.8366 26.3975 78.8138 29.6388 96.7272C45.3916 97.8025 52.4544 85.5187 53.0724 82.3687Z" fill="#9E7E67"/>
<path opacity="0.8" d="M38.7827 17.42C40.6746 21.9616 44.988 31.2346 46.5645 31.8545C44.7231 26.2376 42.3772 21.0128 38.7827 17.42Z" fill="#9E7E67"/>
<path opacity="0.8" d="M70.9188 120.991C56.8057 112.692 64.1208 99.2953 69.8089 96.6513C77.4267 93.1091 90.3417 100.181 90.3417 100.181C90.3417 100.181 91.5146 83.3301 106.725 87.0747C125.202 91.6163 110.458 124.027 105.224 126.178C99.2207 128.645 83.1779 128.202 70.9188 120.991Z" fill="#9E7E67"/>
<path opacity="0.8" d="M114.519 67.8456C124.004 65.3534 124.824 54.3473 124.824 54.3473C124.824 54.3473 132.303 55.3467 133.047 47.2503C133.45 42.8731 131.357 40.7858 129.339 39.7864C128.759 41.1653 128.128 42.5442 127.409 43.8726C121.216 50.5268 112.766 55.3467 102.878 56.7636C101.97 60.6347 105.754 70.1607 114.519 67.8456Z" fill="#9E7E67"/>
<path opacity="0.8" d="M172.006 52.9051C175.676 59.6859 182.298 61.457 189.562 61.3052C184.391 54.2841 180.318 46.0991 177.24 39.4069C173.229 42.0382 168.613 46.6684 172.006 52.9051Z" fill="#9E7E67"/>
<mask id="mask0_67_5105" style="mask-type:alpha" maskUnits="userSpaceOnUse" x="0" y="0" width="198" height="171">
<path d="M185.426 87.4163C194.834 85.3289 200.119 70.8692 197.193 68.1493C196.411 67.4282 195.44 67.1499 194.38 67.1119C192.678 65.3155 191.076 63.3547 189.562 61.3053C186.346 56.9281 183.546 52.0956 181.15 47.4654C181.137 47.4401 181.125 47.4148 181.112 47.3895C180.658 46.5039 180.204 45.6184 179.775 44.7455C179.75 44.6822 179.712 44.619 179.687 44.5684C179.271 43.7208 178.867 42.8732 178.476 42.0509C178.451 41.9876 178.413 41.9244 178.388 41.8611C177.997 41.0388 177.619 40.2166 177.253 39.4322C174.756 34.0051 172.914 29.5394 171.691 27.452C171.691 27.4394 171.678 27.4394 171.678 27.4267C171.111 25.4405 170.631 23.6568 170.177 22.1387C176.13 20.2158 181.604 18.0652 184.744 11.7651C178.892 10.0573 172.813 10.9429 168.55 17.926C168.361 17.5845 168.159 17.2935 167.945 17.0405C168.487 16.2814 168.588 15.6236 167.97 15.0796C167.718 6.91993 160.403 -1.03735 157.035 0.126509C157.035 0.126509 164.577 7.69162 162.534 14.523C162.143 14.6748 161.79 14.8646 161.525 15.1429C160.857 15.826 160.769 16.5471 160.844 17.1037C158.801 18.1537 156.291 19.4441 152.041 19.7224C147.059 20.0513 144.448 18.5965 142.165 17.7742C142.027 17.2049 141.648 16.5092 140.665 16.1423C140.299 16.0031 139.908 15.9905 139.492 16.0158C134.712 10.7151 138.319 0.645188 138.319 0.645188C134.775 1.03736 131.546 11.373 134.8 18.8495C134.51 19.4947 134.749 19.9881 135.342 20.4056C135.33 20.4182 135.33 20.4435 135.317 20.4562C130.739 17.4453 125.681 15.5857 118.089 15.7881C121.885 22.1008 126.312 25.0231 133.993 24.8586C132.895 29.0207 131.596 34.4858 129.389 39.7864C128.809 41.1654 128.178 42.5443 127.46 43.8726C127.069 44.2901 126.678 44.6949 126.274 45.0871L126.261 45.0997C125.858 45.4919 125.454 45.8841 125.025 46.2762C119.123 51.6781 111.581 55.5239 102.929 56.7637C94.6929 57.9402 85.4607 56.751 75.6862 52.26C61.5353 45.7449 62.9604 50.6913 57.7642 51.2227C55.8723 51.4124 54.1192 50.2232 52.1013 49.869C51.9752 49.8437 51.8364 49.8311 51.6977 49.8058C49.9572 44.4039 48.5698 37.9141 46.5897 31.8671C45.669 29.0713 44.6348 26.3767 43.3736 23.9351C43.3484 23.8845 43.3231 23.8466 43.2979 23.796C43.0078 23.252 42.7178 22.708 42.4151 22.1893C42.3772 22.1134 42.3268 22.0375 42.2889 21.9743C41.9862 21.4809 41.6835 21.0002 41.3682 20.5321C41.3178 20.4562 41.2673 20.3803 41.2169 20.3044C40.889 19.8363 40.5484 19.3935 40.2079 18.9634C40.1575 18.9001 40.107 18.8369 40.0566 18.7736C39.6782 18.3309 39.2998 17.9007 38.8962 17.4959C38.871 17.4706 38.8458 17.4453 38.8332 17.42C38.8332 17.42 38.8332 17.42 38.8332 17.4327C34.5072 13.1061 28.3524 11.1706 19.1076 13.7893C12.297 5.52835 3.1909 19.2797 0.819797 23.2014C0.290082 23.8592 0 24.2893 0 24.2893C4.3134 24.6436 7.47907 24.6562 9.77451 24.2893C21.3147 23.4417 22.1345 18.6471 20.1418 15.3073C29.7776 12.638 43.9664 14.4218 47.1573 51.2733C45.8078 52.4118 44.8114 53.8287 42.9195 54.3474C38.2404 55.6251 38.1143 52.26 33.0568 57.9908C32.9432 58.1173 32.8297 58.2691 32.7162 58.4209C32.6784 58.4715 32.6405 58.5348 32.6027 58.5854C32.527 58.6992 32.4514 58.8131 32.3757 58.9396C32.3379 59.0155 32.2874 59.0914 32.2496 59.1673C32.1739 59.2938 32.1108 59.4203 32.0352 59.5468C31.9847 59.6354 31.9469 59.7239 31.8964 59.8125C31.8334 59.9516 31.7577 60.0908 31.6946 60.2426C31.6442 60.3438 31.6063 60.4324 31.5685 60.5336C31.5054 60.6854 31.4298 60.8498 31.3667 61.0143C31.3289 61.1155 31.2784 61.2167 31.2406 61.3306C31.1649 61.5203 31.1019 61.7101 31.0388 61.8998C31.001 62.001 30.9631 62.0896 30.9379 62.2034C30.8496 62.4691 30.7613 62.7348 30.673 63.0131C30.6604 63.0511 30.6478 63.089 30.6352 63.1396C30.5343 63.4559 30.446 63.7974 30.3451 64.139C30.3073 64.2529 30.2821 64.3794 30.2442 64.5059C30.1812 64.7336 30.1181 64.974 30.0676 65.2143C30.0298 65.3661 29.992 65.5306 29.9541 65.6824C29.9037 65.8975 29.8532 66.1125 29.8028 66.3402C29.765 66.5173 29.7271 66.6944 29.6893 66.8716C29.6388 67.0866 29.601 67.3143 29.5505 67.5294C29.5127 67.7192 29.4749 67.9089 29.4496 68.0987C29.4118 68.3264 29.374 68.5541 29.3235 68.7818C29.2857 68.9842 29.2605 69.174 29.2226 69.3764C29.1848 69.6168 29.147 69.8571 29.1091 70.0975C29.0839 70.2999 29.0461 70.5023 29.0208 70.7047C28.983 70.9704 28.9452 71.2487 28.9073 71.527C28.8695 71.78 28.8443 72.033 28.8064 72.2987C28.756 72.6782 28.7181 73.0577 28.6803 73.4373C28.6551 73.665 28.6425 73.9053 28.6172 74.1457C28.592 74.3987 28.5668 74.6391 28.5542 74.8921C28.5416 75.0439 28.529 75.1957 28.5163 75.3475C28.5163 75.2843 28.5037 75.221 28.5037 75.1578C27.4947 87.4669 29.0334 104.001 36.6512 117.942L28.365 149.152L30.837 163.637L31.7451 168.95H37.4584L36.7017 153.326L53.9301 136.552C53.9805 136.577 54.031 136.615 54.0814 136.64L51.2436 149.152L54.1949 168.95H59.1894L58.5083 153.326L61.674 149.797C63.1875 151.441 64.991 152.858 66.9711 153.934C67.1477 154.06 67.3369 154.187 67.5261 154.3C64.8649 156.261 60.438 156.325 62.5568 158.969C65.1045 162.144 67.8414 157.514 69.0143 155.123C70.2629 155.73 71.5746 156.16 72.9367 156.363C72.407 159.525 70.7044 162.195 73.971 162.106C75.9511 162.055 75.043 159.424 74.4502 156.489C75.8628 156.527 77.3006 156.299 78.751 155.793C79.76 158.032 81.9671 161.828 84.5148 159.475C86.6589 157.488 82.7743 156.932 80.3401 155.123C80.4284 155.072 80.5293 155.022 80.6176 154.971C84.3635 153.516 88.0841 150.493 91.3633 145.356C101.718 145.116 110.71 143.459 118.492 140.752L119.854 164.396L120.182 170.013H125.593L126.4 164.396L130.613 135.211C132.719 133.983 134.712 132.68 136.603 131.289L138.357 164.396L138.647 170.013H143.591L144.209 164.396L149.228 119.068C154.425 112.541 158.234 105.38 160.97 98.3338C160.983 98.3971 161.008 98.473 161.021 98.5362C161.021 98.5362 162.988 93.5519 164.855 86.9102C168.777 90.0729 173.557 90.6802 175.02 87.6313C178.489 96.373 181.049 102.091 182.487 101.497C183.786 100.965 179.826 91.1988 177.846 86.5307C178.073 86.6193 178.3 86.7078 178.539 86.7964C181.743 91.7175 188.301 101.534 189.285 101.028C190.294 100.51 183.912 91.629 180.822 87.4416C181.074 87.4922 181.327 87.5301 181.579 87.5681C185.224 91.0091 191.858 96.9802 192.602 95.5127C193.207 94.3236 189.045 90.4524 185.426 87.4163Z" fill="url(#paint0_linear_67_5105)"/>
</mask>
<g mask="url(#mask0_67_5105)">
<path opacity="0.6" d="M185.426 87.4163C194.834 85.3289 200.119 70.8692 197.193 68.1493C196.411 67.4282 195.44 67.1499 194.38 67.1119C192.678 65.3155 191.076 63.3547 189.562 61.3053C186.346 56.9281 183.546 52.0956 181.15 47.4654C181.137 47.4401 181.125 47.4148 181.112 47.3895C180.658 46.5039 180.204 45.6184 179.775 44.7455C179.75 44.6822 179.712 44.619 179.687 44.5684C179.271 43.7208 178.867 42.8732 178.476 42.0509C178.451 41.9876 178.413 41.9244 178.388 41.8611C177.997 41.0388 177.619 40.2166 177.253 39.4322C174.756 34.0051 172.914 29.5394 171.691 27.452C171.691 27.4394 171.678 27.4394 171.678 27.4267C171.111 25.4405 170.631 23.6568 170.177 22.1387C176.13 20.2158 181.604 18.0652 184.744 11.7651C178.892 10.0573 172.813 10.9429 168.55 17.926C168.361 17.5845 168.159 17.2935 167.945 17.0405C168.487 16.2814 168.588 15.6236 167.97 15.0796C167.718 6.91993 160.403 -1.03735 157.035 0.126509C157.035 0.126509 164.577 7.69162 162.534 14.523C162.143 14.6748 161.79 14.8646 161.525 15.1429C160.857 15.826 160.769 16.5471 160.844 17.1037C158.801 18.1537 156.291 19.4441 152.041 19.7224C147.059 20.0513 144.448 18.5965 142.165 17.7742C142.027 17.2049 141.648 16.5092 140.665 16.1423C140.299 16.0031 139.908 15.9905 139.492 16.0158C134.712 10.7151 138.319 0.645188 138.319 0.645188C134.775 1.03736 131.546 11.373 134.8 18.8495C134.51 19.4947 134.749 19.9881 135.342 20.4056C135.33 20.4182 135.33 20.4435 135.317 20.4562C130.739 17.4453 125.681 15.5857 118.089 15.7881C121.885 22.1008 126.312 25.0231 133.993 24.8586C132.895 29.0207 131.596 34.4858 129.389 39.7864C128.809 41.1654 128.178 42.5443 127.46 43.8726C127.069 44.2901 126.678 44.6949 126.274 45.0871L126.261 45.0997C125.858 45.4919 125.454 45.8841 125.025 46.2762C119.123 51.6781 111.581 55.5239 102.929 56.7637C94.6929 57.9402 85.4607 56.751 75.6862 52.26C61.5353 45.7449 62.9604 50.6913 57.7642 51.2227C55.8723 51.4124 54.1192 50.2232 52.1013 49.869C51.9752 49.8437 51.8364 49.8311 51.6977 49.8058C49.9572 44.4039 48.5698 37.9141 46.5897 31.8671C45.669 29.0713 44.6348 26.3767 43.3736 23.9351C43.3484 23.8845 43.3231 23.8466 43.2979 23.796C43.0078 23.252 42.7178 22.708 42.4151 22.1893C42.3772 22.1134 42.3268 22.0375 42.2889 21.9743C41.9862 21.4809 41.6835 21.0002 41.3682 20.5321C41.3178 20.4562 41.2673 20.3803 41.2169 20.3044C40.889 19.8363 40.5484 19.3935 40.2079 18.9634C40.1575 18.9001 40.107 18.8369 40.0566 18.7736C39.6782 18.3309 39.2998 17.9007 38.8962 17.4959C38.871 17.4706 38.8458 17.4453 38.8332 17.42C38.8332 17.42 38.8332 17.42 38.8332 17.4327C34.5072 13.1061 28.3524 11.1706 19.1076 13.7893C12.297 5.52835 3.1909 19.2797 0.819797 23.2014C0.290082 23.8592 0 24.2893 0 24.2893C4.3134 24.6436 7.47907 24.6562 9.77451 24.2893C21.3147 23.4417 22.1345 18.6471 20.1418 15.3073C29.7776 12.638 43.9664 14.4218 47.1573 51.2733C45.8078 52.4118 44.8114 53.8287 42.9195 54.3474C38.2404 55.6251 38.1143 52.26 33.0568 57.9908C32.9432 58.1173 32.8297 58.2691 32.7162 58.4209C32.6784 58.4715 32.6405 58.5348 32.6027 58.5854C32.527 58.6992 32.4514 58.8131 32.3757 58.9396C32.3379 59.0155 32.2874 59.0914 32.2496 59.1673C32.1739 59.2938 32.1108 59.4203 32.0352 59.5468C31.9847 59.6354 31.9469 59.7239 31.8964 59.8125C31.8334 59.9516 31.7577 60.0908 31.6946 60.2426C31.6442 60.3438 31.6063 60.4324 31.5685 60.5336C31.5054 60.6854 31.4298 60.8498 31.3667 61.0143C31.3289 61.1155 31.2784 61.2167 31.2406 61.3306C31.1649 61.5203 31.1019 61.7101 31.0388 61.8998C31.001 62.001 30.9631 62.0896 30.9379 62.2034C30.8496 62.4691 30.7613 62.7348 30.673 63.0131C30.6604 63.0511 30.6478 63.089 30.6352 63.1396C30.5343 63.4559 30.446 63.7974 30.3451 64.139C30.3073 64.2529 30.2821 64.3794 30.2442 64.5059C30.1812 64.7336 30.1181 64.974 30.0676 65.2143C30.0298 65.3661 29.992 65.5306 29.9541 65.6824C29.9037 65.8975 29.8532 66.1125 29.8028 66.3402C29.765 66.5173 29.7271 66.6944 29.6893 66.8716C29.6388 67.0866 29.601 67.3143 29.5505 67.5294C29.5127 67.7192 29.4749 67.9089 29.4496 68.0987C29.4118 68.3264 29.374 68.5541 29.3235 68.7818C29.2857 68.9842 29.2605 69.174 29.2226 69.3764C29.1848 69.6168 29.147 69.8571 29.1091 70.0975C29.0839 70.2999 29.0461 70.5023 29.0208 70.7047C28.983 70.9704 28.9452 71.2487 28.9073 71.527C28.8695 71.78 28.8443 72.033 28.8064 72.2987C28.756 72.6782 28.7181 73.0577 28.6803 73.4373C28.6551 73.665 28.6425 73.9053 28.6172 74.1457C28.592 74.3987 28.5668 74.6391 28.5542 74.8921C28.5416 75.0439 28.529 75.1957 28.5163 75.3475C28.5163 75.2843 28.5037 75.221 28.5037 75.1578C27.4947 87.4669 29.0334 104.001 36.6512 117.942L28.365 149.152L30.837 163.637L31.7451 168.95H37.4584L36.7017 153.326L53.9301 136.552C53.9805 136.577 54.031 136.615 54.0814 136.64L51.2436 149.152L54.1949 168.95H59.1894L58.5083 153.326L61.674 149.797C63.1875 151.441 64.991 152.858 66.9711 153.934C67.1477 154.06 67.3369 154.187 67.5261 154.3C64.8649 156.261 60.438 156.325 62.5568 158.969C65.1045 162.144 67.8414 157.514 69.0143 155.123C70.2629 155.73 71.5746 156.16 72.9367 156.363C72.407 159.525 70.7044 162.195 73.971 162.106C75.9511 162.055 75.043 159.424 74.4502 156.489C75.8628 156.527 77.3006 156.299 78.751 155.793C79.76 158.032 81.9671 161.828 84.5148 159.475C86.6589 157.488 82.7743 156.932 80.3401 155.123C80.4284 155.072 80.5293 155.022 80.6176 154.971C84.3635 153.516 88.0841 150.493 91.3633 145.356C101.718 145.116 110.71 143.459 118.492 140.752L119.854 164.396L120.182 170.013H125.593L126.4 164.396L130.613 135.211C132.719 133.983 134.712 132.68 136.603 131.289L138.357 164.396L138.647 170.013H143.591L144.209 164.396L149.228 119.068C154.425 112.541 158.234 105.38 160.97 98.3338C160.983 98.3971 161.008 98.473 161.021 98.5362C161.021 98.5362 162.988 93.5519 164.855 86.9102C168.777 90.0729 173.557 90.6802 175.02 87.6313C178.489 96.373 181.049 102.091 182.487 101.497C183.786 100.965 179.826 91.1988 177.846 86.5307C178.073 86.6193 178.3 86.7078 178.539 86.7964C181.743 91.7175 188.301 101.534 189.285 101.028C190.294 100.51 183.912 91.629 180.822 87.4416C181.074 87.4922 181.327 87.5301 181.579 87.5681C185.224 91.0091 191.858 96.9802 192.602 95.5127C193.207 94.3236 189.045 90.4524 185.426 87.4163Z" fill="url(#paint1_linear_67_5105)"/>
</g>
</g>
<defs>
<linearGradient id="paint0_linear_67_5105" x1="99" y1="18.9081" x2="99" y2="149.249" gradientUnits="userSpaceOnUse">
<stop offset="0.0215" stop-color="#999999"/>
<stop offset="1" stop-color="white"/>
</linearGradient>
<linearGradient id="paint1_linear_67_5105" x1="99" y1="18.9081" x2="99" y2="149.249" gradientUnits="userSpaceOnUse">
<stop offset="0.0215" stop-color="#FFD995"/>
<stop offset="1" stop-color="#5C0028"/>
</linearGradient>
<clipPath id="clip0_67_5105">
<rect width="198" height="170" fill="white"/>
</clipPath>
</defs>
</svg>
