<svg width="506" height="280" viewBox="0 0 506 280" fill="none" xmlns="http://www.w3.org/2000/svg">
<g clip-path="url(#clip0_189_166)">
<path d="M9.23438 158.856C9.23438 158.856 24.0042 201.95 21.2492 234.277L208.231 280L206.242 113.592L9.23438 158.856Z" fill="#A33613"/>
<path opacity="0.55" d="M64.9974 174.215C86.0425 171.23 106.96 167.658 127.98 164.545C149.254 161.381 170.146 159.34 191.65 160.693C196.574 160.999 201.727 161.203 206.803 161.713L206.216 113.567L9.23438 158.856C9.23438 158.856 12.5251 168.449 15.7137 181.997C31.9886 178.681 48.595 176.537 64.9974 174.215Z" fill="#A33613"/>
<path d="M64.5636 160.361C66.6554 171.766 68.4155 228.792 68.3645 245.81L77.3437 248.004C76.3999 232.44 72.7011 163.474 71.3491 144.593L62.2168 146.685C62.8035 151.303 63.7473 155.896 64.5636 160.361Z" fill="#6A2713"/>
<path d="M140.403 128.722L131.959 130.662C132.495 155.13 133.949 179.574 134.791 204.042C135.454 223.434 135.505 242.825 135.479 262.216L144.433 264.41C144.356 255.582 139.025 150.946 140.403 128.722Z" fill="#6A2713"/>
<path d="M489.086 117.445C489.086 117.445 479.852 221.341 479.852 244.126C479.852 244.126 268.407 264.13 208.23 280L203.613 120.685L388.759 10.7672L489.086 117.445Z" fill="#F34E22"/>
<path d="M117.266 72.9725L0 162.708L185.911 119.767L390.29 0L117.266 72.9725Z" fill="#D9A68E"/>
<path d="M187.518 118.797L197.288 135.764L3.69883 172.174L0 162.708L187.518 118.797Z" fill="#CA8463"/>
<path d="M220.986 149.032V244.739L304.707 234.584L306.264 137.933L220.986 149.032Z" fill="#B6ECEC"/>
<path d="M405.136 130.84L402.814 225.347L467.684 219.504L475.312 128.059L405.136 130.84Z" fill="#B6ECEC"/>
<path d="M305.932 158.804L289.274 160.667L288.968 140.179L287.489 140.383V160.871L265.423 163.321L265.117 143.291L263.612 143.496V163.525L244.098 165.693L243.843 146.073L242.542 146.251V165.847L220.986 168.245V170.72L242.542 168.321V186.871L220.986 189.269V191.744L242.542 189.346V207.053L220.986 209.451V211.926L242.542 209.528V226.776L220.986 229.174V231.649L242.542 229.251V242.161L245.144 241.855L244.965 228.996L263.612 226.929V239.636L266.52 239.278L266.342 226.623L287.463 224.276V236.727L290.371 236.37L290.193 223.969L304.886 222.336L304.937 219.861L290.167 221.494L289.912 204.272L305.218 202.562L305.269 200.087L289.887 201.797L289.632 184.115L305.549 182.355L305.6 179.88L289.606 181.666L289.325 163.142L305.906 161.305L305.932 158.804ZM263.638 224.403L244.939 226.47L244.71 209.247L263.638 207.155V224.403ZM263.638 204.706L244.684 206.823L244.455 189.142L263.638 186.998V204.706ZM263.638 184.523L244.404 186.667L244.149 168.143L263.638 165.974V184.523ZM287.489 221.775L266.316 224.122L266.061 206.9L287.489 204.527V221.775ZM287.489 202.052L266.036 204.425L265.78 186.743L287.489 184.319V202.052ZM287.489 181.87L265.729 184.294L265.449 165.77L287.463 163.321V181.87H287.489Z" fill="#4F7A81"/>
<path d="M473.501 149.721L473.705 147.195L461.996 147.757L462.659 128.569L461.333 128.62L460.465 147.808L441.283 148.726L441.64 129.386L440.288 129.437L439.727 148.803L422.661 149.619L422.737 130.126L421.564 130.177L421.283 149.696L404.677 150.487L404.626 153.038L421.258 152.222L420.977 171.128L404.167 171.996L404.116 174.471L420.952 173.603L420.697 191.055L403.682 191.999L403.631 194.398L420.671 193.454L420.416 209.936L403.223 210.931L403.172 213.253L420.391 212.258L420.212 223.765L422.355 223.561L422.406 212.13L437.941 211.212L437.609 222.183L440.007 221.979L440.211 211.084L457.685 210.064L457.2 220.423L459.573 220.219L459.93 209.936L468.603 209.426L468.807 207.13L460.032 207.64L460.593 191.234L470.185 190.698L470.389 188.325L460.695 188.861L461.282 171.511L471.843 170.95L472.047 168.5L461.384 169.061L462.022 150.257L473.501 149.721ZM437.941 208.941L422.355 209.834L422.431 193.352L438.426 192.459L437.941 208.941ZM438.502 190.111L422.457 191.004L422.533 173.578L439.012 172.71L438.502 190.111ZM439.089 170.235L422.559 171.077L422.635 152.171L439.65 151.354L439.089 170.235ZM457.71 207.793L440.186 208.814L440.492 192.382L458.476 191.387L457.71 207.793ZM458.578 188.989L440.543 189.984L440.849 172.582L459.369 171.613L458.578 188.989ZM459.471 169.163L440.874 170.133L441.206 151.278L460.312 150.359L459.471 169.163Z" fill="#4F7A81"/>
<path d="M215.834 145.486V154.62L310.014 142.398V134.081L215.834 145.486Z" fill="#EEC3B0"/>
<path d="M217.338 241.779V250.913L311.518 238.666V230.348L217.338 241.779Z" fill="#EEC3B0"/>
<path d="M402.127 129.564V138.29L479.726 130.432L479.547 124.691L402.127 129.564Z" fill="#EEC3B0"/>
<path d="M400.723 221.852V230.348L471.205 223L470.618 218.126L400.723 221.852Z" fill="#EEC3B0"/>
<path opacity="0.55" d="M388.351 37.5578L486.918 142.347C488.168 127.651 489.061 117.445 489.061 117.445L388.733 10.7672L203.613 120.685L204.379 160.565L388.351 37.5578Z" fill="#A33613"/>
<path d="M505.999 117.445L492.479 126.528L388.734 15.9978L197.287 135.765L185.91 119.767L390.29 0L505.999 117.445Z" fill="#EEC3B0"/>
<path d="M355.217 92.3638C355.217 92.3638 351.033 66.2621 374.706 65.0884C393.124 64.1699 390.93 90.6543 390.93 90.6543L355.217 92.3638Z" fill="#B0E3E0"/>
<path d="M390.93 79.4277L375.803 79.7594L375.522 64.476L372.257 63.8126L372.104 79.8615L355.217 80.2442V83.9183L372.104 83.0508V92.3637H375.803V82.8467L390.93 82.0813V79.4277Z" fill="#4C7479"/>
<path d="M374.195 60.4957C349.068 60.6743 351.798 96.0889 351.798 96.0889L395.75 93.7416C395.776 93.7416 399.321 60.3171 374.195 60.4957ZM389.858 89.5827L357.742 91.2921C357.742 91.2921 355.752 65.4201 374.093 65.2925C392.434 65.1649 389.858 89.5827 389.858 89.5827Z" fill="#EEC3B0"/>
<path d="M323.176 261.349C346.491 258.414 368.531 255.837 390.265 253.414L391.949 154.594L323.15 162.683V261.349H323.176Z" fill="#514D5B"/>
<path d="M356.898 158.753V257.266C358.684 257.062 360.444 256.858 362.204 256.654V158.116L356.898 158.753Z" fill="#312C3D"/>
<path d="M317.641 157.631L318.253 170.72L399.219 160.539L398.53 146.864L317.641 157.631Z" fill="#E4BAA6"/>
<path d="M368.787 211.62C368.787 213.789 367.792 215.549 366.542 215.549C365.292 215.549 364.297 213.789 364.297 211.62C364.297 209.451 365.317 207.691 366.542 207.691C367.766 207.691 368.787 209.451 368.787 211.62Z" fill="#272227"/>
<path d="M351.516 217.514C352.756 217.514 353.761 215.755 353.761 213.585C353.761 211.415 352.756 209.656 351.516 209.656C350.277 209.656 349.271 211.415 349.271 213.585C349.271 215.755 350.277 217.514 351.516 217.514Z" fill="#272227"/>
</g>
<defs>
<clipPath id="clip0_189_166">
<rect width="506" height="280" fill="white"/>
</clipPath>
</defs>
</svg>
