<svg width="468" height="291" viewBox="0 0 468 291" fill="none" xmlns="http://www.w3.org/2000/svg">
<g clip-path="url(#clip0_442_451)">
<path d="M173.611 140.027C165.926 159.791 160.302 173.727 157.404 172.522C154.506 171.318 167.107 142.908 167.107 142.908C167.107 142.908 148.088 172.888 145.834 171.727C143.58 170.565 162.986 144.952 162.986 144.952C162.986 144.952 141.927 165.791 140.188 162.35C138.428 158.909 160.882 141.812 160.882 141.812L173.611 140.027Z" fill="#888C2F"/>
<path d="M267.074 26.8181C249.407 26.345 239.812 32.4097 229.293 41.0982C249.322 44.6467 259.046 40.1949 267.074 26.8181Z" fill="#D3BBA1"/>
<path d="M153.583 19.9792C160.174 33.1624 172.753 35.6572 185.461 39.8939C178.527 19.4415 165.755 16.4521 153.583 19.9792Z" fill="#D3BBA1"/>
<path d="M261.881 31.356C248.872 31.9366 242.067 35.7217 234.683 41.0337C249.538 42.023 256.493 39.1197 261.881 31.356Z" fill="#A38567"/>
<path d="M158.992 25.1837C167.6 33.1625 174.255 35.1841 182.219 36.668C173.439 26.5386 167.214 23.8718 158.992 25.1837Z" fill="#A38567"/>
<path d="M226.846 30.1731C240.435 22.7749 232.642 1.05371 232.642 1.05371C240.971 1.97848 247.733 35.4206 226.846 43.2488V30.1731Z" fill="#B78862"/>
<path d="M230.132 32.6893C244.085 16.9683 232.665 1.05371 232.665 1.05371C240.993 1.97848 248.335 35.184 226.869 43.2488L230.132 32.6893Z" fill="#EFBA95"/>
<path d="M236.422 35.3777C238.654 34.3884 239.642 33.141 238.118 31.1625C236.594 29.1839 231.764 26.2375 228.63 27.3989C225.495 28.5602 225.946 31.7001 225.946 31.7001L236.422 35.3777Z" fill="#B78862"/>
<path d="M193.553 28.9902C184.451 16.4951 200.766 0.193445 200.766 0.193445C192.845 -2.53784 172.495 24.818 187.972 40.8186L193.553 28.9902Z" fill="#EFBA95"/>
<path d="M187.156 28.5602C181.296 8.38739 200.766 0.193538 200.766 0.193538C192.845 -2.53775 172.065 24.345 187.972 40.8187L187.156 28.5602Z" fill="#B78862"/>
<path d="M182.713 29.5925C181.125 27.7429 180.76 26.1945 182.971 25.0547C185.182 23.9148 190.806 23.3127 193.125 25.6998C195.443 28.087 193.704 30.7323 193.704 30.7323L182.713 29.5925Z" fill="#B78862"/>
<path d="M232.043 289L236.25 209.298L212.379 187.598L223.606 289H232.043Z" fill="#B28E74"/>
<path d="M380.783 253.579L362.623 173.426L328.62 216.374L368.419 260.655L367.259 287.236H375.76L380.783 253.579Z" fill="#B28E74"/>
<path d="M351.309 260.612C355.151 265.709 365.67 265.107 361.527 270.247C355.816 277.344 349.548 261.515 349.548 261.515L351.309 260.612Z" fill="#FF9E88"/>
<path d="M333.277 261.773C329.971 266.547 319.86 267.128 324.197 271.128C330.164 276.634 335.016 262.397 335.016 262.397L333.277 261.773Z" fill="#FF9E88"/>
<path d="M341.929 261.429C341.735 267.902 337.7 275.494 342.122 275.602C349.377 275.795 342.208 268.01 343.904 260.762C344.075 259.966 341.929 261.429 341.929 261.429Z" fill="#FF9E88"/>
<path d="M371.059 232.331C374.6 256.698 333.922 286.806 310.051 242.955L371.059 232.331Z" fill="#E2765D"/>
<path d="M366.379 243.213C362.515 262.16 336.777 279.15 318.831 251.708C331.689 254.741 354.937 250.246 366.379 243.213Z" fill="#FF9E88"/>
<path d="M411.715 98.5842C424.917 113.488 437.002 244.439 318.98 245.772C200.958 247.106 182.755 145.532 182.755 109.66C182.755 73.7876 231.161 52.5395 250.374 73.7876C269.608 95.0357 302.172 105.875 339.223 88.8419C363.308 77.7662 360.883 86.1752 369.727 87.0784C374.149 87.53 378.12 83.5299 383.422 84.8633C388.724 86.1967 390.055 91.057 394.907 92.3904C402.892 94.5626 403.107 88.8419 411.715 98.5842Z" fill="#E5CBB1"/>
<path d="M374.085 88.7774C403.709 97.0357 444.065 133.424 391.258 186.63C338.451 239.837 256.192 222.976 222.039 161.533C204.823 130.542 236.679 88.1752 278.925 95.2292C345.47 106.348 344.461 80.519 374.085 88.7774Z" fill="#EFD5BD"/>
<path d="M366.98 95.3153C393.362 102.67 431.293 130.026 384.261 177.404C337.228 224.782 261.688 206.244 231.27 151.532C215.922 123.94 238.676 90.2614 268.965 99.1004C319.948 113.94 340.598 87.9602 366.98 95.3153Z" fill="#F9E4CD"/>
<path d="M318.981 229.6C396.517 228.718 417.726 171.318 419.443 127.811C423.006 171.361 407.937 246.181 319.345 247.17C201.324 248.504 182.777 145.532 182.777 109.681C182.777 108.09 182.905 106.541 183.099 104.993C187.22 147.876 213.001 230.783 318.981 229.6Z" fill="#D1B399"/>
<path d="M419.68 253.579L400.124 180.007C386.557 197.341 375.523 206.137 360.025 216.395L405.533 260.655L404.202 287.215H413.927L419.68 253.579Z" fill="#E5CBB1"/>
<path d="M263.469 289L268.062 209.298L239.791 188.932L254.26 289H263.469Z" fill="#E5CBB1"/>
<path d="M441.016 28.6246C425.432 21.9792 392.953 14.0219 387.415 91.057L379.022 87.7451C389.304 58.8408 391.279 6.2797 441.896 25.5277L441.016 28.6246Z" fill="#E5CBB1"/>
<path d="M236.658 101.896C225.453 115.961 196.538 152.93 193.94 167.49C193.94 167.49 180.974 134.693 181.747 112.112L236.658 101.896Z" fill="#B28E74"/>
<path d="M261 87.9602C241.552 69.3573 241.015 33.2915 234.918 30.3881C226.525 26.4095 223.906 34.4313 209.288 33.485C195.592 32.6033 192.479 25.4847 185.417 26.8396C173.933 29.0548 181.145 68.239 137.676 115.402C132.374 121.166 159.378 151.963 211.155 120.607C249.172 97.5949 261 87.9602 261 87.9602Z" fill="#E5CBB1"/>
<path d="M233.76 49.6147C243.012 60.0237 241.445 102.219 170.971 129.446C170.971 129.446 141.003 129.682 134.735 116.542C157.017 95.0358 170.155 56.1956 175.779 46.6469C182.756 34.84 217.016 30.7753 233.76 49.6147Z" fill="#F9E4CD"/>
<path d="M196.901 128.693C197.116 119.144 165.968 138.887 169.939 148.629C173.932 158.371 196.472 148.178 196.901 128.693Z" fill="#E5CBB1"/>
<path d="M195.442 129.811C195.614 122.306 172.109 137.811 175.114 145.468C178.119 153.124 195.099 145.124 195.442 129.811Z" fill="#F9E4CD"/>
<path d="M181.489 133.639C192.094 120.8 218.068 114.585 215.835 111.38C213.71 108.327 187.714 122.908 187.714 122.908C187.714 122.908 213.624 106.326 209.438 103.853C205.574 101.574 189.561 119.273 189.561 119.273C189.561 119.273 197.417 106.692 195.013 105.187C193.596 104.283 187.736 120.026 180.91 125.08L181.489 133.639Z" fill="#9BA538"/>
<path d="M181.446 108.327C174.083 102.95 165.089 114.52 155.815 117.187C149.419 119.015 138.127 110.542 132.396 115.854C126.643 121.166 139.48 153.059 160.238 148.629C180.995 144.199 196.022 118.951 181.446 108.327Z" fill="#AA7248"/>
<path d="M433.825 25.8288C429.489 32.7968 432.28 43.6789 467.656 41.1412C467.656 41.1412 447.328 4.12909 433.825 25.8288Z" fill="#A06C45"/>
<path d="M442.949 30.0011C441.382 39.8294 446.34 43.0768 468 41.2918C468 41.2918 446.169 9.74225 442.949 30.0011Z" fill="#CC885A"/>
<path d="M229.444 60.2817C222.897 62.6689 216.435 63.3141 212.958 57.658L209.587 61.5936C218.925 67.7229 225.795 65.5292 230.023 62.0022C229.68 61.314 229.637 60.7979 229.444 60.2817Z" fill="#A38567"/>
<path d="M175.157 60.3248C181.639 61.9808 187.843 61.9162 190.419 55.916L194.09 59.4645C186.019 66.5616 179.257 65.1422 174.813 62.1098C175.049 61.3786 175.028 60.8624 175.157 60.3248Z" fill="#A38567"/>
<path d="M264.027 279.473L263.469 289H254.26L252.886 279.473H264.027Z" fill="#89715B"/>
<path d="M232.535 279.473L232.041 289H223.605L222.553 279.473H232.535Z" fill="#89715B"/>
<path d="M377.111 278.204L375.759 287.236H367.258L367.645 278.204H377.111Z" fill="#89715B"/>
<path d="M415.473 278.204L413.927 287.236H404.203L404.654 278.204H415.473Z" fill="#89715B"/>
<path d="M182.132 116.198C178.912 110.456 175.606 108.133 161.374 118.886C147.142 129.639 139.285 139.403 156.179 145.597C165.453 148.973 189.924 130.069 182.132 116.198Z" fill="#C98353"/>
<path d="M135.444 126.048C137.054 117.811 143.021 116.994 159.894 122.929C176.767 128.865 169.962 140.736 161.203 145.231C150.556 150.694 134.091 132.973 135.444 126.048Z" fill="#C98353"/>
<path d="M170.52 133.94C177.862 132.155 178.398 117.983 175.715 116.908C167.665 113.682 160.023 136.5 170.52 133.94Z" fill="#7F4E2D"/>
<path d="M155.643 134.973C155.192 128.542 143.407 126.048 142.098 128.155C138.256 134.457 156.287 144.177 155.643 134.973Z" fill="#7F4E2D"/>
<path opacity="0.8" d="M377.67 140.027C376.597 134.65 376.962 118.521 390.915 115.66C390.915 115.66 369.449 111.359 368.74 100.971C368.29 94.3261 371.08 88.713 379.388 84.7773C380.676 84.5408 382.007 84.5193 383.445 84.8634C388.747 86.1968 390.078 91.0571 394.929 92.3905C402.893 94.5627 403.108 88.842 411.716 98.5843C417.512 105.122 423.072 133.983 417.555 164.436C390.743 166.264 378.722 145.382 377.67 140.027Z" fill="#9E7E67"/>
<path opacity="0.8" d="M401.99 29.614C398.77 37.3347 391.429 53.0988 388.746 54.1526C391.88 44.6038 395.872 35.7218 401.99 29.614Z" fill="#9E7E67"/>
<path opacity="0.8" d="M347.295 205.685C371.316 191.577 358.866 168.802 349.184 164.307C336.219 158.285 314.237 170.307 314.237 170.307C314.237 170.307 312.241 141.661 286.353 148.027C254.904 155.748 279.998 210.846 288.907 214.503C299.125 218.696 326.43 217.944 347.295 205.685Z" fill="#9E7E67"/>
<path opacity="0.8" d="M273.086 115.338C256.943 111.101 255.548 92.3904 255.548 92.3904C255.548 92.3904 242.818 94.0894 241.552 80.3255C240.865 72.8843 244.428 69.3358 247.863 67.6368C248.85 69.981 249.924 72.3252 251.147 74.5833C261.687 85.8956 276.07 94.0894 292.899 96.4981C294.445 103.079 288.005 119.273 273.086 115.338Z" fill="#9E7E67"/>
<path opacity="0.8" d="M175.243 89.9388C168.996 101.466 157.726 104.477 145.362 104.219C154.163 92.283 161.097 78.3685 166.334 66.9917C173.161 71.465 181.017 79.3362 175.243 89.9388Z" fill="#9E7E67"/>
<mask id="mask0_442_451" style="mask-type:alpha" maskUnits="userSpaceOnUse" x="131" y="0" width="337" height="290">
<path d="M152.402 148.608C136.388 145.059 127.394 120.477 132.374 115.854C133.705 114.628 135.358 114.155 137.161 114.09C140.059 111.036 142.785 107.703 145.361 104.219C150.835 96.7777 155.6 88.5623 159.679 80.6911C159.7 80.6481 159.722 80.605 159.743 80.562C160.516 79.0566 161.289 77.5512 162.019 76.0672C162.062 75.9597 162.126 75.8522 162.169 75.7662C162.878 74.3252 163.564 72.8843 164.23 71.4864C164.273 71.3789 164.337 71.2714 164.38 71.1638C165.046 69.7659 165.69 68.368 166.312 67.0347C170.562 57.8085 173.697 50.2168 175.779 46.6683C175.779 46.6468 175.8 46.6468 175.8 46.6253C176.766 43.2488 177.582 40.2165 178.355 37.6357C168.223 34.3668 158.906 30.7107 153.561 20.0006C163.521 17.0973 173.868 18.6027 181.124 30.4742C181.446 29.8935 181.789 29.3988 182.154 28.9687C181.231 27.6784 181.06 26.56 182.111 25.6353C182.541 11.7638 194.991 -1.7636 200.723 0.214968C200.723 0.214968 187.886 13.0757 191.363 24.689C192.029 24.9471 192.63 25.2697 193.081 25.7428C194.218 26.9041 194.369 28.13 194.24 29.0763C197.717 30.8613 201.989 33.0549 209.223 33.528C217.703 34.0872 222.146 31.614 226.031 30.2161C226.268 29.2483 226.912 28.0655 228.586 27.4418C229.208 27.2052 229.874 27.1837 230.582 27.2267C238.718 18.2156 232.579 1.09672 232.579 1.09672C238.611 1.76341 244.106 19.334 238.568 32.0441C239.062 33.1409 238.654 33.9797 237.645 34.6894C237.666 34.7109 237.666 34.7539 237.688 34.7754C245.48 29.6569 254.088 26.4955 267.011 26.8396C260.549 37.5712 253.015 42.5391 239.942 42.2595C241.809 49.3351 244.02 58.6257 247.777 67.6368C248.764 69.981 249.838 72.3252 251.061 74.5833C251.727 75.293 252.392 75.9812 253.079 76.6479L253.101 76.6694C253.787 77.3361 254.474 78.0028 255.204 78.6695C265.25 87.8526 278.087 94.3905 292.813 96.4981C306.831 98.4982 322.544 96.4766 339.181 88.8419C363.266 77.7662 360.84 86.1751 369.684 87.0784C372.904 87.401 375.888 85.3794 379.323 84.7772C379.537 84.7342 379.773 84.7127 380.009 84.6697C382.972 75.4866 385.333 64.4539 388.703 54.174C390.27 49.4211 392.031 44.8403 394.177 40.6896C394.22 40.6036 394.263 40.539 394.306 40.453C394.8 39.5283 395.294 38.6035 395.809 37.7217C395.873 37.5927 395.959 37.4637 396.023 37.3561C396.539 36.5174 397.054 35.7002 397.59 34.9044C397.676 34.7754 397.762 34.6464 397.848 34.5173C398.406 33.7216 398.986 32.9689 399.565 32.2377C399.651 32.1301 399.737 32.0226 399.823 31.9151C400.467 31.1624 401.111 30.4311 401.798 29.7429C401.841 29.6999 401.884 29.6569 401.905 29.6139C401.905 29.6139 401.905 29.6139 401.905 29.6354C409.268 22.2803 419.744 18.9899 435.479 23.4416C447.07 9.3981 462.569 32.7753 466.605 39.4422C467.506 40.5606 468 41.2918 468 41.2918C460.659 41.8939 455.27 41.9154 451.364 41.2918C431.722 39.8508 430.327 31.7 433.718 26.0224C417.318 21.4846 393.168 24.5169 387.737 87.1644C390.034 89.1 391.73 91.5087 394.95 92.3904C402.914 94.5626 403.129 88.8419 411.737 98.5842C411.93 98.7993 412.123 99.0573 412.316 99.3154C412.381 99.4014 412.445 99.509 412.51 99.595C412.638 99.7886 412.767 99.9821 412.896 100.197C412.96 100.326 413.046 100.455 413.111 100.584C413.239 100.799 413.347 101.014 413.476 101.229C413.561 101.38 413.626 101.531 413.712 101.681C413.819 101.918 413.948 102.154 414.055 102.412C414.141 102.584 414.205 102.735 414.27 102.907C414.377 103.165 414.506 103.445 414.613 103.724C414.678 103.896 414.763 104.068 414.828 104.262C414.957 104.584 415.064 104.907 415.171 105.23C415.236 105.402 415.3 105.552 415.343 105.746C415.493 106.197 415.644 106.649 415.794 107.122C415.815 107.187 415.837 107.251 415.858 107.337C416.03 107.875 416.18 108.456 416.352 109.036C416.416 109.23 416.459 109.445 416.524 109.66C416.631 110.047 416.738 110.456 416.824 110.864C416.889 111.122 416.953 111.402 417.017 111.66C417.103 112.026 417.189 112.391 417.275 112.778C417.339 113.079 417.404 113.38 417.468 113.682C417.554 114.047 417.619 114.434 417.704 114.8C417.769 115.122 417.833 115.445 417.876 115.768C417.941 116.155 418.005 116.542 418.091 116.929C418.155 117.273 418.198 117.596 418.262 117.94C418.327 118.348 418.391 118.757 418.456 119.166C418.499 119.51 418.563 119.854 418.606 120.198C418.67 120.65 418.735 121.123 418.799 121.596C418.864 122.026 418.906 122.456 418.971 122.908C419.057 123.553 419.121 124.198 419.186 124.843C419.228 125.23 419.25 125.639 419.293 126.048C419.336 126.478 419.379 126.886 419.4 127.316C419.422 127.575 419.443 127.833 419.465 128.091C419.465 127.983 419.486 127.876 419.486 127.768C421.203 148.694 418.584 176.802 405.619 200.502L419.722 253.558L415.515 278.182L413.969 287.215H404.245L405.533 260.655L376.21 232.138C376.124 232.181 376.038 232.245 375.952 232.288L380.782 253.558L375.759 287.215H367.258L368.418 260.655L363.03 254.655C360.454 257.45 357.384 259.859 354.014 261.687C353.713 261.902 353.391 262.117 353.069 262.311C357.599 265.644 365.133 265.752 361.527 270.246C357.191 275.645 352.533 267.773 350.536 263.709C348.411 264.741 346.179 265.472 343.86 265.816C344.762 271.193 347.66 275.731 342.1 275.58C338.73 275.494 340.275 271.021 341.284 266.031C338.88 266.096 336.433 265.709 333.964 264.848C332.247 268.655 328.49 275.107 324.154 271.107C320.505 267.73 327.116 266.784 331.259 263.709C331.109 263.623 330.937 263.537 330.787 263.451C324.412 260.977 318.079 255.837 312.498 247.106C294.874 246.697 279.569 243.88 266.324 239.278L264.005 279.473L263.447 289.021H254.238L252.864 279.473L245.695 229.858C242.11 227.772 238.718 225.557 235.498 223.191L232.514 279.473L232.021 289.021H223.606L222.554 279.473L214.01 202.416C205.166 191.319 198.683 179.146 194.025 167.167C194.004 167.275 193.961 167.404 193.939 167.511C193.939 167.511 190.591 159.038 187.414 147.747C180.737 153.124 172.602 154.156 170.112 148.973C164.208 163.834 159.851 173.555 157.404 172.544C155.193 171.641 161.933 155.038 165.303 147.102C164.917 147.253 164.53 147.403 164.123 147.554C158.67 155.92 147.508 172.608 145.833 171.748C144.116 170.866 154.978 155.769 160.237 148.651C159.808 148.737 159.378 148.801 158.949 148.866C152.745 154.715 141.454 164.866 140.188 162.372C139.157 160.35 146.241 153.769 152.402 148.608Z" fill="url(#paint0_linear_442_451)"/>
</mask>
<g mask="url(#mask0_442_451)">
<path opacity="0.6" d="M152.402 148.608C136.388 145.059 127.394 120.477 132.374 115.854C133.705 114.628 135.358 114.155 137.161 114.09C140.059 111.036 142.785 107.703 145.361 104.219C150.835 96.7777 155.6 88.5623 159.679 80.6911C159.7 80.6481 159.722 80.605 159.743 80.562C160.516 79.0566 161.289 77.5512 162.019 76.0672C162.062 75.9597 162.126 75.8522 162.169 75.7662C162.878 74.3252 163.564 72.8843 164.23 71.4864C164.273 71.3789 164.337 71.2714 164.38 71.1638C165.046 69.7659 165.69 68.368 166.312 67.0347C170.562 57.8085 173.697 50.2168 175.779 46.6683C175.779 46.6468 175.8 46.6468 175.8 46.6253C176.766 43.2488 177.582 40.2165 178.355 37.6357C168.223 34.3668 158.906 30.7107 153.561 20.0006C163.521 17.0973 173.868 18.6027 181.124 30.4742C181.446 29.8935 181.789 29.3988 182.154 28.9687C181.231 27.6784 181.06 26.56 182.111 25.6353C182.541 11.7638 194.991 -1.7636 200.723 0.214968C200.723 0.214968 187.886 13.0757 191.363 24.689C192.029 24.9471 192.63 25.2697 193.081 25.7428C194.218 26.9041 194.369 28.13 194.24 29.0763C197.717 30.8613 201.989 33.0549 209.223 33.528C217.703 34.0872 222.146 31.614 226.031 30.2161C226.268 29.2483 226.912 28.0655 228.586 27.4418C229.208 27.2052 229.874 27.1837 230.582 27.2267C238.718 18.2156 232.579 1.09672 232.579 1.09672C238.611 1.76341 244.106 19.334 238.568 32.0441C239.062 33.1409 238.654 33.9797 237.645 34.6894C237.666 34.7109 237.666 34.7539 237.688 34.7754C245.48 29.6569 254.088 26.4955 267.011 26.8396C260.549 37.5712 253.015 42.5391 239.942 42.2595C241.809 49.3351 244.02 58.6257 247.777 67.6368C248.764 69.981 249.838 72.3252 251.061 74.5833C251.727 75.293 252.392 75.9812 253.079 76.6479L253.101 76.6694C253.787 77.3361 254.474 78.0028 255.204 78.6695C265.25 87.8526 278.087 94.3905 292.813 96.4981C306.831 98.4982 322.544 96.4766 339.181 88.8419C363.266 77.7662 360.84 86.1751 369.684 87.0784C372.904 87.401 375.888 85.3794 379.323 84.7772C379.537 84.7342 379.773 84.7127 380.009 84.6697C382.972 75.4866 385.333 64.4539 388.703 54.174C390.27 49.4211 392.031 44.8403 394.177 40.6896C394.22 40.6036 394.263 40.539 394.306 40.453C394.8 39.5283 395.294 38.6035 395.809 37.7217C395.873 37.5927 395.959 37.4637 396.023 37.3561C396.539 36.5174 397.054 35.7002 397.59 34.9044C397.676 34.7754 397.762 34.6464 397.848 34.5173C398.406 33.7216 398.986 32.9689 399.565 32.2377C399.651 32.1301 399.737 32.0226 399.823 31.9151C400.467 31.1624 401.111 30.4311 401.798 29.7429C401.841 29.6999 401.884 29.6569 401.905 29.6139C401.905 29.6139 401.905 29.6139 401.905 29.6354C409.268 22.2803 419.744 18.9899 435.479 23.4416C447.07 9.3981 462.569 32.7753 466.605 39.4422C467.506 40.5606 468 41.2918 468 41.2918C460.659 41.8939 455.27 41.9154 451.364 41.2918C431.722 39.8508 430.327 31.7 433.718 26.0224C417.318 21.4846 393.168 24.5169 387.737 87.1644C390.034 89.1 391.73 91.5087 394.95 92.3904C402.914 94.5626 403.129 88.8419 411.737 98.5842C411.93 98.7993 412.123 99.0573 412.316 99.3154C412.381 99.4014 412.445 99.509 412.51 99.595C412.638 99.7886 412.767 99.9821 412.896 100.197C412.96 100.326 413.046 100.455 413.111 100.584C413.239 100.799 413.347 101.014 413.476 101.229C413.561 101.38 413.626 101.531 413.712 101.681C413.819 101.918 413.948 102.154 414.055 102.412C414.141 102.584 414.205 102.735 414.27 102.907C414.377 103.165 414.506 103.445 414.613 103.724C414.678 103.896 414.763 104.068 414.828 104.262C414.957 104.584 415.064 104.907 415.171 105.23C415.236 105.402 415.3 105.552 415.343 105.746C415.493 106.197 415.644 106.649 415.794 107.122C415.815 107.187 415.837 107.251 415.858 107.337C416.03 107.875 416.18 108.456 416.352 109.036C416.416 109.23 416.459 109.445 416.524 109.66C416.631 110.047 416.738 110.456 416.824 110.864C416.889 111.122 416.953 111.402 417.017 111.66C417.103 112.026 417.189 112.391 417.275 112.778C417.339 113.079 417.404 113.38 417.468 113.682C417.554 114.047 417.619 114.434 417.704 114.8C417.769 115.122 417.833 115.445 417.876 115.768C417.941 116.155 418.005 116.542 418.091 116.929C418.155 117.273 418.198 117.596 418.262 117.94C418.327 118.348 418.391 118.757 418.456 119.166C418.499 119.51 418.563 119.854 418.606 120.198C418.67 120.65 418.735 121.123 418.799 121.596C418.864 122.026 418.906 122.456 418.971 122.908C419.057 123.553 419.121 124.198 419.186 124.843C419.228 125.23 419.25 125.639 419.293 126.048C419.336 126.478 419.379 126.886 419.4 127.316C419.422 127.575 419.443 127.833 419.465 128.091C419.465 127.983 419.486 127.876 419.486 127.768C421.203 148.694 418.584 176.802 405.619 200.502L419.722 253.558L415.515 278.182L413.969 287.215H404.245L405.533 260.655L376.21 232.138C376.124 232.181 376.038 232.245 375.952 232.288L380.782 253.558L375.759 287.215H367.258L368.418 260.655L363.03 254.655C360.454 257.45 357.384 259.859 354.014 261.687C353.713 261.902 353.391 262.117 353.069 262.311C357.599 265.644 365.133 265.752 361.527 270.246C357.191 275.645 352.533 267.773 350.536 263.709C348.411 264.741 346.179 265.472 343.86 265.816C344.762 271.193 347.66 275.731 342.1 275.58C338.73 275.494 340.275 271.021 341.284 266.031C338.88 266.096 336.433 265.709 333.964 264.848C332.247 268.655 328.49 275.107 324.154 271.107C320.505 267.73 327.116 266.784 331.259 263.709C331.109 263.623 330.937 263.537 330.787 263.451C324.412 260.977 318.079 255.837 312.498 247.106C294.874 246.697 279.569 243.88 266.324 239.278L264.005 279.473L263.447 289.021H254.238L252.864 279.473L245.695 229.858C242.11 227.772 238.718 225.557 235.498 223.191L232.514 279.473L232.021 289.021H223.606L222.554 279.473L214.01 202.416C205.166 191.319 198.683 179.146 194.025 167.167C194.004 167.275 193.961 167.404 193.939 167.511C193.939 167.511 190.591 159.038 187.414 147.747C180.737 153.124 172.602 154.156 170.112 148.973C164.208 163.834 159.851 173.555 157.404 172.544C155.193 171.641 161.933 155.038 165.303 147.102C164.917 147.253 164.53 147.403 164.123 147.554C158.67 155.92 147.508 172.608 145.833 171.748C144.116 170.866 154.978 155.769 160.237 148.651C159.808 148.737 159.378 148.801 158.949 148.866C152.745 154.715 141.454 164.866 140.188 162.372C139.157 160.35 146.241 153.769 152.402 148.608Z" fill="url(#paint1_linear_442_451)"/>
</g>
</g>
<g clip-path="url(#clip1_442_451)">
<path d="M29.265 195.616C29.3448 197.115 28.596 202.034 30.1836 203.863C30.1836 203.863 27.937 202.783 26.6888 200.694L29.265 195.616Z" fill="#E5CEC3"/>
<path d="M28.4368 199.365C28.5167 200.864 27.7678 205.783 29.3555 207.612C29.3555 207.612 27.1088 206.532 25.8607 204.443L28.4368 199.365Z" fill="#E5CEC3"/>
<path d="M55.6055 272.753C55.6055 273.203 52.9095 289.388 52.9095 289.388L50.9624 289.238C50.9624 289.238 53.3588 275.152 49.3149 271.563L55.6055 272.753Z" fill="#E8A52E"/>
<path d="M44.8223 272.753C44.8223 273.203 42.1263 289.388 42.1263 289.388L40.1793 289.238C40.1793 289.238 42.5757 275.152 38.5317 271.563L44.8223 272.753Z" fill="#E8A52E"/>
<path d="M59.1914 289.988C56.4955 287.288 52.162 285.939 52.162 285.939C52.162 285.939 46.3307 287.588 44.6832 290.137L59.1914 289.988Z" fill="#E8A52E"/>
<path d="M48.2676 289.988C45.5716 287.288 41.2382 285.939 41.2382 285.939C41.2382 285.939 35.3969 287.588 33.7594 290.137L48.2676 289.988Z" fill="#E8A52E"/>
<path d="M42.2263 275.752C35.1968 275.732 24.7126 261.596 24.7126 261.596L60.9082 264.035C60.9082 264.035 50.404 275.782 42.2263 275.752Z" fill="#B29B8E"/>
<path d="M84.5324 214.32C92.4604 210.121 91.412 200.684 95.4559 200.834C97.8723 200.924 94.5573 211.321 94.5573 211.321C94.5573 211.321 96.5044 206.072 98.751 206.972C100.998 207.872 97.1035 215.51 97.1035 215.51C97.1035 215.51 103.833 203.523 105.631 213.26C106.35 217.139 103.164 221.798 99.0805 226.027C99.8294 225.847 100.269 226.067 100.249 226.916C100.169 229.566 99.2103 231.885 97.8224 233.874C98.751 233.654 99.3601 233.814 99.3601 234.564C99.3601 238.143 96.2048 241.302 92.8898 243.611C93.6886 243.611 94.098 244.101 93.6686 245.501C92.9098 248.02 89.6646 250.419 86.8489 252.009C88.8758 251.509 90.7031 251.369 90.2338 252.249C87.7875 256.747 76.2648 266.634 63.0946 269.834L84.5324 214.32Z" fill="#DBC0B4"/>
<path d="M95.5562 209.321C95.5562 209.321 97.5033 204.073 99.7499 204.973C101.997 205.873 98.1024 213.51 98.1024 213.51C98.1024 213.51 104.832 201.524 106.63 211.261C107.339 215.12 105.242 220.208 101.158 224.427C101.907 224.247 102.346 224.467 102.326 225.317C102.246 227.966 100.209 229.865 98.8213 231.855C99.7499 231.635 100.359 231.795 100.359 232.545C100.359 238.363 89.4055 250.699 71.6721 251.849L85.5313 212.321C88.0475 210.991 100.329 186.868 95.5562 209.321Z" fill="#E5CEC3"/>
<path d="M14.7977 178.811C16.7048 178.191 17.6434 179.79 18.0328 181.06C18.2025 177.751 20.1296 169.513 25.871 171.173C32.6009 173.122 29.166 178.811 29.166 178.811C29.166 178.811 30.514 176.711 31.5624 177.461C32.6109 178.211 31.862 179.71 31.862 179.71C31.862 179.71 37.853 177.161 38.8914 182.11C39.9398 187.058 35.1471 191.097 27.9679 189.897L13.7492 187.948C13.7492 187.948 9.70531 180.46 14.7977 178.811Z" fill="#CE4824"/>
<path d="M15.935 179.57C15.1462 179.29 13.0394 180.54 12.8097 181.75C12.58 182.959 13.6185 187.938 16.6639 185.828C18.2715 184.719 18.3913 180.46 15.935 179.57Z" fill="#EA5228"/>
<path d="M87.6782 212.371C68.2275 222.858 35.0573 220.028 29.915 212.671C21.5376 200.684 35.9759 193.736 25.7213 187.198C8.5172 176.231 4.47327 200.684 5.37193 225.257C5.8512 238.433 17.0444 273.802 51.7622 271.703C99.5504 268.814 87.6782 212.371 87.6782 212.371Z" fill="#E5CEC3"/>
<path d="M29.5951 191.537C28.2371 186.298 16.5347 180 11.3724 188.498C6.2102 196.995 9.25562 214.7 17.5432 214.87C25.8407 215.03 30.3339 194.366 29.5951 191.537Z" fill="#F4E2D9"/>
<path d="M14.957 204.783C14.7074 208.362 10.3839 214.78 6.46978 215.28L6.79928 203.533L14.957 204.783Z" fill="#DBC0B4"/>
<path d="M12.2618 187.068C9.41612 194.896 8.67723 206.812 9.11657 218.759C9.59585 231.935 20.789 267.304 55.5069 265.205C69.9452 264.335 78.9316 258.567 84.4434 250.959C79.6306 261.616 70.0849 270.593 51.7625 271.703C17.0447 273.802 5.85148 238.433 5.3722 225.257C4.78308 209.182 6.31079 193.146 12.2618 187.068Z" fill="#DBC0B4"/>
<path d="M24.0729 219.419C16.1548 225.507 12.2008 269.674 56.3045 267.014C95.5854 264.635 93.7482 219.029 87.4277 209.701C87.4277 209.701 70.1736 223.057 58.1917 223.167C41.8862 223.317 34.3974 211.481 24.0729 219.419Z" fill="#DBC0B4"/>
<path d="M52.2121 276.652C45.3324 276.951 29.4663 264.815 29.4663 264.815L71.3633 263.915C71.3633 263.915 60.6194 276.282 52.2121 276.652Z" fill="#DBC0B4"/>
<path d="M14.2976 205.183C14.7469 206.002 12.7399 208.832 10.8029 209.082C9.28513 209.281 2.4554 205.423 2.82485 202.773C2.82485 202.773 13.2292 203.223 14.2976 205.183Z" fill="#E8A52E"/>
<path d="M14.8084 205.353C16.0365 204.533 8.97714 198.095 7.59921 198.105C6.22128 198.115 -0.448702 201.104 0.0205927 201.864C0.519842 202.674 13.75 206.063 14.8084 205.353Z" fill="#FFC145"/>
<path d="M18.2623 199.864C16.5548 199.754 16.9143 191.547 20.1294 192.746C22.9352 193.786 19.4604 199.934 18.2623 199.864Z" fill="#4C3E29"/>
<path d="M10.8136 198.245C9.17606 198.225 8.547 191.597 11.7622 192.436C14.5779 193.166 11.9719 198.255 10.8136 198.245Z" fill="#4C3E29"/>
<path d="M25.072 214.92C17.1539 221.008 13.8488 264.065 53.0599 260.616C92.2709 257.167 90.923 221.358 87.9275 207.882C87.9275 207.882 71.1727 218.559 59.2007 218.669C42.8852 218.819 35.3964 206.982 25.072 214.92Z" fill="#F4E2D9"/>
<path d="M25.0713 214.92C35.3958 206.982 42.8745 218.819 59.19 218.669C70.3532 218.569 85.6602 209.281 87.6872 208.022C89.0252 220.388 61.7961 258.847 21.3269 241.112C18.3514 230.085 21.1372 217.949 25.0713 214.92Z" fill="#FFF0E9"/>
<path d="M58.8024 271.183C59.4215 272.473 53.5104 274.922 51.8129 274.852C48.9372 274.732 44.444 271.853 44.8234 270.973C45.2029 270.093 58.3731 270.283 58.8024 271.183Z" fill="#E5CEC3"/>
<path d="M14.119 204.723C14.9078 204.213 10.4944 200.124 9.61572 200.124C8.73704 200.124 2.8459 201.634 3.13546 202.114C3.445 202.624 13.44 205.153 14.119 204.723Z" fill="#FFD252"/>
<path d="M38.5218 184.679C38.8813 183.139 38.422 179.78 36.0855 179.62C33.749 179.46 25.6811 183.619 27.3486 186.948C29.0161 190.277 37.3736 189.537 38.5218 184.679Z" fill="#EA5228"/>
<path d="M28.9159 173.752C28.2069 172.332 24.193 170.953 22.3058 172.312C20.4087 173.682 18.3118 181.84 21.7267 183.329C25.1316 184.819 31.1425 178.211 28.9159 173.752Z" fill="#EA5228"/>
<path d="M28.4676 181.04C28.5774 181.4 29.6957 181.62 30.3747 181.16C31.0537 180.7 32.3118 178.361 31.3832 178.091C30.4546 177.821 28.1181 179.9 28.4676 181.04Z" fill="#EA5228"/>
<path d="M100.368 219.738C103.484 216.239 108.107 210.861 105.111 207.862C102.116 204.863 94.1276 218.479 94.5071 220.478C94.8865 222.478 97.2429 223.237 100.368 219.738Z" fill="#F4E2D9"/>
<path d="M97.3627 211.151C98.5409 208.952 99.9288 206.272 98.9004 205.163C97.7521 203.933 94.0676 211.771 94.3172 212.93C94.5569 214.1 95.9148 213.84 97.3627 211.151Z" fill="#F4E2D9"/>
<path d="M90.1737 206.202C89.0054 208.412 89.0054 211.531 91.9211 210.701C93.5386 210.241 96.1647 201.114 95.9151 199.954C95.6554 198.795 91.5916 203.503 90.1737 206.202Z" fill="#F4E2D9"/>
<path d="M96.3245 227.266C94.9865 228.436 95.6155 231.325 97.5726 230.395C100.528 228.996 101.467 226.017 101.587 225.187C101.716 224.347 97.962 225.827 96.3245 227.266Z" fill="#F4E2D9"/>
<path d="M85.8906 240.982C83.5142 242.981 73.659 249.599 61.5572 250.729C61.5572 250.729 71.0429 254.348 84.5227 245.611L85.8906 240.982Z" fill="#DBC0B4"/>
<path d="M89.5449 228.836C87.4181 230.895 78.4616 237.853 67.0487 239.642C67.0487 239.642 76.2549 242.572 88.5165 233.364L89.5449 228.836Z" fill="#DBC0B4"/>
<path d="M89.5153 216.409C87.5682 218.649 81.767 225.117 70.414 228.366C70.414 228.366 80.5188 228.746 89.8848 221.988L89.5153 216.409Z" fill="#DBC0B4"/>
<mask id="mask1_442_451" style="mask-type:alpha" maskUnits="userSpaceOnUse" x="-1" y="170" width="108" height="121">
<path d="M7.17995 198.165C7.17995 198.145 7.18993 198.125 7.18993 198.105C7.22987 197.945 7.26981 197.775 7.29977 197.615C7.4096 197.155 7.52943 196.715 7.64925 196.275C7.69917 196.095 7.74909 195.915 7.809 195.736C7.90885 195.406 8.00871 195.076 8.10855 194.756C8.15848 194.596 8.2084 194.446 8.25832 194.286C8.38812 193.896 8.52792 193.516 8.66771 193.146C8.72762 192.976 8.79752 192.816 8.85743 192.656C8.97725 192.357 9.10705 192.057 9.23685 191.767C9.30675 191.607 9.37665 191.447 9.45653 191.297C9.59631 190.997 9.74609 190.707 9.89587 190.417C9.97575 190.277 10.0456 190.137 10.1255 189.997C10.2853 189.717 10.445 189.447 10.6048 189.187C10.6847 189.058 10.7745 188.938 10.8544 188.808C11.0142 188.578 11.1739 188.348 11.3437 188.138C11.4336 188.028 11.5134 187.918 11.6033 187.808C11.813 187.558 12.0227 187.308 12.2423 187.088C12.5019 186.828 12.7616 186.588 13.0312 186.358C12.1525 184.069 11.1839 179.98 14.7885 178.811C16.6956 178.191 17.6342 179.79 18.0237 181.06C18.1934 177.751 20.1205 169.513 25.8619 171.173C32.5918 173.122 29.1569 178.811 29.1569 178.811C29.1569 178.811 30.5049 176.711 31.5533 177.461C32.6017 178.211 31.8529 179.71 31.8529 179.71C31.8529 179.71 37.8439 177.161 38.8823 182.11C39.8808 186.828 35.5673 190.707 28.9273 190.017C29.2268 190.527 29.4565 191.027 29.5863 191.527C29.756 192.187 29.6362 193.836 29.2568 195.945C29.2468 197.735 28.6876 202.144 30.1654 203.853C30.1654 203.853 29.2867 203.423 28.3182 202.594C28.2882 204.453 28.418 206.542 29.3366 207.602C29.3366 207.602 28.3082 207.092 27.2498 206.122C27.4894 208.082 28.2183 210.201 29.796 212.501C37.9737 210.421 45.4524 218.779 59.1818 218.659C59.5412 218.659 59.9107 218.639 60.2801 218.619C60.3999 218.609 60.5298 218.599 60.6596 218.589C60.9092 218.569 61.1588 218.549 61.4084 218.529C61.5582 218.509 61.708 218.489 61.8578 218.469C62.0874 218.439 62.3171 218.409 62.5467 218.379C62.7065 218.359 62.8662 218.329 63.026 218.299C63.2557 218.259 63.4753 218.229 63.705 218.189C63.8747 218.159 64.0345 218.129 64.2042 218.089C64.4339 218.049 64.6536 217.999 64.8832 217.949C65.053 217.909 65.2227 217.869 65.3825 217.839C65.6121 217.789 65.8318 217.729 66.0614 217.679C66.2312 217.639 66.4009 217.589 66.5707 217.549C66.8003 217.489 67.03 217.429 67.2497 217.369C67.4194 217.319 67.5891 217.279 67.7489 217.229C67.9786 217.159 68.2082 217.089 68.4379 217.019C68.5976 216.969 68.7574 216.919 68.9171 216.869C69.1568 216.789 69.3964 216.719 69.6361 216.639C69.7958 216.589 69.9456 216.539 70.0954 216.489C70.345 216.409 70.5846 216.319 70.8243 216.229C70.9741 216.179 71.1138 216.129 71.2636 216.07C71.5232 215.98 71.7729 215.88 72.0325 215.79C72.1623 215.74 72.2921 215.69 72.4219 215.64C72.7015 215.53 72.991 215.42 73.2706 215.31C73.3705 215.27 73.4703 215.23 73.5602 215.19C73.9196 215.05 74.2691 214.9 74.6186 214.75C74.6385 214.74 74.6585 214.73 74.6785 214.72C75.4373 214.4 76.1862 214.07 76.9051 213.74C76.965 213.71 77.025 213.68 77.0849 213.66C77.3744 213.53 77.674 213.39 77.9536 213.26C78.0434 213.21 78.1433 213.17 78.2331 213.13C78.4828 213.01 78.7324 212.89 78.972 212.78C79.0819 212.731 79.1817 212.681 79.2916 212.621C79.5112 212.511 79.7409 212.401 79.9605 212.291C80.0704 212.231 80.1802 212.181 80.3 212.121C80.4997 212.021 80.7094 211.911 80.9091 211.811C81.0289 211.751 81.1388 211.691 81.2486 211.631C81.4383 211.531 81.6181 211.441 81.8078 211.341C81.9276 211.281 82.0374 211.221 82.1473 211.161C82.317 211.071 82.4867 210.981 82.6565 210.891C82.7663 210.831 82.8862 210.771 82.996 210.711C83.1557 210.631 83.3055 210.541 83.4553 210.461C83.5651 210.401 83.675 210.341 83.7848 210.281C83.9246 210.201 84.0644 210.121 84.2042 210.051C84.304 209.991 84.4039 209.941 84.5037 209.881C84.6335 209.811 84.7633 209.741 84.8831 209.661C84.983 209.601 85.0828 209.551 85.1727 209.491C85.2825 209.431 85.3824 209.371 85.4922 209.312C85.5921 209.252 85.6919 209.202 85.7818 209.142C85.8617 209.092 85.9416 209.052 86.0214 209.002C86.1213 208.942 86.2311 208.882 86.321 208.822C86.331 208.812 86.341 208.812 86.3509 208.802C86.97 208.432 87.4193 208.162 87.669 208.002C87.8187 207.912 87.8986 207.862 87.8986 207.862C87.9785 208.242 88.0684 208.652 88.1482 209.072C88.8073 208.122 89.5262 207.052 90.2551 205.983C91.1038 204.443 92.7014 202.364 93.9895 201.044C94.2391 200.774 94.4887 200.534 94.7184 200.344C95.2276 199.904 95.627 199.674 95.7967 199.794C96.8252 199.794 97.0249 202.194 95.5771 209.102C95.6769 208.882 95.7868 208.672 95.8966 208.452C96.2461 207.692 96.8252 206.592 97.5341 205.813C97.8736 205.403 98.1832 205.143 98.4428 205.073C98.8422 204.863 99.2715 204.803 99.7109 204.973C101.279 205.603 99.8606 209.491 98.8621 211.801C100.899 209.032 103.186 206.872 104.653 207.572C105.472 207.892 106.171 208.972 106.591 211.271C107.299 215.13 105.203 220.218 101.119 224.437C101.868 224.257 102.307 224.477 102.287 225.327C102.217 227.696 100.59 229.466 99.2516 231.225C99.1617 231.435 99.0718 231.635 98.972 231.835C99.7907 231.685 100.31 231.855 100.31 232.545C100.31 233.824 99.7808 235.414 98.7723 237.133C97.9335 239.153 96.2261 240.972 94.299 242.512C93.8996 242.882 93.4702 243.251 93.0309 243.611C93.6999 243.691 94.0194 244.201 93.63 245.481C92.8711 248 89.626 250.399 86.8103 251.989C88.8372 251.489 90.6645 251.349 90.1952 252.229C87.9585 256.338 78.1533 264.915 66.4409 268.814C63.3056 271.633 59.0919 274.842 55.068 276.102C54.5787 279.121 53.8598 283.499 53.3805 286.389C54.8683 286.988 57.3845 288.178 59.1718 289.978L44.6536 290.128C44.6836 290.088 44.7135 290.048 44.7435 290.018L33.73 290.128C35.0381 288.098 39.0121 286.639 40.5698 286.129C40.8693 283.22 41.1189 278.821 40.4 275.462C36.4959 274.342 31.9727 270.033 28.7775 266.515C11.833 256.518 5.70216 234.924 5.3427 225.257C5.32274 224.577 5.30276 223.897 5.2828 223.217C5.2828 223.047 5.27281 222.877 5.27281 222.708C5.25284 222.038 5.24286 221.368 5.24286 220.698C5.24286 220.628 5.24286 220.568 5.24286 220.498C5.24286 219.888 5.23287 219.269 5.24286 218.659C5.24286 218.489 5.24286 218.319 5.24286 218.149C5.24286 217.499 5.25284 216.849 5.26283 216.199C5.26283 216.09 5.27281 215.97 5.27281 215.86C5.2828 215.31 5.30277 214.75 5.32274 214.2C5.33273 214.02 5.33272 213.84 5.3427 213.66C5.36268 213.04 5.39263 212.421 5.42258 211.801C5.43257 211.651 5.44256 211.501 5.45254 211.351C5.4825 210.851 5.51245 210.351 5.54241 209.851C5.55239 209.671 5.57236 209.481 5.58235 209.302C5.62229 208.712 5.67222 208.132 5.72214 207.552C5.74211 207.382 5.75209 207.202 5.77206 207.032C5.78204 206.942 5.79203 206.842 5.80202 206.752C4.17446 205.583 2.82649 204.173 2.81651 202.963C1.25884 202.484 0.140526 202.064 0.000740051 201.844C-0.408646 201.164 5.22289 198.575 7.17995 198.165ZM51.4135 276.632C49.8858 276.512 48.0186 275.912 46.0315 275.052C45.4924 275.242 44.9532 275.392 44.414 275.512C43.9347 278.541 43.1359 283.37 42.6267 286.469C43.6451 286.888 45.073 287.568 46.4409 288.498C48.0785 287.388 50.2252 286.589 51.3735 286.209C51.6331 283.599 51.8628 279.811 51.4135 276.632Z" fill="url(#paint2_linear_442_451)"/>
</mask>
<g mask="url(#mask1_442_451)">
<path opacity="0.6" d="M7.17995 198.165C7.17995 198.145 7.18993 198.125 7.18993 198.105C7.22987 197.945 7.26981 197.775 7.29977 197.615C7.4096 197.155 7.52943 196.715 7.64925 196.275C7.69917 196.095 7.74909 195.915 7.809 195.736C7.90885 195.406 8.00871 195.076 8.10855 194.756C8.15848 194.596 8.2084 194.446 8.25832 194.286C8.38812 193.896 8.52792 193.516 8.66771 193.146C8.72762 192.976 8.79752 192.816 8.85743 192.656C8.97725 192.357 9.10705 192.057 9.23685 191.767C9.30675 191.607 9.37665 191.447 9.45653 191.297C9.59631 190.997 9.74609 190.707 9.89587 190.417C9.97575 190.277 10.0456 190.137 10.1255 189.997C10.2853 189.717 10.445 189.447 10.6048 189.187C10.6847 189.058 10.7745 188.938 10.8544 188.808C11.0142 188.578 11.1739 188.348 11.3437 188.138C11.4336 188.028 11.5134 187.918 11.6033 187.808C11.813 187.558 12.0227 187.308 12.2423 187.088C12.5019 186.828 12.7616 186.588 13.0312 186.358C12.1525 184.069 11.1839 179.98 14.7885 178.811C16.6956 178.191 17.6342 179.79 18.0237 181.06C18.1934 177.751 20.1205 169.513 25.8619 171.173C32.5918 173.122 29.1569 178.811 29.1569 178.811C29.1569 178.811 30.5049 176.711 31.5533 177.461C32.6017 178.211 31.8529 179.71 31.8529 179.71C31.8529 179.71 37.8439 177.161 38.8823 182.11C39.8808 186.828 35.5673 190.707 28.9273 190.017C29.2268 190.527 29.4565 191.027 29.5863 191.527C29.756 192.187 29.6362 193.836 29.2568 195.945C29.2468 197.735 28.6876 202.144 30.1654 203.853C30.1654 203.853 29.2867 203.423 28.3182 202.594C28.2882 204.453 28.418 206.542 29.3366 207.602C29.3366 207.602 28.3082 207.092 27.2498 206.122C27.4894 208.082 28.2183 210.201 29.796 212.501C37.9737 210.421 45.4524 218.779 59.1818 218.659C59.5412 218.659 59.9107 218.639 60.2801 218.619C60.3999 218.609 60.5298 218.599 60.6596 218.589C60.9092 218.569 61.1588 218.549 61.4084 218.529C61.5582 218.509 61.708 218.489 61.8578 218.469C62.0874 218.439 62.3171 218.409 62.5467 218.379C62.7065 218.359 62.8662 218.329 63.026 218.299C63.2557 218.259 63.4753 218.229 63.705 218.189C63.8747 218.159 64.0345 218.129 64.2042 218.089C64.4339 218.049 64.6536 217.999 64.8832 217.949C65.053 217.909 65.2227 217.869 65.3825 217.839C65.6121 217.789 65.8318 217.729 66.0614 217.679C66.2312 217.639 66.4009 217.589 66.5707 217.549C66.8003 217.489 67.03 217.429 67.2497 217.369C67.4194 217.319 67.5891 217.279 67.7489 217.229C67.9786 217.159 68.2082 217.089 68.4379 217.019C68.5976 216.969 68.7574 216.919 68.9171 216.869C69.1568 216.789 69.3964 216.719 69.6361 216.639C69.7958 216.589 69.9456 216.539 70.0954 216.489C70.345 216.409 70.5846 216.319 70.8243 216.229C70.9741 216.179 71.1138 216.129 71.2636 216.07C71.5232 215.98 71.7729 215.88 72.0325 215.79C72.1623 215.74 72.2921 215.69 72.4219 215.64C72.7015 215.53 72.991 215.42 73.2706 215.31C73.3705 215.27 73.4703 215.23 73.5602 215.19C73.9196 215.05 74.2691 214.9 74.6186 214.75C74.6385 214.74 74.6585 214.73 74.6785 214.72C75.4373 214.4 76.1862 214.07 76.9051 213.74C76.965 213.71 77.025 213.68 77.0849 213.66C77.3744 213.53 77.674 213.39 77.9536 213.26C78.0434 213.21 78.1433 213.17 78.2331 213.13C78.4828 213.01 78.7324 212.89 78.972 212.78C79.0819 212.731 79.1817 212.681 79.2916 212.621C79.5112 212.511 79.7409 212.401 79.9605 212.291C80.0704 212.231 80.1802 212.181 80.3 212.121C80.4997 212.021 80.7094 211.911 80.9091 211.811C81.0289 211.751 81.1388 211.691 81.2486 211.631C81.4383 211.531 81.6181 211.441 81.8078 211.341C81.9276 211.281 82.0374 211.221 82.1473 211.161C82.317 211.071 82.4867 210.981 82.6565 210.891C82.7663 210.831 82.8862 210.771 82.996 210.711C83.1557 210.631 83.3055 210.541 83.4553 210.461C83.5651 210.401 83.675 210.341 83.7848 210.281C83.9246 210.201 84.0644 210.121 84.2042 210.051C84.304 209.991 84.4039 209.941 84.5037 209.881C84.6335 209.811 84.7633 209.741 84.8831 209.661C84.983 209.601 85.0828 209.551 85.1727 209.491C85.2825 209.431 85.3824 209.371 85.4922 209.312C85.5921 209.252 85.6919 209.202 85.7818 209.142C85.8617 209.092 85.9416 209.052 86.0214 209.002C86.1213 208.942 86.2311 208.882 86.321 208.822C86.331 208.812 86.341 208.812 86.3509 208.802C86.97 208.432 87.4193 208.162 87.669 208.002C87.8187 207.912 87.8986 207.862 87.8986 207.862C87.9785 208.242 88.0684 208.652 88.1482 209.072C88.8073 208.122 89.5262 207.052 90.2551 205.983C91.1038 204.443 92.7014 202.364 93.9895 201.044C94.2391 200.774 94.4887 200.534 94.7184 200.344C95.2276 199.904 95.627 199.674 95.7967 199.794C96.8252 199.794 97.0249 202.194 95.5771 209.102C95.6769 208.882 95.7868 208.672 95.8966 208.452C96.2461 207.692 96.8252 206.592 97.5341 205.813C97.8736 205.403 98.1832 205.143 98.4428 205.073C98.8422 204.863 99.2715 204.803 99.7109 204.973C101.279 205.603 99.8606 209.491 98.8621 211.801C100.899 209.032 103.186 206.872 104.653 207.572C105.472 207.892 106.171 208.972 106.591 211.271C107.299 215.13 105.203 220.218 101.119 224.437C101.868 224.257 102.307 224.477 102.287 225.327C102.217 227.696 100.59 229.466 99.2516 231.225C99.1617 231.435 99.0718 231.635 98.972 231.835C99.7907 231.685 100.31 231.855 100.31 232.545C100.31 233.824 99.7808 235.414 98.7723 237.133C97.9335 239.153 96.2261 240.972 94.299 242.512C93.8996 242.882 93.4702 243.251 93.0309 243.611C93.6999 243.691 94.0194 244.201 93.63 245.481C92.8711 248 89.626 250.399 86.8103 251.989C88.8372 251.489 90.6645 251.349 90.1952 252.229C87.9585 256.338 78.1533 264.915 66.4409 268.814C63.3056 271.633 59.0919 274.842 55.068 276.102C54.5787 279.121 53.8598 283.499 53.3805 286.389C54.8683 286.988 57.3845 288.178 59.1718 289.978L44.6536 290.128C44.6836 290.088 44.7135 290.048 44.7435 290.018L33.73 290.128C35.0381 288.098 39.0121 286.639 40.5698 286.129C40.8693 283.22 41.1189 278.821 40.4 275.462C36.4959 274.342 31.9727 270.033 28.7775 266.515C11.833 256.518 5.70216 234.924 5.3427 225.257C5.32274 224.577 5.30276 223.897 5.2828 223.217C5.2828 223.047 5.27281 222.877 5.27281 222.708C5.25284 222.038 5.24286 221.368 5.24286 220.698C5.24286 220.628 5.24286 220.568 5.24286 220.498C5.24286 219.888 5.23287 219.269 5.24286 218.659C5.24286 218.489 5.24286 218.319 5.24286 218.149C5.24286 217.499 5.25284 216.849 5.26283 216.199C5.26283 216.09 5.27281 215.97 5.27281 215.86C5.2828 215.31 5.30277 214.75 5.32274 214.2C5.33273 214.02 5.33272 213.84 5.3427 213.66C5.36268 213.04 5.39263 212.421 5.42258 211.801C5.43257 211.651 5.44256 211.501 5.45254 211.351C5.4825 210.851 5.51245 210.351 5.54241 209.851C5.55239 209.671 5.57236 209.481 5.58235 209.302C5.62229 208.712 5.67222 208.132 5.72214 207.552C5.74211 207.382 5.75209 207.202 5.77206 207.032C5.78204 206.942 5.79203 206.842 5.80202 206.752C4.17446 205.583 2.82649 204.173 2.81651 202.963C1.25884 202.484 0.140526 202.064 0.000740051 201.844C-0.408646 201.164 5.22289 198.575 7.17995 198.165ZM51.4135 276.632C49.8858 276.512 48.0186 275.912 46.0315 275.052C45.4924 275.242 44.9532 275.392 44.414 275.512C43.9347 278.541 43.1359 283.37 42.6267 286.469C43.6451 286.888 45.073 287.568 46.4409 288.498C48.0785 287.388 50.2252 286.589 51.3735 286.209C51.6331 283.599 51.8628 279.811 51.4135 276.632Z" fill="url(#paint3_linear_442_451)"/>
</g>
</g>
<defs>
<linearGradient id="paint0_linear_442_451" x1="299.5" y1="32.1437" x2="299.5" y2="253.722" gradientUnits="userSpaceOnUse">
<stop offset="0.0215" stop-color="#999999"/>
<stop offset="1" stop-color="white"/>
</linearGradient>
<linearGradient id="paint1_linear_442_451" x1="299.5" y1="32.1437" x2="299.5" y2="253.722" gradientUnits="userSpaceOnUse">
<stop offset="0.0215" stop-color="#FFD995"/>
<stop offset="1" stop-color="#5C0028"/>
</linearGradient>
<linearGradient id="paint2_linear_442_451" x1="53.3835" y1="175.873" x2="53.3835" y2="289.341" gradientUnits="userSpaceOnUse">
<stop offset="0.0215" stop-color="#999999"/>
<stop offset="1" stop-color="white"/>
</linearGradient>
<linearGradient id="paint3_linear_442_451" x1="53.3835" y1="175.873" x2="53.3835" y2="289.341" gradientUnits="userSpaceOnUse">
<stop offset="0.0215" stop-color="#FFD995"/>
<stop offset="1" stop-color="#240043"/>
</linearGradient>
<clipPath id="clip0_442_451">
<rect width="337" height="289" fill="white" transform="matrix(-1 0 0 1 468 0)"/>
</clipPath>
<clipPath id="clip1_442_451">
<rect width="106.77" height="119.185" fill="white" transform="matrix(-1 0 0 1 106.77 170.953)"/>
</clipPath>
</defs>
</svg>
