<svg width="561" height="347" viewBox="0 0 561 347" fill="none" xmlns="http://www.w3.org/2000/svg">
<path d="M370.829 326.09L361.098 326.524L353.073 326.884L343.058 327.333L334.719 327.707L324.209 328.172L315.496 328.561L305.241 329.026L300.794 329.22L299.656 324.472L304.746 324.352L315.241 324.097L323.76 323.903L334.479 323.648L342.654 323.453L352.864 323.199L360.724 323.019L370.635 322.779L378.809 322.584L379.034 325.73L370.829 326.09Z" fill="url(#paint0_linear_268_2826)"/>
<path d="M358.943 306.032L369.677 306.152L377.657 306.242L377.882 309.417L369.872 309.477L359.317 309.567L352.071 309.612L341.202 309.702L333.687 309.762L322.279 309.852L314.419 309.912L303.235 310.002L295.106 310.062L293.953 305.328L302.756 305.418L314.179 305.553L321.829 305.628L333.447 305.763L340.798 305.837L351.862 305.957L358.943 306.032Z" fill="url(#paint1_linear_268_2826)"/>
<path d="M299.656 324.472L300.793 329.22H297.425L295.748 324.472H299.656Z" fill="#91312B"/>
<path d="M293.952 305.328L295.105 310.062H291.722L290.045 305.328H293.952Z" fill="#91312B"/>
<path d="M368.959 293.809L369.677 306.152L358.943 306.032L357.656 293.809L362.746 286.859L368.959 293.809ZM359.317 309.567L360.725 322.974V323.019L370.636 322.779L369.872 309.477L359.317 309.567ZM361.099 326.524L362.042 335.512L371.369 335.407L370.83 326.09L361.099 326.524ZM343.059 327.333L344.84 344.229H354.077L353.074 326.883L343.059 327.333ZM341.202 309.702L342.654 323.453L352.865 323.199L352.071 309.612L341.202 309.702ZM344.616 284.747L339.346 291.952L340.798 305.837L351.862 305.957L351.053 291.952L344.616 284.747ZM332.474 288.881L325.662 281.241L320.078 288.881L321.83 305.628L333.447 305.763V305.643L332.474 288.881ZM322.279 309.852L323.761 323.903L334.48 323.648L333.687 309.762L322.279 309.852ZM324.21 328.172L325.887 344.229H335.678L334.72 327.707L324.21 328.172ZM305.241 329.025L306.843 344.229H316.41L315.497 328.561L305.241 329.025ZM303.235 310.002L304.747 324.352L315.242 324.097L314.419 309.912L303.235 310.002ZM306.604 282.65L301.154 290.109L302.756 305.328V305.418L314.179 305.553L313.281 290.109L306.604 282.65Z" fill="url(#paint2_linear_268_2826)"/>
<path d="M514.897 300.025L514.089 315.02L508.534 315.214V315.065L509.478 300.025H514.897ZM507.037 314.975L507.981 300.025H501.857V299.516L501.408 315.469L508.534 315.214V315.065L507.037 314.975ZM510.795 279.099L509.567 298.528H514.942V299.097L516.02 279.099H510.795ZM502.456 279.099V278.23L501.887 298.528H508.07L509.283 279.099H502.456ZM512.337 254.353L510.885 277.601H516.065V278.156L517.308 254.968L512.337 254.353ZM503.16 253.23L502.471 277.601H509.388L510.855 254.219L511.514 254.264L503.16 253.23Z" fill="#00B8C4"/>
<path d="M469.744 296.85L469.505 313.507H459.639L461.136 313.492L460.881 296.85H469.744ZM452.902 296.85L453.605 313.507H459.639L459.384 296.85H452.902ZM460.552 274.561L460.866 295.352H469.759L470.059 274.561H460.552ZM451.943 274.561L452.857 295.966V295.352H459.369L459.055 274.575L460.552 274.561H451.943Z" fill="url(#paint3_linear_268_2826)"/>
<path d="M440.326 189.823V202.27H431.344L431.898 202.225L431.508 190.377H440.296L440.326 189.823ZM423.469 190.377L424.457 202.27H430.775L430.385 190.377H423.469ZM421.702 168.956L423.424 189.867L423.454 189.253H430.34L429.667 168.956H421.702ZM440.296 168.956H430.79L431.463 189.253H440.326V168.207L440.296 168.956ZM429.996 145.544L430.745 167.833H440.326V145.544H429.996ZM429.442 145.544H419.756L421.642 168.402L421.672 167.833H429.622L428.873 145.589L429.442 145.544Z" fill="url(#paint4_linear_268_2826)"/>
<path d="M387.447 190.377L388.33 202.27H382.012L380.545 190.377H387.447ZM397.373 190.377H388.585L389.453 202.225L388.899 202.27H397.882L397.373 189.748V190.377ZM396.505 168.956H386.983L388.495 189.253H397.358L396.505 168.387V168.956ZM377.895 168.956L380.47 189.793V189.253H387.372L385.86 168.956H377.895ZM384.692 145.544H375.006L377.835 168.447V167.833H385.785L384.138 145.589L384.692 145.544ZM395.576 145.544H385.246L386.908 167.833H396.49L395.576 145.544Z" fill="url(#paint5_linear_268_2826)"/>
<path d="M388.375 99.647L389.123 114.177C382.222 113.892 378.194 109.773 377.161 101.939C377.087 101.415 377.042 100.905 377.012 100.381L388.375 99.647ZM380.59 87.5887C378.254 90.5995 376.982 94.584 376.967 98.8831L388.3 98.1491L387.551 83.1398C384.872 83.6341 382.476 85.162 380.59 87.5887ZM389.543 82.9451C389.123 82.9451 388.704 82.975 388.285 83.02C388.255 83.02 388.24 83.02 388.21 83.0349L389.034 82.99L389.797 98.0592L401.19 97.3252C400.262 83.9936 392.073 82.9451 389.543 82.9451ZM389.872 99.5571L390.606 114.162C392.821 113.937 395.262 112.649 397.118 110.672C399.109 108.605 401.385 104.875 401.265 98.8232L389.872 99.5571Z" fill="url(#paint6_linear_268_2826)"/>
<path d="M452.902 296.85L453.606 313.507H451.48L449.549 274.561H451.944L452.857 295.966V296.85H452.902Z" fill="#1D6066"/>
<path d="M473.098 271.565L472.454 316.503H448.635L446.404 271.565H473.098ZM469.759 295.352L470.059 274.561H460.552H451.944H449.548L451.48 313.507H453.605H459.639H469.505L469.744 296.85H469.759V295.607V295.352Z" fill="#BBC63F"/>
<path d="M520.198 255.327L516.605 314.93L514.09 315.02L514.898 300.026H514.943V299.097L516.021 279.099H516.066V278.156L517.309 254.968L520.198 255.327Z" fill="#1D6066"/>
<path d="M523.356 252.691L519.434 317.836L498.324 318.57L500.255 249.86L523.356 252.691ZM516.604 314.93L520.197 255.327L517.308 254.968L512.337 254.353V254.308L511.514 254.264L503.16 253.23L502.471 277.601H502.456V278.23L501.887 298.527H501.857V299.516L501.408 315.469L508.535 315.214L514.089 315.02L516.604 314.93Z" fill="#2B9970"/>
<path d="M551.172 162.47L560.125 175.697L478.831 164.478L444.233 122.401L462.647 125.337L446.149 121.262L409.26 74.6017L436.148 81.0727L410.787 72.879L391.175 53.0464L413.587 59.5474L392.447 50.2453L368.748 25.065C368.329 24.5557 367.879 24.1962 367.4 23.9565L463.156 63.502H463.336L464.489 92.7566L470.223 99.692L477.364 108.32L482.888 109.039L501.767 111.511L502.306 103.676L503.279 89.3862L504.072 77.7922L511.318 80.7132L509.926 85.6863L528.011 110.163H513.609L524.448 112.2L545.333 141.02L526.859 141.904L542.788 143.312L552.983 159.609L539.734 161.287L551.172 162.47Z" fill="#2B9970"/>
<path d="M560.124 175.697L556.426 178.244L544.36 176.746L475.268 168.162L478.831 164.478L560.124 175.697Z" fill="#1D6066"/>
<path d="M552.984 159.609L551.172 162.47L539.734 161.287L552.984 159.609Z" fill="#1D6066"/>
<path d="M545.334 141.02L542.789 143.312L526.859 141.904L545.334 141.02Z" fill="#1D6066"/>
<path d="M544.959 187.845L543.806 200.203L532.832 199.275L526.035 198.705L526.859 184.176L543.447 187.246L544.959 187.845Z" fill="#8C0C55"/>
<path d="M544.361 176.746L543.447 187.246L526.859 184.176L526.036 198.705L532.833 199.275L534.734 213.041L541.187 213.28L537.01 261.244L536.905 262.532L533.522 301.374H526.994L526.036 313.507H532.474L529.794 344.23H494.507L491.318 328.411L481.467 327.363L481.856 258.877H491.258V246.504H481.931L482.021 229.488H475.269H470.418L472.259 213.041L474.909 213.116L485.329 213.28L485.449 203.559L481.003 203.094L482.021 190.856L474.879 189.718L472.574 189.613L475.269 168.163L544.361 176.746ZM519.434 317.836L523.356 252.691L500.256 249.86H497.845L496.707 318.57H498.324L519.434 317.836Z" fill="#993352"/>
<path d="M543.806 200.203L542.668 212.427L541.201 213.041L541.186 213.28L534.733 213.041L532.832 199.275L543.806 200.203Z" fill="#8C0C55"/>
<path d="M535.078 301.643L534 313.507H532.473H526.035L526.993 301.374H533.521L535.078 301.643Z" fill="#8C0C55"/>
<path d="M528.012 110.163L524.449 112.2L513.609 110.163H528.012Z" fill="#1D6066"/>
<path d="M516.065 277.601V278.156L516.02 279.099H510.795L509.568 298.528H514.942V299.097L514.897 300.026H509.478L508.535 315.065L507.037 314.975L507.981 300.026H501.857V299.516L501.887 298.528H508.07L509.283 279.099H502.456V278.231L502.471 277.601H509.388L510.855 254.219L511.514 254.264L512.337 254.354L510.885 277.601H516.065Z" fill="#17627B"/>
<path d="M488.158 23.5071L489.012 23.552L500.495 24.1512L512.337 24.7654L509.597 35.7152L506.932 35.7752L478.457 35.2659L475.268 35.206L474.43 22.7881L479.445 23.0577L488.158 23.5071Z" fill="#A97996"/>
<path d="M506.933 35.7752L504.373 73.2235H497.292V88.9368L493.16 88.6222V102.898L502.292 103.676H502.307L501.768 111.511L482.89 109.039L483.997 100.081L477.515 98.8232H477.5L478.084 60.5809L487.112 61.3449L487.875 47.4441L478.458 46.1708L478.293 46.2008L478.458 35.2659L506.933 35.7752Z" fill="#993352"/>
<path d="M504.073 77.7923L503.279 89.3863L497.291 88.9369V73.2236H504.372L504.073 77.7923Z" fill="#8C0C55"/>
<path d="M503.279 89.3863L502.306 103.677H502.291L493.158 102.898V88.6223L497.29 88.9369L503.279 89.3863Z" fill="#8C0C55"/>
<path d="M501.453 3.13515L500.495 24.1512L489.012 23.552L496.228 21.0954L497.291 1.59229C498.668 1.95179 500.06 2.47606 501.453 3.13515Z" fill="#0A3D4D"/>
<path d="M500.255 249.86L498.324 318.57H496.707L497.845 249.86H500.255Z" fill="#BBC63F"/>
<path d="M497.292 1.59241L496.229 21.0955L489.013 23.5521L488.159 23.5072L487.111 1.60738C490.495 0.708624 493.893 0.693653 497.292 1.59241Z" fill="#17627B"/>
<path d="M491.318 328.411L494.507 344.229H481.377L481.437 334.793L481.467 327.363L491.318 328.411Z" fill="#8C0C55"/>
<path d="M491.257 246.504V258.877H481.855L481.93 246.504H491.257Z" fill="#8C0C55"/>
<path d="M487.875 47.4441L487.112 61.345L478.084 60.581L478.294 46.2009L478.458 46.1709L487.875 47.4441Z" fill="#8C0C55"/>
<path d="M485.45 203.559L485.33 213.28L474.91 213.115L475.269 203.738L473.607 203.094H481.003L485.45 203.559Z" fill="#8C0C55"/>
<path d="M483.997 100.082L482.89 109.039L477.365 108.32L477.5 98.8232H477.515L483.997 100.082Z" fill="#8C0C55"/>
<path d="M482.021 190.856L481.003 203.094H473.607L474.88 189.718L482.021 190.856Z" fill="#8C0C55"/>
<path d="M481.466 327.363L481.436 334.792H470.058L469.759 344.229H441.942V335.302H432.196C433.573 326.179 434.083 318.929 434.097 311.53L440.984 312.189L441.418 302.437C441.418 302.437 439.233 302.467 437.226 302.482V302.437V296.101H433.573C433.469 294.408 433.364 292.641 433.244 290.813C432.825 284.312 429.846 279.444 425.639 276.223C425.249 275.909 424.83 275.624 424.411 275.339C421.971 273.752 419.216 272.658 416.342 272.074C416.042 272.014 415.758 271.954 415.473 271.909C414.964 271.819 414.47 271.759 413.961 271.7C402.853 270.546 391.01 276.733 390.531 290.618C390.157 301.419 390.606 309.642 391.789 318.57H387.193V326.629L393.121 327.363H393.136C393.555 329.864 394.02 332.501 394.544 335.302H379.707L379.033 325.73L378.809 322.584L377.881 309.417L377.656 306.242L375.575 276.718H383.18L382.656 268.644L387.851 268.494L388.675 258.877H374.183L373.18 243.898H376.593H386.833L388.675 229.488H397.268L398.646 243.898H405.458H415.698L417.539 229.488H426.133L427.51 243.898H434.322H444.562L446.404 229.488H454.997L456.375 243.898H463.187H473.427L475.268 229.488H482.02L481.93 246.504H481.915H478.637V258.877H481.856L481.466 327.363ZM472.454 316.503L473.097 271.565H446.404L448.634 316.503H472.454Z" fill="url(#paint7_linear_268_2826)"/>
<path d="M481.93 246.504L481.856 258.877H478.637V246.504H481.915H481.93Z" fill="#FFA659"/>
<path d="M481.437 334.792L481.377 344.229H469.76L470.059 334.792H481.437Z" fill="#FFA659"/>
<path d="M480.135 7.85376L479.461 22.7881L479.446 23.0578L474.431 22.7881L468.547 22.4886L475.044 20.0619L475.583 6.92505C477.11 7.04488 478.622 7.35944 480.135 7.85376Z" fill="#0A3D4D"/>
<path d="M444.233 122.401L478.832 164.478L475.268 168.162L439.218 121.757L432.93 113.683L425.354 103.916L382.252 48.4627L369.826 31.3713C368.494 29.7835 365.649 30.6673 365.215 33.004L360.634 54.3496L359.182 54.035L356.322 52.8966L362.251 26.6977C362.79 24.2411 365.23 22.863 367.356 23.9415L367.401 23.9565C367.88 24.1962 368.329 24.5557 368.748 25.065L392.448 50.2452L391.175 53.0464L410.787 72.879L409.26 74.6016L446.149 121.262L444.233 122.401Z" fill="#BBC63F"/>
<path d="M475.269 35.2059L478.458 35.2658L478.293 46.2007L470.299 47.3092L471.317 59.4275L478.084 60.5809L477.5 98.8231L470.299 99.632L470.224 99.6919L464.49 92.7565L463.337 63.5019L462.199 34.9812L475.269 35.2059Z" fill="url(#paint8_linear_268_2826)"/>
<path d="M478.293 46.2009L478.084 60.5811L471.317 59.4277L470.299 47.3094L478.293 46.2009Z" fill="#FFA659"/>
<path d="M477.499 98.8232L477.364 108.32L470.223 99.692L470.298 99.6321L477.499 98.8232Z" fill="#FFA659"/>
<path d="M475.582 6.92501L475.043 20.0619L468.546 22.4885L467.618 22.4436V22.4286L466.6 8.55775C469.594 7.23957 472.588 6.70032 475.582 6.92501Z" fill="#17627B"/>
<path d="M439.217 121.756L475.268 168.162L472.573 189.613L462.527 189.703L461.24 201.686L465.162 202.136L465.357 212.906L472.259 213.04L470.417 229.488H464.564H454.997H446.403H435.699H426.132H417.539H406.835H397.268H388.675H377.97H373.838V218.403H363.867L358.897 184.175H364.451L362.954 172.417L359.735 172.596L358.897 158.636L354.735 159.624L350.139 126.999L382.252 48.4626L425.354 103.916L425.339 103.931H417.284V114.252L424.456 113.997L425.953 121.771H439.202L439.217 121.756ZM444.772 205.266L444.846 142.548H443.319H415.293L420.204 205.266H443.319H444.772ZM389.857 117.203C396.265 117.233 404.873 110.552 404.245 97.9244C403.541 83.5442 394.888 79.2602 387.956 80.0541C378.973 81.0727 372.685 90.974 374.197 102.328C375.38 111.316 380.425 117.173 389.857 117.203ZM402.448 205.266L399.978 142.548H398.451H370.425L377.895 205.266H400.996H402.448Z" fill="url(#paint9_linear_268_2826)"/>
<path d="M475.268 203.738L474.908 213.115L472.258 213.04L465.357 212.906L465.162 202.135L473.606 203.094L475.268 203.738Z" fill="#FFA659"/>
<path d="M475.269 229.488L473.428 243.898H463.188L464.565 229.488H470.419H475.269Z" fill="#91312B"/>
<path d="M474.43 22.7882L475.268 35.2061L462.198 34.9814L459.339 34.6968L457.617 21.9194L467.618 22.4437L468.546 22.4886L474.43 22.7882Z" fill="#F7DCA8"/>
<path d="M474.879 189.718L473.606 203.094L465.163 202.136L461.24 201.686L462.528 189.703L472.573 189.613L474.879 189.718Z" fill="#FFA659"/>
<path d="M469.76 295.352V295.606L469.745 296.85H460.882L461.136 313.492L459.639 313.507L459.385 296.85H452.902L452.857 295.966V295.352H459.37L459.055 274.575L460.553 274.561L460.867 295.352H469.76Z" fill="#17627B"/>
<path d="M464.565 229.488L463.187 243.898H456.375L454.998 229.488H464.565Z" fill="url(#paint10_linear_268_2826)"/>
<path d="M462.647 125.337L444.232 122.401L446.149 121.262L462.647 125.337Z" fill="#1D6066"/>
<path d="M446.404 229.488L444.563 243.898H434.322L435.7 229.488H446.404Z" fill="#91312B"/>
<path d="M444.847 142.548L444.772 205.266H443.32V142.548H444.847Z" fill="#1D6066"/>
<path d="M443.319 142.548V205.266H420.204L415.293 142.548H443.319ZM440.325 189.823L440.355 189.253H440.325V168.207L440.34 167.833H440.325V145.544H429.995V145.499L429.441 145.544H419.754H418.542L422.988 202.27H424.455H430.773V202.315L431.342 202.27H440.325V189.823Z" fill="#BBC63F"/>
<path d="M441.942 335.302V344.229H423.977L424.845 335.302H432.196H441.942Z" fill="#A38886"/>
<path d="M441.419 302.437L440.985 312.189L434.098 311.53C434.113 308.564 434.038 305.583 433.889 302.437H433.904C433.904 302.482 435.506 302.482 437.227 302.482C439.233 302.467 441.419 302.437 441.419 302.437Z" fill="#FFA659"/>
<path d="M440.327 189.253V189.823L440.297 190.377H431.509L431.898 202.225L431.344 202.27H430.775L430.386 190.377H423.469L423.424 189.867L423.454 189.253H430.341L429.667 168.956H421.702L421.643 168.402L421.673 167.833H429.622L428.874 145.589L429.443 145.544H429.996L430.745 167.833H440.327V168.207L440.297 168.956H430.79L431.464 189.253H440.327Z" fill="#17627B"/>
<path d="M439.219 121.756L439.204 121.771H425.954L424.457 113.997L432.931 113.683L439.219 121.756Z" fill="#FFA659"/>
<path d="M437.227 302.437V302.482C435.506 302.482 433.904 302.482 433.904 302.437H433.889C433.814 300.4 433.694 298.303 433.574 296.101H437.227V302.437Z" fill="#FFA659"/>
<path d="M436.148 81.0726L409.26 74.6015L410.787 72.8789L436.148 81.0726Z" fill="#1D6066"/>
<path d="M435.699 229.488L434.322 243.898H427.51L426.133 229.488H435.699Z" fill="url(#paint11_linear_268_2826)"/>
<path d="M433.889 302.437C434.039 305.583 434.113 308.564 434.099 311.53C434.084 318.929 433.575 326.179 432.197 335.302H424.846H424.502L425.64 276.223C429.847 279.444 432.826 284.312 433.245 290.813C433.365 292.641 433.47 294.408 433.575 296.101C433.694 298.303 433.814 300.4 433.889 302.437Z" fill="#BBC63F"/>
<path d="M425.355 103.916L432.93 113.683L424.456 113.997L417.285 114.252V103.931H425.34L425.355 103.916Z" fill="#FFA659"/>
<path d="M424.845 335.302L423.977 344.229H357.654L358.897 335.556L362.041 335.511L371.368 335.407L379.707 335.302H394.543H399.828H406.206H407.089H417.195H417.764H423.977H424.501H424.845Z" fill="#C7B3AA"/>
<path d="M423.468 190.377L424.457 202.27H422.989L418.543 145.544H419.756L421.642 168.402L421.627 168.956H421.702L423.424 189.867L423.409 190.377H423.468Z" fill="#1D6066"/>
<path d="M424.411 275.339L423.977 335.302H417.764L416.342 272.074C419.216 272.658 421.971 273.752 424.411 275.339Z" fill="#BBC63F"/>
<path d="M417.539 229.488L415.697 243.898H405.457L406.834 229.488H417.539Z" fill="#91312B"/>
<path d="M415.473 271.909L417.195 335.302H407.089L402.912 275.999V275.984C406.041 273.557 409.919 272.134 413.961 271.715V271.7C414.47 271.76 414.964 271.82 415.473 271.909Z" fill="#BBC63F"/>
<path d="M413.961 271.7C409.919 272.134 406.041 273.557 402.912 275.984V275.999C402.418 276.373 401.939 276.778 401.505 277.197V277.212C398.211 280.358 396.025 284.807 395.816 290.619C395.232 307.65 396.669 318.255 399.828 335.302H394.543C394.019 332.501 393.555 329.864 393.136 327.363C392.612 324.292 392.163 321.386 391.789 318.57C390.606 309.642 390.157 301.419 390.531 290.619C391.01 276.733 402.852 270.546 413.961 271.7Z" fill="#993352"/>
<path d="M413.588 59.5475L391.176 53.0465L392.448 50.2454L413.588 59.5475Z" fill="#1D6066"/>
<path d="M425.639 276.223L424.502 335.302H423.978L424.412 275.339C424.831 275.624 425.25 275.909 425.639 276.223ZM415.474 271.909L417.196 335.302H417.765L416.342 272.074C416.043 272.014 415.758 271.954 415.474 271.909ZM401.506 277.197V277.212L406.207 335.302H407.09L402.913 275.999C402.419 276.373 401.94 276.777 401.506 277.197Z" fill="#929C27"/>
<path d="M406.836 229.488L405.459 243.898H398.647L397.27 229.488H406.836Z" fill="url(#paint12_linear_268_2826)"/>
<path d="M401.506 277.212L406.207 335.302H399.829C396.67 318.255 395.233 307.65 395.817 290.618C396.026 284.806 398.212 280.358 401.506 277.212Z" fill="#BBC63F"/>
<path d="M404.245 97.9245C404.873 110.552 396.265 117.233 389.857 117.203C380.425 117.173 375.38 111.316 374.197 102.328C372.685 90.9741 378.973 81.0728 387.956 80.0542C394.888 79.2603 403.541 83.5444 404.245 97.9245ZM401.295 98.8233L401.25 98.0743L401.205 97.3254H401.19C400.262 83.9938 392.073 82.9452 389.543 82.9452C389.124 82.9452 388.704 82.9752 388.285 83.0201C388.255 83.0201 388.24 83.0201 388.21 83.0351L387.552 83.065V83.1399C384.872 83.6343 382.476 85.1621 380.59 87.5888C378.255 90.5996 376.982 94.5841 376.967 98.8832H376.922L377.012 100.321V100.381C377.042 100.905 377.087 101.415 377.162 101.939C378.195 109.773 382.222 113.892 389.124 114.177V114.252L389.872 114.207L390.366 114.192L390.606 114.177V114.162C392.822 113.937 395.262 112.649 397.118 110.672C399.109 108.605 401.385 104.875 401.265 98.8233H401.295Z" fill="#BBC63F"/>
<path d="M399.978 142.548L402.448 205.266H400.996L398.451 142.548H399.978Z" fill="#1D6066"/>
<path d="M401.25 98.0742C401.265 98.3288 401.265 98.5835 401.265 98.8231L389.872 99.5571L390.606 114.162C390.531 114.177 390.441 114.177 390.366 114.192L389.872 114.207C389.617 114.207 389.363 114.207 389.123 114.177L388.375 99.647L377.012 100.381V100.321C376.982 99.8417 376.967 99.3624 376.967 98.883L388.3 98.1491L387.551 83.1398C387.761 83.0949 387.986 83.0499 388.21 83.0349L389.034 82.99L389.797 98.0592L401.19 97.3252H401.205L401.25 98.0742Z" fill="#17627B"/>
<path d="M398.452 142.548L400.997 205.266H377.896L370.426 142.548H398.452ZM397.883 202.27L397.374 189.748V189.253H397.359L396.506 168.387V167.833H396.491L395.577 145.544H385.247V145.499L384.693 145.544H375.007H373.794L380.546 202.27H382.013H388.331V202.315L388.9 202.27H397.883Z" fill="#BBC63F"/>
<path d="M397.373 189.748V190.377H388.585L389.454 202.225L388.9 202.27H388.331L387.447 190.377H380.546L380.471 189.793V189.253H387.373L385.861 168.956H377.896L377.836 168.447V167.833H385.786L384.139 145.589L384.693 145.544H385.247L386.908 167.833H396.49L396.505 168.387V168.956H386.983L388.495 189.253H397.358L397.373 189.748Z" fill="#17627B"/>
<path d="M393.137 327.363L387.193 326.629V318.57H391.79C392.164 321.386 392.613 324.292 393.137 327.363Z" fill="#FFA659"/>
<path d="M388.676 229.488L386.834 243.898H376.594L377.971 229.488H388.676Z" fill="#91312B"/>
<path d="M388.675 258.877L387.852 268.494L382.657 268.644L371.788 268.973L371.129 258.877H374.183H388.675Z" fill="#FFA659"/>
<path d="M382.656 268.644L383.18 276.718H375.575H372.281L371.787 268.973L382.656 268.644Z" fill="#FFA659"/>
<path d="M369.827 31.3713L382.253 48.4627L350.14 126.999L354.736 159.624L352.431 160.463L352.88 164.478L337.205 163.519L360.635 54.3496L365.216 33.004C365.65 30.6672 368.495 29.7835 369.827 31.3713Z" fill="#1D6066"/>
<path d="M380.545 190.377L382.012 202.27H380.545L373.793 145.544H375.006L377.835 168.447V168.956H377.895L380.47 189.793V190.377H380.545Z" fill="#1D6066"/>
<path d="M377.971 229.488L376.594 243.898H373.18H369.782L368.404 229.488H373.839H377.971Z" fill="url(#paint13_linear_268_2826)"/>
<path d="M373.838 218.403V229.488H368.404H362.909L361.771 218.403H363.867H373.838Z" fill="#FFA659"/>
<path d="M362.955 172.417L364.452 184.175H358.898H356.697L355.754 172.806L359.736 172.596L362.955 172.417Z" fill="#FFA659"/>
<path d="M360.634 54.3495L337.204 163.519H333.775L339.12 142.293L335.871 141.14L348.492 98.4936L346.007 97.3551L351.636 85.881L350.139 84.5478L359.182 54.0349L360.634 54.3495Z" fill="#BBC63F"/>
<path d="M352.879 164.478L352.43 160.463L354.735 159.624L358.897 158.636L359.736 172.596L355.753 172.806L353.837 172.881L352.879 164.478Z" fill="#FFA659"/>
<path d="M368.719 232.843L377.417 235.33L377.971 229.488H368.404L368.719 232.843Z" fill="#CFA483"/>
<path d="M397.584 232.843L406.282 235.33L406.836 229.488H397.27L397.584 232.843Z" fill="#CFA483"/>
<path d="M426.447 232.843L435.145 235.33L435.699 229.488H426.133L426.447 232.843Z" fill="#CFA483"/>
<path d="M455.281 232.843L463.979 235.33L464.533 229.488H454.967L455.281 232.843Z" fill="#CFA483"/>
<path d="M382.643 243.898L392.179 248.332L482.021 250.908V229.488H475.269L473.428 243.898H456.376L454.968 229.488H446.405L444.563 243.898H427.511L426.134 229.488H417.54L415.699 243.898H398.647L397.269 229.488H388.676L386.835 243.898H382.643Z" fill="#E6D1C1"/>
<path d="M380.231 110.073C380.231 110.073 375.186 91.4684 386.803 86.9296C397.074 82.9152 401.265 98.8232 401.265 98.8232C400.861 86.1207 394.034 80.6832 385.411 83.784C376.518 87.409 374.347 101.175 380.231 110.073Z" fill="#CFA483"/>
<path d="M473.097 271.565L472.453 316.503H473.86L474.729 271.7L473.097 271.565Z" fill="#1D6066"/>
<path d="M402.914 335.302C402.914 335.302 393.332 284.522 410.055 279.1C425.64 274.052 432.961 288.372 432.961 288.372C430.281 276.224 418.559 268.974 408.094 273.093C400.114 276.134 396.686 280.942 395.787 291.398C394.799 302.992 396.94 320.787 399.83 335.302H402.914Z" fill="#CFA483"/>
<path d="M384.438 202.315L380.545 153.123L395.846 152.105L395.576 145.544H375.006L382.012 202.27L384.438 202.315Z" fill="#CFA483"/>
<path d="M424.457 202.27L419.756 145.544H440.326V151.281L425.64 152.239L427.601 202.315L424.457 202.27Z" fill="#CFA483"/>
<path d="M456.27 313.507L455.611 279.099L469.999 278.395L470.059 274.561H451.943L453.605 313.507H456.27Z" fill="#CFA483"/>
<path d="M353.028 147.491L386.444 79.9642L474.295 175.697L475.268 168.162L382.252 48.4626L350.139 126.999L353.028 147.491Z" fill="#CFA483"/>
<path d="M341.201 309.702L341.501 312.533L352.235 312.398L352.07 309.612L341.201 309.702Z" fill="#91312B"/>
<path d="M334.898 330.748L334.719 327.708L332.368 327.812L324.209 328.172L324.523 331.198L334.898 330.748Z" fill="#91312B"/>
<path d="M333.685 309.762L327.817 309.807L322.277 309.852L322.592 312.758L333.85 312.623L333.685 309.762Z" fill="#91312B"/>
<path d="M361.427 329.625L371.009 329.22L370.829 326.09L361.098 326.524L361.427 329.625Z" fill="#91312B"/>
<path d="M353.074 326.884L344.601 327.258L343.059 327.333L343.388 330.404L353.254 329.984L353.074 326.884Z" fill="#91312B"/>
<path d="M315.675 331.572L315.496 328.561L305.24 329.026L305.555 332.006L315.675 331.572Z" fill="#91312B"/>
<path d="M314.583 312.848L314.418 309.912L303.234 310.002L303.549 312.983L314.583 312.848Z" fill="#91312B"/>
<path d="M359.601 312.309L370.021 312.189L369.871 309.478L359.316 309.567L359.601 312.309Z" fill="#91312B"/>
<path d="M413.588 50.2454L416.073 53.5258C416.897 54.6193 417.735 55.6978 418.454 56.8662L423.005 63.6818L422.81 63.532L443.425 70.0331L442.991 70.5723L439.398 64.3559C438.814 63.3223 438.305 62.2288 437.751 61.1653L436.149 57.9447L438.126 60.9406C438.769 61.9442 439.458 62.9329 440.057 63.9664L443.635 70.1828L444.114 71.0217L443.201 70.7371L422.586 64.2361L422.466 64.1911L422.391 64.0863L417.84 57.2707C417.046 56.1622 416.358 54.9639 415.669 53.7955L413.588 50.2454Z" fill="#1D6066"/>
<path d="M444.084 78.032C444.608 78.6611 445.102 79.3202 445.611 79.9643C446.09 80.6234 446.659 81.2226 447.063 81.9416L449.713 86.0459L449.474 85.8812L462.274 88.2479L461.87 88.7871L459.579 84.0686C459.16 83.3047 458.861 82.4659 458.546 81.657L457.618 79.1854L458.98 81.4323C459.429 82.1813 459.894 82.9302 460.238 83.7391L462.528 88.4576L462.858 89.1167L462.124 88.9819L449.324 86.6151L449.159 86.5852L449.069 86.4504L446.419 82.346C445.94 81.6869 445.611 80.923 445.207 80.219C444.833 79.5 444.458 78.7809 444.084 78.032Z" fill="#1D6066"/>
<path d="M477.365 108.32L543.852 138.968L524.45 112.2L513.61 110.163H528.013L502.846 95.8723L501.768 111.511L477.365 106.912V108.32Z" fill="#1D6066"/>
<path d="M439.219 94.3594L441.33 97.3552C441.674 97.8645 442.033 98.3589 442.363 98.8682L443.291 100.441L447.049 106.717L446.779 106.538L462.259 108.71L461.885 109.264L458.981 104.021C458.472 103.152 458.112 102.224 457.663 101.325L456.406 98.5985L458.053 101.115C458.576 101.969 459.175 102.778 459.639 103.662L462.529 108.919L462.888 109.578L462.14 109.474L446.659 107.302L446.48 107.272L446.39 107.122L442.632 100.845L441.689 99.2726C441.39 98.7483 441.135 98.1941 440.851 97.6398L439.219 94.3594Z" fill="#1D6066"/>
<path d="M479.49 121.771L481.601 125.187C481.946 125.756 482.32 126.325 482.634 126.909L483.562 128.677L487.29 135.747L487.021 135.552L505.645 138.608L505.241 139.118L504.208 136.631C503.878 135.792 503.489 134.983 503.19 134.144L501.453 129.036L503.848 133.875C504.238 134.684 504.537 135.538 504.896 136.346L505.929 138.833L506.184 139.462L505.525 139.357L486.901 136.301L486.721 136.272L486.632 136.107L482.904 129.036L481.96 127.269C481.661 126.67 481.407 126.056 481.122 125.456L479.49 121.771Z" fill="#1D6066"/>
<path d="M508.385 129.666C508.999 130.594 509.567 131.568 510.166 132.512C510.481 132.976 510.66 133.5 510.93 133.995L511.663 135.492L511.364 135.283L525.512 136.811L525.138 137.35L523.221 133.59C522.877 132.976 522.682 132.287 522.398 131.643L521.634 129.666L522.787 131.448C523.146 132.047 523.595 132.616 523.88 133.261L525.796 137.02L526.111 137.635L525.422 137.56L511.274 136.032L511.065 136.017L510.975 135.837L510.241 134.339C510.017 133.83 509.717 133.365 509.538 132.826C509.163 131.763 508.744 130.729 508.385 129.666Z" fill="#1D6066"/>
<path d="M467.498 133.426L469.699 137.365C470.462 138.668 471.061 140.046 471.72 141.395L475.612 149.528L475.298 149.319L495.419 150.592L495.045 151.116C494.416 149.558 493.668 148.045 493.129 146.443L491.452 141.664L493.713 146.188C494.491 147.686 495.06 149.274 495.749 150.816L496.003 151.371L495.389 151.326L475.268 150.053L475.044 150.038L474.954 149.843L471.061 141.709C470.417 140.346 469.729 139.028 469.19 137.605L467.498 133.426Z" fill="#1D6066"/>
<path d="M507.396 146.757C508.04 147.701 508.654 148.659 509.268 149.618C509.927 150.547 510.376 151.595 510.945 152.584L510.63 152.389L526.874 152.899L526.53 153.438L523.985 148.09L523.341 146.757L522.817 145.364L521.784 142.578L523.296 145.139L524.044 146.428L524.673 147.761L527.218 153.108L527.488 153.663L526.874 153.648L510.63 153.138H510.406L510.316 152.944C509.807 151.925 509.193 150.981 508.774 149.918C508.28 148.839 507.816 147.806 507.396 146.757Z" fill="#1D6066"/>
<path d="M366.264 128.707L367.401 135.987H378.869L380.396 127.943L366.264 128.707Z" fill="#4F2A1C"/>
<path d="M437.781 212.097L438.919 219.362H450.402L451.914 211.333L437.781 212.097Z" fill="#4F2A1C"/>
<path d="M451.029 172.447L452.167 179.712H463.635L465.162 171.683L451.029 172.447Z" fill="#4F2A1C"/>
<path d="M391.385 254.983L392.523 262.248H404.005L405.518 254.219L391.385 254.983Z" fill="#4F2A1C"/>
<path d="M458.096 321.221L459.234 328.486H470.716L472.229 320.457L458.096 321.221Z" fill="#4F2A1C"/>
<path d="M465.162 254.863L451.029 255.627L451.568 259.087L441.418 259.641L442.556 266.906H454.039L454.787 262.892H463.635L465.162 254.863Z" fill="#4F2A1C"/>
<path d="M404.949 210.374L390.816 211.138L391.55 215.812L386.16 216.111L387.313 223.376H398.781L399.724 218.403H403.437L404.949 210.374Z" fill="#4F2A1C"/>
<path d="M411.565 124.378L412.523 119.285L398.391 120.049L399.528 127.314H406.041L406.775 131.957H418.257L419.77 123.928L411.565 124.378Z" fill="#4F2A1C"/>
<path d="M441.943 335.302L449.549 339.166V343.855L441.943 344.229V335.302Z" fill="#993352"/>
<path d="M480.479 346.342C479.281 344.394 476.916 340.949 474.236 338.447C472.933 337.174 471.586 336.141 470.583 335.407C469.58 334.688 468.906 334.283 468.906 334.283C468.906 334.283 469.655 334.523 470.808 335.002C471.96 335.497 473.547 336.231 475.149 337.264C478.428 339.256 481.647 342.537 482.979 344.724C483.204 345.038 480.659 346.626 480.479 346.342Z" fill="#8CC63F"/>
<path d="M481.272 345.727C481.497 343.48 482.739 339.601 484.431 336.65C485.239 335.152 486.123 333.879 486.796 332.98C487.47 332.081 487.934 331.557 487.934 331.557C487.934 331.557 486.692 334.073 485.823 337.219C484.895 340.35 484.476 344.05 484.251 346.087C484.206 346.386 481.227 346.072 481.272 345.727Z" fill="#8CC63F"/>
<path d="M480.869 343.675C483.069 341.548 489.762 337.174 489.762 337.174C489.762 337.174 485.15 343.705 482.95 345.832C482.77 345.997 480.704 343.84 480.869 343.675Z" fill="#8CC63F"/>
<path d="M526.74 342.851C526.126 341.623 525.183 339.331 524.135 337.399C523.102 335.467 522.039 333.894 522.039 333.894C522.039 333.894 523.626 334.912 525.318 336.47C527.024 337.998 528.731 340.125 529.405 341.473C529.51 341.683 526.83 343.031 526.74 342.851Z" fill="#8CC63F"/>
<path d="M527.054 342.836C528.911 340.245 534.899 334.463 534.899 334.463C534.899 334.463 531.351 341.983 529.495 344.589C529.345 344.784 526.919 343.046 527.054 342.836Z" fill="#8CC63F"/>
<path d="M526.994 342.177C526.815 340.035 527.324 336.186 528.402 333.13C529.42 330.044 530.827 327.782 530.827 327.782C530.827 327.782 530.123 330.359 529.869 333.444C529.554 336.53 529.824 340.05 529.989 341.983C530.004 342.267 527.024 342.507 526.994 342.177Z" fill="#8CC63F"/>
<path d="M526.23 344.844C525.347 343.99 523.819 342.357 522.173 341.189C520.571 339.99 518.969 339.241 518.969 339.241C518.969 339.241 520.735 339.256 522.831 339.841C524.927 340.38 527.233 341.638 528.281 342.657C528.446 342.807 526.365 344.964 526.23 344.844Z" fill="#8CC63F"/>
<path d="M305.899 345.008C305.614 343.84 305.001 341.653 303.833 339.93C302.725 338.178 301.258 337.024 301.258 337.024C301.258 337.024 301.707 337.144 302.381 337.429C303.069 337.713 303.998 338.193 304.911 338.897C306.797 340.245 308.399 342.657 308.773 344.215C308.848 344.439 305.944 345.173 305.899 345.008Z" fill="#8CC63F"/>
<path d="M306.648 344.304C306.797 343.001 307.112 340.59 306.902 338.403C306.752 336.231 306.184 334.403 306.184 334.403C306.184 334.403 307.426 335.856 308.354 338.028C309.343 340.17 309.807 343.001 309.627 344.574C309.597 344.829 306.633 344.499 306.648 344.304Z" fill="#8CC63F"/>
<path d="M307.831 343.66C308.909 342.477 312.771 340.485 312.771 340.485C312.771 340.485 311.124 344.514 310.047 345.682C309.957 345.772 307.741 343.75 307.831 343.66Z" fill="#8CC63F"/>
<path d="M148.852 335.987L148.657 337.209L149.017 337.6H149.027L149.674 338.288L151.02 338.494L148.708 338.586L147.65 338.617L144.126 338.987L137.005 339.778L124.326 339.254L114.175 338.268L112.849 338.258V338.206L112.109 330.88L115.459 314.975L128.703 296.131L133.902 289.678L135.063 282.517L134.632 279.352L132.382 277.102L136.728 276.372L140.735 276.557L147.856 276.547L163.155 273.567L172.772 275.417L170.101 296.285L169.351 307.238V318.54L163.638 317.646L150.414 326.411L148.852 335.987Z" fill="#604D5D"/>
<path d="M126.444 277.42L117.145 281.355L112.912 284.345L107.733 292.298L103.86 298.412L102.082 301.289L101.044 305.419L100.859 302.891L100.849 281.335L98.1777 271.851L97.4688 270.361L100.664 271.687L106.583 272.735L119.59 274.009L123.269 276.218L126.444 277.42Z" fill="#7C656D"/>
<path d="M235.726 322.948L235.397 316.331L234.904 312.118L233.815 307.741L232.828 303.087L231.842 295.196L233.537 300.806L235.284 304.299L237.257 306.405L237.771 310.741L237.637 317.975L239.949 322.444L245.189 332.617L252.042 335.278L258.115 335.791L262.523 335.802L257.416 338.278L248.621 338.144L244.162 338.278L239.959 338.689L230.301 338.843L228.153 338.329L228.133 338.299L233.383 334.651L235.746 323.41L235.726 322.948Z" fill="#7C656D"/>
<path d="M182.195 335.678L181.866 334.445L186.746 335.791L193.076 335.699L207.347 330.161L217.16 321.396L219.564 323.564L222.523 323.575L226.818 322.547L232.387 323.862L235.726 322.948L235.747 323.41L233.384 334.651L228.133 338.298L228.123 338.309L219.102 338.637L198.388 338.586L189.048 338.288H174.684L181.784 336.86L182.246 335.863L182.195 335.678Z" fill="#7C656D"/>
<path d="M182.196 335.679L182.248 335.863L181.785 336.86L174.686 338.288L172.179 338.792L158.143 339.038L152.954 338.782L151.023 338.494L149.677 338.288L149.029 337.6L151.023 337.764L154.68 337.99L159.386 336.377L164.575 335.658L167.452 336.819L169.394 336.84L172.199 336.798L174.696 336.459L176.833 336.141L178.58 335.709L179.844 335.987L180.768 336.09L181.323 335.925L182.196 335.679Z" fill="#7C656D"/>
<path d="M197.084 253.141L187.59 253.85L173.452 270.135L172.773 275.416L163.156 273.567L147.857 276.547L140.737 276.557L136.729 276.372L132.383 277.102L134.633 279.352L135.065 282.516L133.904 289.678L128.705 296.131L115.46 314.975L112.111 330.88L112.851 338.206V338.257L106.203 338.196L92.2906 338.894L92.0954 338.72L96.8527 333.438L100.367 325.722L100.511 324.551L101.733 314.574L101.045 305.419L102.083 301.288L103.86 298.412L107.734 292.298L112.912 284.345L117.145 281.355L126.444 277.42L123.269 276.218L119.591 274.009L106.583 272.735L100.665 271.687L97.4692 270.361L95.8149 266.847L94.5922 263.744L90.8008 261.34L99.257 264.576L108.299 265.779L113.683 265.563L120.608 263.518L130.297 261.422L157.176 260.148L169.958 257.066L175.722 254.456L180.459 251.682L178.661 250.921L183.202 249.349L190.898 247.88L195.974 246.38L204.81 241.047L208.386 238.335L211.818 236.382L215.455 241.211L220.962 240.646L224.99 238.067L225 238.088L224.795 252.339L221.034 256.788L218.64 258.895L218.507 259.059L212.815 254.332L200.3 252.894L197.084 253.141Z" fill="#7C656D"/>
<path d="M100.51 324.551L100.366 325.722L96.852 333.438L92.0947 338.72L91.6734 339.192L82.5083 339.151L63.0683 339.449L53.1325 338.555L52.5366 338.298L51.9201 338.031L48.5602 332.524L48.4883 331.815L54.797 334.075L63.2019 334.322L84.2139 329.328L88.6629 325.167L91.5604 323.194L94.6737 324.684L98.2185 324.345L100.51 324.551Z" fill="#7C656D"/>
<path d="M48.4889 331.815L48.5608 332.524L51.9207 338.031L52.5372 338.298L52.5166 338.34L41.7794 338.586L29.1722 339.233L23.6854 339.398L19.0412 338.185L16.791 335.082L17.0787 335.154L19.1851 335.648L24.23 335.863L32.5423 333.572L39.3751 329.123L42.2932 327.489L43.8858 327.469L44.605 328.178L46.8347 328.147L48.0163 327.469L48.4889 331.815Z" fill="#7C656D"/>
<path d="M271.092 324.839L269.695 332.319L262.523 335.802L258.115 335.791L252.043 335.278L245.189 332.617L239.949 322.444L241.706 321.54L246.217 326.215L250.06 328.044L253.707 330.099L263.006 330.51L269.037 327.089L271.092 324.839Z" fill="#A38886"/>
<path d="M252.465 301.124L253.379 303.117L252.085 303.723L248.94 304.956L243.68 307.422L240.916 310.649L240.443 314.861L241.707 321.54L239.95 322.444L237.638 317.975L237.772 310.741L237.258 306.405L235.285 304.299L233.538 300.805L231.843 295.195L231.186 289.976L234.104 289.544L234.566 293.911L235.552 298.278L238.388 301.031L242.046 303.076L246.536 302.943L250.276 302.624L252.465 301.124Z" fill="#A38886"/>
<path d="M181.866 334.445L182.195 335.678L181.322 335.925L180.767 336.089L179.842 335.987L178.579 335.709L176.832 336.141L174.695 336.459L172.198 336.798L169.393 336.839L167.451 336.819L164.574 335.658L159.385 336.377L154.679 337.99L151.021 337.764L149.028 337.6H149.018L148.658 337.209L148.853 335.987L152.963 336.367L158.995 334.168L164.533 332.164L170.246 331.836L175.27 330.901L178.096 329.102L179.277 326.863L180.294 328.527L181.137 331.712H181.147L181.866 334.445Z" fill="#A38886"/>
<path d="M231.844 295.196L232.831 303.087L233.817 307.741L234.906 312.118L235.4 316.331L235.728 322.948L232.389 323.862L226.82 322.547L222.525 323.575L219.566 323.564L217.162 321.396L207.349 330.161L193.078 335.699L186.748 335.791L181.868 334.445L181.148 331.712L191.793 334.445L205.335 327.767L209.322 317.297L209.096 300.538L207.349 287.418L205.469 272.355L197.085 253.141L200.301 252.894L212.815 254.333L218.508 259.059L218.929 259.408L223.039 268.758L230.93 287.942L231.187 289.976L231.844 295.196Z" fill="#A38886"/>
<path d="M269.192 316.773L271.093 324.838L269.038 327.089L263.007 330.51L253.708 330.099L250.061 328.044L246.218 326.215L241.707 321.54L240.443 314.862L240.916 310.649L243.68 307.423L248.941 304.957L252.085 303.724L253.379 303.117L256.297 303.159L261.908 304.576L269.192 316.773Z" fill="#C7B3AA"/>
<path d="M250.153 296.048L252.465 301.124L250.276 302.624L246.536 302.943L242.046 303.076L238.388 301.032L235.552 298.278L234.566 293.911L234.104 289.544L239.827 288.702L246.166 290.181L250.153 296.048Z" fill="#C7B3AA"/>
<path d="M82.8987 256.418L72.1204 258.052L61.6606 262.336L60.2221 265.768L50.0295 253.819L49.9473 250.633L60.6639 252.904L71.7094 250.859L92.1152 249.051L122.005 249.976L180.16 243.328L199.169 237.697L205.775 229.498L204.923 219.901L209.485 221.545L225.123 230.012L225 238.088L224.989 238.067L220.962 240.646L215.454 241.211L211.817 236.382L208.385 238.334L204.81 241.047L195.973 246.38L190.898 247.88L183.202 249.349L178.66 250.921L180.458 251.681L175.722 254.456L169.957 257.065L157.175 260.148L130.297 261.422L120.607 263.518L113.682 265.563L108.298 265.779L99.2562 264.576L90.8 261.34L83.0014 256.398L82.8987 256.418Z" fill="#A38886"/>
<path d="M179.277 326.863L174.694 319.372L169.352 318.54V307.238L170.102 296.285L172.773 275.416L173.451 270.135L187.589 253.85L197.083 253.141L205.468 272.355L207.348 287.417L209.095 300.538L209.321 317.297L205.334 327.767L191.792 334.445L181.147 331.712H181.137L180.294 328.527L179.277 326.863Z" fill="#C7B3AA"/>
<path d="M204.922 219.901L205.774 229.498L199.168 237.698L180.159 243.328L122.004 249.976L92.1141 249.051L71.7083 250.86L60.6628 252.904L49.9462 250.634L49.7715 243.616L52.6895 234.79L63.7966 228.995L79.3425 224.073L95.8439 222.326L107.989 222.162L126.432 219.049L134.292 218.648L142.954 219.532L185.019 217.446L200.668 218.36L204.922 219.901Z" fill="#C7B3AA"/>
<path d="M174.695 319.372L179.277 326.863L178.096 329.102L175.27 330.901L170.246 331.836L164.533 332.164L158.995 334.168L152.963 336.367L148.854 335.987L150.415 326.41L163.639 317.646L169.352 318.54L174.695 319.372Z" fill="#C7B3AA"/>
<path d="M101.043 305.419L101.732 314.574L100.509 324.55L98.2179 324.345L94.6731 324.684L91.5598 323.194L88.6623 325.167L84.2133 329.328L63.2012 334.322L54.7964 334.075L48.4877 331.815L48.015 327.469L47.5938 323.513L50.7687 327.674L62.6258 331.609L69.8285 330.941L76.3736 328.856L85.4976 316.834L87.193 300.579L89.4329 285.835L89.1349 279.403L87.0491 275.653L86.0217 265.388L82.8981 256.418L83.0009 256.397L90.7995 261.34L94.5909 263.744L95.8136 266.847L97.4678 270.361L98.1768 271.851L100.848 281.334L100.859 302.891L101.043 305.419Z" fill="#A38886"/>
<path d="M89.136 279.403L89.434 285.835L87.1941 300.579L85.4987 316.834L76.3747 328.856L69.8296 330.942L62.6269 331.609L50.7698 327.674L47.5949 323.513L47.5332 322.917L48.4066 314.101L50.0197 304.905L51.6534 295.535L54.3557 279.773L60.2226 265.768L61.6611 262.337L72.1209 258.052L82.8992 256.418L86.0228 265.388L87.0502 275.653L89.136 279.403Z" fill="#C7B3AA"/>
<path d="M47.5966 323.513L48.0179 327.469L46.8363 328.147L44.6067 328.178L43.8874 327.469L42.2948 327.489L39.3768 329.123L32.544 333.572L24.2316 335.863L19.1867 335.648L17.0804 335.154L16.7927 335.082L16.2378 334.312L15.0254 329.668L21.2006 333.315L27.6018 330.109L34.1674 323.626L39.0891 318.848L42.2948 315.57L46.713 307.577L46.6924 303.148L49.8982 304.885L50.0215 304.905L48.4083 314.101L47.535 322.917L47.5966 323.513Z" fill="#A38886"/>
<path d="M46.6905 303.148L46.711 307.577L42.2928 315.57L39.0871 318.848L34.1654 323.626L27.5998 330.109L21.1986 333.315L15.0234 329.668L13.6055 324.212L18.8045 313.69L26.4079 304.638L32.3262 299.809L40.7105 300.117L46.3308 302.953L46.6905 303.148Z" fill="#C7B3AA"/>
<path d="M198.246 236.146L198.092 236.105L197.896 236.126L178.826 237.215L159.664 238.869L140.594 240.842L121.431 241.715L102.238 242.506L92.6513 242.866L87.8529 243.071L85.4281 243.205L82.9929 243.575L80.8866 243.678L79.0782 242.845L76.4787 241.879L74.0435 241.664L64.3235 241.962L54.7988 243.39L49.7949 244.273L49.8052 244.849L54.9426 244.366L64.4571 243.41H73.9202L76.2526 243.647L78.0918 244.356L80.6092 245.496L83.2806 245.393L85.5822 245.024L87.9454 244.849L92.7335 244.469L102.299 243.626L121.452 242.393L140.666 242.188L150.273 241.592L159.838 240.811L178.96 239.413L197.958 237.934L198.194 237.985L199.171 237.698L200.044 236.619L198.246 236.146Z" fill="#A38886"/>
<path d="M51.3984 238.704L66.9545 236.68L72.318 235.725L77.6198 234.615L87.6275 235.18L90.1038 236.454L93.0732 236.978L98.5497 236.259L109.205 233.999L114.537 233.084L119.778 233.485L125.038 235.077L130.484 235.591H141.457L146.954 234.605L152.133 232.622L157.085 230.67L162.213 229.632L172.94 229.18L178.416 229.005L183.882 228.46L194.661 226.909L205.377 225.296H205.408L205.316 224.258H205.305L199.839 224.69L194.445 225.316L183.666 226.488L178.303 226.899L172.919 226.991L161.935 227.505L156.459 228.728L151.342 230.855L146.42 232.868L141.272 233.978L130.535 234.461L125.141 234.194L119.983 232.796L117.229 232.324L114.465 232.447L109.081 233.351L98.375 235.129L93.0629 235.54L90.7408 235.006L88.4495 233.68L85.737 232.54L82.8395 232.201L77.2705 232.827L71.9481 234.019L66.6463 235.119L51.6142 238.057L51.3984 238.704Z" fill="#A38886"/>
<path d="M123.371 220.158L124.121 223.148L126.546 225.255L127.995 225.789L129.444 226.107L132.259 226.539L137.941 226.991L143.623 226.858L149.274 226.488L160.566 225.83L166.207 225.398L168.971 225.183L171.817 225.029L174.827 224.443L177.458 222.162L178.619 219.552L179.194 218.71L180.088 218.124L182.143 217.59L177.18 217.836L176.656 218.586L175.578 221.134L174.108 222.542L171.611 223.107L168.837 223.374L166.001 223.775L160.443 224.71L149.253 225.83L138.033 225.275L132.485 224.731L129.721 224.381L128.406 224.165L127.183 223.785L125.292 222.408L124.46 220.045L124.388 219.398L123.392 219.562L123.371 220.158Z" fill="#A38886"/>
<path d="M207.924 238.684L200.043 236.619L199.169 237.698L198.193 237.985L206.454 239.794L207.924 238.684Z" fill="#7C656D"/>
<path d="M213.503 223.713L205.314 224.258L205.407 225.296L214.099 224.042L213.503 223.713Z" fill="#7C656D"/>
<path d="M214.973 240.564L215.456 241.211L216.832 241.067L214.973 240.564Z" fill="#7C656D"/>
<path d="M75.3482 329.185L71.5568 323.277L67.3749 315.55L65.3303 306.796L62.9773 297.878L57.9426 290.305L56.35 286.236L55.6308 284.068L55.0862 281.982L54.6033 279.198L54.3567 279.773L53.7402 283.4L53.9663 284.592L54.6136 286.791L56.4631 291.168L62.3814 298.176L63.7479 302.429L64.2103 306.94L65.5357 316.126L67.2825 320.544L69.7587 324.531L73.5912 329.74L75.3482 329.185Z" fill="#A38886"/>
<path d="M77.9994 320.133L75.9342 310.063L76.5815 304.854L77.0438 302.121L77.126 299.326L74.958 288.62L73.4887 283.39L71.8242 278.16L66.9334 268.471L64.6935 263.652L63.892 261.422L63.1934 261.71L63.6455 263.95L65.4949 269.149L70.2522 278.859L72.3791 283.76L74.3107 288.815L76.0369 299.326L75.6978 301.916L75.0197 304.484L74.023 309.961L75.9753 320.975L78.5542 325.989L79.9516 324.14L77.9994 320.133Z" fill="#A38886"/>
<path d="M76.5284 331.013L75.3468 329.185L73.5898 329.739L74.9153 331.538L76.5695 331.147L76.5284 331.013Z" fill="#7C656D"/>
<path d="M79.9501 324.14L78.5527 325.989L80.7002 330.161L82.6627 329.699L79.9501 324.14Z" fill="#7C656D"/>
<path d="M28.1039 323.215L25.7407 318.324L23.6343 313.105L21.5794 310.392L20.4902 311.687L22.2061 314.06L25.1139 318.561L27.097 323.719L30.0047 327.736L30.837 326.914L28.1039 323.215Z" fill="#A38886"/>
<path d="M24.1998 328.743L21.6003 325.887L19.3809 322.671L18.0658 318.972L17.2438 316.845L16.2266 318.91L16.5143 319.681L18.7953 322.989L20.655 326.503L22.7203 329.997L24.2615 331.784L26.224 330.798L24.1998 328.743Z" fill="#A38886"/>
<path d="M31.7617 303.765L32.2446 308.851L32.6351 313.885L33.4879 318.92L34.988 322.824L36.6217 321.242L35.3476 318.334L33.7448 313.68L32.9022 308.81L33.4673 303.898L33.7859 301.484L33.9503 300.271L34.0016 299.87L32.3268 299.809L32.3063 299.819L31.9878 301.216L31.7617 303.765Z" fill="#A38886"/>
<path d="M26.9209 331.507L26.2223 330.798L24.2598 331.784L25.3386 333.028L27.445 334.98L28.904 334.579L26.9209 331.507Z" fill="#7C656D"/>
<path d="M35.0797 331.117L31.2677 327.5L30.8362 326.914L30.0039 327.736L33.6926 332.802L33.7028 332.812L35.6242 331.569L35.0797 331.117Z" fill="#7C656D"/>
<path d="M35.3357 323.739L39.1476 329.267L39.3737 329.123L39.908 328.825L37.2879 322.753L36.62 321.242L34.9863 322.825L35.3357 323.739Z" fill="#7C656D"/>
<path d="M198.604 329.041L194.987 319.434L189.839 310.444L182.298 303.446L175.701 295.966L171.386 287.068L171.324 286.709L170.934 289.791L174.283 296.912L181.876 303.96L188.935 311.111L193.199 320.164L196.528 329.74L197.258 331.754L199.169 330.808L198.604 329.041Z" fill="#A38886"/>
<path d="M209.269 313.793L207.707 308.728L204.624 303.179L200.627 298.504L193.178 288.805L186.14 279.013L181.927 267.803L180.807 261.659L180.006 262.583L180.386 268.193L182.092 274.143L183.222 277.04L184.64 279.855L192.664 289.236L199.764 299.182L205.888 309.344L208.652 319.044L209.32 317.297L209.269 313.793Z" fill="#A38886"/>
<path d="M189.294 258.453L190.383 262.491L190.681 264.505L191.01 266.745L192.089 268.902L193.537 270.598L196.414 273.752L198.665 277.4L202.004 280.461L204.511 280.431L206.371 279.588L206.165 277.903L205.775 278.088L204.008 279.167L202.312 279.413L199.23 277.019L196.969 273.372L194.442 269.848L192.695 266.354L192.161 262.111L190.784 257.929L189.417 253.716L188.564 253.778L189.294 258.453Z" fill="#A38886"/>
<path d="M199.898 333.058L199.169 330.808L197.258 331.753L198.008 333.788L199.898 333.058Z" fill="#7C656D"/>
<path d="M211.314 320.369L209.269 313.793L209.32 317.297L208.652 319.043L209.248 321.119L211.714 326.256L213.307 324.838L211.314 320.369Z" fill="#7C656D"/>
<path d="M226.13 276.28L222.626 277.071L218.434 277.903L214.324 278.54L210.451 278.345L210.04 278.201L209.67 278.016L209.105 277.728L208.406 277.492L207.646 277.42L206.926 277.554L206.166 277.903L206.372 279.588L206.536 279.506L208.005 279.239L208.303 279.372L208.683 279.598L209.259 279.927L209.844 280.153L214.478 280.646L218.866 280.061L223.058 279.054L226.788 277.882L226.13 276.28Z" fill="#7C656D"/>
<path d="M247.708 292.452L245.18 294.99L242.478 297.59L240.053 300.436L239.293 301.535L241.112 302.552L241.79 301.782L243.989 298.812L246.044 295.72L248.109 293.048L247.708 292.452Z" fill="#A38886"/>
<path d="M240.577 303.179L241.112 302.552L239.293 301.535L238.995 301.967L238.748 302.357L238.522 302.676L237.978 303.374L236.858 305.018L236.652 305.758L237.259 306.405L237.289 306.662L239.108 304.535L239.868 303.919L240.259 303.528L240.577 303.179Z" fill="#7C656D"/>
<path d="M269.192 316.773L268.329 315.324L266.52 317.729L264.578 320.647L262.041 323.092L259.523 325.733L257.674 328.805L257.242 330.254L259.277 330.346L259.626 329.791L261.177 326.75L262.883 323.832L265.061 321.099L267.815 318.838L269.223 316.907L269.192 316.773Z" fill="#A38886"/>
<path d="M253.718 327.757L256.842 322.866L258.116 320.205L259.072 317.482L261.116 312.118L263.5 307.238L262.36 305.337L262.041 306.354L260.5 311.861L258.044 317.019L255.178 321.869L251.931 326.483L250.965 328.548L252.537 329.442L253.718 327.757Z" fill="#A38886"/>
<path d="M259.277 330.346L257.242 330.253L255.66 335.586L255.907 335.606L259.277 330.346Z" fill="#7C656D"/>
<path d="M248.438 333.88L249.188 334.168L252.537 329.442L250.965 328.548L248.438 333.88Z" fill="#7C656D"/>
<path d="M31.3202 302.213L30.529 302.614L26.9636 306.179L22.9462 310.515L20.9323 313.495L17.2539 320.903L19.6068 325.568L27.8781 320.801L39.201 312.303L44.3178 306.775L41.1224 302.501L31.3202 302.213Z" fill="url(#paint14_linear_268_2826)"/>
<path d="M63.1714 264.813L59.9348 271.276L57.2017 277.831L53.7905 292.123L52.8555 301.011L53.2254 310.71L54.5303 316.372L60.7568 312.95L64.6407 307.957L69.624 303.508L77.4534 297.476L84.4403 282.794L84.4095 274.132L84.0499 266.508L81.6867 259.418H77.7514L70.1069 260.775L63.5619 264.361L63.1714 264.813Z" fill="url(#paint15_linear_268_2826)"/>
<path d="M54.3761 235.797L53.9034 236.547L53.3691 243.451L57.325 244.623L67.7539 244.212L82.2003 243.462L94.4274 241.9L103.449 238.468L114.823 234.79L136.924 231.512L152.912 229.776L166.711 229.426L189.48 230.844L198.614 228.111L202.601 223.076L197.597 220.312L189.09 219.85L178.743 218.781L169.989 219.326L159.786 219.747L150.168 220.066L140.551 221.001L131.15 220.364L117.114 222.799L111.309 223.138L104.004 224.535L97.9106 223.898L90.0914 224.885L73.1071 227.731L67.045 230.741L60.5718 232.57L54.3761 235.797Z" fill="url(#paint16_linear_268_2826)"/>
<path d="M164.132 318.417L162.632 319.105L157.392 323.266L152.666 326.266L152.316 329.174L157.875 328.527L165.283 326.677L171.16 325.65L174.808 323.698L172.558 320.626L164.132 318.417Z" fill="url(#paint17_linear_268_2826)"/>
<path d="M174.869 271.553L174.53 272.334L174.14 283.256L173.379 292.329L171.242 311.039L171.427 314.276L175.352 318.211L178.219 319.413L182.175 317.893L191.258 308.481L195.933 301.412L197.772 288.815L201.224 272.252L200.392 267.186L197.762 259.871L193.446 255.247L189.244 254.99L183.911 261.093L178.024 267.597L174.869 271.553Z" fill="url(#paint18_linear_268_2826)"/>
<path d="M238.625 291.26L245.838 298.422L248.777 298.586L248.581 294.62L245.519 290.51L238.83 290.109L238.625 291.26Z" fill="url(#paint19_linear_268_2826)"/>
<path d="M254.57 304.104L248.94 306.909L244.203 309.724L244.357 315.468L247.758 318.068L254.92 322.753L265.174 324.376L268.185 322.064L266.571 313.66L262.862 308.779L260.468 305.984L257.468 304.71L254.57 304.104Z" fill="url(#paint20_linear_268_2826)"/>
<path d="M18.8852 338.144C18.8852 338.144 18.6797 337.877 18.2995 337.384C17.8988 336.911 17.3234 336.243 16.5219 335.514C14.9602 334.014 12.5764 332.257 9.8844 330.304C8.54867 329.328 7.26431 328.352 6.13408 327.438C5.03467 326.544 3.99691 325.804 3.08245 325.218C2.16799 324.633 1.39738 324.201 0.852812 323.903C0.308245 323.616 0 323.451 0 323.451C0 323.451 0.349345 323.482 0.965835 323.595C1.58233 323.708 2.47624 323.914 3.54482 324.294C4.6134 324.674 5.85666 325.229 7.14101 326.02C8.38427 326.79 9.74055 327.643 11.1174 328.65C13.871 330.644 16.0904 332.935 17.3234 334.856C17.9604 335.802 18.3406 336.644 18.5872 337.219C18.7721 337.815 18.8852 338.144 18.8852 338.144Z" fill="#8CC63F"/>
<path d="M18.1674 338.802C18.1674 338.802 17.5201 337.703 16.5543 335.915C15.5884 334.127 14.2733 331.682 12.9375 328.938C11.5915 326.195 10.4716 323.657 9.64959 321.797C8.83788 319.937 8.36523 318.746 8.36523 318.746C8.36523 318.746 9.26942 319.65 10.5332 321.273C11.797 322.886 13.4102 325.229 14.787 328.044C16.1536 330.849 17.0166 333.562 17.5201 335.555C18.0133 337.528 18.1674 338.802 18.1674 338.802Z" fill="#8CC63F"/>
<path d="M17.2089 338.956C17.0753 337.26 16.8493 334.897 16.4074 332.318C15.9759 329.75 15.308 326.975 14.5066 324.458C13.7154 321.941 12.7804 319.68 12.0509 318.067C11.681 317.266 11.3625 316.608 11.1365 316.166C10.9104 315.714 10.7871 315.468 10.7871 315.468C10.7871 315.468 10.9412 315.704 11.2187 316.125C11.4961 316.546 11.8865 317.163 12.3386 317.923C13.2531 319.464 14.4347 321.622 15.4724 324.109C16.5307 326.585 17.476 329.359 18.1131 331.969C18.7604 334.579 19.1303 337.024 19.2639 338.791C19.305 339.326 17.25 339.47 17.2089 338.956Z" fill="#8CC63F"/>
<path d="M17.2088 338.74C16.8903 338.052 16.3868 337.117 15.6368 336.192C14.897 335.257 13.8798 334.384 12.8215 333.736C11.7632 333.079 10.6535 332.688 9.81093 332.483C9.38966 332.39 9.05059 332.318 8.804 332.298C8.5574 332.267 8.42383 332.246 8.42383 332.246C8.42383 332.246 8.5574 332.236 8.804 332.216C9.05059 332.185 9.41021 332.175 9.85203 332.175C10.7357 332.195 11.9789 332.339 13.253 332.822C14.5374 333.284 15.8525 334.055 16.88 335.01C17.9178 335.945 18.6781 337.035 19.0686 337.887C19.2021 338.124 17.3116 338.935 17.2088 338.74Z" fill="#8CC63F"/>
<path d="M17.7242 338.668C18.0941 337.148 18.7825 335.072 19.7689 332.915C20.745 330.747 22.0499 328.517 23.4165 326.575C24.7728 324.633 26.2215 323.01 27.3106 321.879C27.8552 321.314 28.3176 320.872 28.6361 320.574C28.9546 320.276 29.1396 320.102 29.1396 320.102C29.1396 320.102 28.9854 320.287 28.708 320.636C28.4203 320.975 28.0299 321.468 27.5572 322.095C26.6222 323.338 25.3995 325.106 24.2898 327.13C23.1699 329.154 22.1424 331.425 21.3821 333.572C20.6114 335.72 20.0772 337.723 19.7278 339.162C19.6045 339.593 17.6009 339.131 17.7242 338.668Z" fill="#8CC63F"/>
<path d="M17.8379 338.432C17.7557 335.997 18.3208 331.671 19.4716 328.157C20.0162 326.4 20.6635 324.838 21.167 323.729C21.6704 322.619 22.0403 321.951 22.0403 321.951C22.0403 321.951 21.7937 322.67 21.4752 323.842C21.1567 325.013 20.756 326.626 20.4786 328.404C19.8518 331.959 19.821 336.1 19.9032 338.401C19.9032 338.74 17.8482 338.802 17.8379 338.432Z" fill="#8CC63F"/>
<path d="M38.8385 338.802C38.4584 337.271 37.7597 334.527 36.763 332.246C35.8177 329.955 34.6875 328.147 34.6875 328.147C34.6875 328.147 36.2185 329.616 37.6672 331.743C39.1468 333.839 40.4209 336.623 40.8216 338.267C40.8935 338.524 38.9002 339.028 38.8385 338.802Z" fill="#8CC63F"/>
<path d="M39.1584 338.483C39.1481 336.737 39.5591 333.623 40.1756 331.034C40.7715 328.434 41.5216 326.338 41.5216 326.338C41.5216 326.338 41.275 328.547 41.2031 331.168C41.1003 333.788 41.2134 336.808 41.2236 338.483C41.2134 338.74 39.1584 338.75 39.1584 338.483Z" fill="#8CC63F"/>
<path d="M37.72 339.265C37.3809 338.535 36.7542 337.169 35.8603 336.131C34.9972 335.072 33.9902 334.384 33.9902 334.384C33.9902 334.384 34.2882 334.435 34.7506 334.579C35.2129 334.723 35.8603 334.959 36.5076 335.34C37.8433 336.049 39.1277 337.415 39.5592 338.35C39.6311 338.494 37.7714 339.367 37.72 339.265Z" fill="#8CC63F"/>
<path d="M52.072 338.782C51.3117 337.631 49.9965 335.535 48.6299 333.839C47.2839 332.134 45.9688 330.839 45.9688 330.839C45.9688 330.839 47.5922 331.723 49.3594 333.11C51.137 334.476 52.9659 336.388 53.7776 337.621C53.9009 337.805 52.1953 338.946 52.072 338.782Z" fill="#8CC63F"/>
<path d="M52.3167 338.216C52.214 337.24 52.214 335.473 52.1215 333.932C52.0496 332.39 51.916 331.075 51.916 331.075C51.916 331.075 52.5428 332.236 53.1284 333.706C53.7244 335.175 54.2484 336.963 54.3614 337.99C54.3717 338.144 52.3373 338.36 52.3167 338.216Z" fill="#8CC63F"/>
<path d="M52.2241 337.918C53.0358 337.066 54.762 335.822 56.3546 335C57.9369 334.147 59.3343 333.654 59.3343 333.654C59.3343 333.654 58.1835 334.6 56.9608 335.822C55.7175 337.035 54.4537 338.555 53.6934 339.347C53.5804 339.47 52.1008 338.052 52.2241 337.918Z" fill="#8CC63F"/>
<path d="M17.3142 339.305C16.8518 338.894 16.184 338.35 15.3106 337.898C14.4475 337.446 13.4098 337.117 12.3823 337.035C11.3651 336.932 10.389 337.066 9.69027 337.24C8.99158 337.415 8.57031 337.6 8.57031 337.6C8.57031 337.6 8.91966 337.302 9.56697 336.942C10.2143 336.583 11.1904 336.172 12.3412 336.007C13.492 335.822 14.7969 335.925 15.9476 336.285C17.0984 336.634 18.0643 337.22 18.6602 337.754C18.8554 337.918 17.4478 339.418 17.3142 339.305Z" fill="#8CC63F"/>
<path d="M17.9066 338.021C18.3176 337.569 19.006 337.045 19.828 336.644C20.65 336.233 21.6056 335.976 22.4892 335.884C23.3728 335.781 24.1743 335.853 24.7394 335.956C25.3045 336.059 25.6333 336.172 25.6333 336.172C25.6333 336.172 25.2737 336.182 24.7394 336.274C24.1948 336.367 23.4756 336.552 22.7564 336.881C21.2768 337.497 20.0233 338.72 19.4273 339.418C19.3143 339.511 17.7731 338.155 17.9066 338.021Z" fill="#8CC63F"/>
<path d="M148.245 338.607C147.711 337.548 146.725 335.627 145.553 334.117C144.413 332.596 143.18 331.486 143.18 331.486C143.18 331.486 144.69 332.154 146.272 333.387C147.875 334.589 149.437 336.439 150.043 337.631C150.156 337.816 148.327 338.761 148.245 338.607Z" fill="#8CC63F"/>
<path d="M148.924 339.12C148.945 338.031 148.903 336.017 148.4 334.291C147.948 332.555 147.146 331.198 147.146 331.198C147.146 331.198 147.444 331.455 147.866 331.918C148.287 332.38 148.852 333.058 149.345 333.88C150.383 335.514 151 337.795 150.979 339.1C150.979 339.305 148.924 339.285 148.924 339.12Z" fill="#8CC63F"/>
<path d="M149.704 337.97C150.187 337.107 151.44 335.833 152.694 335.041C153.937 334.23 155.078 333.85 155.078 333.85C155.078 333.85 154.194 334.682 153.393 335.792C152.56 336.901 151.882 338.278 151.471 339.008C151.41 339.121 149.622 338.103 149.704 337.97Z" fill="#8CC63F"/>
<path d="M147.311 339.377C146.725 338.904 145.687 337.969 144.578 337.353C143.489 336.716 142.42 336.377 142.42 336.377C142.42 336.377 143.53 336.192 144.906 336.377C146.283 336.531 147.855 337.168 148.585 337.754C148.688 337.846 147.403 339.449 147.311 339.377Z" fill="#8CC63F"/>
<path d="M91.2895 339.501C90.5087 338.411 89.0702 336.469 87.4776 335.041C85.9261 333.582 84.3438 332.627 84.3438 332.627C84.3438 332.627 84.7856 332.75 85.474 333.007C86.1624 333.264 87.1077 333.664 88.0838 334.209C90.0566 335.278 92.0704 337.055 92.9438 338.278C93.0774 338.463 91.4128 339.665 91.2895 339.501Z" fill="#8CC63F"/>
<path d="M91.528 338.555C91.754 337.363 92.8431 335.432 94.1789 334.25C94.8262 333.644 95.5043 333.192 96.0078 332.914C96.5113 332.627 96.8401 332.493 96.8401 332.493C96.8401 332.493 95.7715 333.48 94.9803 334.897C94.148 336.305 93.7165 338.062 93.5316 339.018C93.5007 339.151 91.4869 338.74 91.528 338.555Z" fill="#8CC63F"/>
<path d="M90.3688 338.926C90.1325 337.199 90.3688 334.076 91.1497 331.579C91.5093 330.325 91.9819 329.226 92.3416 328.445C92.7114 327.664 92.9786 327.202 92.9786 327.202C92.9786 327.202 92.8245 327.716 92.6498 328.548C92.4751 329.38 92.2593 330.521 92.1669 331.774C91.9203 334.271 92.208 337.127 92.4237 338.689C92.434 338.915 90.3893 339.193 90.3688 338.926Z" fill="#8CC63F"/>
<path d="M89.4017 339.223C88.6517 338.483 87.1926 337.178 85.6 336.428C84.8191 336.038 84.0485 335.771 83.4731 335.617C82.8977 335.452 82.5176 335.391 82.5176 335.391C82.5176 335.391 82.8977 335.329 83.5142 335.298C84.1307 335.267 84.9938 335.288 85.9288 335.452C87.8091 335.74 89.8949 336.809 90.8094 337.723C90.9532 337.857 89.5147 339.326 89.4017 339.223Z" fill="#8CC63F"/>
<path d="M91.2294 338.832C92.1439 338.021 94.0961 336.983 95.8634 336.48C97.6204 335.945 99.1308 335.853 99.1308 335.853C99.1308 335.853 97.7437 336.449 96.2949 337.415C94.8256 338.36 93.3769 339.685 92.5651 340.405C92.4418 340.507 91.0856 338.956 91.2294 338.832Z" fill="#8CC63F"/>
<path d="M91.2396 340.364C90.6128 339.912 89.4004 339.1 88.0852 338.771C86.8008 338.401 85.5781 338.494 85.5781 338.494C85.5781 338.494 85.835 338.35 86.2974 338.175C86.7495 338 87.407 337.816 88.1674 337.744C89.6778 337.559 91.5273 338.042 92.3801 338.658C92.5136 338.74 91.332 340.425 91.2396 340.364Z" fill="#8CC63F"/>
<path d="M52.1139 339.418C51.518 338.864 50.4494 337.816 49.2883 337.107C48.1478 336.377 47.0176 335.987 47.0176 335.987C47.0176 335.987 48.2095 335.853 49.6685 336.151C51.1275 336.408 52.7509 337.209 53.4805 337.887C53.5935 337.99 52.2064 339.501 52.1139 339.418Z" fill="#8CC63F"/>
<path d="M218.988 337.096C218.793 334.723 218.844 331.373 219.409 327.798C219.943 324.212 221.053 320.42 222.461 317.091C223.848 313.752 225.584 310.906 226.941 308.943C227.629 307.967 228.215 307.176 228.646 306.662C229.068 306.138 229.294 305.84 229.294 305.84C229.294 305.84 229.088 306.149 228.708 306.714C228.317 307.269 227.814 308.091 227.208 309.118C226.016 311.183 224.536 314.101 223.416 317.461C222.276 320.811 221.444 324.551 221.125 328.024C220.765 331.497 220.848 334.682 221.033 336.953C221.084 337.631 219.039 337.826 218.988 337.096Z" fill="#8CC63F"/>
<path d="M219.625 338.463C220.2 336.069 221.916 332.062 224.012 329.02C226.047 325.928 228.297 323.78 228.41 323.688L228.42 323.698C227.876 324.109 227.865 324.13 227.865 324.13C227.865 324.13 227.886 324.119 228.42 323.698L228.43 323.688L228.42 323.708C228.369 323.852 226.509 326.339 224.958 329.575C223.334 332.791 222.163 336.737 221.618 338.997C221.516 339.336 219.522 338.843 219.625 338.463Z" fill="#8CC63F"/>
<path d="M216.287 338.401C215.732 335.586 214.787 330.551 213.708 326.267C212.66 321.972 211.561 318.417 211.561 318.417C211.561 318.417 213.143 321.787 214.694 325.969C216.266 330.14 217.736 335.134 218.301 338.001C218.393 338.422 216.379 338.823 216.287 338.401Z" fill="#8CC63F"/>
<path d="M217.497 338.689C217.589 336.295 217.466 331.969 216.603 328.301C216.212 326.472 215.678 324.818 215.247 323.626C215.031 323.03 214.846 322.547 214.702 322.218C214.569 321.89 214.486 321.705 214.486 321.705C214.486 321.705 214.589 321.879 214.774 322.177C214.969 322.485 215.226 322.927 215.534 323.492C216.141 324.612 216.932 326.195 217.579 328.013C218.247 329.822 218.802 331.856 219.12 333.767C219.449 335.678 219.562 337.456 219.542 338.73C219.542 339.12 217.487 339.049 217.497 338.689Z" fill="#8CC63F"/>
<path d="M216.575 339.408C215.424 338.041 213.082 335.76 210.554 334.404C209.311 333.695 208.078 333.202 207.163 332.894C206.701 332.74 206.321 332.627 206.054 332.555C205.786 332.483 205.643 332.442 205.643 332.442C205.643 332.442 205.797 332.452 206.074 332.472C206.352 332.483 206.742 332.524 207.235 332.585C208.211 332.719 209.557 332.966 210.975 333.469C212.393 333.962 213.873 334.671 215.137 335.524C216.4 336.356 217.448 337.291 218.116 338.041C218.311 338.257 216.75 339.603 216.575 339.408Z" fill="#8CC63F"/>
<path d="M219.757 338.052C220.61 337.179 222.429 335.977 224.114 335.257C225.789 334.507 227.268 334.189 227.268 334.189C227.268 334.189 225.994 334.99 224.658 336.131C223.312 337.251 221.977 338.72 221.206 339.511C221.093 339.624 219.634 338.186 219.757 338.052Z" fill="#8CC63F"/>
<path d="M218.268 337.898C218.494 336.397 219.45 333.839 220.662 331.918C221.854 329.965 223.169 328.619 223.169 328.619C223.169 328.619 222.265 330.274 221.597 332.349C220.888 334.414 220.498 336.88 220.292 338.237C220.262 338.442 218.227 338.134 218.268 337.898Z" fill="#8CC63F"/>
<path d="M250.859 337.764C251.054 336.634 251.516 335.082 252.277 333.521C253.027 331.948 254.106 330.397 255.246 329.113C256.387 327.828 257.62 326.842 258.544 326.205C259.017 325.886 259.397 325.64 259.675 325.486C259.942 325.321 260.096 325.239 260.096 325.239C260.096 325.239 259.962 325.352 259.726 325.558C259.479 325.753 259.151 326.061 258.75 326.451C257.959 327.232 256.942 328.373 256.058 329.739C255.164 331.106 254.383 332.678 253.869 334.188C253.345 335.689 253.047 337.096 252.873 338.113C252.832 338.422 250.797 338.113 250.859 337.764Z" fill="#8CC63F"/>
<path d="M250.469 338.021C250.53 336.809 250.756 334.641 250.798 332.73C250.849 330.819 250.756 329.195 250.756 329.195C250.756 329.195 251.352 330.706 251.815 332.617C252.298 334.518 252.585 336.809 252.524 338.104C252.513 338.299 250.459 338.206 250.469 338.021Z" fill="#8CC63F"/>
<path d="M252.256 337.353C252.821 336.511 254.239 335.349 255.615 334.754C256.982 334.127 258.184 333.973 258.184 333.973C258.184 333.973 257.146 334.62 256.191 335.596C255.204 336.562 254.393 337.846 253.93 338.535C253.858 338.627 252.163 337.476 252.256 337.353Z" fill="#8CC63F"/>
<path d="M250.081 338.822C249.31 337.97 247.923 336.387 246.485 335.216C245.067 334.024 243.68 333.223 243.68 333.223C243.68 333.223 245.252 333.541 247.019 334.353C248.807 335.123 250.708 336.47 251.571 337.435C251.715 337.559 250.194 338.946 250.081 338.822Z" fill="#8CC63F"/>
<path d="M252.258 336.572C253.491 336.346 255.742 336.182 257.684 336.079C258.66 336.028 259.523 336.007 260.139 335.874C260.756 335.75 261.126 335.545 261.126 335.545C261.126 335.545 260.848 335.853 260.252 336.172C259.667 336.511 258.783 336.788 257.868 337.086C256.019 337.692 253.872 338.35 252.639 338.586C252.454 338.627 252.073 336.603 252.258 336.572Z" fill="#8CC63F"/>
<path d="M250.562 338.186C251.332 336.634 253.202 334.148 255.134 332.38C257.035 330.582 258.874 329.431 258.874 329.431C258.874 329.431 257.364 330.983 255.905 333.048C254.415 335.103 253.1 337.682 252.391 339.121C252.278 339.336 250.449 338.422 250.562 338.186Z" fill="#8CC63F"/>
<path d="M181.198 337.477C181.054 335.864 180.797 333.624 180.273 331.189C179.769 328.754 178.968 326.154 178.023 323.822C177.088 321.479 175.978 319.424 175.115 317.965C174.673 317.235 174.303 316.65 174.036 316.259C173.769 315.859 173.625 315.633 173.625 315.633C173.625 315.633 173.8 315.838 174.108 316.198C174.426 316.557 174.858 317.102 175.382 317.78C176.42 319.147 177.766 321.089 178.958 323.38C180.16 325.661 181.249 328.26 181.958 330.757C182.698 333.244 183.098 335.586 183.242 337.282C183.304 337.806 181.249 337.96 181.198 337.477Z" fill="#8CC63F"/>
<path d="M182.02 338.401C181.784 335.267 181.948 329.637 182.616 324.89C182.924 322.506 183.335 320.348 183.664 318.787C183.993 317.225 184.239 316.259 184.239 316.259C184.239 316.259 184.137 317.256 183.982 318.838C183.849 320.42 183.695 322.609 183.643 324.982C183.489 329.729 183.839 335.216 184.075 338.278C184.096 338.72 182.051 338.874 182.02 338.401Z" fill="#8CC63F"/>
<path d="M182.369 338.237C182.78 336.46 184.064 333.449 185.585 331.158C186.325 329.997 187.106 329.01 187.681 328.312C188.267 327.613 188.657 327.202 188.657 327.202C188.657 327.202 187.476 329.154 186.489 331.641C185.462 334.107 184.732 337.086 184.352 338.741C184.301 338.977 182.297 338.504 182.369 338.237Z" fill="#8CC63F"/>
<path d="M180.889 339.901C180.334 339.192 179.419 337.836 178.454 336.747C177.498 335.647 176.553 334.825 176.553 334.825C176.553 334.825 177.755 335.206 179.091 335.945C180.437 336.665 181.865 337.815 182.492 338.617C182.594 338.74 180.971 340.004 180.889 339.901Z" fill="#8CC63F"/>
<path d="M181.783 338.977C182.338 338.031 183.889 336.778 185.4 336.285C186.139 336.017 186.848 335.904 187.362 335.863C187.866 335.822 188.184 335.843 188.184 335.843C188.184 335.843 186.982 336.274 185.893 337.189C184.773 338.072 183.93 339.377 183.519 340.076C183.447 340.179 181.69 339.12 181.783 338.977Z" fill="#8CC63F"/>
<defs>
<linearGradient id="paint0_linear_268_2826" x1="292.299" y1="289.724" x2="352.08" y2="335.204" gradientUnits="userSpaceOnUse">
<stop offset="0.00558659" stop-color="#FFAF4D"/>
<stop offset="0.1637" stop-color="#F2923C"/>
<stop offset="0.3374" stop-color="#E7792D"/>
<stop offset="0.4418" stop-color="#E36F27"/>
<stop offset="0.5982" stop-color="#D76826"/>
<stop offset="0.8796" stop-color="#B85423"/>
<stop offset="1" stop-color="#A84A21"/>
</linearGradient>
<linearGradient id="paint1_linear_268_2826" x1="299.595" y1="280.134" x2="359.376" y2="325.615" gradientUnits="userSpaceOnUse">
<stop offset="0.00558659" stop-color="#FFAF4D"/>
<stop offset="0.1637" stop-color="#F2923C"/>
<stop offset="0.3374" stop-color="#E7792D"/>
<stop offset="0.4418" stop-color="#E36F27"/>
<stop offset="0.5982" stop-color="#D76826"/>
<stop offset="0.8796" stop-color="#B85423"/>
<stop offset="1" stop-color="#A84A21"/>
</linearGradient>
<linearGradient id="paint2_linear_268_2826" x1="298.044" y1="274.546" x2="364.594" y2="348.705" gradientUnits="userSpaceOnUse">
<stop offset="0.00558659" stop-color="#FFAF4D"/>
<stop offset="0.1637" stop-color="#F2923C"/>
<stop offset="0.3374" stop-color="#E7792D"/>
<stop offset="0.4418" stop-color="#E36F27"/>
<stop offset="0.5982" stop-color="#D76826"/>
<stop offset="0.8796" stop-color="#B85423"/>
<stop offset="1" stop-color="#A84A21"/>
</linearGradient>
<linearGradient id="paint3_linear_268_2826" x1="461.002" y1="315.732" x2="461.002" y2="261.806" gradientUnits="userSpaceOnUse">
<stop stop-color="#FFF4BE"/>
<stop offset="0.0138" stop-color="#FBF4BE"/>
<stop offset="0.2787" stop-color="#BAF3C7"/>
<stop offset="0.5191" stop-color="#86F3CF"/>
<stop offset="0.727" stop-color="#61F2D4"/>
<stop offset="0.8943" stop-color="#4AF2D7"/>
<stop offset="1" stop-color="#42F2D8"/>
</linearGradient>
<linearGradient id="paint4_linear_268_2826" x1="430.042" y1="203.865" x2="430.042" y2="146.444" gradientUnits="userSpaceOnUse">
<stop stop-color="#FFF4BE"/>
<stop offset="0.0138" stop-color="#FBF4BE"/>
<stop offset="0.2787" stop-color="#BAF3C7"/>
<stop offset="0.5191" stop-color="#86F3CF"/>
<stop offset="0.727" stop-color="#61F2D4"/>
<stop offset="0.8943" stop-color="#4AF2D7"/>
<stop offset="1" stop-color="#42F2D8"/>
</linearGradient>
<linearGradient id="paint5_linear_268_2826" x1="388.106" y1="205.037" x2="385.236" y2="144.419" gradientUnits="userSpaceOnUse">
<stop stop-color="#FFF4BE"/>
<stop offset="0.0138" stop-color="#FBF4BE"/>
<stop offset="0.2787" stop-color="#BAF3C7"/>
<stop offset="0.5191" stop-color="#86F3CF"/>
<stop offset="0.727" stop-color="#61F2D4"/>
<stop offset="0.8943" stop-color="#4AF2D7"/>
<stop offset="1" stop-color="#42F2D8"/>
</linearGradient>
<linearGradient id="paint6_linear_268_2826" x1="390.06" y1="122.181" x2="387.765" y2="65.9601" gradientUnits="userSpaceOnUse">
<stop stop-color="#FFF4BE"/>
<stop offset="0.0138" stop-color="#FBF4BE"/>
<stop offset="0.2787" stop-color="#BAF3C7"/>
<stop offset="0.5191" stop-color="#86F3CF"/>
<stop offset="0.727" stop-color="#61F2D4"/>
<stop offset="0.8943" stop-color="#4AF2D7"/>
<stop offset="1" stop-color="#42F2D8"/>
</linearGradient>
<linearGradient id="paint7_linear_268_2826" x1="433.72" y1="344.788" x2="417.393" y2="56.6754" gradientUnits="userSpaceOnUse">
<stop stop-color="#F57D4F"/>
<stop offset="0.3949" stop-color="#D75B38"/>
<stop offset="1" stop-color="#A32110"/>
</linearGradient>
<linearGradient id="paint8_linear_268_2826" x1="446.247" y1="51.2831" x2="523.227" y2="95.6113" gradientUnits="userSpaceOnUse">
<stop stop-color="#FF8759"/>
<stop offset="0.3243" stop-color="#E6654E"/>
<stop offset="1" stop-color="#AB1535"/>
</linearGradient>
<linearGradient id="paint9_linear_268_2826" x1="420.154" y1="233.834" x2="402.297" y2="27.3119" gradientUnits="userSpaceOnUse">
<stop stop-color="#F57D4F"/>
<stop offset="0.3949" stop-color="#D75B38"/>
<stop offset="1" stop-color="#A32110"/>
</linearGradient>
<linearGradient id="paint10_linear_268_2826" x1="459.782" y1="244.532" x2="459.782" y2="227.178" gradientUnits="userSpaceOnUse">
<stop offset="0.00558659" stop-color="#FFAF4D"/>
<stop offset="0.366" stop-color="#F2923C"/>
<stop offset="0.7621" stop-color="#E7792D"/>
<stop offset="1" stop-color="#E36F27"/>
</linearGradient>
<linearGradient id="paint11_linear_268_2826" x1="430.917" y1="244.532" x2="430.917" y2="227.178" gradientUnits="userSpaceOnUse">
<stop offset="0.00558659" stop-color="#FFAF4D"/>
<stop offset="0.366" stop-color="#F2923C"/>
<stop offset="0.7621" stop-color="#E7792D"/>
<stop offset="1" stop-color="#E36F27"/>
</linearGradient>
<linearGradient id="paint12_linear_268_2826" x1="402.054" y1="244.532" x2="402.054" y2="227.178" gradientUnits="userSpaceOnUse">
<stop offset="0.00558659" stop-color="#FFAF4D"/>
<stop offset="0.366" stop-color="#F2923C"/>
<stop offset="0.7621" stop-color="#E7792D"/>
<stop offset="1" stop-color="#E36F27"/>
</linearGradient>
<linearGradient id="paint13_linear_268_2826" x1="373.189" y1="244.532" x2="373.189" y2="227.178" gradientUnits="userSpaceOnUse">
<stop offset="0.00558659" stop-color="#FFAF4D"/>
<stop offset="0.366" stop-color="#F2923C"/>
<stop offset="0.7621" stop-color="#E7792D"/>
<stop offset="1" stop-color="#E36F27"/>
</linearGradient>
<linearGradient id="paint14_linear_268_2826" x1="24.5722" y1="285.606" x2="34.2786" y2="329.679" gradientUnits="userSpaceOnUse">
<stop stop-color="#AB9E6F"/>
<stop offset="1"/>
</linearGradient>
<linearGradient id="paint15_linear_268_2826" x1="54.7521" y1="247.467" x2="75.4767" y2="310.165" gradientUnits="userSpaceOnUse">
<stop stop-color="#AB9E6F"/>
<stop offset="1"/>
</linearGradient>
<linearGradient id="paint16_linear_268_2826" x1="123.412" y1="202.057" x2="132.332" y2="262.919" gradientUnits="userSpaceOnUse">
<stop stop-color="#AB9E6F"/>
<stop offset="1"/>
</linearGradient>
<linearGradient id="paint17_linear_268_2826" x1="160.633" y1="308.525" x2="165.355" y2="337.383" gradientUnits="userSpaceOnUse">
<stop stop-color="#AB9E6F"/>
<stop offset="1"/>
</linearGradient>
<linearGradient id="paint18_linear_268_2826" x1="166.435" y1="238.179" x2="197.128" y2="320.815" gradientUnits="userSpaceOnUse">
<stop stop-color="#AB9E6F"/>
<stop offset="1"/>
</linearGradient>
<linearGradient id="paint19_linear_268_2826" x1="244.354" y1="284.404" x2="243.304" y2="301.368" gradientUnits="userSpaceOnUse">
<stop stop-color="#AB9E6F"/>
<stop offset="1"/>
</linearGradient>
<linearGradient id="paint20_linear_268_2826" x1="260.538" y1="297.433" x2="254.439" y2="323.339" gradientUnits="userSpaceOnUse">
<stop stop-color="#AB9E6F"/>
<stop offset="1"/>
</linearGradient>
</defs>
</svg>
