<svg width="181" height="212" viewBox="0 0 181 212" fill="none" xmlns="http://www.w3.org/2000/svg">
<path d="M128.359 167.506L123.78 212.013H118.583C118.583 212.013 116.73 173.953 112.459 163.471L128.359 167.506Z" fill="#84644E"/>
<path d="M144.028 167.506L139.448 212.013H134.251C134.251 212.013 132.399 173.953 128.128 163.471L144.028 167.506Z" fill="#84644E"/>
<path d="M66.0579 163.264L63.6266 212H58.2236C58.2236 212 54.2228 170.304 49.1929 158.829L66.0579 163.264Z" fill="#84644E"/>
<path d="M82.4727 163.264L80.0542 212H74.6384C74.6384 212 70.6505 170.304 65.6077 158.829L82.4727 163.264Z" fill="#84644E"/>
<path d="M31.0672 56.5359C22.6668 20.3839 47.3791 3.28771 45.1535 0.193379C43.1339 -2.63019 14.6395 25.7087 20.1712 59.9526L31.0672 56.5359Z" fill="#F9E1B7"/>
<path d="M33.0997 60.0686C20.7115 25.0769 47.4434 3.48111 44.8834 0.657541C42.555 -1.92106 17.9199 30.0021 27.2336 63.4208L33.0997 60.0686Z" fill="#E5C695"/>
<path d="M52.0874 63.9365C54.4286 25.4766 74.0209 4.43518 69.2869 1.77922C68.0648 1.09589 48.4854 26.1341 43.3397 61.4997L52.0874 63.9365Z" fill="#F9E1B7"/>
<path d="M52.7306 65.2258C58.4809 27.6813 72.117 5.02824 69.7114 3.00404C69.081 2.47542 54.9947 29.0093 47.9965 63.872L52.7306 65.2258Z" fill="#E5C695"/>
<path d="M112.459 163.458C114.633 168.795 116.177 181.263 117.168 192.222H125.812L128.359 167.493L112.459 163.458Z" fill="#5B412F"/>
<path d="M128.141 163.458C130.315 168.795 131.859 181.263 132.849 192.222H141.494L144.041 167.493L128.141 163.458Z" fill="#5B412F"/>
<path d="M49.1929 158.829C51.8944 164.979 54.2871 179.793 55.9337 192.222H64.6171L66.0579 163.264L49.1929 158.829Z" fill="#5B412F"/>
<path d="M65.6077 158.829C68.3092 164.979 70.7019 179.793 72.3485 192.222H81.0319L82.4727 163.264L65.6077 158.829Z" fill="#5B412F"/>
<path d="M156.635 103.17C154.332 100.192 150.435 98.8379 146.717 99.7146C130.469 103.595 81.3921 114.103 65.7235 103.686C46.9802 91.2181 52.5762 66.3733 52.5762 66.3733L24.2748 75.9399C24.2748 75.9399 32.3665 100.385 31.6846 109.294C27.4394 165.624 38.4255 149.25 38.4255 149.25C38.4255 151.558 47.4048 186.072 53.7983 186.407C58.2236 186.639 55.9466 175.345 55.9466 175.345C55.9466 175.345 58.9054 187.013 66.6497 186.73C71.2679 186.562 75.1658 174.352 75.1658 174.352C75.1658 174.352 77.3785 184.628 83.7977 184.925C87.4254 185.092 88.6475 173.695 88.6475 173.695C88.6475 173.695 91.0274 187.813 99.4407 188.225C102.322 188.367 105.821 178.259 106.04 174.713C106.194 177.833 108.304 185.402 113.771 185.247C118.853 185.105 117.965 172.367 117.965 172.367C117.965 172.367 120.692 183.261 126.288 182.604C132.746 181.843 134.47 168.073 134.47 168.073C134.47 168.073 135.821 181.946 141.545 181.946C147.27 181.946 147.952 167.751 147.952 167.751C147.952 167.751 149.933 175.19 153.959 173.695C156.699 172.676 157.741 154.11 158.14 140.005C158.462 140.972 158.964 141.462 159.723 141.166C163.672 139.619 163.646 112.221 156.635 103.17Z" fill="#E0CCA4"/>
<path d="M115.058 177.511C109.578 177.666 107.481 170.085 107.326 166.978C107.108 170.523 103.609 180.631 100.727 180.489C92.3139 180.077 89.934 165.959 89.934 165.959C89.934 165.959 88.699 177.344 85.0842 177.189C78.6778 176.892 76.4522 166.617 76.4522 166.617C76.4522 166.617 72.5544 178.839 67.9361 178.994C60.1918 179.265 57.2331 167.609 57.2331 167.609C57.2331 167.609 58.7896 175.345 56.8085 177.872C58.1593 181.289 61.2338 186.936 66.6497 186.743C71.268 186.575 75.1658 174.365 75.1658 174.365C75.1658 174.365 77.3785 184.641 83.7977 184.938C87.4254 185.105 88.6476 173.708 88.6476 173.708C88.6476 173.708 91.0274 187.826 99.4407 188.238C102.322 188.38 105.821 178.272 106.04 174.726C106.194 177.846 108.304 185.415 113.771 185.26C117.335 185.157 117.965 178.852 118.017 175.113C117.386 176.493 116.447 177.472 115.058 177.511Z" fill="#BFA67B"/>
<path d="M55.0976 178.672C48.6912 178.336 39.7248 143.835 39.7248 141.514C39.7248 141.514 28.7259 157.888 32.9839 101.558C33.4342 95.6017 29.9737 82.7087 27.6195 74.8053L24.2748 75.9399C24.2748 75.9399 32.3665 100.385 31.6846 109.294C27.4394 165.624 38.4255 149.25 38.4255 149.25C38.4255 151.557 47.4048 186.072 53.7983 186.407C56.7442 186.562 56.7185 181.624 56.3711 178.298C56.0367 178.555 55.6122 178.697 55.0976 178.672Z" fill="#BFA67B"/>
<path d="M161.022 133.43C160.276 133.726 159.774 133.237 159.44 132.27C159.362 135.119 159.247 138.162 159.105 141.204C159.298 141.256 159.491 141.269 159.723 141.179C161.112 140.637 162 136.847 162.27 131.78C161.935 132.656 161.511 133.237 161.022 133.43Z" fill="#BFA67B"/>
<path d="M155.259 165.959C151.232 167.455 149.251 160.015 149.251 160.015C149.251 160.015 149.058 164.09 148.003 167.867C148.26 168.77 150.242 175.087 153.985 173.695C155.259 173.218 156.172 168.937 156.815 163.071C156.365 164.695 155.85 165.74 155.259 165.959Z" fill="#BFA67B"/>
<path d="M142.845 174.21C137.12 174.21 135.769 160.338 135.769 160.338C135.769 160.338 134.046 174.107 127.588 174.868C121.992 175.526 119.264 164.631 119.264 164.631C119.264 164.631 119.65 170.149 118.454 173.966C119.457 176.957 122.043 183.107 126.301 182.604C132.759 181.843 134.483 168.073 134.483 168.073C134.483 168.073 135.834 181.946 141.558 181.946C146.807 181.946 147.823 170.007 147.952 168.035C147.026 171.245 145.456 174.21 142.845 174.21Z" fill="#BFA67B"/>
<path d="M157.909 147.277C158.012 144.802 158.102 142.339 158.166 140.005C158.488 140.972 158.989 141.462 159.748 141.166C163.685 139.619 163.646 112.221 156.635 103.17C154.332 100.192 150.435 98.8379 146.717 99.7147C130.469 103.595 81.3921 114.103 65.7234 103.686C46.9802 91.2182 52.5762 66.3733 52.5762 66.3733L50.1963 67.1727C51.4184 102.229 67.2414 162.478 157.909 147.277Z" fill="#EAD6B2"/>
<path d="M52.2289 72.6393C52.7177 77.4742 51.5857 107.128 31.1572 120.988C31.9419 109.655 31.6075 101.945 29.5492 93.4228L52.2289 72.6393Z" fill="#BFA67B"/>
<path d="M142.279 103.028C149.714 94.9313 161.433 84.3977 180.987 86.1898L173.166 91.0247L180.987 93.4615C180.987 93.4615 174.143 95.0087 173.552 95.937C171.982 98.4253 176.292 103.234 176.292 103.234C176.292 103.234 152.827 97.5744 145.006 104.395L142.279 103.028Z" fill="#F7E2C1"/>
<path d="M176.305 103.209C176.305 103.209 172.008 98.3996 173.564 95.9112C174.092 95.0732 179.675 93.7452 180.781 93.4873C176.227 92.5848 170.657 92.559 164.804 93.6292C155.439 95.3439 147.759 99.4052 144.221 103.969L145.019 104.369C152.84 97.5615 176.305 103.209 176.305 103.209Z" fill="#E0CCA4"/>
<path d="M7.10107 111.151C10.806 117.584 8.33604 135.789 11.0504 136.782C13.7648 137.775 11.5392 126.622 13.2759 126.622C14.9997 126.622 13.5203 138.755 15.5014 139.503C17.4825 140.25 14.6395 129.601 16.6078 129.846C18.5889 130.091 17.0966 140.005 18.8333 140.74C20.5571 141.488 19.9396 126.248 21.6763 126.004C23.4001 125.759 21.8049 136.408 23.5287 136.408C25.2525 136.408 26.3717 109.784 24.1462 108.301C21.9207 106.819 7.10107 111.151 7.10107 111.151Z" fill="#D3BB92"/>
<path d="M19.4765 110.893C17.817 107.399 14.5109 108.985 7.0882 111.151C10.7931 117.584 8.32316 135.789 11.0375 136.782C13.7519 137.775 11.5264 126.622 13.263 126.622C14.5623 126.622 14.0478 133.456 14.5495 137.182C14.6524 135.093 17.4568 113.51 19.4765 110.893Z" fill="#DDC6A4"/>
<path d="M21.5219 111.138C21.419 113.497 20.5185 117.339 15.6172 117.572C10.7159 117.791 8.69621 115.096 9.06927 112.053L21.5219 111.138Z" fill="#F2DDB8"/>
<path d="M23.2586 106.496C23.3872 108.843 22.6411 112.775 16.1704 113.536C9.68678 114.297 6.70227 111.847 6.85664 108.766L23.2586 106.496Z" fill="#D1B88C"/>
<path d="M21.8178 57.967C17.0709 51.585 15.064 45.0095 0 47.2271C0 47.2271 3.76923 63.6529 20.4413 60.3909L21.8178 57.967Z" fill="#F2DDB8"/>
<path d="M17.6112 59.3595C12.3497 58.7922 7.92437 59.901 4.03937 50.4117C4.03937 50.4117 14.691 46.9564 18.5245 57.7349L17.6112 59.3595Z" fill="#EF8054"/>
<path d="M17.5597 55.556C13.1601 47.4592 4.03937 50.4117 4.03937 50.4117C4.66972 51.946 5.31293 53.1837 5.96901 54.2152C8.28457 53.274 13.2502 51.9718 17.5597 55.556Z" fill="#D8663F"/>
<path d="M55.8695 66.2443C56.1139 61.7833 54.3 55.5302 51.3413 54.5632C44.9091 52.4617 40.0722 50.734 38.001 50.4762C36.0328 50.2312 28.2242 51.8815 21.3418 54.4859C11.0118 58.3667 8.16883 91.8499 3.62775 98.3995C1.32504 101.7 0.964846 112.427 12.4783 111.937C28.2113 111.28 25.4584 104.91 31.8262 99.3923C55.4192 78.9182 55.535 72.188 55.8695 66.2443Z" fill="#E0CCA4"/>
<path d="M9.13362 102.139C21.8049 107.695 51.264 74.7409 47.572 61.6931C43.88 48.6454 26.9892 48.3102 18.3058 56.2136C9.62246 64.117 3.98792 99.8823 9.13362 102.139Z" fill="#F2DDB8"/>
<path d="M51.4442 62.2862C57.8377 57.5802 61.6455 51.8815 75.4102 58.4441C75.4102 58.4441 67.0485 73.0519 52.0488 65.0066L51.4442 62.2862Z" fill="#E0CCA4"/>
<path d="M71.8339 56.9485C70.6762 58.6762 63.7809 68.0881 52.1259 65.0453C67.0742 73.0132 75.4102 58.4441 75.4102 58.4441C74.1238 57.8252 72.9531 57.3482 71.8339 56.9485Z" fill="#D1B88C"/>
<path d="M53.9398 62.1702C58.2108 59.0243 60.7579 55.2079 69.9687 59.6045C69.9687 59.6045 64.3856 69.3774 54.3515 63.9881L53.9398 62.1702Z" fill="#EF8054"/>
<path d="M68.3606 58.8953C60.4491 55.672 57.9535 59.2176 53.9398 62.1701L54.3515 63.988C55.5093 64.6069 56.6027 65.0195 57.6319 65.2773C59.8188 61.9123 62.0572 59.0758 68.3606 58.8953Z" fill="#D8663F"/>
<path d="M14.5624 111.937C13.083 111.692 11.6164 109.217 12.3497 103.273L10.3815 103.028C10.3815 103.028 12.1696 111.692 9.82831 111.95H14.5624V111.937Z" fill="#C6AC7F"/>
<path d="M4.54108 97.9096C9.19793 91.0505 15.7844 79.5628 20.9687 81.948C26.1787 84.3332 19.5794 97.6646 16.2475 101.816L4.54108 97.9096Z" fill="#F9E7CA"/>
<path d="M12.0281 105.233C9.12077 105.877 3.58914 99.7146 4.8627 97.5615C6.13626 95.4083 17.0837 95.2536 18.01 97.2005C18.9491 99.1602 14.7167 104.64 12.0281 105.233Z" fill="#EF8054"/>
<path d="M32.3922 51.3271C31.4016 48.4778 31.0286 43.5269 32.3922 40.5486C32.3922 40.5486 33.0097 46.2473 34.0002 46.8662C34.0002 46.8662 34.0002 40.6775 35.8527 38.9369C35.8527 38.9369 37.0876 45.4995 38.2068 46.4923C38.2068 46.4923 38.6957 40.6775 42.0404 38.1891C42.0404 38.1891 41.1785 48.3489 44.1373 52.1781L32.3922 51.3271Z" fill="#E0CCA4"/>
<path d="M64.244 61.7963C60.0374 62.3765 59.3942 75.3855 66.2251 74.1736C69.0295 73.6836 70.7534 68.8101 69.5184 64.594L67.3829 65.7544C67.3829 65.7544 67.5373 72.5619 65.2346 71.0406C61.6069 68.6425 65.1574 64.6843 65.1574 64.6843L64.244 61.7963Z" fill="#FFC83E"/>
<path d="M19.2063 73.877C21.5605 74.6635 23.9018 63.9752 20.943 64.2202C17.9714 64.4651 16.2347 72.8843 19.2063 73.877Z" fill="#514533"/>
<path d="M36.5087 75.6176C38.8629 76.404 41.2042 65.7157 38.2325 65.9607C35.2737 66.2057 33.5371 74.6248 36.5087 75.6176Z" fill="#514533"/>
<path d="M9.42947 103.467C7.51269 101.61 4.47673 98.464 6.11049 98.0515C7.75711 97.6389 10.7288 102.525 10.7288 102.525L9.42947 103.467Z" fill="#C95E39"/>
<path d="M11.2177 102.371C12.697 100.114 15.2313 96.5172 15.7845 98.2577C16.3376 100.011 12.2211 103.699 12.2211 103.699L11.2177 102.371Z" fill="#C95E39"/>
<path d="M64.5914 63.0082C64.5914 63.0082 60.552 66.4893 63.6652 68.8874C63.2535 66.8116 65.1446 64.6843 65.1446 64.6843C64.913 63.9365 64.7844 63.511 64.5914 63.0082Z" fill="#EDB129"/>
<path d="M69.5184 64.6069L68.6308 65.084C68.9138 71.5821 67.6145 75.3984 61.6712 71.4273C62.4045 73.3097 63.871 74.599 66.238 74.1864C69.0167 73.6836 70.7534 68.823 69.5184 64.6069Z" fill="#EDB129"/>
<path d="M160.276 111.344C159.375 108.044 158.179 105.156 156.635 103.17C154.332 100.192 150.435 98.8379 146.717 99.7147C133.274 102.925 97.3695 110.661 76.5037 107.334C100.817 132.334 132.901 129.214 160.276 111.344Z" fill="#F7E2C1"/>
<mask id="mask0_67_5046" style="mask-type:alpha" maskUnits="userSpaceOnUse" x="0" y="-1" width="181" height="213">
<path d="M173.732 95.7436C173.757 95.7308 173.783 95.705 173.822 95.6921C173.886 95.6534 173.95 95.6018 174.028 95.5631C174.066 95.5374 174.118 95.5116 174.156 95.4987C174.233 95.46 174.323 95.4084 174.414 95.3698C174.465 95.344 174.516 95.3311 174.568 95.3053C174.671 95.2666 174.774 95.215 174.889 95.1764C174.941 95.1506 175.005 95.1377 175.057 95.1119C175.185 95.0603 175.314 95.0216 175.443 94.9701C175.494 94.9572 175.546 94.9314 175.597 94.9185C175.751 94.8669 175.906 94.8153 176.06 94.7638C176.099 94.7509 176.15 94.738 176.189 94.7251C176.369 94.6735 176.562 94.6091 176.742 94.5575C176.768 94.5446 176.793 94.5446 176.806 94.5317C177.9 94.2094 179.045 93.9128 179.855 93.7194C179.881 93.7194 179.894 93.7065 179.919 93.7065C180.061 93.6679 180.19 93.6421 180.305 93.6163C180.318 93.6163 180.331 93.6163 180.344 93.6034C180.447 93.5776 180.55 93.5518 180.627 93.5389C180.653 93.5389 180.666 93.526 180.691 93.526C180.858 93.4874 180.949 93.4616 180.949 93.4616L173.127 91.0248L180.949 86.1899C163.685 84.6041 152.531 92.6364 145.044 100.101C144.929 100.127 144.8 100.153 144.671 100.192C144.311 100.269 143.938 100.359 143.565 100.45C143.333 100.501 143.089 100.553 142.845 100.617C142.51 100.695 142.163 100.772 141.803 100.849C141.52 100.914 141.237 100.978 140.941 101.043C140.606 101.12 140.259 101.197 139.924 101.262C139.603 101.326 139.281 101.404 138.96 101.481C138.664 101.546 138.342 101.61 138.033 101.674C137.21 101.855 136.361 102.035 135.486 102.216C135.306 102.255 135.139 102.293 134.959 102.332C134.444 102.435 133.917 102.551 133.389 102.654C133.184 102.693 132.978 102.732 132.772 102.783C132.219 102.899 131.653 103.002 131.087 103.118C130.919 103.157 130.739 103.183 130.559 103.222C129.942 103.338 129.311 103.467 128.681 103.583C128.63 103.595 128.591 103.596 128.54 103.608C112.176 106.703 90.783 109.629 76.4651 107.347C72.117 106.651 68.3992 105.491 65.6977 103.699C56.0753 97.3037 52.8721 87.6468 52.0359 79.7563C52.0873 79.1245 52.1388 78.5315 52.1774 77.9642C55.4063 72.8585 55.6636 69.6095 55.818 66.6312C57.6962 67.2243 59.4457 67.4564 61.0795 67.4306C61.0023 68.823 61.1695 70.2541 61.6326 71.4403C61.7227 71.6595 61.8127 71.8658 61.9285 72.0721C61.9414 72.1107 61.9671 72.1365 61.9928 72.1752C62.0829 72.3428 62.1858 72.4975 62.2887 72.6522C62.3144 72.6909 62.3402 72.7167 62.3659 72.7554C62.4945 72.9359 62.636 73.0906 62.7904 73.2453C62.8033 73.2582 62.8033 73.2582 62.8161 73.2711C62.9576 73.4129 63.112 73.529 63.2664 73.645C63.305 73.6708 63.3564 73.6966 63.395 73.7353C63.5365 73.8255 63.6909 73.9158 63.8581 73.9802C63.8967 73.9931 63.9225 74.0189 63.9611 74.0318C64.154 74.1092 64.3598 74.1736 64.5785 74.2123C64.63 74.2252 64.6814 74.2252 64.7329 74.2381C64.9001 74.2639 65.0931 74.2768 65.2732 74.2897C65.3375 74.2897 65.4018 74.2897 65.479 74.2897C65.7235 74.2897 65.9679 74.2639 66.238 74.2252C69.0296 73.7353 70.7662 68.8746 69.5441 64.6715C73.4034 62.0284 75.436 58.4828 75.436 58.4828C74.7542 58.1605 74.0981 57.8768 73.4677 57.6061C72.9146 57.374 72.3871 57.1806 71.8726 56.9872H71.8597C63.2792 53.8542 59.1627 56.3039 54.9689 59.5787C54.7245 58.818 54.4286 58.096 54.107 57.4514C59.8702 27.0754 70.1873 7.99372 69.9815 3.7648C70.0973 2.79783 69.9043 2.12739 69.2869 1.77928C68.1677 1.14752 51.7786 21.9569 45.012 52.4618C44.7033 52.3586 44.4203 52.2684 44.1244 52.1781C41.1785 48.3231 42.0404 38.2021 42.0404 38.2021C38.7085 40.6775 38.2068 46.5052 38.2068 46.5052C37.0876 45.5124 35.8527 38.9499 35.8527 38.9499C34.0002 40.6775 34.0002 46.8791 34.0002 46.8791C33.0097 46.2602 32.3922 40.5615 32.3922 40.5615C31.0929 43.4109 31.3759 48.0652 32.2764 50.9533C31.7361 50.9533 31.2087 50.9791 30.6684 51.0177C25.8057 24.3034 43.1467 6.93649 44.9091 1.88242C45.295 1.12173 45.4108 0.567332 45.1535 0.193435C43.2367 -2.48831 17.4697 22.9238 19.6051 54.8083C16.0417 49.6382 12.5684 45.3835 0 47.2272C0 47.2272 2.92018 59.9397 14.9869 60.7778C11.6936 66.8762 9.14648 76.5201 7.93724 84.9909C6.45785 91.0506 5.13284 96.2207 3.62772 98.3996C1.7624 101.081 1.18351 108.637 7.16539 111.138C7.13966 111.138 7.12679 111.151 7.10107 111.151C10.806 117.584 8.33603 135.789 11.0504 136.782C13.7647 137.775 11.5392 126.622 13.2759 126.622C13.3788 126.622 13.456 126.674 13.5332 126.751C13.5589 126.777 13.5846 126.803 13.5975 126.829C13.649 126.893 13.7004 126.983 13.7519 127.087C13.7647 127.125 13.7905 127.164 13.8033 127.216C13.9191 127.538 13.9963 127.963 14.0606 128.479C14.0735 128.544 14.0735 128.621 14.0864 128.685C14.1121 128.892 14.1249 129.124 14.1507 129.356C14.1507 129.42 14.1635 129.498 14.1635 129.562C14.2279 130.593 14.2665 131.793 14.305 133.004C14.305 133.121 14.3179 133.237 14.3179 133.353C14.3308 133.623 14.3308 133.894 14.3436 134.165C14.3565 134.423 14.3694 134.693 14.3822 134.938C14.3822 135.054 14.3951 135.171 14.408 135.287C14.4208 135.519 14.4337 135.738 14.4594 135.97C14.4723 136.073 14.4723 136.176 14.4851 136.279C14.5109 136.576 14.5366 136.872 14.5752 137.143C14.5752 137.156 14.5752 137.169 14.5752 137.182C14.7424 138.42 15.0126 139.322 15.5143 139.503C17.4954 140.25 14.6524 129.601 16.6206 129.846C18.6017 130.091 17.1095 140.005 18.8461 140.74C20.5699 141.488 19.9525 126.249 21.6891 126.004C23.4129 125.759 21.8178 136.408 23.5416 136.408C25.1882 136.408 26.2817 112.169 24.4421 108.662C27.195 106.406 27.954 103.299 30.8227 100.321C30.8999 100.695 30.9643 101.068 31.0286 101.442C31.4016 104.511 31.5689 107.657 31.5689 111.086C27.6967 165.237 38.4384 149.237 38.4384 149.237C38.4384 151.545 47.4176 186.059 53.8112 186.395C54.0556 186.407 54.2743 186.369 54.4801 186.317C54.5316 186.304 54.583 186.291 54.6216 186.266C54.776 186.214 54.9303 186.137 55.0719 186.034C55.3677 188.096 55.6636 190.146 55.9209 192.132C57.3488 202.949 58.2236 211.974 58.2236 211.974H63.6266L64.6171 192.196L64.9001 186.549C64.9645 186.562 65.0288 186.562 65.0931 186.575C65.196 186.601 65.2989 186.614 65.4147 186.627C65.8135 186.678 66.238 186.717 66.6625 186.704C68.2706 186.652 69.7757 185.118 71.075 183.171C71.1522 183.674 71.2294 184.177 71.3065 184.68C71.3194 184.809 71.3451 184.938 71.358 185.067C71.5896 186.665 71.8211 188.264 72.0398 189.837C72.0398 189.876 72.0527 189.901 72.0527 189.94C72.1556 190.675 72.2456 191.41 72.3485 192.132C73.7765 202.949 74.6512 211.987 74.6512 211.987H80.0671L81.0448 192.209L81.4436 184.28C82.164 184.628 82.9487 184.86 83.8106 184.899C87.4383 185.067 88.6604 173.669 88.6604 173.669C88.6604 173.669 91.0403 187.787 99.4535 188.2C102.335 188.341 105.834 178.233 106.053 174.688C106.207 177.808 108.317 185.376 113.784 185.221C113.99 185.221 114.17 185.183 114.35 185.144C114.402 185.131 114.453 185.118 114.505 185.105C114.646 185.067 114.775 185.015 114.903 184.95C114.942 184.938 114.981 184.925 115.019 184.899C115.174 184.809 115.328 184.718 115.47 184.602C115.508 184.577 115.534 184.538 115.572 184.512C115.675 184.422 115.778 184.319 115.881 184.203C115.92 184.164 115.958 184.112 115.997 184.074C116.113 183.945 116.216 183.79 116.306 183.648C116.319 183.713 116.319 183.777 116.331 183.829C116.331 183.855 116.331 183.867 116.344 183.893C116.666 186.678 116.936 189.489 117.193 192.209C118.158 202.794 118.608 211.987 118.608 211.987H123.806L126.842 182.501C128.758 182.05 130.238 180.438 131.357 178.427C131.408 178.826 131.473 179.226 131.524 179.639C131.537 179.755 131.55 179.858 131.563 179.974C131.64 180.541 131.704 181.121 131.781 181.701C131.794 181.792 131.807 181.869 131.807 181.959C131.884 182.578 131.949 183.184 132.026 183.816C132.026 183.867 132.039 183.906 132.039 183.958C132.116 184.615 132.193 185.273 132.257 185.93C132.257 185.956 132.257 185.982 132.257 185.995C132.476 188.084 132.682 190.172 132.875 192.209C133.84 202.794 134.29 211.987 134.29 211.987H139.487L142.6 181.779C142.845 181.701 143.076 181.585 143.308 181.444C143.346 181.418 143.385 181.405 143.424 181.379C143.655 181.237 143.861 181.057 144.067 180.863C144.105 180.825 144.144 180.786 144.183 180.747C144.388 180.541 144.568 180.322 144.749 180.077C144.787 180.025 144.813 179.987 144.851 179.935C145.032 179.677 145.199 179.419 145.353 179.123C145.379 179.084 145.405 179.033 145.417 178.994C145.572 178.697 145.726 178.388 145.868 178.066C145.881 178.04 145.893 178.014 145.906 177.975C146.048 177.653 146.164 177.331 146.292 176.996C146.305 176.944 146.331 176.892 146.344 176.828C146.459 176.493 146.562 176.157 146.665 175.809C146.691 175.732 146.704 175.655 146.73 175.59C146.82 175.255 146.91 174.92 146.987 174.585C147.013 174.507 147.026 174.417 147.051 174.34C147.128 174.004 147.206 173.682 147.27 173.347C147.283 173.269 147.296 173.192 147.321 173.115C147.386 172.779 147.45 172.457 147.501 172.148C147.514 172.083 147.514 172.032 147.527 171.967C147.579 171.645 147.63 171.335 147.669 171.039C147.669 171.013 147.682 170.974 147.682 170.949C147.72 170.639 147.759 170.343 147.797 170.072C147.797 170.046 147.81 170.02 147.81 169.982C147.849 169.698 147.875 169.44 147.9 169.195C147.9 169.169 147.9 169.157 147.9 169.131C147.99 168.254 148.016 167.713 148.016 167.713C148.016 167.713 148.093 168.022 148.26 168.486C148.299 168.602 148.338 168.705 148.389 168.834C148.402 168.873 148.415 168.912 148.428 168.937C148.479 169.066 148.531 169.208 148.582 169.35C148.608 169.402 148.634 169.453 148.646 169.505C148.698 169.646 148.762 169.775 148.827 169.93C148.852 169.995 148.878 170.046 148.917 170.111C148.981 170.252 149.045 170.394 149.122 170.536C149.161 170.601 149.2 170.678 149.225 170.742C149.302 170.884 149.367 171.013 149.457 171.142C149.495 171.219 149.547 171.284 149.585 171.361C149.663 171.49 149.753 171.619 149.83 171.748C149.881 171.825 149.933 171.89 149.984 171.967C150.074 172.083 150.164 172.199 150.254 172.315C150.306 172.38 150.37 172.457 150.435 172.522C150.525 172.625 150.628 172.728 150.73 172.818C150.795 172.883 150.859 172.947 150.923 172.999C151.026 173.089 151.129 173.166 151.245 173.244C151.322 173.295 151.386 173.347 151.464 173.398C151.579 173.463 151.695 173.527 151.811 173.579C151.888 173.618 151.965 173.656 152.043 173.682C152.171 173.734 152.3 173.759 152.428 173.785C152.506 173.798 152.583 173.824 152.673 173.837C152.814 173.85 152.969 173.85 153.123 173.837C153.2 173.837 153.265 173.837 153.342 173.837C153.573 173.811 153.805 173.759 154.049 173.669C154.127 173.643 154.217 173.592 154.294 173.527C154.32 173.501 154.345 173.476 154.371 173.45C154.422 173.398 154.474 173.36 154.525 173.295C154.551 173.257 154.59 173.205 154.615 173.166C154.667 173.102 154.705 173.05 154.744 172.973C154.783 172.921 154.808 172.857 154.847 172.792C154.886 172.715 154.924 172.651 154.963 172.56C155.001 172.496 155.027 172.418 155.066 172.341C155.104 172.251 155.143 172.174 155.181 172.07C155.22 171.98 155.246 171.89 155.284 171.8C155.323 171.696 155.349 171.606 155.387 171.503C155.426 171.4 155.452 171.297 155.49 171.194C155.516 171.09 155.555 170.974 155.58 170.871C155.606 170.755 155.645 170.639 155.67 170.523C155.696 170.407 155.735 170.291 155.76 170.162C155.786 170.033 155.825 169.904 155.85 169.775C155.876 169.646 155.902 169.518 155.928 169.389C155.953 169.247 155.992 169.105 156.018 168.95C156.043 168.821 156.069 168.692 156.095 168.551C156.121 168.396 156.159 168.241 156.185 168.074C156.211 167.945 156.236 167.803 156.262 167.661C156.288 167.493 156.314 167.326 156.352 167.145C156.378 167.016 156.391 166.874 156.416 166.733C156.442 166.539 156.481 166.359 156.506 166.165C156.519 166.036 156.545 165.907 156.558 165.791C156.674 164.966 156.777 164.102 156.88 163.187C156.892 163.135 156.892 163.071 156.905 163.019C157.42 158.378 157.767 152.744 157.999 147.226C157.999 147.213 157.999 147.2 157.999 147.187C158.102 144.711 158.192 142.275 158.256 139.941C158.526 140.715 158.899 141.166 159.44 141.166C159.568 141.166 159.697 141.166 159.838 141.101C159.941 141.063 160.057 140.985 160.16 140.908C160.186 140.882 160.211 140.856 160.25 140.831C160.327 140.753 160.404 140.676 160.494 140.573C160.52 140.547 160.533 140.521 160.559 140.495C160.649 140.366 160.739 140.225 160.829 140.07C160.855 140.018 160.88 139.967 160.906 139.915C160.97 139.786 161.022 139.657 161.086 139.528C161.112 139.464 161.15 139.387 161.176 139.309C161.241 139.142 161.305 138.961 161.369 138.768C161.408 138.652 161.433 138.536 161.472 138.42C161.511 138.278 161.549 138.136 161.588 137.981C161.626 137.852 161.652 137.71 161.691 137.569C161.716 137.453 161.742 137.324 161.768 137.208C161.845 136.872 161.909 136.511 161.961 136.137C161.961 136.099 161.974 136.06 161.987 136.009C162.025 135.789 162.051 135.57 162.077 135.351C162.09 135.274 162.102 135.196 162.102 135.119C162.205 134.371 162.283 133.585 162.334 132.747C162.334 132.695 162.347 132.643 162.347 132.605C162.36 132.321 162.385 132.038 162.398 131.754C162.398 131.741 162.398 131.728 162.398 131.728C162.72 125.63 162.128 117.688 160.391 111.306V111.293C160.353 111.138 160.301 110.983 160.25 110.816C160.173 110.545 160.096 110.261 160.006 109.99C159.954 109.797 159.89 109.617 159.825 109.436C159.748 109.204 159.671 108.972 159.594 108.74C159.53 108.559 159.465 108.379 159.388 108.198C159.311 107.979 159.221 107.76 159.144 107.554C159.079 107.386 159.002 107.206 158.925 107.038C158.835 106.819 158.745 106.612 158.655 106.406C158.578 106.251 158.513 106.097 158.436 105.942C158.333 105.736 158.23 105.529 158.127 105.323C158.05 105.194 157.986 105.052 157.909 104.923C157.78 104.704 157.664 104.498 157.536 104.292C157.471 104.189 157.42 104.085 157.356 103.982C157.163 103.686 156.957 103.402 156.751 103.131C156.146 102.345 155.426 101.687 154.628 101.133C164.341 100.269 176.42 103.17 176.42 103.17C176.42 103.17 172.124 98.3609 173.68 95.8726C173.603 95.8597 173.655 95.8081 173.732 95.7436ZM65.2346 71.0406C64.2698 70.396 63.8195 69.6482 63.6652 68.8875C63.5494 68.2815 63.6394 67.6626 63.8067 67.1082C65.106 66.8375 66.2895 66.412 67.3701 65.8705C67.3829 66.7215 67.3701 72.4588 65.2346 71.0406Z" fill="url(#paint0_linear_67_5046)"/>
</mask>
<g mask="url(#mask0_67_5046)">
<path opacity="0.6" d="M173.732 95.7436C173.757 95.7308 173.783 95.705 173.822 95.6921C173.886 95.6534 173.95 95.6018 174.028 95.5631C174.066 95.5374 174.118 95.5116 174.156 95.4987C174.233 95.46 174.323 95.4084 174.414 95.3698C174.465 95.344 174.516 95.3311 174.568 95.3053C174.671 95.2666 174.774 95.215 174.889 95.1764C174.941 95.1506 175.005 95.1377 175.057 95.1119C175.185 95.0603 175.314 95.0216 175.443 94.9701C175.494 94.9572 175.546 94.9314 175.597 94.9185C175.751 94.8669 175.906 94.8153 176.06 94.7638C176.099 94.7509 176.15 94.738 176.189 94.7251C176.369 94.6735 176.562 94.6091 176.742 94.5575C176.768 94.5446 176.793 94.5446 176.806 94.5317C177.9 94.2094 179.045 93.9128 179.855 93.7194C179.881 93.7194 179.894 93.7065 179.919 93.7065C180.061 93.6679 180.19 93.6421 180.305 93.6163C180.318 93.6163 180.331 93.6163 180.344 93.6034C180.447 93.5776 180.55 93.5518 180.627 93.5389C180.653 93.5389 180.666 93.526 180.691 93.526C180.858 93.4874 180.949 93.4616 180.949 93.4616L173.127 91.0248L180.949 86.1899C163.685 84.6041 152.531 92.6364 145.044 100.101C144.929 100.127 144.8 100.153 144.671 100.192C144.311 100.269 143.938 100.359 143.565 100.45C143.333 100.501 143.089 100.553 142.845 100.617C142.51 100.695 142.163 100.772 141.803 100.849C141.52 100.914 141.237 100.978 140.941 101.043C140.606 101.12 140.259 101.197 139.924 101.262C139.603 101.326 139.281 101.404 138.96 101.481C138.664 101.546 138.342 101.61 138.033 101.674C137.21 101.855 136.361 102.035 135.486 102.216C135.306 102.255 135.139 102.293 134.959 102.332C134.444 102.435 133.917 102.551 133.389 102.654C133.184 102.693 132.978 102.732 132.772 102.783C132.219 102.899 131.653 103.002 131.087 103.118C130.919 103.157 130.739 103.183 130.559 103.222C129.942 103.338 129.311 103.467 128.681 103.583C128.63 103.595 128.591 103.596 128.54 103.608C112.176 106.703 90.783 109.629 76.4651 107.347C72.117 106.651 68.3992 105.491 65.6977 103.699C56.0753 97.3037 52.8721 87.6468 52.0359 79.7563C52.0873 79.1245 52.1388 78.5315 52.1774 77.9642C55.4063 72.8585 55.6636 69.6095 55.818 66.6312C57.6962 67.2243 59.4457 67.4564 61.0795 67.4306C61.0023 68.823 61.1695 70.2541 61.6326 71.4403C61.7227 71.6595 61.8127 71.8658 61.9285 72.0721C61.9414 72.1107 61.9671 72.1365 61.9928 72.1752C62.0829 72.3428 62.1858 72.4975 62.2887 72.6522C62.3144 72.6909 62.3402 72.7167 62.3659 72.7554C62.4945 72.9359 62.636 73.0906 62.7904 73.2453C62.8033 73.2582 62.8033 73.2582 62.8161 73.2711C62.9576 73.4129 63.112 73.529 63.2664 73.645C63.305 73.6708 63.3564 73.6966 63.395 73.7353C63.5365 73.8255 63.6909 73.9158 63.8581 73.9802C63.8967 73.9931 63.9225 74.0189 63.9611 74.0318C64.154 74.1092 64.3598 74.1736 64.5785 74.2123C64.63 74.2252 64.6814 74.2252 64.7329 74.2381C64.9001 74.2639 65.0931 74.2768 65.2732 74.2897C65.3375 74.2897 65.4018 74.2897 65.479 74.2897C65.7235 74.2897 65.9679 74.2639 66.238 74.2252C69.0296 73.7353 70.7662 68.8746 69.5441 64.6715C73.4034 62.0284 75.436 58.4828 75.436 58.4828C74.7542 58.1605 74.0981 57.8768 73.4677 57.6061C72.9146 57.374 72.3871 57.1806 71.8726 56.9872H71.8597C63.2792 53.8542 59.1627 56.3039 54.9689 59.5787C54.7245 58.818 54.4286 58.096 54.107 57.4514C59.8702 27.0754 70.1873 7.99372 69.9815 3.7648C70.0973 2.79783 69.9043 2.12739 69.2869 1.77928C68.1677 1.14752 51.7786 21.9569 45.012 52.4618C44.7033 52.3586 44.4203 52.2684 44.1244 52.1781C41.1785 48.3231 42.0404 38.2021 42.0404 38.2021C38.7085 40.6775 38.2068 46.5052 38.2068 46.5052C37.0876 45.5124 35.8527 38.9499 35.8527 38.9499C34.0002 40.6775 34.0002 46.8791 34.0002 46.8791C33.0097 46.2602 32.3922 40.5615 32.3922 40.5615C31.0929 43.4109 31.3759 48.0652 32.2764 50.9533C31.7361 50.9533 31.2087 50.9791 30.6684 51.0177C25.8057 24.3034 43.1467 6.93649 44.9091 1.88242C45.295 1.12173 45.4108 0.567332 45.1535 0.193435C43.2367 -2.48831 17.4697 22.9238 19.6051 54.8083C16.0417 49.6382 12.5684 45.3835 0 47.2272C0 47.2272 2.92018 59.9397 14.9869 60.7778C11.6936 66.8762 9.14648 76.5201 7.93724 84.9909C6.45785 91.0506 5.13284 96.2207 3.62772 98.3996C1.7624 101.081 1.18351 108.637 7.16539 111.138C7.13966 111.138 7.12679 111.151 7.10107 111.151C10.806 117.584 8.33603 135.789 11.0504 136.782C13.7647 137.775 11.5392 126.622 13.2759 126.622C13.3788 126.622 13.456 126.674 13.5332 126.751C13.5589 126.777 13.5846 126.803 13.5975 126.829C13.649 126.893 13.7004 126.983 13.7519 127.087C13.7647 127.125 13.7905 127.164 13.8033 127.216C13.9191 127.538 13.9963 127.963 14.0606 128.479C14.0735 128.544 14.0735 128.621 14.0864 128.685C14.1121 128.892 14.1249 129.124 14.1507 129.356C14.1507 129.42 14.1635 129.498 14.1635 129.562C14.2279 130.593 14.2665 131.793 14.305 133.004C14.305 133.121 14.3179 133.237 14.3179 133.353C14.3308 133.623 14.3308 133.894 14.3436 134.165C14.3565 134.423 14.3694 134.693 14.3822 134.938C14.3822 135.054 14.3951 135.171 14.408 135.287C14.4208 135.519 14.4337 135.738 14.4594 135.97C14.4723 136.073 14.4723 136.176 14.4851 136.279C14.5109 136.576 14.5366 136.872 14.5752 137.143C14.5752 137.156 14.5752 137.169 14.5752 137.182C14.7424 138.42 15.0126 139.322 15.5143 139.503C17.4954 140.25 14.6524 129.601 16.6206 129.846C18.6017 130.091 17.1095 140.005 18.8461 140.74C20.5699 141.488 19.9525 126.249 21.6891 126.004C23.4129 125.759 21.8178 136.408 23.5416 136.408C25.1882 136.408 26.2817 112.169 24.4421 108.662C27.195 106.406 27.954 103.299 30.8227 100.321C30.8999 100.695 30.9643 101.068 31.0286 101.442C31.4016 104.511 31.5689 107.657 31.5689 111.086C27.6967 165.237 38.4384 149.237 38.4384 149.237C38.4384 151.545 47.4176 186.059 53.8112 186.395C54.0556 186.407 54.2743 186.369 54.4801 186.317C54.5316 186.304 54.583 186.291 54.6216 186.266C54.776 186.214 54.9303 186.137 55.0719 186.034C55.3677 188.096 55.6636 190.146 55.9209 192.132C57.3488 202.949 58.2236 211.974 58.2236 211.974H63.6266L64.6171 192.196L64.9001 186.549C64.9645 186.562 65.0288 186.562 65.0931 186.575C65.196 186.601 65.2989 186.614 65.4147 186.627C65.8135 186.678 66.238 186.717 66.6625 186.704C68.2706 186.652 69.7757 185.118 71.075 183.171C71.1522 183.674 71.2294 184.177 71.3065 184.68C71.3194 184.809 71.3451 184.938 71.358 185.067C71.5896 186.665 71.8211 188.264 72.0398 189.837C72.0398 189.876 72.0527 189.901 72.0527 189.94C72.1556 190.675 72.2456 191.41 72.3485 192.132C73.7765 202.949 74.6512 211.987 74.6512 211.987H80.0671L81.0448 192.209L81.4436 184.28C82.164 184.628 82.9487 184.86 83.8106 184.899C87.4383 185.067 88.6604 173.669 88.6604 173.669C88.6604 173.669 91.0403 187.787 99.4535 188.2C102.335 188.341 105.834 178.233 106.053 174.688C106.207 177.808 108.317 185.376 113.784 185.221C113.99 185.221 114.17 185.183 114.35 185.144C114.402 185.131 114.453 185.118 114.505 185.105C114.646 185.067 114.775 185.015 114.903 184.95C114.942 184.938 114.981 184.925 115.019 184.899C115.174 184.809 115.328 184.718 115.47 184.602C115.508 184.577 115.534 184.538 115.572 184.512C115.675 184.422 115.778 184.319 115.881 184.203C115.92 184.164 115.958 184.112 115.997 184.074C116.113 183.945 116.216 183.79 116.306 183.648C116.319 183.713 116.319 183.777 116.331 183.829C116.331 183.855 116.331 183.867 116.344 183.893C116.666 186.678 116.936 189.489 117.193 192.209C118.158 202.794 118.608 211.987 118.608 211.987H123.806L126.842 182.501C128.758 182.05 130.238 180.438 131.357 178.427C131.408 178.826 131.473 179.226 131.524 179.639C131.537 179.755 131.55 179.858 131.563 179.974C131.64 180.541 131.704 181.121 131.781 181.701C131.794 181.792 131.807 181.869 131.807 181.959C131.884 182.578 131.949 183.184 132.026 183.816C132.026 183.867 132.039 183.906 132.039 183.958C132.116 184.615 132.193 185.273 132.257 185.93C132.257 185.956 132.257 185.982 132.257 185.995C132.476 188.084 132.682 190.172 132.875 192.209C133.84 202.794 134.29 211.987 134.29 211.987H139.487L142.6 181.779C142.845 181.701 143.076 181.585 143.308 181.444C143.346 181.418 143.385 181.405 143.424 181.379C143.655 181.237 143.861 181.057 144.067 180.863C144.105 180.825 144.144 180.786 144.183 180.747C144.388 180.541 144.568 180.322 144.749 180.077C144.787 180.025 144.813 179.987 144.851 179.935C145.032 179.677 145.199 179.419 145.353 179.123C145.379 179.084 145.405 179.033 145.417 178.994C145.572 178.697 145.726 178.388 145.868 178.066C145.881 178.04 145.893 178.014 145.906 177.975C146.048 177.653 146.164 177.331 146.292 176.996C146.305 176.944 146.331 176.892 146.344 176.828C146.459 176.493 146.562 176.157 146.665 175.809C146.691 175.732 146.704 175.655 146.73 175.59C146.82 175.255 146.91 174.92 146.987 174.585C147.013 174.507 147.026 174.417 147.051 174.34C147.128 174.004 147.206 173.682 147.27 173.347C147.283 173.269 147.296 173.192 147.321 173.115C147.386 172.779 147.45 172.457 147.501 172.148C147.514 172.083 147.514 172.032 147.527 171.967C147.579 171.645 147.63 171.335 147.669 171.039C147.669 171.013 147.682 170.974 147.682 170.949C147.72 170.639 147.759 170.343 147.797 170.072C147.797 170.046 147.81 170.02 147.81 169.982C147.849 169.698 147.875 169.44 147.9 169.195C147.9 169.169 147.9 169.157 147.9 169.131C147.99 168.254 148.016 167.713 148.016 167.713C148.016 167.713 148.093 168.022 148.26 168.486C148.299 168.602 148.338 168.705 148.389 168.834C148.402 168.873 148.415 168.912 148.428 168.937C148.479 169.066 148.531 169.208 148.582 169.35C148.608 169.402 148.634 169.453 148.646 169.505C148.698 169.646 148.762 169.775 148.827 169.93C148.852 169.995 148.878 170.046 148.917 170.111C148.981 170.252 149.045 170.394 149.122 170.536C149.161 170.601 149.2 170.678 149.225 170.742C149.302 170.884 149.367 171.013 149.457 171.142C149.495 171.219 149.547 171.284 149.585 171.361C149.663 171.49 149.753 171.619 149.83 171.748C149.881 171.825 149.933 171.89 149.984 171.967C150.074 172.083 150.164 172.199 150.254 172.315C150.306 172.38 150.37 172.457 150.435 172.522C150.525 172.625 150.628 172.728 150.73 172.818C150.795 172.883 150.859 172.947 150.923 172.999C151.026 173.089 151.129 173.166 151.245 173.244C151.322 173.295 151.386 173.347 151.464 173.398C151.579 173.463 151.695 173.527 151.811 173.579C151.888 173.618 151.965 173.656 152.043 173.682C152.171 173.734 152.3 173.759 152.428 173.785C152.506 173.798 152.583 173.824 152.673 173.837C152.814 173.85 152.969 173.85 153.123 173.837C153.2 173.837 153.265 173.837 153.342 173.837C153.573 173.811 153.805 173.759 154.049 173.669C154.127 173.643 154.217 173.592 154.294 173.527C154.32 173.501 154.345 173.476 154.371 173.45C154.422 173.398 154.474 173.36 154.525 173.295C154.551 173.257 154.59 173.205 154.615 173.166C154.667 173.102 154.705 173.05 154.744 172.973C154.783 172.921 154.808 172.857 154.847 172.792C154.886 172.715 154.924 172.651 154.963 172.56C155.001 172.496 155.027 172.418 155.066 172.341C155.104 172.251 155.143 172.174 155.181 172.07C155.22 171.98 155.246 171.89 155.284 171.8C155.323 171.696 155.349 171.606 155.387 171.503C155.426 171.4 155.452 171.297 155.49 171.194C155.516 171.09 155.555 170.974 155.58 170.871C155.606 170.755 155.645 170.639 155.67 170.523C155.696 170.407 155.735 170.291 155.76 170.162C155.786 170.033 155.825 169.904 155.85 169.775C155.876 169.646 155.902 169.518 155.928 169.389C155.953 169.247 155.992 169.105 156.018 168.95C156.043 168.821 156.069 168.692 156.095 168.551C156.121 168.396 156.159 168.241 156.185 168.074C156.211 167.945 156.236 167.803 156.262 167.661C156.288 167.493 156.314 167.326 156.352 167.145C156.378 167.016 156.391 166.874 156.416 166.733C156.442 166.539 156.481 166.359 156.506 166.165C156.519 166.036 156.545 165.907 156.558 165.791C156.674 164.966 156.777 164.102 156.88 163.187C156.892 163.135 156.892 163.071 156.905 163.019C157.42 158.378 157.767 152.744 157.999 147.226C157.999 147.213 157.999 147.2 157.999 147.187C158.102 144.711 158.192 142.275 158.256 139.941C158.526 140.715 158.899 141.166 159.44 141.166C159.568 141.166 159.697 141.166 159.838 141.101C159.941 141.063 160.057 140.985 160.16 140.908C160.186 140.882 160.211 140.856 160.25 140.831C160.327 140.753 160.404 140.676 160.494 140.573C160.52 140.547 160.533 140.521 160.559 140.495C160.649 140.366 160.739 140.225 160.829 140.07C160.855 140.018 160.88 139.967 160.906 139.915C160.97 139.786 161.022 139.657 161.086 139.528C161.112 139.464 161.15 139.387 161.176 139.309C161.241 139.142 161.305 138.961 161.369 138.768C161.408 138.652 161.433 138.536 161.472 138.42C161.511 138.278 161.549 138.136 161.588 137.981C161.626 137.852 161.652 137.71 161.691 137.569C161.716 137.453 161.742 137.324 161.768 137.208C161.845 136.872 161.909 136.511 161.961 136.137C161.961 136.099 161.974 136.06 161.987 136.009C162.025 135.789 162.051 135.57 162.077 135.351C162.09 135.274 162.102 135.196 162.102 135.119C162.205 134.371 162.283 133.585 162.334 132.747C162.334 132.695 162.347 132.643 162.347 132.605C162.36 132.321 162.385 132.038 162.398 131.754C162.398 131.741 162.398 131.728 162.398 131.728C162.72 125.63 162.128 117.688 160.391 111.306V111.293C160.353 111.138 160.301 110.983 160.25 110.816C160.173 110.545 160.096 110.261 160.006 109.99C159.954 109.797 159.89 109.617 159.825 109.436C159.748 109.204 159.671 108.972 159.594 108.74C159.53 108.559 159.465 108.379 159.388 108.198C159.311 107.979 159.221 107.76 159.144 107.554C159.079 107.386 159.002 107.206 158.925 107.038C158.835 106.819 158.745 106.612 158.655 106.406C158.578 106.251 158.513 106.097 158.436 105.942C158.333 105.736 158.23 105.529 158.127 105.323C158.05 105.194 157.986 105.052 157.909 104.923C157.78 104.704 157.664 104.498 157.536 104.292C157.471 104.189 157.42 104.085 157.356 103.982C157.163 103.686 156.957 103.402 156.751 103.131C156.146 102.345 155.426 101.687 154.628 101.133C164.341 100.269 176.42 103.17 176.42 103.17C176.42 103.17 172.124 98.3609 173.68 95.8726C173.603 95.8597 173.655 95.8081 173.732 95.7436ZM65.2346 71.0406C64.2698 70.396 63.8195 69.6482 63.6652 68.8875C63.5494 68.2815 63.6394 67.6626 63.8067 67.1082C65.106 66.8375 66.2895 66.412 67.3701 65.8705C67.3829 66.7215 67.3701 72.4588 65.2346 71.0406Z" fill="url(#paint1_linear_67_5046)"/>
</g>
<defs>
<linearGradient id="paint0_linear_67_5046" x1="90.4969" y1="76.1897" x2="90.4969" y2="212.17" gradientUnits="userSpaceOnUse">
<stop offset="0.0215" stop-color="#999999"/>
<stop offset="1" stop-color="white"/>
</linearGradient>
<linearGradient id="paint1_linear_67_5046" x1="90.4969" y1="76.1897" x2="90.4969" y2="212.17" gradientUnits="userSpaceOnUse">
<stop offset="0.0215" stop-color="#FFD995"/>
<stop offset="1" stop-color="#240043"/>
</linearGradient>
</defs>
</svg>
