<svg width="107" height="128" viewBox="0 0 107 128" fill="none" xmlns="http://www.w3.org/2000/svg">
<path d="M61.3098 104.93C59.2405 109.293 54.7555 115.031 59.353 126.393C59.353 126.393 56.9374 126.851 56.9374 126.505C56.9374 126.16 53.145 110.201 56.2447 103.314L61.3098 104.93Z" fill="#EDB63B"/>
<path d="M75.345 104.93C73.2757 109.293 68.7907 115.031 73.3883 126.393C73.3883 126.393 70.9726 126.851 70.9726 126.505C70.9726 126.16 67.1802 110.201 70.2799 103.314L75.345 104.93Z" fill="#EDB63B"/>
<path d="M52.5649 128H66.3663C66.3663 128 59.9245 123.637 57.275 124.215C54.6429 124.786 51.8809 126.739 52.5649 128Z" fill="#EDB63B"/>
<path d="M56.7123 121.805C56.7123 121.805 54.6429 122.842 51.6471 121.347C51.6471 121.347 55.4395 120.656 56.1322 119.74L56.7123 121.805Z" fill="#EDB63B"/>
<path d="M66.7213 128H80.5227C80.5227 128 74.0809 123.637 71.4314 124.215C68.7906 124.786 66.0286 126.739 66.7213 128Z" fill="#EDB63B"/>
<path d="M70.86 121.805C70.86 121.805 68.7907 122.842 65.7949 121.347C65.7949 121.347 69.5872 120.656 70.2799 119.74L70.86 121.805Z" fill="#EDB63B"/>
<path d="M5.36819 13.7038C31.9061 -4.81274 33.5079 36.8516 30.4168 60.5957L29.7068 61.4338C29.7068 61.4338 28.6852 3.14513 5.36819 13.7038Z" fill="#EA3E2D"/>
<path d="M0 40.6449C5.98293 -3.12775 25.7673 38.6576 29.2046 63.8273L28.7804 64.8382C28.7717 64.8296 11.507 7.11985 0 40.6449Z" fill="#EA3E2D"/>
<path d="M1.22948 71.716C-1.37669 20.7458 19.6891 44.6281 30.0618 69.2708L29.9493 70.3595C29.9493 70.3595 3.2209 24.2625 1.22948 71.716Z" fill="#EA3E2D"/>
<path d="M4.29453 81.5057C3.99149 64.3716 13.9573 48.6028 29.906 70.1867L30.6766 72.6319C30.6766 72.6319 12.4247 51.817 4.29453 81.5057Z" fill="#EA3E2D"/>
<path d="M55.5434 95.5549C58.1409 99.3913 64.4355 107.669 70.9639 107.859C78.0205 108.058 80.6007 103.72 84.4536 96.8078L55.5434 95.5549Z" fill="#BA9485"/>
<path d="M75.042 26.4053C73.9251 24.1069 73.0765 22.2147 71.5786 21.7567C69.1803 21.0223 62.3055 21.5407 63.5437 12.2868C64.0026 8.83921 68.0287 3.21426 78.2716 9.87607C78.2716 9.87607 73.3276 0.233299 80.5747 6.61612e-06C87.8217 -0.233286 88.1681 8.38127 86.5576 12.1658C86.5576 12.1658 89.2071 7.34441 92.1942 9.06386C94.177 10.2044 94.6099 13.315 90.0123 17.2118C85.3887 21.126 75.042 26.4053 75.042 26.4053Z" fill="#DD4B33"/>
<path d="M71.3622 20.0891C65.7429 21.1778 63.5177 16.8834 63.89 13.8074C64.2623 10.6623 66.6001 6.43711 71.6566 8.10472C76.358 9.64272 80.0292 18.4128 71.3622 20.0891Z" fill="#FF5E39"/>
<path d="M78.7564 9.04657C76.1416 4.04373 77.7001 1.06277 79.5184 0.760352C81.3886 0.440655 84.5402 1.72809 85.4407 6.79141C86.2805 11.4918 82.7826 16.7625 78.7564 9.04657Z" fill="#FF5E39"/>
<path d="M87.6832 11.3363C89.4322 8.83918 91.2504 8.83918 91.8565 9.6341C92.4713 10.4463 92.6358 12.2781 90.4365 13.9716C88.3845 15.5442 84.9818 15.1899 87.6832 11.3363Z" fill="#FF5E39"/>
<path d="M91.718 18.4905C85.6831 11.6127 68.9378 12.8656 75.6134 40.1868C77.3451 47.272 89.6486 78.6455 36.7288 61.0794C31.2047 59.2477 28.2176 58.6687 27.6375 61.0794C26.8496 64.3801 31.5424 78.7838 34.1919 84.6161C41.0926 99.7715 82.5055 122.842 99.0689 76.4681C101.069 70.8605 101.545 59.9994 93.5449 47.3065C89.0599 40.1868 90.4366 33.6459 91.2418 31.2352C92.3933 27.8482 94.9389 22.1627 91.718 18.4905Z" fill="#F2DAD1"/>
<path d="M27.5596 60.639C27.9665 64.2593 44.3048 78.2137 49.3527 76.7707C54.4005 75.3278 59.7427 67.5514 58.7297 66.6873C57.8638 65.9442 26.9881 55.4547 27.5596 60.639Z" fill="#FFF0E9"/>
<path d="M93.5622 47.298C89.0772 40.1782 90.4539 33.6374 91.2591 31.2267C92.3847 27.8483 94.9389 22.1542 91.718 18.482C90.7483 17.376 89.5015 16.486 88.1161 15.8726C88.8521 19.2423 87.1464 23.217 86.2805 25.8264C81.25 40.8781 98.0386 53.7351 94.099 71.0593C85.7091 107.945 50.5388 100.523 35.9928 87.6835C46.4434 102.502 83.5965 119.792 99.0776 76.4596C101.086 70.8519 101.563 59.9908 93.5622 47.298Z" fill="#D3B4A7"/>
<path d="M93.5622 47.2979C89.0772 40.1781 90.9734 33.7755 91.7786 31.3648C92.9042 27.9864 94.861 22.2232 91.718 18.4819C85.2848 10.8092 68.5482 13.0125 75.2152 40.3337C78.5313 53.9078 81.302 55.0052 86.1507 56.0334C90.9128 57.0443 97.5191 53.5795 93.5622 47.2979Z" fill="#C13B25"/>
<path d="M82.3583 33.6374C81.9254 35.4692 80.9903 43.5481 88.5664 56.1804C85.7091 56.9926 79.7608 54.6943 79.7608 54.6943C76.6525 47.4363 70.9206 30.2158 75.4316 23.6923C80.9557 15.7085 82.3583 33.6374 82.3583 33.6374Z" fill="#F44E38"/>
<path d="M88.194 27.7186C89.0772 21.99 86.4883 16.1836 82.6873 15.6047C78.8863 15.0258 74.6957 19.9249 73.8125 25.6449C72.9294 31.3736 75.9252 36.4542 79.7262 37.0331C83.5272 37.612 87.3196 33.4473 88.194 27.7186Z" fill="#F44E38"/>
<path d="M93.5622 47.2979C89.0772 40.1781 90.9734 33.7755 91.7786 31.3648C92.9042 27.9864 94.9389 22.1541 91.718 18.4819C90.7483 17.3759 89.4841 16.4859 88.0815 15.8811C88.2893 16.1058 88.4971 16.339 88.6876 16.581C91.9085 20.6938 93.0774 28.669 90.6184 31.4772C88.7655 33.6027 86.0381 40.8694 90.5231 48.8272C92.1076 51.644 91.9951 53.9424 90.9907 55.6273C94.1077 54.4608 96.2203 51.5144 93.5622 47.2979Z" fill="#A53421"/>
<path d="M44.2096 92.5308C46.0452 96.7819 50.7207 106.079 57.0932 107.453C63.9939 108.948 67.3274 105.155 72.3926 99.0716L44.2096 92.5308Z" fill="#D3B4A7"/>
<path d="M82.0986 26.5953C82.2111 22.733 82.4449 20.8839 83.2588 21.0308C84.0727 21.1691 84.5662 26.7767 84.5662 26.7767L82.0986 26.5953Z" fill="#47382B"/>
<path d="M91.0253 30.3887C92.2375 32.5574 100.151 32.687 102.602 32.2982L93.7007 25.1785C93.7094 25.1871 88.4191 25.7228 91.0253 30.3887Z" fill="#DB6D1B"/>
<path d="M90.5664 26.6387C91.7959 27.8657 105.978 17.3761 106.974 15.8468C107.597 14.8877 92.7137 19.3634 91.4842 20.9014C90.6097 21.9988 89.8045 25.8697 90.5664 26.6387Z" fill="#EF832B"/>
<path d="M90.8868 26.8373C90.8868 26.8373 93.7181 28.5567 95.9346 26.7163C98.1598 24.8759 105.9 16.6934 105.9 16.6934C105.9 16.6934 90.7309 24.4611 90.8868 26.8373Z" fill="#603915"/>
<path d="M90.8781 26.941C90.4193 27.4767 92.3328 29.9997 102.385 32.0648C102.385 32.0648 96.7485 27.0447 95.519 26.6645C94.2809 26.293 90.8781 26.941 90.8781 26.941Z" fill="#7C471C"/>
<path d="M91.4063 26.8287C91.4063 26.4658 91.0773 26.1807 90.679 26.1807C90.272 26.1807 89.943 26.4658 89.943 26.8287C89.943 27.1916 90.272 27.4767 90.679 27.4767C91.0773 27.4767 91.4063 27.1916 91.4063 26.8287Z" fill="#603915"/>
<path d="M79.7521 48.6028C86.5836 55.7485 98.8438 73.1677 85.7178 94.1986L59.8466 102.77C59.8466 102.77 26.408 87.8997 36.798 82.1365C36.798 82.1365 31.7502 68.9943 42.5732 72.3036C42.5732 72.3036 32.0359 58.764 43.7247 63.378C43.7247 63.378 70.8514 72.0185 74.7476 64.242C78.6439 56.4656 79.7521 48.6028 79.7521 48.6028Z" fill="#D3B4A7"/>
<path d="M79.7522 48.6026C77.7607 46.9177 74.2454 61.0362 66.2365 63.3778C53.3961 67.1191 41.3697 54.8065 40.4086 57.6146C38.8241 62.22 45.3352 70.2556 48.3483 72.5886C46.6166 71.5863 40.0709 69.3657 39.1098 70.7136C36.8586 73.9019 45.5949 81.4018 48.0539 83.6743C46.7292 83.0695 42.3048 83.1991 41.2744 84.6852C40.6683 85.5493 50.9458 99.5209 70.7128 94.9069C90.705 90.2497 94.3328 60.9066 79.7522 48.6026Z" fill="#FFF0E9"/>
<path d="M50.6947 98.4151C49.8462 99.1149 53.9502 103.867 57.1365 104.429C60.5912 105.034 64.7212 102.338 64.7905 101.05C64.8511 99.8667 51.6558 97.6115 50.6947 98.4151Z" fill="#E5C5BA"/>
<path d="M61.6908 82.6721C52.2792 82.6721 43.9325 78.4556 38.7462 71.9493C38.7462 75.5351 45.872 81.6699 48.0539 83.6831C46.7292 83.0782 42.3047 83.2079 41.2744 84.694C40.6683 85.5581 50.9458 99.5297 70.7128 94.9157C83.8649 91.8483 89.9344 78.0927 88.3932 65.5381C84.3497 75.5438 73.9251 82.6721 61.6908 82.6721Z" fill="#FCE4DB"/>
<path d="M59.5955 76.7705C56.4179 77.5309 53.5347 83.6397 61.4744 84.8321C56.998 82.0758 56.5218 80.2094 59.5955 76.7705Z" fill="#E2C1B7"/>
<path d="M55.907 84.7632C52.5995 85.0915 48.5301 89.7228 56.2014 91.3732C52.2878 88.781 52.1753 87.243 55.907 84.7632Z" fill="#E2C1B7"/>
<path d="M55.4741 67.6289C52.1666 67.9572 48.0972 72.5885 55.7685 74.2389C51.8549 71.6467 51.7424 70.1087 55.4741 67.6289Z" fill="#E2C1B7"/>
<path d="M65.6304 69.5039C62.4528 70.4889 59.3964 75.8374 67.2495 75.9238C62.8943 74.1698 62.4701 72.6836 65.6304 69.5039Z" fill="#E2C1B7"/>
<path d="M69.5439 82.3264C66.6261 83.9249 64.7039 89.7745 72.4099 88.297C67.7863 87.4329 67.0763 86.0677 69.5439 82.3264Z" fill="#E2C1B7"/>
<path d="M72.3146 72.9517C69.6825 74.9822 68.6781 81.0564 76.0637 78.4124C71.3622 78.2742 70.4531 77.0213 72.3146 72.9517Z" fill="#E2C1B7"/>
<path d="M79.5876 70.1692C78.6785 73.3662 81.5011 78.8442 85.8563 72.3293C82.0033 75.0079 80.5314 74.5499 79.5876 70.1692Z" fill="#E2C1B7"/>
<path d="M73.1458 62.125C71.596 65.0628 73.2151 70.9988 78.8344 65.538C74.5052 67.3525 73.1545 66.6008 73.1458 62.125Z" fill="#E2C1B7"/>
<path d="M90.9128 30.6909C88.93 30.9069 88.7482 34.3977 88.7482 34.3977C88.6443 37.0416 88.5317 44.5848 94.809 42.8394C97.0169 42.2259 94.809 38.8993 93.3804 37.3873C94.532 38.2513 95.9952 38.908 96.8005 37.5082C97.8481 35.6678 92.8955 30.4662 90.9128 30.6909Z" fill="#DD4B33"/>
<path d="M92.9648 38.0699C94.809 40.4979 94.177 42.1223 93.2332 42.4506C92.2721 42.779 90.3673 42.2692 89.4235 39.6511C88.4105 35.9098 89.0166 31.8315 90.0383 31.6241C90.6617 31.4945 92.2115 36.8775 92.9648 38.0699Z" fill="#FF5E39"/>
<path d="M92.099 35.9097C93.2332 37.1453 95.3199 37.7847 95.7788 37.3527C96.2463 36.9034 96.1857 35.2271 94.9476 34.0434C93.2159 32.3844 90.9474 30.6909 90.1162 31.5549C89.0772 32.635 91.5189 35.2703 92.099 35.9097Z" fill="#FF5E39"/>
<mask id="mask0_596_5119" style="mask-type:alpha" maskUnits="userSpaceOnUse" x="0" y="0" width="107" height="129">
<path d="M92.7483 20.0978C92.4886 19.5275 92.1596 18.9918 91.718 18.4907C91.2678 17.955 90.7569 17.4625 90.2114 17.0304C94.5666 13.22 94.1164 10.1958 92.1769 9.0812C89.1898 7.36174 86.5403 12.1831 86.5403 12.1831C88.1507 8.3986 87.8044 -0.215952 80.5574 0.0173406C73.3103 0.250633 78.2542 9.8934 78.2542 9.8934C68.0114 3.2316 63.9939 8.85655 63.5264 12.3041C62.2882 21.558 69.163 21.0396 71.5613 21.7741C72.6003 22.0938 73.319 23.1047 74.0376 24.4526C73.9424 24.8501 73.8558 25.2562 73.7952 25.6623C73.648 26.6473 73.6134 27.6064 73.674 28.5309C73.6567 29.5332 73.6826 30.596 73.7692 31.7279C73.977 37.4392 75.9165 44.3948 77.804 49.7174C77.8127 49.8124 77.83 49.9074 77.8386 50.0025C75.6308 53.4414 72.1674 61.6585 66.2191 63.3952C53.3788 67.1366 41.3523 54.8239 40.3912 57.632C40.0622 58.5911 40.0969 59.7057 40.3653 60.8895C36.5469 59.9477 32.9797 59.2651 30.5727 59.2305C33.4299 35.2964 31.3779 -4.44979 5.35087 13.7211C25.9578 4.37214 29.1614 48.7496 29.6289 59.2478C29.1787 59.2824 28.789 59.3601 28.4773 59.4638C23.594 34.2509 5.64525 -0.691179 0 40.6449C9.72334 12.3127 23.5681 49.1557 27.6202 61.2351C27.5076 61.9004 27.5682 62.92 27.7674 64.1815C16.8838 41.6817 -1.20351 24.2712 1.22949 71.716C2.9525 30.691 23.1698 59.5848 28.6072 68.1648C28.6505 68.3289 28.6851 68.4845 28.7284 68.6486C13.4637 49.389 4.00016 64.795 4.29455 81.5057C11.1779 56.3446 25.3344 67.4476 29.499 71.4222C30.919 76.2955 32.8325 81.5921 34.2005 84.6076C34.4689 85.2038 34.8066 85.8173 35.1789 86.4307C35.482 87.0874 35.9582 87.7614 36.5729 88.4612C37.6033 89.8092 38.8414 91.1657 40.2614 92.4877C40.2873 92.5136 40.3133 92.5395 40.3393 92.5655C40.5471 92.7556 40.7636 92.9543 40.98 93.1444C41.0233 93.1876 41.0753 93.2221 41.1185 93.2654C41.3263 93.4468 41.5341 93.6282 41.7419 93.8011C41.8026 93.8529 41.8632 93.9047 41.9238 93.9566C42.1316 94.1294 42.3394 94.2936 42.5472 94.4664C42.6164 94.5269 42.6944 94.5787 42.7636 94.6392C42.9714 94.8034 43.1792 94.9675 43.387 95.123C43.465 95.1835 43.5515 95.244 43.6295 95.3045C43.8373 95.46 44.0451 95.6156 44.2615 95.7711C44.3481 95.8316 44.4347 95.9007 44.5213 95.9612C44.7377 96.1167 44.9455 96.2636 45.162 96.4105C45.2486 96.471 45.3438 96.5314 45.4304 96.5919C45.6469 96.7388 45.872 96.8857 46.0884 97.0326C46.1837 97.0931 46.2703 97.1536 46.3655 97.2141C46.4348 97.2572 46.5127 97.3091 46.582 97.3523C48.66 101.042 51.6385 105.129 55.2836 106.814C54.6862 110.857 55.1711 116.007 55.7598 120.034C54.5996 120.794 51.6298 121.338 51.6298 121.338C53.6472 122.349 55.249 122.202 56.0715 122.004C56.2274 122.919 56.3746 123.74 56.5045 124.414C54.1234 125.157 51.9155 126.86 52.5389 128H66.3403C66.3403 128 61.5523 124.76 58.5392 124.241C56.0023 116.43 57.9417 111.497 59.8293 107.773C62.0112 107.781 63.8294 107.159 65.5178 106.027C66.7127 106.762 67.9421 107.315 69.2063 107.609C68.7733 111.549 69.2322 116.335 69.795 120.111C68.5655 120.837 65.7689 121.347 65.7689 121.347C67.7084 122.315 69.2496 122.22 70.1067 122.038C70.2626 122.963 70.4098 123.775 70.5483 124.457C68.2019 125.218 66.0806 126.885 66.6953 128.009H80.5227C80.5227 128.009 75.6048 124.673 72.5917 124.224C70.0288 116.318 72.0549 111.367 73.9684 107.617C78.0897 106.779 80.4102 103.807 82.9904 99.3914C83.2761 99.2014 83.5618 99.0026 83.8475 98.8039C83.9428 98.7348 84.0294 98.6829 84.1246 98.6138C84.5056 98.3373 84.8866 98.0522 85.2589 97.7498C85.2762 97.7411 85.2935 97.7238 85.3021 97.7152C85.6571 97.4301 86.0121 97.1276 86.3585 96.8252C86.471 96.7215 86.5836 96.6179 86.6961 96.5142C86.9472 96.2895 87.1983 96.0562 87.4494 95.8229C87.588 95.6933 87.7178 95.5551 87.8564 95.4168C88.0815 95.1922 88.2979 94.9762 88.5231 94.7429C88.6702 94.5873 88.8088 94.4318 88.956 94.2763C89.1638 94.0516 89.3716 93.827 89.5794 93.585C89.7266 93.4122 89.8738 93.2394 90.021 93.0666C90.2201 92.8333 90.4192 92.6 90.6097 92.3495C90.7569 92.168 90.9041 91.9693 91.0513 91.7792C91.2418 91.5286 91.4323 91.2867 91.6228 91.0275C91.77 90.8287 91.9171 90.6214 92.0557 90.4226C92.2375 90.1634 92.4193 89.8956 92.6012 89.6277C92.7483 89.4117 92.8869 89.1957 93.0341 88.9797C93.2159 88.7032 93.3891 88.4267 93.5622 88.1415C93.7008 87.9169 93.8393 87.6922 93.9778 87.4589C94.151 87.1652 94.3242 86.8714 94.4973 86.569C94.6359 86.3357 94.7657 86.0938 94.9043 85.8518C95.0774 85.5408 95.2419 85.2211 95.4151 84.9014C95.545 84.6508 95.6749 84.4089 95.8047 84.1583C95.9693 83.8213 96.1424 83.4843 96.3069 83.1387C96.4281 82.8881 96.5494 82.6376 96.6706 82.3783C96.8438 82.0154 97.0083 81.6353 97.1728 81.2551C97.2853 81.0045 97.3979 80.7626 97.5018 80.512C97.6836 80.0886 97.8568 79.648 98.0386 79.2073C98.1252 78.9826 98.2204 78.7753 98.307 78.5506C98.5668 77.8767 98.8265 77.1941 99.0776 76.4942C101.078 70.8865 101.554 60.0254 93.5536 47.3326C92.5665 45.7687 91.9085 44.2479 91.4582 42.7877C92.2981 43.1765 93.3891 43.2543 94.8004 42.8568C97.0083 42.2433 94.8004 38.9168 93.3717 37.4047C94.5233 38.2687 95.9866 38.9254 96.7918 37.5256C97.5278 36.2469 95.3285 33.3264 93.2592 31.7538C96.1424 32.6092 100.809 32.6006 102.602 32.3241L102.29 32.0821C102.316 32.0908 102.342 32.0908 102.368 32.0994C102.368 32.0994 97.4412 27.7187 95.7961 26.8374C95.8394 26.8028 95.8827 26.7769 95.926 26.7423C97.6403 25.3253 102.619 20.1496 104.818 17.8426C105.952 16.9181 106.758 16.1923 106.965 15.8726C107.52 15.0172 96.6186 18.2055 92.7483 20.0978Z" fill="url(#paint0_linear_596_5119)"/>
</mask>
<g mask="url(#mask0_596_5119)">
<path opacity="0.6" d="M92.7483 20.0978C92.4886 19.5275 92.1596 18.9918 91.718 18.4907C91.2678 17.955 90.7569 17.4625 90.2114 17.0304C94.5666 13.22 94.1164 10.1958 92.1769 9.0812C89.1898 7.36174 86.5403 12.1831 86.5403 12.1831C88.1507 8.3986 87.8044 -0.215952 80.5574 0.0173406C73.3103 0.250633 78.2542 9.8934 78.2542 9.8934C68.0114 3.2316 63.9939 8.85655 63.5264 12.3041C62.2882 21.558 69.163 21.0396 71.5613 21.7741C72.6003 22.0938 73.319 23.1047 74.0376 24.4526C73.9424 24.8501 73.8558 25.2562 73.7952 25.6623C73.648 26.6473 73.6134 27.6064 73.674 28.5309C73.6567 29.5332 73.6826 30.596 73.7692 31.7279C73.977 37.4392 75.9165 44.3948 77.804 49.7174C77.8127 49.8124 77.83 49.9074 77.8386 50.0025C75.6308 53.4414 72.1674 61.6585 66.2191 63.3952C53.3788 67.1366 41.3523 54.8239 40.3912 57.632C40.0622 58.5911 40.0969 59.7057 40.3653 60.8895C36.5469 59.9477 32.9797 59.2651 30.5727 59.2305C33.4299 35.2964 31.3779 -4.44979 5.35087 13.7211C25.9578 4.37214 29.1614 48.7496 29.6289 59.2478C29.1787 59.2824 28.789 59.3601 28.4773 59.4638C23.594 34.2509 5.64525 -0.691179 0 40.6449C9.72334 12.3127 23.5681 49.1557 27.6202 61.2351C27.5076 61.9004 27.5682 62.92 27.7674 64.1815C16.8838 41.6817 -1.20351 24.2712 1.22949 71.716C2.9525 30.691 23.1698 59.5848 28.6072 68.1648C28.6505 68.3289 28.6851 68.4845 28.7284 68.6486C13.4637 49.389 4.00016 64.795 4.29455 81.5057C11.1779 56.3446 25.3344 67.4476 29.499 71.4222C30.919 76.2955 32.8325 81.5921 34.2005 84.6076C34.4689 85.2038 34.8066 85.8173 35.1789 86.4307C35.482 87.0874 35.9582 87.7614 36.5729 88.4612C37.6033 89.8092 38.8414 91.1657 40.2614 92.4877C40.2873 92.5136 40.3133 92.5395 40.3393 92.5655C40.5471 92.7556 40.7636 92.9543 40.98 93.1444C41.0233 93.1876 41.0753 93.2221 41.1185 93.2654C41.3263 93.4468 41.5341 93.6282 41.7419 93.8011C41.8026 93.8529 41.8632 93.9047 41.9238 93.9566C42.1316 94.1294 42.3394 94.2936 42.5472 94.4664C42.6164 94.5269 42.6944 94.5787 42.7636 94.6392C42.9714 94.8034 43.1792 94.9675 43.387 95.123C43.465 95.1835 43.5515 95.244 43.6295 95.3045C43.8373 95.46 44.0451 95.6156 44.2615 95.7711C44.3481 95.8316 44.4347 95.9007 44.5213 95.9612C44.7377 96.1167 44.9455 96.2636 45.162 96.4105C45.2486 96.471 45.3438 96.5314 45.4304 96.5919C45.6469 96.7388 45.872 96.8857 46.0884 97.0326C46.1837 97.0931 46.2703 97.1536 46.3655 97.2141C46.4348 97.2572 46.5127 97.3091 46.582 97.3523C48.66 101.042 51.6385 105.129 55.2836 106.814C54.6862 110.857 55.1711 116.007 55.7598 120.034C54.5996 120.794 51.6298 121.338 51.6298 121.338C53.6472 122.349 55.249 122.202 56.0715 122.004C56.2274 122.919 56.3746 123.74 56.5045 124.414C54.1234 125.157 51.9155 126.86 52.5389 128H66.3403C66.3403 128 61.5523 124.76 58.5392 124.241C56.0023 116.43 57.9417 111.497 59.8293 107.773C62.0112 107.781 63.8294 107.159 65.5178 106.027C66.7127 106.762 67.9421 107.315 69.2063 107.609C68.7733 111.549 69.2322 116.335 69.795 120.111C68.5655 120.837 65.7689 121.347 65.7689 121.347C67.7084 122.315 69.2496 122.22 70.1067 122.038C70.2626 122.963 70.4098 123.775 70.5483 124.457C68.2019 125.218 66.0806 126.885 66.6953 128.009H80.5227C80.5227 128.009 75.6048 124.673 72.5917 124.224C70.0288 116.318 72.0549 111.367 73.9684 107.617C78.0897 106.779 80.4102 103.807 82.9904 99.3914C83.2761 99.2014 83.5618 99.0026 83.8475 98.8039C83.9428 98.7348 84.0294 98.6829 84.1246 98.6138C84.5056 98.3373 84.8866 98.0522 85.2589 97.7498C85.2762 97.7411 85.2935 97.7238 85.3021 97.7152C85.6571 97.4301 86.0121 97.1276 86.3585 96.8252C86.471 96.7215 86.5836 96.6179 86.6961 96.5142C86.9472 96.2895 87.1983 96.0562 87.4494 95.8229C87.588 95.6933 87.7178 95.5551 87.8564 95.4168C88.0815 95.1922 88.2979 94.9762 88.5231 94.7429C88.6702 94.5873 88.8088 94.4318 88.956 94.2763C89.1638 94.0516 89.3716 93.827 89.5794 93.585C89.7266 93.4122 89.8738 93.2394 90.021 93.0666C90.2201 92.8333 90.4192 92.6 90.6097 92.3495C90.7569 92.168 90.9041 91.9693 91.0513 91.7792C91.2418 91.5286 91.4323 91.2867 91.6228 91.0275C91.77 90.8287 91.9171 90.6214 92.0557 90.4226C92.2375 90.1634 92.4193 89.8956 92.6012 89.6277C92.7483 89.4117 92.8869 89.1957 93.0341 88.9797C93.2159 88.7032 93.3891 88.4267 93.5622 88.1415C93.7008 87.9169 93.8393 87.6922 93.9778 87.4589C94.151 87.1652 94.3242 86.8714 94.4973 86.569C94.6359 86.3357 94.7657 86.0938 94.9043 85.8518C95.0774 85.5408 95.2419 85.2211 95.4151 84.9014C95.545 84.6508 95.6749 84.4089 95.8047 84.1583C95.9693 83.8213 96.1424 83.4843 96.3069 83.1387C96.4281 82.8881 96.5494 82.6376 96.6706 82.3783C96.8438 82.0154 97.0083 81.6353 97.1728 81.2551C97.2853 81.0045 97.3979 80.7626 97.5018 80.512C97.6836 80.0886 97.8568 79.648 98.0386 79.2073C98.1252 78.9826 98.2204 78.7753 98.307 78.5506C98.5668 77.8767 98.8265 77.1941 99.0776 76.4942C101.078 70.8865 101.554 60.0254 93.5536 47.3326C92.5665 45.7687 91.9085 44.2479 91.4582 42.7877C92.2981 43.1765 93.3891 43.2543 94.8004 42.8568C97.0083 42.2433 94.8004 38.9168 93.3717 37.4047C94.5233 38.2687 95.9866 38.9254 96.7918 37.5256C97.5278 36.2469 95.3285 33.3264 93.2592 31.7538C96.1424 32.6092 100.809 32.6006 102.602 32.3241L102.29 32.0821C102.316 32.0908 102.342 32.0908 102.368 32.0994C102.368 32.0994 97.4412 27.7187 95.7961 26.8374C95.8394 26.8028 95.8827 26.7769 95.926 26.7423C97.6403 25.3253 102.619 20.1496 104.818 17.8426C105.952 16.9181 106.758 16.1923 106.965 15.8726C107.52 15.0172 96.6186 18.2055 92.7483 20.0978Z" fill="url(#paint1_linear_596_5119)"/>
</g>
<defs>
<linearGradient id="paint0_linear_596_5119" x1="53.4999" y1="33.1351" x2="53.4999" y2="130.592" gradientUnits="userSpaceOnUse">
<stop offset="0.0215" stop-color="#999999"/>
<stop offset="1" stop-color="white"/>
</linearGradient>
<linearGradient id="paint1_linear_596_5119" x1="53.4999" y1="33.1351" x2="53.4999" y2="130.592" gradientUnits="userSpaceOnUse">
<stop offset="0.0215" stop-color="#FFD995"/>
<stop offset="1" stop-color="#240043"/>
</linearGradient>
</defs>
</svg>
