<svg width="196" height="150" viewBox="0 0 196 150" fill="none" xmlns="http://www.w3.org/2000/svg">
<g clip-path="url(#clip0_67_5166)">
<path d="M146.184 16.985C138.54 16.4037 134.999 11.4149 131.448 4.31234C127.896 -2.77968 116.457 9.62871 116.457 9.62871L126.37 26.0957L169.571 32.6804C169.571 32.6804 167.959 12.493 178.126 10.7174C178.126 10.7174 172.454 0.64478 167.62 0.412254C156.944 -0.073935 152.799 17.4923 146.184 16.985Z" fill="#D17066"/>
<path d="M152.778 21.2761C155.078 16.3402 165.849 2.77977 168.33 3.30823C170.811 3.8367 173.981 9.30105 173.981 9.30105C173.981 9.30105 166.379 24.9754 167.09 27.7974C167.8 30.6194 152.778 21.2761 152.778 21.2761Z" fill="#BA5954"/>
<path d="M129.073 30.8836C125.744 26.5819 118.641 10.7913 120.252 8.84653C121.864 6.90178 128.193 6.60583 128.193 6.60583C128.193 6.60583 138.646 20.5574 141.477 21.2338C144.318 21.8997 129.073 30.8836 129.073 30.8836Z" fill="#BA5954"/>
<path d="M14.2802 54.0304C13.4427 54.0304 12.7536 53.9353 12.2447 53.8191C9.2869 53.1743 7.09239 51.1027 6.37149 48.2807C6.32909 48.1328 6.29728 47.9742 6.26548 47.8262C3.26526 47.0124 1.13436 45.2473 0.339255 42.8481C-0.519464 40.248 -0.159015 35.7244 6.4457 28.9388L7.8981 30.3551C3.29706 35.0796 1.30399 39.2862 2.26872 42.2139C2.78819 43.7782 4.15578 44.9831 6.12766 45.6701C6.31848 42.5521 8.15254 39.2651 11.333 36.4959C14.5346 33.695 18.1815 33.0397 20.1852 34.8894C21.8602 36.4325 22.3373 39.8253 18.6692 44.6977C16.7397 47.2555 12.637 48.6612 8.48118 48.2279C9.11727 50.0881 10.6333 51.3881 12.69 51.8426C17.0048 52.7938 22.4327 49.8344 27.2352 43.9579L28.8148 45.2368C22.7614 52.6353 17.45 54.0304 14.2802 54.0304ZM8.14194 46.1457C11.7464 46.6742 15.4676 45.5644 17.026 43.4822C19.7081 39.9204 19.846 37.3415 18.7964 36.3691C17.7681 35.4178 15.3403 35.6821 12.6688 38.0073C9.77456 40.544 8.16314 43.4822 8.14194 46.1457Z" fill="#F79C92"/>
<path d="M136.271 150H142.876C142.876 150 142.622 119.085 151.771 101.349L132.2 105.905C132.211 105.915 137.035 145.191 136.271 150Z" fill="#BC5C50"/>
<path d="M41.4836 84.6393C43.7735 101.867 55.9652 150.011 55.9652 150.011H62.3155C62.3155 150.011 56.7285 120.871 71.2101 107.194L41.4836 84.6393Z" fill="#BC5C50"/>
<path d="M113.913 126.948C176.939 103.136 169.486 74.757 135.943 63.9445C121.429 59.2623 49.3711 15.463 19.3795 50.9337C-22.7507 100.758 48.0883 151.818 113.913 126.948Z" fill="#E5897C"/>
<path d="M154.071 73.626C159.52 86.7637 147.922 103.717 107.902 118.842C70.3726 133.026 31.2213 122.509 12.2977 101.624C27.6062 127.678 71.7826 142.866 113.913 126.948C162.796 108.473 169.274 87.2604 154.071 73.626Z" fill="#D66E63"/>
<path d="M10.4743 84.6393C12.7642 101.867 24.9559 150.011 24.9559 150.011H31.3061C31.3061 150.011 25.7192 120.871 40.2008 107.194L10.4743 84.6393Z" fill="#E5897C"/>
<path d="M113.404 150H120.009C120.009 150 119.754 119.085 128.903 101.349L105.781 106.666C105.781 106.676 114.167 145.191 113.404 150Z" fill="#E5897C"/>
<path d="M137.968 85.5693C139.325 91.4776 145.081 102.459 150.339 107.184C150.339 107.184 160.676 99.7534 165.754 88.4336L137.968 85.5693Z" fill="#D66E63"/>
<path d="M190.826 64.9591C163.379 48.0693 189.586 28.9177 151.855 19.0142C145.42 17.3231 127.716 12.2498 117.634 35.2276C115.259 40.6285 104.414 50.7645 88.1512 48.4075C88.1512 48.4075 97.5654 53.354 108.824 64.6209C126.486 82.2822 156.266 101.444 177.267 84.7238C180.914 81.8278 190.826 64.9591 190.826 64.9591Z" fill="#E5897C"/>
<path d="M128.776 80.7815C144.615 90.8646 162.976 96.0965 177.278 84.7133C178.698 83.5824 181.073 80.327 183.448 76.7651C165.415 92.2703 145.887 85.58 128.776 80.7815Z" fill="#DB7B71"/>
<path d="M151.866 19.0143C146.088 17.4923 131.236 13.2646 120.963 29.034C147.859 30.9682 177.702 49.1897 177.702 71.3959C177.702 74.461 177.437 77.4733 177.288 84.7239C180.925 81.8279 190.837 64.9592 190.837 64.9592C163.379 48.0694 189.586 28.9178 151.866 19.0143Z" fill="#DB7B71"/>
<path d="M121.058 28.8754C119.85 30.7144 119.023 32.9763 117.634 35.2275C99.2404 65.0542 51.6292 12.7888 19.3689 50.9336C6.33968 66.3437 4.13458 81.87 9.22328 95.2297C115.27 123.83 111.315 72.2202 121.058 28.8754Z" fill="#F79C92"/>
<path d="M180.32 88.941C186.151 89.4272 199.297 73.404 195.226 66.3014C191.155 59.2094 187.773 64.6104 184.72 64.6104C181.667 64.6104 176.249 60.8899 173.196 64.9486C170.164 69.0072 172.189 88.2645 180.32 88.941Z" fill="#FFA399"/>
<path d="M173.769 65.9738C171.002 69.6519 172.846 87.1442 180.236 87.7572C181.147 87.8312 182.25 87.4613 183.427 86.7743C185.059 83.2335 186.024 78.9424 186.024 74.3024C186.024 71.2056 185.6 68.2673 184.826 65.6039C184.625 65.6461 184.434 65.6779 184.232 65.6779C181.455 65.6673 176.536 62.2957 173.769 65.9738Z" fill="#FFB8B3"/>
<path d="M110.86 10.4002C117.125 18.8451 116.616 35.7349 122.214 35.3967C127.811 35.0585 136.621 5.66514 130.345 0.940652C126.751 -1.77567 121.366 5.16839 119.161 6.18304C118.228 6.60582 109.121 8.05381 110.86 10.4002Z" fill="#FFA399"/>
<path d="M164.567 1.61711C163.241 4.20659 170.832 24.4257 179.303 28.3047C181.094 29.1291 182.865 17.8305 182.526 12.4295C182.239 7.83188 181.02 7.28227 176.939 4.66108C172.009 1.49028 166.517 -2.17728 164.567 1.61711Z" fill="#FFA399"/>
<path d="M174.437 86.6579C167.832 87.1653 151.442 83.9945 142.929 71.4592L138.985 73.869L142.293 73.9959C152.004 84.6075 162.605 89.0572 174.437 86.6579Z" fill="#BF594F"/>
<path d="M145.336 64.3672C145.336 58.1419 140.183 53.0897 133.833 53.0897C127.483 53.0897 122.33 58.1419 122.33 64.3672C122.33 70.5925 127.483 75.6447 133.833 75.6447C140.194 75.6341 145.336 70.5925 145.336 64.3672Z" fill="#F99F95"/>
<path d="M145.579 45.1945C147.636 44.9937 148.272 51.0182 145.993 50.8174C143.714 50.6271 144.159 45.3319 145.579 45.1945Z" fill="#684242"/>
<path d="M167.556 44.6872C169.624 44.4863 170.249 50.5109 167.97 50.3206C165.69 50.1304 166.146 44.8246 167.556 44.6872Z" fill="#684242"/>
<path d="M176.854 68.5421C179.78 68.3202 181.168 80.2001 178.38 80.5806C175.582 80.9611 173.546 68.7958 176.854 68.5421Z" fill="#C45553"/>
<path d="M189.957 68.6479C192.735 69.5885 189.321 81.0563 186.597 80.3058C183.883 79.5554 186.819 67.5804 189.957 68.6479Z" fill="#C45553"/>
<path d="M23.302 143.352C24.3198 147.463 24.9665 150 24.9665 150H31.3167C31.3167 150 30.8185 147.379 30.5004 143.352H23.302Z" fill="#AA5950"/>
<path d="M120.178 143.352H112.853C113.319 146.576 113.552 149.007 113.393 150H119.998C120.009 150 119.987 147.432 120.178 143.352Z" fill="#AA5950"/>
<path d="M143.046 143.352H136.123C136.345 146.586 136.43 149.017 136.271 150H142.876C142.887 150 142.865 147.432 143.046 143.352Z" fill="#994A44"/>
<path d="M54.3113 143.352C55.3291 147.463 55.9758 150 55.9758 150H62.326C62.326 150 61.8278 147.379 61.5097 143.352H54.3113Z" fill="#994A44"/>
<path d="M99.5478 44.8986C77.5074 44.8986 45.5863 23.3794 21.4362 48.6507C31.9953 64.7478 54.587 76.0781 99.5478 44.8986Z" fill="#FFAFA9"/>
<path d="M127.864 5.77087C131.426 5.05215 128.045 26.9095 122.034 30.6088C119.924 31.9088 114.082 16.5199 115.673 10.1783C116.266 7.83189 119.373 10.0303 122.034 8.59288C123.412 7.85303 125.914 6.1725 127.864 5.77087Z" fill="#FFB8B3"/>
<path d="M130.525 62.655C131.935 60.9745 132.041 58.7549 130.769 57.698C129.497 56.641 127.324 57.1378 125.914 58.8289C124.504 60.5094 124.398 62.729 125.68 63.7965C126.942 64.8428 129.115 64.3355 130.525 62.655Z" fill="#FFB8B3"/>
<mask id="mask0_67_5166" style="mask-type:alpha" maskUnits="userSpaceOnUse" x="-1" y="0" width="198" height="151">
<path d="M195.237 66.3121C192.692 61.8624 190.402 62.3274 188.303 63.2998C170.758 50.8914 179.684 37.4789 169.518 27.5226C169.624 25.0282 169.942 21.9737 170.747 19.1411C173.217 23.2737 176.196 26.8884 179.303 28.3153C181.094 29.1397 182.865 17.8411 182.526 12.4402C182.239 7.8425 181.02 7.29289 176.939 4.6717C172.571 1.86026 167.768 -1.32111 165.372 0.623643C156.329 2.431 152.311 17.4712 146.194 16.9955C139.25 16.4671 135.699 12.2922 132.434 6.21482C132.232 3.7733 131.585 1.88139 130.356 0.951292C126.762 -1.76503 121.376 5.17903 119.171 6.19368C118.238 6.62702 109.132 8.07502 110.87 10.4214C115.514 16.689 116.436 27.5754 118.885 32.6593C118.461 33.4837 118.047 34.3398 117.645 35.2488C113.139 42.5416 106.884 44.9197 99.5372 44.9197C99.198 44.9197 98.8587 44.9197 98.5195 44.9092C98.5089 44.9092 98.5089 44.9092 98.4983 44.9092C94.0244 44.7718 89.169 43.8205 84.0697 42.605C79.0128 41.0619 73.8604 39.7407 68.7399 38.8001C68.4961 38.7472 68.2417 38.6944 67.9978 38.631C67.807 38.5887 67.6162 38.5464 67.4254 38.5041C67.0967 38.4302 66.7787 38.3667 66.45 38.2927C66.3864 38.2822 66.3228 38.2716 66.2698 38.2505C65.5171 38.0919 64.7538 37.944 63.9905 37.796C63.9375 37.7854 63.8845 37.7749 63.8209 37.7643C63.4392 37.6903 63.047 37.6269 62.6653 37.5529C62.5911 37.5423 62.5275 37.5318 62.4533 37.5106C61.2129 37.2887 59.9619 37.0984 58.7109 36.9399H58.7003C45.1623 35.1748 31.497 36.9822 19.8036 50.4581C17.291 51.8321 14.8421 52.3394 12.6794 51.8532C10.6227 51.4093 9.10667 50.0987 8.47058 48.2385C12.6264 48.6718 16.7291 47.2661 18.6586 44.7083C22.3267 39.8253 21.8496 36.4431 20.1746 34.9C18.1709 33.0504 14.5346 33.7057 11.3224 36.5065C8.14193 39.2757 6.30788 42.5628 6.11705 45.6807C4.14518 45.0043 2.77759 43.7888 2.25812 42.2245C1.29338 39.3074 3.28646 35.0902 7.8875 30.3657L6.4351 28.9495C-0.169619 35.735 -0.530069 40.2586 0.32865 42.8587C1.12376 45.2579 3.24405 47.023 6.25487 47.8369C6.28668 47.9848 6.31848 48.1434 6.36089 48.2913C7.08179 51.1133 9.28689 53.1849 12.2341 53.8297C12.743 53.9459 13.4321 54.0411 14.2696 54.0411C15.0965 54.0411 16.0824 53.9354 17.1744 53.6711C16.7079 54.2841 16.2627 54.8866 15.828 55.4996C15.7432 55.6265 15.6584 55.7533 15.5736 55.8696C15.1389 56.4931 14.7148 57.1167 14.3226 57.7403C14.259 57.846 14.1848 57.9411 14.1212 58.0468C13.6971 58.7127 13.2942 59.3891 12.902 60.055C12.8066 60.2135 12.7112 60.3827 12.6264 60.5412C12.2447 61.2071 11.8843 61.8729 11.545 62.5388C11.492 62.6339 11.4496 62.729 11.4072 62.8347C11.1103 63.4266 10.8241 64.0185 10.5591 64.621C10.4849 64.7901 10.4 64.9592 10.3258 65.1283C10.0502 65.7624 9.78516 66.3966 9.54133 67.0308C9.46712 67.221 9.40351 67.4113 9.3293 67.6015C9.12787 68.1405 8.93704 68.6902 8.75682 69.2292C8.70381 69.3877 8.6508 69.5357 8.6084 69.6942C8.41757 70.2967 8.24795 70.8886 8.08893 71.491C8.02532 71.7236 7.96171 71.9455 7.9087 72.178C7.76028 72.7594 7.62246 73.3512 7.50585 73.9325C7.46344 74.1545 7.42103 74.3765 7.37863 74.5984C7.29382 75.0318 7.21961 75.4651 7.156 75.8879C7.11359 76.131 7.08179 76.3741 7.04998 76.6172C6.97577 77.1668 6.91216 77.7058 6.86976 78.2554C6.84855 78.5302 6.82735 78.8156 6.80615 79.0904C6.77434 79.4814 6.76374 79.8619 6.74254 80.253C6.73194 80.6652 6.72134 81.0668 6.71073 81.4685C6.71073 81.8173 6.71074 82.1555 6.72134 82.4937C6.73194 82.8002 6.73194 83.1173 6.75314 83.4238C6.77434 83.91 6.80615 84.3856 6.84855 84.8718C6.88036 85.1995 6.91216 85.5271 6.95457 85.8548C6.98637 86.119 7.01818 86.3832 7.04998 86.6369C7.12419 87.1759 7.209 87.7044 7.29382 88.2329C7.33622 88.476 7.37863 88.7296 7.43164 88.9727C7.50585 89.3215 7.58006 89.6703 7.65427 90.0191C7.69667 90.2305 7.74968 90.4418 7.80269 90.6427C7.94051 91.224 8.09953 91.8053 8.26915 92.3866C8.32216 92.5769 8.38577 92.7671 8.43877 92.9573C9.62614 96.7729 11.4072 100.419 13.6971 103.865C13.8137 104.045 13.9409 104.224 14.0682 104.404C14.1318 104.488 14.1848 104.584 14.2484 104.668C18.4572 124.2 24.4258 147.886 24.9347 149.894C24.9453 149.926 24.9453 149.926 24.9453 149.947C24.9559 150 24.9665 150.032 24.9665 150.032H31.3167C31.3167 150.032 31.3167 150 31.3061 149.989C31.2425 149.651 30.7867 147.125 30.5004 143.384C30.0552 137.676 29.9916 129.147 32.2603 121.156C32.7691 121.463 33.2886 121.759 33.7975 122.065C33.9565 122.16 34.1155 122.256 34.2746 122.34C35.1545 122.837 36.0556 123.334 36.9779 123.799C37.1158 123.873 37.2642 123.936 37.402 124.01C38.1653 124.401 38.9498 124.782 39.7343 125.152C39.9994 125.278 40.275 125.395 40.54 125.521C41.2397 125.839 41.95 126.145 42.6709 126.452C42.936 126.568 43.201 126.674 43.466 126.79C44.3884 127.17 45.3213 127.53 46.2754 127.878C46.3178 127.889 46.3602 127.91 46.392 127.921C47.3886 128.291 48.4063 128.629 49.4347 128.967C49.6997 129.052 49.9647 129.136 50.2298 129.21C50.4524 129.284 50.6856 129.358 50.9083 129.422C53.4844 140.202 55.6365 148.721 55.9334 149.894C55.944 149.926 55.944 149.926 55.944 149.947C55.9546 150 55.9652 150.032 55.9652 150.032H62.3154C62.3154 150.032 62.3154 150 62.3048 149.989C62.3048 149.968 62.2942 149.947 62.2942 149.915C62.2942 149.905 62.2836 149.873 62.2836 149.863C62.1776 149.25 61.7748 146.882 61.5097 143.51C61.2553 140.35 61.1175 136.302 61.4355 131.948C62.0292 132.053 62.6229 132.159 63.2272 132.254C63.5664 132.307 63.9057 132.36 64.2449 132.413C65.04 132.529 65.8457 132.635 66.6514 132.74C67.0013 132.783 67.3405 132.825 67.6904 132.867C68.6445 132.973 69.5987 133.068 70.5634 133.142C70.7436 133.153 70.9132 133.174 71.0829 133.184C72.2172 133.269 73.3622 133.332 74.5177 133.385C74.8252 133.396 75.1326 133.406 75.4295 133.417C76.2882 133.448 77.1469 133.459 78.0162 133.47C78.3979 133.47 78.7795 133.47 79.1612 133.47C80.0093 133.47 80.8574 133.448 81.7055 133.417C82.0448 133.406 82.3734 133.396 82.7127 133.385C83.8894 133.332 85.0662 133.269 86.243 133.174C86.3596 133.163 86.4868 133.153 86.6034 133.142C87.6636 133.057 88.7343 132.952 89.7945 132.825C90.1655 132.783 90.5472 132.73 90.9182 132.687C91.7557 132.582 92.6038 132.466 93.4414 132.339C93.8336 132.275 94.2259 132.222 94.6181 132.159C95.5617 132 96.5052 131.831 97.4487 131.652C97.7138 131.599 97.9682 131.557 98.2332 131.504C99.4312 131.261 100.619 130.996 101.817 130.711C102.124 130.637 102.421 130.552 102.718 130.478C103.629 130.257 104.53 130.013 105.442 129.76C105.845 129.644 106.248 129.527 106.651 129.411C107.499 129.157 108.358 128.893 109.206 128.618C109.545 128.513 109.874 128.407 110.213 128.301C111.273 133.787 112.27 139.293 112.874 143.458C113.086 144.916 113.245 146.206 113.34 147.284C113.351 147.411 113.362 147.527 113.372 147.643C113.383 147.812 113.393 147.96 113.404 148.108C113.415 148.256 113.425 148.404 113.425 148.541C113.436 148.658 113.436 148.774 113.436 148.88C113.436 149.038 113.436 149.176 113.436 149.313C113.436 149.387 113.436 149.461 113.436 149.535C113.425 149.725 113.415 149.905 113.393 150.042H119.998C119.998 150.042 119.998 150.011 119.998 149.989C119.998 149.662 119.998 147.516 120.125 144.219C120.125 144.176 120.125 144.134 120.125 144.102C120.136 143.87 120.146 143.637 120.157 143.394C120.39 138.416 120.931 131.208 122.203 123.64C122.277 123.608 122.341 123.577 122.405 123.556C123.2 123.217 123.974 122.879 124.748 122.53C124.949 122.446 125.14 122.351 125.341 122.266C125.914 122.002 126.486 121.748 127.037 121.495C127.292 121.378 127.536 121.262 127.79 121.146C128.31 120.903 128.829 120.649 129.338 120.406C129.561 120.3 129.783 120.195 129.995 120.089C130.695 119.74 131.395 119.402 132.073 119.053C132.137 119.021 132.2 118.979 132.275 118.947C132.73 118.715 133.186 118.482 133.632 118.239C134.554 126.367 135.656 136.704 136.112 143.468C136.208 144.916 136.282 146.185 136.314 147.241C136.314 147.379 136.324 147.516 136.324 147.643C136.324 147.802 136.324 147.95 136.335 148.087C136.335 148.246 136.335 148.393 136.335 148.541C136.335 148.658 136.335 148.763 136.335 148.869C136.335 149.028 136.324 149.176 136.324 149.313C136.324 149.387 136.314 149.461 136.314 149.524C136.303 149.715 136.282 149.894 136.261 150.032H142.865C142.865 150.032 142.865 150 142.865 149.979C142.865 149.915 142.865 149.778 142.865 149.567C142.865 149.567 142.865 149.567 142.865 149.556C142.865 149.408 142.865 149.239 142.865 149.028C142.865 149.007 142.865 148.985 142.865 148.964C142.876 148.203 142.897 147.041 142.94 145.571C142.94 145.519 142.94 145.476 142.94 145.424C142.95 145.096 142.961 144.747 142.982 144.388C142.982 144.271 142.993 144.145 142.993 144.028C143.003 143.838 143.014 143.637 143.024 143.436C143.406 135.118 144.668 120.469 148.77 108.494C148.792 108.484 148.802 108.463 148.823 108.452C149.142 108.198 149.449 107.934 149.756 107.68C149.862 107.585 149.979 107.501 150.085 107.406C150.159 107.342 150.233 107.279 150.308 107.205L150.318 107.215C150.318 107.215 159.361 100.715 164.683 90.611C164.757 90.6004 164.832 90.5687 164.906 90.5581C165.457 90.4418 165.998 90.315 166.549 90.1776C166.708 90.1353 166.867 90.0931 167.026 90.0508C167.662 89.8711 168.298 89.6703 168.934 89.4378C169.03 89.4061 169.125 89.3638 169.221 89.3215C169.772 89.1207 170.313 88.8882 170.853 88.6556C171.012 88.5816 171.171 88.5077 171.341 88.4337C171.956 88.1377 172.571 87.8312 173.186 87.493C173.239 87.4613 173.302 87.4296 173.355 87.3873C173.917 87.0702 174.468 86.7214 175.02 86.3621C175.179 86.2564 175.327 86.1507 175.486 86.045C175.539 86.0027 175.592 85.971 175.645 85.9393C176.886 87.6621 178.433 88.8142 180.31 88.9727C186.151 89.4272 199.297 73.4041 195.237 66.3121ZM8.14193 46.1458C8.16314 43.4717 9.77456 40.544 12.6688 38.0179C15.3403 35.6927 17.7787 35.4285 18.7964 36.3797C19.846 37.3521 19.7081 39.931 17.026 43.4929C15.4675 45.575 11.7464 46.6742 8.14193 46.1458Z" fill="url(#paint0_linear_67_5166)"/>
</mask>
<g mask="url(#mask0_67_5166)">
<path opacity="0.6" d="M195.237 66.3121C192.692 61.8624 190.402 62.3274 188.303 63.2998C170.758 50.8914 179.684 37.4789 169.518 27.5226C169.624 25.0282 169.942 21.9737 170.747 19.1411C173.217 23.2737 176.196 26.8884 179.303 28.3153C181.094 29.1397 182.865 17.8411 182.526 12.4402C182.239 7.8425 181.02 7.29289 176.939 4.6717C172.571 1.86026 167.768 -1.32111 165.372 0.623643C156.329 2.431 152.311 17.4712 146.194 16.9955C139.25 16.4671 135.699 12.2922 132.434 6.21482C132.232 3.7733 131.585 1.88139 130.356 0.951292C126.762 -1.76503 121.376 5.17903 119.171 6.19368C118.238 6.62702 109.132 8.07502 110.87 10.4214C115.514 16.689 116.436 27.5754 118.885 32.6593C118.461 33.4837 118.047 34.3398 117.645 35.2488C113.139 42.5416 106.884 44.9197 99.5372 44.9197C99.198 44.9197 98.8587 44.9197 98.5195 44.9092C98.5089 44.9092 98.5089 44.9092 98.4983 44.9092C94.0244 44.7718 89.169 43.8205 84.0697 42.605C79.0128 41.0619 73.8604 39.7407 68.7399 38.8001C68.4961 38.7472 68.2417 38.6944 67.9978 38.631C67.807 38.5887 67.6162 38.5464 67.4254 38.5041C67.0967 38.4302 66.7787 38.3667 66.45 38.2927C66.3864 38.2822 66.3228 38.2716 66.2698 38.2505C65.5171 38.0919 64.7538 37.944 63.9905 37.796C63.9375 37.7854 63.8845 37.7749 63.8209 37.7643C63.4392 37.6903 63.047 37.6269 62.6653 37.5529C62.5911 37.5423 62.5275 37.5318 62.4533 37.5106C61.2129 37.2887 59.9619 37.0984 58.7109 36.9399H58.7003C45.1623 35.1748 31.497 36.9822 19.8036 50.4581C17.291 51.8321 14.8421 52.3394 12.6794 51.8532C10.6227 51.4093 9.10667 50.0987 8.47058 48.2385C12.6264 48.6718 16.7291 47.2661 18.6586 44.7083C22.3267 39.8253 21.8496 36.4431 20.1746 34.9C18.1709 33.0504 14.5346 33.7057 11.3224 36.5065C8.14193 39.2757 6.30788 42.5628 6.11705 45.6807C4.14518 45.0043 2.77759 43.7888 2.25812 42.2245C1.29338 39.3074 3.28646 35.0902 7.8875 30.3657L6.4351 28.9495C-0.169619 35.735 -0.530069 40.2586 0.32865 42.8587C1.12376 45.2579 3.24405 47.023 6.25487 47.8369C6.28668 47.9848 6.31848 48.1434 6.36089 48.2913C7.08179 51.1133 9.28689 53.1849 12.2341 53.8297C12.743 53.9459 13.4321 54.0411 14.2696 54.0411C15.0965 54.0411 16.0824 53.9354 17.1744 53.6711C16.7079 54.2841 16.2627 54.8866 15.828 55.4996C15.7432 55.6265 15.6584 55.7533 15.5736 55.8696C15.1389 56.4931 14.7148 57.1167 14.3226 57.7403C14.259 57.846 14.1848 57.9411 14.1212 58.0468C13.6971 58.7127 13.2942 59.3891 12.902 60.055C12.8066 60.2135 12.7112 60.3827 12.6264 60.5412C12.2447 61.2071 11.8843 61.8729 11.545 62.5388C11.492 62.6339 11.4496 62.729 11.4072 62.8347C11.1103 63.4266 10.8241 64.0185 10.5591 64.621C10.4849 64.7901 10.4 64.9592 10.3258 65.1283C10.0502 65.7624 9.78516 66.3966 9.54133 67.0308C9.46712 67.221 9.40351 67.4113 9.3293 67.6015C9.12787 68.1405 8.93704 68.6902 8.75682 69.2292C8.70381 69.3877 8.6508 69.5357 8.6084 69.6942C8.41757 70.2967 8.24795 70.8886 8.08893 71.491C8.02532 71.7236 7.96171 71.9455 7.9087 72.178C7.76028 72.7594 7.62246 73.3512 7.50585 73.9325C7.46344 74.1545 7.42103 74.3765 7.37863 74.5984C7.29382 75.0318 7.21961 75.4651 7.156 75.8879C7.11359 76.131 7.08179 76.3741 7.04998 76.6172C6.97577 77.1668 6.91216 77.7058 6.86976 78.2554C6.84855 78.5302 6.82735 78.8156 6.80615 79.0904C6.77434 79.4814 6.76374 79.8619 6.74254 80.253C6.73194 80.6652 6.72134 81.0668 6.71073 81.4685C6.71073 81.8173 6.71074 82.1555 6.72134 82.4937C6.73194 82.8002 6.73194 83.1173 6.75314 83.4238C6.77434 83.91 6.80615 84.3856 6.84855 84.8718C6.88036 85.1995 6.91216 85.5271 6.95457 85.8548C6.98637 86.119 7.01818 86.3832 7.04998 86.6369C7.12419 87.1759 7.209 87.7044 7.29382 88.2329C7.33622 88.476 7.37863 88.7296 7.43164 88.9727C7.50585 89.3215 7.58006 89.6703 7.65427 90.0191C7.69667 90.2305 7.74968 90.4418 7.80269 90.6427C7.94051 91.224 8.09953 91.8053 8.26915 92.3866C8.32216 92.5769 8.38577 92.7671 8.43877 92.9573C9.62614 96.7729 11.4072 100.419 13.6971 103.865C13.8137 104.045 13.9409 104.224 14.0682 104.404C14.1318 104.488 14.1848 104.584 14.2484 104.668C18.4572 124.2 24.4258 147.886 24.9347 149.894C24.9453 149.926 24.9453 149.926 24.9453 149.947C24.9559 150 24.9665 150.032 24.9665 150.032H31.3167C31.3167 150.032 31.3167 150 31.3061 149.989C31.2425 149.651 30.7867 147.125 30.5004 143.384C30.0552 137.676 29.9916 129.147 32.2603 121.156C32.7691 121.463 33.2886 121.759 33.7975 122.065C33.9565 122.16 34.1155 122.256 34.2746 122.34C35.1545 122.837 36.0556 123.334 36.9779 123.799C37.1158 123.873 37.2642 123.936 37.402 124.01C38.1653 124.401 38.9498 124.782 39.7343 125.152C39.9994 125.278 40.275 125.395 40.54 125.521C41.2397 125.839 41.95 126.145 42.6709 126.452C42.936 126.568 43.201 126.674 43.466 126.79C44.3884 127.17 45.3213 127.53 46.2754 127.878C46.3178 127.889 46.3602 127.91 46.392 127.921C47.3886 128.291 48.4063 128.629 49.4347 128.967C49.6997 129.052 49.9647 129.136 50.2298 129.21C50.4524 129.284 50.6856 129.358 50.9083 129.422C53.4844 140.202 55.6365 148.721 55.9334 149.894C55.944 149.926 55.944 149.926 55.944 149.947C55.9546 150 55.9652 150.032 55.9652 150.032H62.3154C62.3154 150.032 62.3154 150 62.3048 149.989C62.3048 149.968 62.2942 149.947 62.2942 149.915C62.2942 149.905 62.2836 149.873 62.2836 149.863C62.1776 149.25 61.7748 146.882 61.5097 143.51C61.2553 140.35 61.1175 136.302 61.4355 131.948C62.0292 132.053 62.6229 132.159 63.2272 132.254C63.5664 132.307 63.9057 132.36 64.2449 132.413C65.04 132.529 65.8457 132.635 66.6514 132.74C67.0013 132.783 67.3405 132.825 67.6904 132.867C68.6445 132.973 69.5987 133.068 70.5634 133.142C70.7436 133.153 70.9132 133.174 71.0829 133.184C72.2172 133.269 73.3622 133.332 74.5177 133.385C74.8252 133.396 75.1326 133.406 75.4295 133.417C76.2882 133.448 77.1469 133.459 78.0162 133.47C78.3979 133.47 78.7795 133.47 79.1612 133.47C80.0093 133.47 80.8574 133.448 81.7055 133.417C82.0448 133.406 82.3734 133.396 82.7127 133.385C83.8894 133.332 85.0662 133.269 86.243 133.174C86.3596 133.163 86.4868 133.153 86.6034 133.142C87.6636 133.057 88.7343 132.952 89.7945 132.825C90.1655 132.783 90.5472 132.73 90.9182 132.687C91.7557 132.582 92.6038 132.466 93.4414 132.339C93.8336 132.275 94.2259 132.222 94.6181 132.159C95.5617 132 96.5052 131.831 97.4487 131.652C97.7138 131.599 97.9682 131.557 98.2332 131.504C99.4312 131.261 100.619 130.996 101.817 130.711C102.124 130.637 102.421 130.552 102.718 130.478C103.629 130.257 104.53 130.013 105.442 129.76C105.845 129.644 106.248 129.527 106.651 129.411C107.499 129.157 108.358 128.893 109.206 128.618C109.545 128.513 109.874 128.407 110.213 128.301C111.273 133.787 112.27 139.293 112.874 143.458C113.086 144.916 113.245 146.206 113.34 147.284C113.351 147.411 113.362 147.527 113.372 147.643C113.383 147.812 113.393 147.96 113.404 148.108C113.415 148.256 113.425 148.404 113.425 148.541C113.436 148.658 113.436 148.774 113.436 148.88C113.436 149.038 113.436 149.176 113.436 149.313C113.436 149.387 113.436 149.461 113.436 149.535C113.425 149.725 113.415 149.905 113.393 150.042H119.998C119.998 150.042 119.998 150.011 119.998 149.989C119.998 149.662 119.998 147.516 120.125 144.219C120.125 144.176 120.125 144.134 120.125 144.102C120.136 143.87 120.146 143.637 120.157 143.394C120.39 138.416 120.931 131.208 122.203 123.64C122.277 123.608 122.341 123.577 122.405 123.556C123.2 123.217 123.974 122.879 124.748 122.53C124.949 122.446 125.14 122.351 125.341 122.266C125.914 122.002 126.486 121.748 127.037 121.495C127.292 121.378 127.536 121.262 127.79 121.146C128.31 120.903 128.829 120.649 129.338 120.406C129.561 120.3 129.783 120.195 129.995 120.089C130.695 119.74 131.395 119.402 132.073 119.053C132.137 119.021 132.2 118.979 132.275 118.947C132.73 118.715 133.186 118.482 133.632 118.239C134.554 126.367 135.656 136.704 136.112 143.468C136.208 144.916 136.282 146.185 136.314 147.241C136.314 147.379 136.324 147.516 136.324 147.643C136.324 147.802 136.324 147.95 136.335 148.087C136.335 148.246 136.335 148.393 136.335 148.541C136.335 148.658 136.335 148.763 136.335 148.869C136.335 149.028 136.324 149.176 136.324 149.313C136.324 149.387 136.314 149.461 136.314 149.524C136.303 149.715 136.282 149.894 136.261 150.032H142.865C142.865 150.032 142.865 150 142.865 149.979C142.865 149.915 142.865 149.778 142.865 149.567C142.865 149.567 142.865 149.567 142.865 149.556C142.865 149.408 142.865 149.239 142.865 149.028C142.865 149.007 142.865 148.985 142.865 148.964C142.876 148.203 142.897 147.041 142.94 145.571C142.94 145.519 142.94 145.476 142.94 145.424C142.95 145.096 142.961 144.747 142.982 144.388C142.982 144.271 142.993 144.145 142.993 144.028C143.003 143.838 143.014 143.637 143.024 143.436C143.406 135.118 144.668 120.469 148.77 108.494C148.792 108.484 148.802 108.463 148.823 108.452C149.142 108.198 149.449 107.934 149.756 107.68C149.862 107.585 149.979 107.501 150.085 107.406C150.159 107.342 150.233 107.279 150.308 107.205L150.318 107.215C150.318 107.215 159.361 100.715 164.683 90.611C164.757 90.6004 164.832 90.5687 164.906 90.5581C165.457 90.4418 165.998 90.315 166.549 90.1776C166.708 90.1353 166.867 90.0931 167.026 90.0508C167.662 89.8711 168.298 89.6703 168.934 89.4378C169.03 89.4061 169.125 89.3638 169.221 89.3215C169.772 89.1207 170.313 88.8882 170.853 88.6556C171.012 88.5816 171.171 88.5077 171.341 88.4337C171.956 88.1377 172.571 87.8312 173.186 87.493C173.239 87.4613 173.302 87.4296 173.355 87.3873C173.917 87.0702 174.468 86.7214 175.02 86.3621C175.179 86.2564 175.327 86.1507 175.486 86.045C175.539 86.0027 175.592 85.971 175.645 85.9393C176.886 87.6621 178.433 88.8142 180.31 88.9727C186.151 89.4272 199.297 73.4041 195.237 66.3121ZM8.14193 46.1458C8.16314 43.4717 9.77456 40.544 12.6688 38.0179C15.3403 35.6927 17.7787 35.4285 18.7964 36.3797C19.846 37.3521 19.7081 39.931 17.026 43.4929C15.4675 45.575 11.7464 46.6742 8.14193 46.1458Z" fill="url(#paint1_linear_67_5166)"/>
</g>
</g>
<defs>
<linearGradient id="paint0_linear_67_5166" x1="98.001" y1="27.2671" x2="98.001" y2="162.638" gradientUnits="userSpaceOnUse">
<stop stop-color="#999999"/>
<stop offset="1" stop-color="white"/>
</linearGradient>
<linearGradient id="paint1_linear_67_5166" x1="98.001" y1="27.2671" x2="98.001" y2="162.638" gradientUnits="userSpaceOnUse">
<stop stop-color="#FFCB97"/>
<stop offset="1" stop-color="#0F002B"/>
</linearGradient>
<clipPath id="clip0_67_5166">
<rect width="196" height="150" fill="white"/>
</clipPath>
</defs>
</svg>
