<svg width="104" height="99" viewBox="0 0 104 99" fill="none" xmlns="http://www.w3.org/2000/svg">
<g filter="url(#filter0_f_67_5250)">
<ellipse cx="52.5" cy="84.5" rx="19.5" ry="4.5" fill="#C4C4C4"/>
</g>
<path d="M57.3902 29.6309C58.9859 19.7354 60.8229 8.61688 66.445 0C63.6432 2.94642 61.6578 7.65327 59.9322 11.063C57.3345 16.2331 55.3492 21.8109 54.0132 27.4258C51.6382 37.4325 50.6919 47.921 51.4341 58.2427C51.3599 58.3168 51.2857 58.4095 51.2857 58.5021C51.1001 60.522 49.8384 69.3798 53.9576 67.1746C54.941 66.6557 55.3306 65.5809 55.5162 64.5432C55.2564 52.8687 55.5162 41.1572 57.3902 29.6309Z" fill="#538527"/>
<path d="M72.2712 16.0663C66.1666 21.8294 61.7135 28.7785 58.6148 36.543C54.9966 45.6231 53.2153 55.704 52.2319 65.3771C51.8052 69.528 51.8423 73.6604 51.9722 77.8299C51.9722 77.9225 51.9722 78.0337 51.9722 78.1449C51.7309 79.7015 51.5083 81.4063 51.5825 82.9815H54.8111C54.9038 81.8511 55.0152 80.7392 55.1265 79.6088C55.3306 75.9397 55.7017 72.4374 56.4439 68.8424C56.6851 67.6935 56.9449 66.526 57.2417 65.3771C58.1138 60.8926 59.2086 56.4452 60.5445 52.0534C61.5094 47.4206 62.7711 42.862 64.4039 38.4146C67.2243 30.7057 70.9723 23.0154 76.112 16.5666C78.9138 13.0643 82.8846 8.63542 87.4119 6.43024C82.0125 7.56062 75.7038 12.8234 72.2712 16.0663Z" fill="#73B634"/>
<path d="M51.6382 80.9245C51.5825 81.5546 51.4897 82.2587 51.397 83H52.4732C52.5103 82.1661 52.5474 81.3137 52.5474 80.4798C52.77 78.2931 52.8999 76.1065 52.9741 73.9198C53.1411 68.8424 52.2134 63.802 50.9888 58.9098C48.7807 50.0891 44.0492 42.2134 37.2025 36.2279C30.4856 30.3536 21.5422 27.889 12.9513 30.6316C8.5909 32.0214 2.70901 36.2835 0 41.0645C2.91311 38.5628 6.58698 36.7839 10.0196 35.7832C17.8127 33.4854 25.3088 34.3378 31.97 39.1558C32.6937 39.6747 33.3802 40.2306 34.0482 40.7865C35.2171 41.5463 36.3119 42.3431 37.2767 43.177C43.4926 48.4398 47.2592 55.6854 49.5229 63.3572C51.23 69.1018 51.4155 74.9946 51.6382 80.9245Z" fill="#639E2E"/>
<path d="M92.8485 37.4695C85.2039 34.0783 77.5593 36.895 71.362 41.7316C64.3854 47.1797 59.524 55.0739 56.2955 63.1719C54.6441 67.3228 53.4937 71.7146 52.5474 76.0879C52.1206 78.0893 51.4712 80.5724 51.23 83H52.1763C52.1948 82.8332 52.2319 82.6479 52.2505 82.4811C52.3433 82.4255 52.4175 82.3329 52.436 82.2217C52.6216 80.8689 52.8814 79.4791 53.1782 78.0522C53.3638 77.3666 53.5493 76.6809 53.772 75.9953C54.9224 72.1594 56.1656 68.3976 57.7056 64.71C58.1324 63.7093 58.5591 62.7086 59.0416 61.7265C61.9176 56.2043 65.61 51.2195 70.0632 47.8468C70.4157 47.5689 70.7868 47.3094 71.1765 47.0685C81.3445 39.3782 97.2275 41.8613 104 52.4796C102.033 45.9381 99.7509 40.5271 92.8485 37.4695Z" fill="#639E2E"/>
<path d="M52.1763 82.129C52.1763 82.4255 52.1577 82.7035 52.1577 83H53.939C54.1988 78.6637 54.1988 74.3275 54.1246 69.9727C54.1246 69.5465 54.106 69.1388 54.106 68.7126C53.7906 60.1328 52.8814 51.4789 51.3413 43.0473C49.7271 34.171 47.3149 25.5356 43.6411 17.2708C42.0825 13.7499 40.3754 10.1735 38.1303 7.02321C37.2211 5.74457 36.2006 4.41035 35.0502 3.2429C34.6605 2.87228 34.2523 2.50166 33.8626 2.13104C33.3802 1.72336 32.8607 1.37128 32.3226 1.03772C32.2855 1.09331 32.2669 1.16744 32.304 1.22303C37.1469 8.13506 39.9301 16.9002 42.5092 24.8685C45.0327 32.6885 46.5542 40.8792 47.9643 48.9772C49.3745 57.0382 50.5991 65.0065 51.2857 73.1786C51.3413 73.9754 51.4527 79.1826 52.1763 82.129Z" fill="#639E2E"/>
<path d="M91.0116 69.1574C90.7147 67.9344 90.3807 66.7113 89.954 65.5068C88.4139 61.0965 85.8904 55.5742 81.9197 52.8502C79.7488 51.3492 76.6872 50.4968 73.8112 50.5524C72.5866 50.5709 71.3991 50.7747 70.3415 51.1454C65.0719 52.9984 60.5816 56.7046 58.0581 61.708C55.5347 66.6928 54.3286 72.3818 54.1245 77.9411C54.0503 79.6274 54.0317 81.2952 54.0317 82.9815H55.9986C56.4439 79.5347 57.2046 76.1436 58.2066 72.8636C60.0064 66.9893 62.1588 60.2811 68.0963 57.4459C74.2009 54.5365 81.0105 60.5961 84.5545 64.9694C87.5047 68.62 89.7498 72.7153 91.4569 77.033C91.4012 74.4202 91.2528 71.7888 91.0116 69.1574Z" fill="#73B634"/>
<path d="M61.6207 59.2063C59.9507 60.4108 58.5035 61.8562 57.2603 63.5055C55.2935 68.0455 54.3286 73.0489 54.1431 77.9781C54.0688 79.6644 54.0503 81.3322 54.0503 83.0185H56.0171C56.4624 79.5718 57.2232 76.1806 58.2251 72.9006C60.025 67.0263 62.1773 60.3181 68.1149 57.4829C70.5641 56.3155 73.1247 56.5934 75.5368 57.6126C75.5368 57.5756 75.5368 57.5385 75.5554 57.52C70.8796 55.5372 65.7955 56.1857 61.6207 59.2063Z" fill="#538528"/>
<path d="M51.5825 83H53.9019C53.8833 80.4798 53.8648 77.9596 53.772 75.4394C53.5122 68.4532 52.0093 61.3559 48.8364 55.0924C45.6635 48.8104 40.0414 44.1777 33.4359 41.8428C32.0999 41.3795 30.6155 41.1386 29.0941 41.1016C25.4944 41.0274 21.6536 42.1022 18.926 43.9739C17.7014 44.8263 16.5695 45.8825 15.549 47.1056C15.2707 47.4391 14.9924 47.7912 14.7326 48.1248C12.3947 51.2194 10.632 55.0183 9.35168 58.465C9.33312 58.5577 9.27746 58.6689 9.2589 58.7801C8.25694 62.3009 7.84873 65.933 7.96006 69.5836C7.97862 70.3434 7.99717 71.1031 8.01573 71.8629C10.0011 67.3413 12.506 63.0607 15.6418 59.1877C20.0764 53.7026 28.6116 46.0864 36.2748 49.7555C43.7338 53.3134 46.4057 61.7265 48.6694 69.0832C50.0425 73.5677 51.0445 78.2561 51.5825 83Z" fill="#73B634"/>
<path d="M51.5826 83H53.9019C53.8834 80.4798 53.8648 77.9596 53.772 75.4394C53.5308 69.2686 52.3248 63.0051 49.8755 57.2976C48.2984 55.2407 46.48 53.4061 44.4018 51.9236C39.1694 48.1619 32.7679 47.328 26.9417 49.7926C26.9603 49.8297 26.9603 49.8667 26.9603 49.9223C29.9847 48.6251 33.1947 48.2916 36.2563 49.7555C43.7153 53.3135 46.3872 61.7265 48.6509 69.0833C50.0425 73.5678 51.0445 78.2561 51.5826 83Z" fill="#538528"/>
<path opacity="0.5" d="M30.0589 42.1949C17.6642 42.3988 11.0216 52.9799 9.11044 64.2097C9.07333 64.4135 9.37021 64.3209 9.40732 64.1911C12.0978 53.5359 18.8146 44.4557 30.0403 42.2505C30.0589 42.2505 30.096 42.1764 30.0589 42.1949Z" fill="#73B634"/>
<path opacity="0.5" d="M33.6214 34.2637C24.4924 28.0002 12.1534 28.9082 4.21197 36.7468C4.17486 36.7839 4.21197 36.8209 4.24908 36.7839C12.2833 30.1869 24.6223 28.8526 33.5286 34.3748C33.5843 34.4304 33.6771 34.3007 33.6214 34.2637Z" fill="#73B634"/>
<path opacity="0.5" d="M44.1606 24.8685C42.435 18.1418 39.7074 10.5812 35.3841 5.07748C35.347 5.04042 35.2728 5.11455 35.3099 5.15161C39.2435 11.3409 41.7856 19.4945 43.6039 26.5734C45.3852 33.4854 47.2964 40.3974 48.5024 47.4392C48.521 47.5318 48.6509 47.4392 48.6323 47.3836C47.7417 39.7674 46.0532 32.2623 44.1606 24.8685Z" fill="#73B634"/>
<path opacity="0.5" d="M59.1158 14.0835C55.4419 22.0333 53.3266 30.1683 52.5844 38.8779C52.5659 39.0261 52.77 38.9335 52.7885 38.8408C54.3286 30.3536 56.2212 22.2186 59.19 14.102C59.2271 14.0094 59.1343 14.0279 59.1158 14.0835Z" fill="#73B634"/>
<path opacity="0.5" d="M74.1452 15.4919C63.3092 25.3132 55.9058 38.8223 55.0337 53.647C55.0337 53.7767 55.2007 53.7026 55.2192 53.61C57.8355 38.7852 64.107 26.6289 74.2009 15.5289C74.2194 15.4919 74.1823 15.4548 74.1452 15.4919Z" fill="#73B634"/>
<path opacity="0.5" d="M81.3631 37.5251C79.2664 38.1922 77.2439 38.8223 75.3142 39.86C73.1062 41.046 71.3991 42.6953 69.5993 44.4001C69.4323 44.5669 69.5807 44.8263 69.8034 44.6595C71.4919 43.3994 73.0691 42.0281 74.8318 40.8422C76.8728 39.4709 79.1179 38.5443 81.3816 37.5807C81.4002 37.5807 81.4002 37.5066 81.3631 37.5251Z" fill="#73B634"/>
<path opacity="0.5" d="M77.9861 56.9826C73.3659 53.5914 67.4841 53.647 62.7897 56.9826C62.7711 57.0011 62.7711 57.0382 62.7897 57.0196C65.1461 56.3155 67.2057 55.5928 69.6735 55.5001C72.4568 55.3704 75.1472 56.334 77.6892 57.3347C77.8748 57.4088 78.1531 57.1123 77.9861 56.9826Z" fill="#73B634"/>
<defs>
<filter id="filter0_f_67_5250" x="23" y="70" width="59" height="29" filterUnits="userSpaceOnUse" color-interpolation-filters="sRGB">
<feFlood flood-opacity="0" result="BackgroundImageFix"/>
<feBlend mode="normal" in="SourceGraphic" in2="BackgroundImageFix" result="shape"/>
<feGaussianBlur stdDeviation="5" result="effect1_foregroundBlur_67_5250"/>
</filter>
</defs>
</svg>
