<svg width="107" height="119" viewBox="0 0 107 119" fill="none" xmlns="http://www.w3.org/2000/svg">
<path d="M66.418 36.8661C69.2028 36.898 71.4565 35.9875 71.4565 35.9875C71.4565 35.9875 70.5389 39.0704 69.6697 39.2301C68.8004 39.3898 66.418 36.8661 66.418 36.8661Z" fill="#FDDE00"/>
<path d="M53.1852 35.7641C50.336 35.5085 47.4062 34.1987 47.4062 34.1987C47.4062 34.1987 47.6477 37.3454 48.7906 37.7288C49.9497 38.1281 53.1852 35.7641 53.1852 35.7641Z" fill="#FDDE00"/>
<path d="M94.9591 92.1653C94.8947 91.143 94.1703 88.6672 94.106 88.4435C89.5343 75.1379 86.0733 77.2943 80.7933 79.9299C66.0963 87.2296 56.1642 87.2296 41.4672 79.9299C36.2516 77.3422 27.6072 70.1064 22.8585 80.5209C14.3751 98.5545 21.2648 101.222 30.7302 105.918C45.4272 113.218 69.2514 113.218 83.9484 105.918C91.2889 102.276 94.9752 97.5003 94.9752 92.7084C94.9752 92.7084 95.0396 92.5167 94.9591 92.1653Z" fill="#FDB400"/>
<path d="M94.943 84.7855C93.6713 79.754 90.3875 74.2433 86.6206 65.3462C86.5724 65.2504 86.6367 65.1386 86.7494 65.1226C88.1821 64.899 89.7275 65.4101 90.5484 65.7455C90.6933 65.8094 90.8382 65.6337 90.7416 65.5059C90.0816 64.6753 88.6006 63.078 86.8138 62.4231C86.6528 62.3592 86.685 62.1356 86.846 62.1196C86.9909 62.1037 87.0392 61.912 86.9265 61.8321C86.3631 61.4647 85.3007 60.8258 84.5763 60.73C84.5602 60.714 84.5602 60.682 84.5441 60.6661L87.6509 60.2827C87.7797 60.2667 87.828 60.123 87.7475 60.0272C87.2484 59.4521 85.7031 57.9666 82.9987 57.4395C82.9504 57.4235 82.9182 57.4076 82.886 57.3596C76.8656 45.9388 68.4627 36.2271 57.3715 36.4827C49.2423 36.6744 42.5779 41.7059 37.2336 48.9418C36.0745 50.5071 34.7062 51.8968 33.1287 53.0469C31.1809 54.4845 28.4282 59.1646 28.6053 59.1007C29.5872 58.7493 31.2131 59.4202 31.1487 59.548C28.9755 63.4454 28.7824 64.1322 27.1726 68.1575C27.1565 68.1894 27.1243 68.2214 27.0921 68.2374C24.9512 69.2916 23.8726 71.7834 23.438 73.0932C23.3897 73.2529 23.5829 73.3647 23.6956 73.2529C24.0175 72.9335 24.5326 72.5501 25.3536 72.1667C25.4824 72.1029 25.6273 72.2306 25.579 72.3584C23.4058 78.2845 23.76 76.9108 23.0195 79.9936C22.9873 80.1374 23.1644 80.2492 23.277 80.1533C25.9009 77.9331 27.8487 80.1853 29.2492 81.527C29.6677 81.9263 27.8326 87.3093 27.2692 88.9226C27.2209 89.0663 27.3819 89.1941 27.5107 89.0983C28.5409 88.4114 31.2614 86.6863 32.0019 87.1496C32.5653 87.485 29.1687 96.7974 29.7804 97.1328C30.1024 97.3085 36.2194 88.9066 36.9921 89.2261C37.1853 89.3059 33.4345 98.8419 33.6277 98.9218C34.0945 99.1135 40.3726 90.5518 40.8555 90.7276C41.8052 91.079 37.3301 99.5927 37.9901 100.407C38.0223 100.455 38.0384 100.519 38.0062 100.583C37.6038 101.35 37.6682 102.516 37.7648 103.219C37.7809 103.378 38.0223 103.41 38.0706 103.251L41.2579 94.2736C41.3223 94.0979 41.5799 94.1458 41.5638 94.3375C41.4511 96.414 40.6784 101.845 40.4531 103.426C40.437 103.57 40.614 103.666 40.7106 103.57L44.2199 100.455C45.2984 99.4968 47.0047 100.024 47.3428 101.414C47.9062 103.682 48.7111 106.381 49.355 106.445C50.1115 106.525 50.3369 101.605 52.1076 101.142C53.7335 100.711 55.4881 104.033 56.0193 105.119C56.0837 105.247 56.2608 105.231 56.3091 105.103C56.8242 103.794 58.6754 99.2892 59.9632 99.2412C61.4281 99.1933 66.0642 104.097 67.1266 105.247C67.2232 105.343 67.3841 105.295 67.4002 105.167C67.5451 104.257 67.9476 101.589 68.028 99.7684C68.0602 98.9378 69.1227 98.5704 69.6539 99.2093C70.5554 100.264 73.0987 102.404 73.1148 102.484C73.1309 102.532 73.2919 98.9218 73.5495 97.8835C73.5817 97.7398 73.7587 97.7238 73.8392 97.8356C74.4831 98.8739 75.2075 101.398 75.5939 102.819C75.6422 102.995 75.8997 102.963 75.8997 102.787C76.0446 100.248 76.5114 94.018 77.767 93.5229C78.8939 93.0756 82.9665 98.171 84.0128 97.6439C84.705 97.2925 80.9865 91.2387 80.6968 89.6893C80.6646 89.5296 80.8577 89.4337 80.9704 89.5455C82.226 90.8074 86.3631 96.1744 87.7314 97.9474C87.828 98.0752 88.0533 97.9794 88.0211 97.8196C87.4577 95.3278 85.7031 87.0218 86.6367 84.2744C86.9909 83.2361 90.8865 87.9961 91.7557 89.0823C91.8362 89.1782 91.9811 89.1622 92.0294 89.0504C92.3996 88.1399 90.484 83.1084 94.8787 84.9772C94.8947 85.0251 94.9752 84.8814 94.943 84.7855Z" fill="#FDCC01"/>
<path d="M87.9078 56.1458C87.9078 56.1458 87.28 54.9798 86.0888 53.2068C84.9942 51.5775 87.0386 48.335 87.0386 48.335C87.0386 48.335 85.9117 48.0155 84.0283 48.2551C82.6279 48.4308 81.9518 47.7759 80.9859 46.7217C75.7381 41.0193 67.6894 34.8376 57.3709 34.8376C45.829 34.8376 37.7642 44.4375 33.3373 49.7725C31.5022 51.9928 29.2969 53.047 29.2969 53.047C29.2969 53.047 32.5969 54.3728 33.2569 55.9222C33.9169 57.4716 30.5203 62.0878 30.5203 62.0878C30.5203 62.0878 34.3032 61.1295 34.3837 61.7684C34.5286 62.8386 33.1281 68.1257 33.1281 68.1257C33.1281 68.1257 35.43 66.5763 35.7037 67.3909C36.1383 68.6209 35.8486 74.9942 35.8486 74.9942C35.8486 74.9942 38.2471 72.678 38.8266 73.4927C39.4705 74.4191 40.9676 81.5591 40.9676 81.5591C40.9676 81.5591 41.9978 77.5179 42.7705 77.7735C45.4266 78.636 47.0041 83.8593 47.0041 83.8593C47.0041 83.8593 46.5695 80.3132 47.5192 80.7445C48.4529 81.1758 53.7007 85.4246 53.7007 85.4246C53.7007 85.4246 54.8919 82.7411 57.3548 82.7092C59.3831 82.6772 58.7553 84.9933 58.7553 84.9933C58.7553 84.9933 61.8138 83.2842 64.5826 81.7508C66.3211 80.7764 67.5928 83.4599 67.5928 83.4599C67.5928 83.4599 69.0416 78.5881 70.603 77.5658C72.7923 76.1283 73.5489 79.6743 73.5489 79.6743C73.5489 79.6743 73.243 74.3872 74.1284 73.876C75.223 73.2371 77.5893 77.3262 77.9435 76.895C78.4586 76.272 77.4767 71.3842 77.9596 70.7133C78.523 69.9307 81.662 73.876 81.662 73.876C81.662 73.876 81.0825 65.7776 81.7264 64.4678C82.161 63.5734 85.4771 66.9117 85.4771 66.9117C85.4771 66.9117 83.6098 60.3787 84.2698 58.2064C84.8976 56.1458 87.9078 56.1458 87.9078 56.1458Z" fill="#FDDE00"/>
<path d="M48.5007 49.3891C48.5007 49.3891 48.9997 48.3029 49.0963 47.2646C48.3397 47.8397 48.5007 49.3891 48.5007 49.3891Z" fill="#FDED25"/>
<path d="M77.7183 42.92C77.7183 42.92 76.5432 41.9137 74.6598 40.5879C73.9515 40.0768 73.8549 39.0705 74.4345 38.4315L75.0783 37.7447L74.4345 37.8565C72.5028 38.176 70.5067 37.8565 68.8003 36.9141C65.6935 35.205 62.313 33.8792 59.0453 33.8632C55.0853 33.8472 51.5116 34.9494 48.6946 36.2272C46.8112 37.0898 44.6219 36.962 42.8512 35.8918L43.3663 36.4988C44.1551 37.4252 44.0102 38.8149 43.0283 39.5497C42.5775 39.8851 41.4668 40.6358 41.4668 40.6358C41.4668 40.6358 43.6722 40.3004 44.4609 41.3067C45.1531 42.2012 42.497 44.3576 42.0946 44.6451C42.4648 44.4055 44.0263 43.7346 45.1048 44.8847C46.0224 45.859 44.1068 48.5266 43.817 49.4051C44.1551 48.5745 46.3765 47.8078 47.4068 48.3509C47.9702 48.6544 47.4712 52.1205 47.4068 52.8233C47.6804 52.6317 49.0326 48.862 50.8516 49.7884C52.7994 50.7788 51.3346 55.8902 51.3346 55.8902C51.3346 55.8902 53.7492 53.015 55.5682 54.4047C56.9365 55.4429 57.1618 59.548 57.1618 59.548C57.1618 59.548 58.2082 55.8902 59.5926 55.7784C60.977 55.6666 62.6672 57.3118 62.6672 57.3118C62.6672 57.3118 61.7174 54.5325 62.6672 53.9415C63.6169 53.3505 65.6291 54.9478 65.6291 54.9478C65.6291 54.9478 65.5808 52.0886 67.1262 51.8809C68.0759 51.7531 70.4745 51.849 71.7623 52.8233C71.0057 52.0566 69.9754 49.0697 71.054 48.3509C71.891 47.7918 74.7242 47.648 74.7242 47.648C74.7242 47.648 71.6657 44.693 72.4706 43.6707C73.1306 42.8241 77.7183 42.92 77.7183 42.92Z" fill="#FDED25"/>
<path d="M72.4713 50.9225C72.4713 50.9225 71.8757 50.3954 71.0547 49.7725C71.6986 50.4433 72.4713 50.9225 72.4713 50.9225Z" fill="#FDED25"/>
<path d="M46.3611 47.3606C46.2324 47.6641 46.168 47.8717 46.168 47.8717C46.168 47.8717 46.2485 47.6641 46.3611 47.3606Z" fill="#FDED25"/>
<path d="M43.2216 43.6548C43.1572 43.6867 43.125 43.7187 43.125 43.7187C43.125 43.7187 43.1733 43.6867 43.2216 43.6548Z" fill="#FDED25"/>
<path d="M41.4673 41.8179C36.5253 42.9679 35.4629 42.6165 35.4629 42.6165L37.9902 45.5875L41.4673 41.8179Z" fill="#FDDE00"/>
<path d="M31.0513 63.3018C26.705 63.9247 24.6445 65.8894 24.6445 65.8894L29.3933 65.3463L31.0513 63.3018Z" fill="#FDCC01"/>
<path d="M43.9135 61.305C43.994 61.2571 44.0584 61.2252 44.1228 61.1613C44.1389 61.1453 44.155 61.1293 44.1872 61.1133C44.2033 61.0974 44.2355 61.0814 44.2516 61.0654C44.2999 61.0335 44.3482 60.9856 44.3964 60.9536C44.5896 60.7939 44.7667 60.5862 44.8633 60.3466C44.8955 60.2827 44.9116 60.2189 44.9277 60.155C44.9438 60.0911 44.9438 60.0432 44.9438 59.9952C44.9438 59.8994 44.9116 59.8035 44.8633 59.7237C44.815 59.6438 44.7667 59.5959 44.7023 59.564C44.6379 59.532 44.5735 59.5001 44.5091 59.4841C44.3804 59.4681 44.2838 59.4841 44.1711 59.4841C44.1228 59.4841 44.0584 59.5001 44.0101 59.5001C43.9779 59.5001 43.9618 59.5001 43.9296 59.5001C43.8974 59.4841 43.8974 59.4841 43.8652 59.4681C43.7847 59.4362 43.6882 59.4362 43.5433 59.4521C43.5111 59.4521 43.4628 59.4681 43.4306 59.4841C43.4145 59.4841 43.3823 59.5001 43.3662 59.5001C43.3501 59.5001 43.3179 59.516 43.2857 59.532C43.173 59.5799 43.0604 59.6278 42.9316 59.6917C42.7062 59.8195 42.3038 60.155 41.9496 60.6342C41.7565 60.8738 41.5955 61.1453 41.4506 61.4328C41.3057 61.7203 41.1769 62.0238 41.0965 62.3273C40.9999 62.6308 40.9516 62.9343 40.9033 63.2058C40.8872 63.3496 40.8711 63.4774 40.8711 63.6052C40.8711 63.7329 40.8711 63.8448 40.8711 63.9566C40.8872 64.1642 40.8872 64.3399 40.9194 64.4517C40.9355 64.5635 40.9516 64.6274 40.9516 64.6274C40.9516 64.6274 40.9677 64.5635 40.9999 64.4517C41.0321 64.3399 41.0965 64.1802 41.1608 64.0045C41.2091 63.9087 41.2413 63.8128 41.2896 63.717C41.3379 63.6211 41.4023 63.5093 41.4667 63.3975C41.5955 63.1899 41.7404 62.9662 41.9174 62.7746C42.0784 62.5669 42.2877 62.3912 42.4808 62.2155C42.674 62.0558 42.8672 61.912 43.0604 61.7842C43.4467 61.5287 43.7686 61.3849 43.9135 61.305Z" fill="#FDED23"/>
<path d="M52.0279 65.1706C52.0279 64.3559 51.6255 63.6691 51.1104 63.6531C50.5953 63.6371 50.1445 64.308 50.1445 65.1546C50.1445 65.5699 50.3699 66.7679 50.6275 67.854C50.885 68.9402 51.1587 69.8986 51.1587 69.8986C51.1587 69.8986 51.3518 68.8923 51.5611 67.8221C51.7704 66.7519 52.0118 65.5859 52.0279 65.1706Z" fill="#FDED23"/>
<path d="M61.9586 63.765C61.7011 63.2378 61.3469 62.7906 60.9767 62.535C60.7996 62.4072 60.6064 62.3114 60.4294 62.2954C60.3811 62.2954 60.3489 62.2795 60.3167 62.2954C60.2684 62.2954 60.2362 62.2954 60.204 62.3114C60.1396 62.3274 60.0913 62.3753 60.043 62.4232C59.882 62.6309 59.8177 62.8705 59.8498 63.2538C59.882 63.6212 60.0269 64.1004 60.2684 64.5956C60.3972 64.8511 60.6708 65.2984 61.025 65.8734C61.363 66.4325 61.7815 67.1033 62.1518 67.7582C62.5381 68.3972 62.8923 69.0361 63.1337 69.4993C63.3913 69.9625 63.5523 70.266 63.5523 70.266C63.5523 70.266 63.504 69.9306 63.4235 69.4035C63.3269 68.8764 63.1981 68.1735 63.0371 67.4228C62.8762 66.688 62.683 65.9054 62.4898 65.2505C62.2806 64.5796 62.1035 64.0365 61.9586 63.765Z" fill="#FDED23"/>
<path d="M72.6321 57.4396C72.4711 57.0722 72.1814 56.7847 71.8755 56.6569C71.5697 56.5291 71.296 56.577 71.1028 56.7527C70.9097 56.9285 70.8292 57.184 70.797 57.4236C70.7648 57.6632 70.797 57.9188 70.9097 58.1903C70.9741 58.3181 71.135 58.5737 71.3282 58.9091C71.5214 59.2446 71.7789 59.6758 72.0204 60.0752C72.5033 60.8738 72.9702 61.5766 72.9702 61.5766C72.9702 61.5766 72.9541 60.7301 72.9219 59.8036C72.9058 59.3404 72.8897 58.8612 72.8414 58.4299C72.7931 57.9987 72.7126 57.6313 72.6321 57.4396Z" fill="#FDED23"/>
<path d="M77.4287 50.9863C77.3804 50.9065 77.3321 50.8266 77.2677 50.7467C77.2356 50.7148 77.2195 50.6828 77.1712 50.6349C77.139 50.587 77.0907 50.5391 77.0424 50.4912C76.8814 50.3155 76.656 50.1717 76.4146 50.0918C76.1892 50.0279 75.9799 50.0759 75.8512 50.1717C75.7224 50.2675 75.658 50.4113 75.6258 50.5391C75.6097 50.6509 75.6258 50.7627 75.6258 50.8585C75.6419 50.9544 75.6419 51.0662 75.6258 51.162C75.5775 51.2419 75.5775 51.3218 75.5936 51.4336C75.5936 51.4655 75.5936 51.4815 75.6097 51.5134C75.6097 51.5454 75.6419 51.5933 75.658 51.6412C75.6902 51.7211 75.7385 51.8169 75.7868 51.8968C76.1731 52.5836 78.797 55.331 78.797 55.331C78.797 55.331 77.8151 51.6732 77.4287 50.9863Z" fill="#FDED23"/>
<path d="M69.2359 68.3333C68.9622 67.8541 68.592 67.5187 68.2539 67.327C67.8998 67.1513 67.594 67.1353 67.3847 67.295C67.1754 67.4548 67.1271 67.7582 67.1754 68.1097C67.2237 68.4611 67.3686 68.8604 67.594 69.2597C67.6583 69.3556 67.7388 69.4993 67.8676 69.675C67.9803 69.8507 68.1252 70.0584 68.2861 70.298C68.592 70.7612 68.9139 71.3362 69.1876 71.9272C69.4613 72.5023 69.6705 73.0933 69.8154 73.5405C69.8476 73.6523 69.8798 73.7482 69.912 73.844C69.9281 73.9399 69.9603 74.0197 69.9764 74.0836C70.0086 74.2114 70.0247 74.2913 70.0247 74.2913C70.0247 74.2913 70.0408 74.2114 70.0569 74.0836C70.073 74.0197 70.073 73.9399 70.0891 73.844C70.1052 73.7482 70.1052 73.6364 70.1213 73.5245C70.1695 73.0454 70.1856 72.4064 70.1213 71.7196C70.073 71.0327 69.9281 70.298 69.7671 69.691C69.6866 69.3875 69.59 69.116 69.4935 68.8764C69.3969 68.6368 69.3164 68.4451 69.2359 68.3333Z" fill="#FDED23"/>
<path d="M55.1666 75.6969C55.1827 74.7226 54.7642 73.9239 54.2491 73.908C53.7339 73.892 53.2993 74.6906 53.2832 75.665C53.2832 75.9046 53.3315 76.3838 53.412 76.9588C53.4925 77.5339 53.5891 78.1888 53.6856 78.8277C53.7661 79.4666 53.8305 80.0736 53.8466 80.5049C53.8466 80.7285 53.8466 80.9042 53.8144 81.032C53.7983 81.0959 53.7822 81.1438 53.7661 81.1757C53.75 81.2077 53.7339 81.2237 53.7339 81.2237C53.7339 81.2237 53.75 81.2077 53.7822 81.1917C53.8144 81.1598 53.8466 81.1278 53.8788 81.0639C53.9593 80.9521 54.0398 80.7764 54.1203 80.5528C54.2973 80.1215 54.4583 79.5145 54.6193 78.8756C54.7803 78.2367 54.909 77.5498 55.0056 76.9908C55.0861 76.4157 55.1505 75.9525 55.1666 75.6969Z" fill="#FDED23"/>
<path d="M50.3683 74.1635C50.4165 73.7961 50.3844 73.4926 50.2878 73.285C50.2717 73.2211 50.2395 73.1891 50.2073 73.1412C50.1751 73.0933 50.159 73.0454 50.1268 72.9975C50.0785 72.8857 50.0302 72.7738 49.9497 72.662C49.8692 72.5662 49.7565 72.4863 49.5956 72.4863C49.5151 72.4863 49.4185 72.5183 49.338 72.5502C49.2575 72.5822 49.1609 72.6461 49.0805 72.7259C48.7424 73.0134 48.5492 73.4767 48.4848 73.9399C48.4527 74.1795 48.4687 74.6108 48.5331 75.1219C48.5975 75.633 48.6941 76.2081 48.7746 76.7512C48.8551 77.2942 48.9195 77.8054 48.9195 78.1887C48.9195 78.3804 48.8873 78.5242 48.8551 78.636C48.839 78.6839 48.8229 78.7318 48.8068 78.7478C48.7907 78.7798 48.7907 78.7957 48.7907 78.7957C48.7907 78.7957 48.8068 78.7798 48.8229 78.7638C48.839 78.7478 48.8873 78.7159 48.9195 78.6679C49 78.5881 49.0966 78.4443 49.1931 78.2526C49.3863 77.8853 49.5634 77.3581 49.7083 76.7991C49.8531 76.24 49.998 75.681 50.1107 75.2018C50.2395 74.7226 50.3361 74.3552 50.3683 74.1635Z" fill="#FDED23"/>
<path d="M52.9282 43.3831C53.1213 43.1755 53.234 42.9199 53.2662 42.6643C53.2984 42.4088 53.2501 42.1532 53.0891 41.9455C52.9282 41.7379 52.6706 41.642 52.3809 41.674C52.0911 41.7059 51.7691 41.8497 51.5277 42.1212C51.4633 42.1851 51.3828 42.2969 51.3023 42.4407C51.2218 42.5845 51.1253 42.7602 51.0287 42.9518C50.8516 43.3352 50.6906 43.8144 50.5779 44.2616C50.4653 44.7089 50.417 45.1402 50.4009 45.4596C50.3848 45.6194 50.3848 45.7471 50.3848 45.827C50.3848 45.9228 50.3848 45.9708 50.3848 45.9708C50.3848 45.9708 50.417 45.9228 50.4653 45.859C50.5135 45.7791 50.5779 45.6833 50.6745 45.5555C50.8516 45.3159 51.1092 44.9964 51.3989 44.6929C51.6887 44.3894 52.0106 44.1179 52.2843 43.8943C52.5901 43.6547 52.8316 43.4949 52.9282 43.3831Z" fill="#FDED23"/>
<path d="M59.5772 39.3579C59.4806 39.2461 59.4001 39.1663 59.3196 39.1343C59.3035 39.1183 59.2874 39.1183 59.2552 39.1183C59.2391 39.1183 59.223 39.1183 59.2069 39.1183C59.1747 39.1183 59.1264 39.1343 59.0942 39.1183C58.9977 39.1024 58.9011 39.0704 58.8045 39.0225C58.7079 38.9746 58.6113 38.9267 58.4825 38.9107C58.3538 38.8947 58.2089 38.8947 58.0801 38.9746C57.9513 39.0385 57.8386 39.1822 57.7903 39.3739C57.7582 39.4697 57.7581 39.5975 57.7742 39.7093C57.7742 39.7732 57.7903 39.8212 57.8064 39.8851C57.8225 39.933 57.8386 39.9969 57.8547 40.0448C57.9191 40.2524 58.0318 40.4281 58.1445 40.5559C58.1606 40.5719 58.1767 40.5879 58.1928 40.6038C58.2089 40.6198 58.225 40.6358 58.2411 40.6518C58.2733 40.6837 58.3055 40.7157 58.3538 40.7476C58.402 40.7796 58.4342 40.8275 58.4986 40.8754C58.5469 40.9233 58.6113 40.9712 58.6596 41.0351C58.7723 41.1469 58.885 41.2907 59.0138 41.4345C59.1264 41.5942 59.2391 41.7539 59.3518 41.9296C59.5611 42.281 59.7542 42.6484 59.8991 42.92C60.0279 43.1915 60.1245 43.3832 60.1245 43.3832C60.1245 43.3832 60.1567 43.1915 60.1889 42.872C60.2211 42.5685 60.2694 42.1373 60.2694 41.674C60.2694 41.4504 60.2533 41.1949 60.2211 40.9553C60.1889 40.7157 60.1406 40.4761 60.0762 40.2524C60.044 40.1406 59.9957 40.0448 59.9635 39.933C59.9152 39.8371 59.883 39.7413 59.8347 39.6614C59.7864 39.5816 59.7542 39.5017 59.7059 39.4538C59.6898 39.4218 59.6738 39.4059 59.6577 39.3739C59.6094 39.3899 59.5933 39.3739 59.5772 39.3579Z" fill="#FDED23"/>
<path d="M59.5768 46.9452C59.5446 46.3223 59.0778 45.8431 58.5627 45.875C58.0475 45.907 57.6451 46.4341 57.6934 47.073C57.7256 47.696 58.8524 50.5871 58.8524 50.5871C58.8524 50.5871 59.609 47.5682 59.5768 46.9452Z" fill="#FDED23"/>
<path d="M66.1442 43.2714C65.8866 42.8401 65.6129 42.5845 65.3554 42.4088C65.2266 42.329 65.0978 42.2651 64.9529 42.2331C64.8242 42.2012 64.6954 42.1852 64.5666 42.2331C64.4378 42.2651 64.3412 42.3449 64.2607 42.4727C64.1803 42.6005 64.1481 42.7762 64.132 42.9679C64.1159 43.3672 64.2768 43.8304 64.4861 44.1978C64.5344 44.2937 64.631 44.4214 64.7276 44.5652C64.8242 44.709 64.9368 44.8847 65.0495 45.0923C65.1622 45.3 65.2749 45.5396 65.3715 45.7951C65.4681 46.0507 65.5485 46.3382 65.6129 46.6257C65.7417 47.2008 65.8383 47.7758 65.8866 48.2071C65.9349 48.6384 65.9671 48.9099 65.9671 48.9099C65.9671 48.9099 66.0476 48.6384 66.1764 48.2231C66.3051 47.8078 66.45 47.2327 66.5466 46.5778C66.5949 46.2584 66.6271 45.9229 66.6271 45.5875C66.6271 45.2521 66.611 44.9166 66.5466 44.5971C66.4983 44.2937 66.4178 43.9902 66.3212 43.7665C66.289 43.5429 66.2085 43.3672 66.1442 43.2714Z" fill="#FDED23"/>
<path d="M43.7056 55.1393C43.8827 55.0435 44.0597 54.8997 44.2046 54.74C44.3495 54.5803 44.4622 54.3726 44.5105 54.1809C44.5427 54.0851 44.5427 53.9893 44.5427 53.9094C44.5427 53.8136 44.5105 53.7497 44.4783 53.6858C44.4139 53.558 44.3173 53.4781 44.1885 53.4302C44.0598 53.3823 43.931 53.3823 43.8183 53.3663C43.6895 53.3663 43.5768 53.3503 43.4802 53.3503C43.3676 53.3503 43.271 53.3503 43.1583 53.3663C43.0456 53.3983 42.9168 53.4462 42.7559 53.526C42.6754 53.574 42.5788 53.6538 42.4178 53.7656C42.3856 53.7976 42.3373 53.8295 42.3051 53.8615C42.2568 53.8934 42.2246 53.9413 42.1763 53.9733C42.0798 54.0532 41.9993 54.149 41.9027 54.2448C41.7256 54.4365 41.5485 54.6601 41.4037 54.9157C41.2588 55.1553 41.13 55.4268 41.0334 55.6824C40.9368 55.938 40.8724 56.2095 40.8242 56.4332C40.792 56.6728 40.7598 56.8964 40.7598 57.0721C40.7598 57.1679 40.7598 57.2478 40.7598 57.3117C40.7598 57.3915 40.7598 57.4395 40.7759 57.5034C40.792 57.5992 40.792 57.6631 40.792 57.6631C40.792 57.6631 40.8081 57.6152 40.8563 57.5193C40.8724 57.4714 40.9046 57.4235 40.9368 57.3596C40.969 57.2957 41.0012 57.2318 41.0495 57.1519C41.13 57.0082 41.2427 56.8325 41.3715 56.6728C41.5003 56.513 41.6612 56.3373 41.8222 56.1936C41.9832 56.0338 42.1763 55.906 42.3534 55.7942C42.5305 55.6824 42.7237 55.5866 42.8846 55.5067C42.9651 55.4748 43.0456 55.4428 43.1261 55.4109C43.2066 55.3789 43.271 55.347 43.3354 55.331C43.4802 55.2511 43.609 55.1873 43.7056 55.1393Z" fill="#FDED23"/>
<path d="M61.1708 74.4191C61.1064 74.1954 61.0098 73.9878 60.9132 73.8121C60.8649 73.7162 60.8006 73.6364 60.7523 73.5725C60.6879 73.4926 60.6396 73.4287 60.5591 73.3489C60.4142 73.1891 60.221 73.0454 60.0601 73.0294C59.8991 73.0134 59.7703 73.0613 59.6737 73.1572C59.5771 73.253 59.5289 73.3648 59.4806 73.4607C59.4323 73.5725 59.3518 73.6364 59.3035 73.7642C59.2874 73.8281 59.2713 73.9079 59.2552 74.0038C59.2552 74.0996 59.2391 74.1954 59.2552 74.2913C59.2713 74.4989 59.3035 74.7066 59.3679 74.9142C59.4967 75.3455 60.0762 76.4956 60.4786 77.5977C60.6879 78.1408 60.8327 78.6839 60.9293 79.0992C60.9454 79.195 60.9776 79.2909 60.9937 79.3867C61.0098 79.4666 61.0259 79.5464 61.0259 79.6103C61.042 79.7381 61.0581 79.802 61.0581 79.802C61.0581 79.802 61.0742 79.7381 61.1064 79.6103C61.1225 79.5464 61.1386 79.4825 61.1547 79.3867C61.1708 79.3068 61.1869 79.211 61.2191 79.0992C61.2996 78.6679 61.3801 78.0929 61.3962 77.454C61.4445 76.224 61.2996 74.8663 61.1708 74.4191Z" fill="#FDED23"/>
<path d="M79.3936 63.2058C79.0878 62.2634 78.3956 61.6564 77.9127 61.8481C77.4298 62.0398 77.301 62.9023 77.5907 63.7968C77.7356 64.2441 78.3795 65.474 78.9107 66.6241C79.1844 67.1991 79.4258 67.7582 79.619 68.1735C79.7961 68.5888 79.9088 68.8603 79.9088 68.8603C79.9088 68.8603 79.9088 68.7804 79.9088 68.6527C79.9088 68.5249 79.9088 68.3332 79.9088 68.1096C79.8927 67.6623 79.8766 67.0394 79.8283 66.4004C79.7639 65.1066 79.5546 63.685 79.3936 63.2058Z" fill="#FDED23"/>
<path d="M27.1091 92.2453C27.2379 92.0217 27.3184 91.7821 27.3344 91.5425C27.3505 91.3029 27.3184 91.0633 27.2218 90.8876C27.1252 90.7119 26.9964 90.5841 26.8676 90.5362C26.7388 90.4883 26.594 90.4883 26.4813 90.5362C26.3525 90.5841 26.2559 90.664 26.1593 90.7279C26.0627 90.7918 25.9662 90.8556 25.8857 90.9036C25.7086 90.9994 25.5959 91.0952 25.4832 91.255C25.451 91.3029 25.4188 91.3828 25.3545 91.4946C25.2901 91.6064 25.2096 91.7661 25.0969 91.9578C24.9842 92.1495 24.8554 92.3891 24.7589 92.6446C24.6623 92.9002 24.5818 93.1718 24.5335 93.4273C24.4369 93.9544 24.453 94.4336 24.5013 94.785C24.5335 94.9607 24.5657 95.0885 24.5818 95.1844C24.614 95.2802 24.6301 95.3281 24.6301 95.3281C24.6301 95.3281 24.6462 95.2802 24.6784 95.1844C24.7106 95.0885 24.7428 94.9607 24.8071 94.817C24.9359 94.5135 25.1291 94.1301 25.4188 93.8107C25.5476 93.6509 25.7086 93.4912 25.8535 93.3634C26.0145 93.2356 26.1593 93.1238 26.3203 92.996C26.4813 92.8683 26.6423 92.7405 26.7871 92.6127C26.932 92.4849 27.0447 92.3571 27.1091 92.2453Z" fill="#FDCC01"/>
<path d="M69.7996 99.3693C69.6708 99.0499 69.4776 98.8103 69.2523 98.6346C69.0269 98.4748 68.7694 98.379 68.5118 98.4269C68.2542 98.4748 68.045 98.6825 67.9645 98.986C67.8679 99.2895 67.9001 99.7048 68.0611 100.072C68.1416 100.264 68.3508 100.583 68.5923 100.935C68.8498 101.302 69.1235 101.685 69.3489 102.101C69.5742 102.516 69.7191 102.931 69.7674 103.267C69.7996 103.442 69.7996 103.57 69.7996 103.682C69.7996 103.778 69.7996 103.842 69.7996 103.842C69.7996 103.842 69.8318 103.794 69.8801 103.698C69.9284 103.602 69.9928 103.474 70.0572 103.299C70.1859 102.947 70.2825 102.42 70.2664 101.877C70.2664 101.334 70.1537 100.759 70.0572 100.312C69.9445 99.8805 69.864 99.5291 69.7996 99.3693Z" fill="#FDCC01"/>
<path d="M79.9568 97.8358C79.8602 97.708 79.7636 97.6122 79.651 97.5483C79.5866 97.5163 79.5383 97.4844 79.4739 97.4524C79.4417 97.4365 79.4095 97.4365 79.3773 97.4205C79.329 97.3886 79.2807 97.3726 79.2485 97.3566C79.1519 97.3087 79.0553 97.2767 78.9427 97.2767C78.83 97.2608 78.7012 97.2767 78.6207 97.3247C78.5241 97.3726 78.4758 97.4365 78.4597 97.5004C78.4436 97.5643 78.4597 97.6281 78.4919 97.692C78.508 97.724 78.5241 97.7559 78.5241 97.7879C78.5402 97.8198 78.5563 97.8677 78.5402 97.8358C78.5402 97.8358 78.5402 97.8198 78.5402 97.8518C78.5402 97.8677 78.5241 97.9157 78.4758 97.9955C78.4436 98.0275 78.4114 98.0754 78.3793 98.1233C78.3632 98.1553 78.331 98.1712 78.2988 98.2032L78.2827 98.2192L78.2666 98.2351C78.2505 98.2511 78.2344 98.2671 78.2344 98.283C78.2344 98.315 78.2344 98.3469 78.2344 98.3789C78.2344 98.4428 78.2505 98.5067 78.2666 98.5706C78.2988 98.6983 78.3632 98.8261 78.4597 98.9539C78.5563 99.0817 78.7656 99.2734 79.0553 99.497C79.2002 99.6088 79.3451 99.7366 79.5061 99.8484C79.6671 99.9602 79.8119 100.072 79.9568 100.2C80.1017 100.312 80.2144 100.439 80.3271 100.551C80.4236 100.679 80.5041 100.807 80.5685 100.935C80.6329 101.062 80.6651 101.158 80.6812 101.238C80.6973 101.318 80.7134 101.366 80.7134 101.366C80.7134 101.366 80.7295 101.318 80.7617 101.238C80.7939 101.158 80.8261 101.046 80.8583 100.887C80.8905 100.743 80.9066 100.551 80.8905 100.344C80.8744 100.136 80.8422 99.9123 80.7778 99.6887C80.7134 99.4651 80.6329 99.2574 80.5524 99.0657C80.4719 98.8741 80.4075 98.6983 80.3431 98.5226C80.1822 98.2192 80.0534 97.9636 79.9568 97.8358Z" fill="#FDCC01"/>
<path d="M35.7691 100.647C35.8496 100.583 35.9623 100.456 36.0589 100.312C36.0911 100.28 36.1072 100.232 36.1233 100.184C36.1555 100.136 36.1716 100.104 36.1877 100.056C36.2198 99.9603 36.252 99.8485 36.2681 99.7687C36.2842 99.593 36.2198 99.4332 36.1233 99.3214C36.0267 99.2096 35.8979 99.1617 35.7852 99.1297C35.6564 99.0978 35.5438 99.0978 35.4311 99.0978C35.3184 99.0978 35.2218 99.0978 35.1252 99.0658C35.0769 99.0658 35.0447 99.0339 35.0125 99.0179C34.9964 99.0179 34.9803 99.0179 34.9642 99.002C34.9481 99.002 34.916 99.002 34.8999 99.002C34.8033 99.0179 34.7067 99.0658 34.5618 99.1777C34.5457 99.1936 34.5296 99.2096 34.4974 99.2256C34.4813 99.2415 34.4491 99.2735 34.4169 99.3054C34.3686 99.3693 34.3042 99.4332 34.2399 99.5131C34.1916 99.593 34.1272 99.6888 34.0789 99.8006C34.0306 99.9124 33.9823 100.008 33.9501 100.136C33.8696 100.376 33.8535 100.615 33.8535 100.855C33.8535 101.094 33.8857 101.318 33.934 101.542C34.0306 101.973 34.1916 102.324 34.3042 102.58C34.4169 102.836 34.5135 102.995 34.5135 102.995C34.5135 102.995 34.5457 102.82 34.6101 102.548C34.6745 102.276 34.755 101.925 34.8999 101.59C34.9642 101.43 35.0447 101.27 35.1413 101.142C35.2218 101.015 35.3184 100.919 35.3989 100.855C35.4311 100.823 35.4794 100.791 35.5116 100.775C35.5438 100.759 35.592 100.743 35.6081 100.727C35.6403 100.711 35.6725 100.711 35.6886 100.695C35.7047 100.695 35.7047 100.679 35.7208 100.679C35.7369 100.663 35.753 100.647 35.7691 100.647Z" fill="#FDCC01"/>
<path d="M26.9649 83.4919C27.303 82.9329 27.2064 82.262 26.7557 81.9904C26.3049 81.7189 25.6771 81.9745 25.3391 82.5335C25.2586 82.6773 25.1459 82.9808 25.0171 83.3482C24.9527 83.5398 24.9045 83.7315 24.824 83.9551C24.7596 84.1788 24.6952 84.4024 24.6469 84.642C24.5986 84.8816 24.5664 85.1212 24.5664 85.3448C24.5664 85.5684 24.5986 85.7761 24.6469 85.9358C24.663 86.0157 24.6952 86.0955 24.7274 86.1435C24.7596 86.2073 24.7757 86.2553 24.8079 86.2872C24.8562 86.3671 24.8884 86.399 24.8884 86.399C24.8884 86.399 24.8884 86.3511 24.8884 86.2553C24.8884 86.2073 24.9045 86.1594 24.9045 86.0955C24.9206 86.0316 24.9206 85.9677 24.9527 85.9039C25.0332 85.6323 25.2425 85.3129 25.5162 85.0094C25.6449 84.8656 25.8059 84.7059 25.9508 84.5621C26.0957 84.4184 26.2566 84.2586 26.3854 84.1149C26.6752 83.8753 26.8844 83.6357 26.9649 83.4919Z" fill="#FDCC01"/>
<path d="M36.5256 52.7434C36.6061 52.5518 36.6383 52.3441 36.6383 52.1524C36.6222 51.9608 36.5739 51.7691 36.4934 51.6253C36.4129 51.4816 36.3002 51.3857 36.1715 51.3378C36.0427 51.2899 35.9139 51.2899 35.8012 51.3218C35.5437 51.3857 35.3344 51.5295 35.1734 51.6413C34.9964 51.7531 34.8837 51.833 34.8032 52.0246C34.771 52.1045 34.7388 52.3281 34.6261 52.6157C34.5295 52.9032 34.3525 53.3025 34.2076 53.7178C34.0627 54.1331 33.9661 54.5644 33.9822 54.8679C33.9822 55.0276 33.9983 55.1394 34.0305 55.2193C34.0466 55.2991 34.0627 55.3471 34.0627 55.3471C34.0627 55.3471 34.0788 55.2991 34.111 55.2353C34.1432 55.1554 34.1915 55.0596 34.272 54.9477C34.4168 54.7241 34.6905 54.4845 34.9803 54.2609C35.2861 54.0373 35.6403 53.8136 35.9461 53.5261C36.091 53.3824 36.2359 53.2386 36.3324 53.1108C36.4129 52.9671 36.4934 52.8393 36.5256 52.7434Z" fill="#FDED23"/>
<path d="M51.3366 91.9896C51.4331 90.8395 51.079 89.8652 50.5639 89.8172C50.0488 89.7853 49.5497 90.6798 49.4531 91.8458C49.3566 93.0119 49.8878 98.5226 49.8878 98.5226C49.8878 98.5226 51.24 93.1556 51.3366 91.9896Z" fill="#FDDE00"/>
<path d="M78.3149 81.4152C77.7676 80.9041 77.1719 80.5527 76.689 80.377C76.19 80.2173 75.8198 80.2332 75.6588 80.4409C75.4978 80.6485 75.5944 81.0159 75.8519 81.4152C76.1095 81.8305 76.5119 82.3097 77.011 82.773C77.1397 82.8848 77.3168 83.0605 77.5583 83.2521C77.7836 83.4598 78.0734 83.6994 78.3793 83.9709C78.9749 84.514 79.6671 85.1849 80.2788 85.8717C80.8905 86.5586 81.4217 87.2774 81.808 87.8045C81.9046 87.9323 81.9851 88.0601 82.0656 88.1719C82.13 88.2837 82.1944 88.3795 82.2587 88.4594C82.3553 88.6191 82.4197 88.715 82.4197 88.715C82.4197 88.715 82.3875 88.6191 82.3392 88.4274C82.307 88.3316 82.2748 88.2198 82.2427 88.092C82.1944 87.9642 82.1461 87.8205 82.0978 87.6607C81.8724 87.0378 81.5344 86.1912 81.0997 85.3287C80.6651 84.4661 80.1339 83.6036 79.6188 82.9007C79.3612 82.5493 79.1197 82.2299 78.8944 81.9743C78.6368 81.7347 78.4436 81.5271 78.3149 81.4152Z" fill="#FDDE00"/>
<path d="M29.604 75.6969C29.7972 75.5532 29.9421 75.3615 30.0225 75.1219C30.103 74.8983 30.1513 74.6427 30.0708 74.3871C29.9904 74.1475 29.7811 73.9718 29.4752 73.908C29.1694 73.86 28.783 73.9399 28.4611 74.1955C28.3806 74.2594 28.284 74.3712 28.1552 74.499C28.0426 74.6427 27.9138 74.8184 27.8011 75.0101C27.5757 75.4094 27.3826 75.9046 27.3182 76.3838C27.2377 76.863 27.2538 77.3102 27.3182 77.6297C27.3343 77.7096 27.3504 77.7735 27.3504 77.8373C27.3665 77.9012 27.3826 77.9492 27.3987 77.9971C27.4148 78.0769 27.4309 78.1249 27.4309 78.1249C27.4309 78.1249 27.4469 78.0769 27.4791 77.9971C27.4952 77.9492 27.5113 77.9012 27.5274 77.8533C27.5435 77.7894 27.5757 77.7255 27.6079 77.6616C27.7206 77.3901 27.9299 77.0387 28.1874 76.7512C28.445 76.4477 28.7508 76.2081 29.0245 76.0324C29.1533 75.9365 29.2821 75.8726 29.3786 75.8088C29.4913 75.7768 29.5557 75.7289 29.604 75.6969Z" fill="#FDDE00"/>
<path d="M37.7012 81.8944C38.0071 81.1916 37.8783 80.4568 37.3953 80.2492C36.9124 80.0415 36.2846 80.4249 35.9627 81.1277C35.8822 81.3034 35.7856 81.6548 35.689 82.102C35.5924 82.5493 35.4797 83.0604 35.3832 83.5716C35.2866 84.0827 35.2383 84.5939 35.2383 84.9612C35.2383 85.1529 35.2544 85.2967 35.2705 85.3925C35.2866 85.4883 35.2866 85.5522 35.2866 85.5522C35.2866 85.5522 35.3027 85.5043 35.351 85.4085C35.3832 85.3126 35.4475 85.1849 35.528 85.0251C35.689 84.7057 35.9466 84.3223 36.2524 83.939C36.5583 83.5396 36.8802 83.1084 37.1378 82.741C37.4114 82.3896 37.6207 82.0701 37.7012 81.8944Z" fill="#FDDE00"/>
<path d="M44.6059 87.6129C44.6864 86.942 44.3162 86.351 43.801 86.2871C43.2859 86.2232 42.803 86.7344 42.7225 87.4053C42.642 88.0761 43.2215 91.3506 43.2215 91.3506C43.2215 91.3506 44.5415 88.2838 44.6059 87.6129Z" fill="#FDDE00"/>
<path d="M62.6841 89.7054C62.5392 89.2103 62.2978 88.8109 62.0402 88.5554C61.7666 88.2998 61.4768 88.188 61.2354 88.2678C60.9939 88.3477 60.8329 88.6193 60.7685 88.9707C60.7041 89.3221 60.7363 89.7533 60.8651 90.2166C60.9939 90.6638 61.5734 91.9257 61.9919 93.1237C62.2012 93.7307 62.3944 94.3057 62.5232 94.7529C62.5875 94.9766 62.6358 95.1523 62.668 95.28C62.7002 95.4078 62.7163 95.4717 62.7163 95.4717C62.7163 95.4717 62.7324 95.3919 62.7485 95.2641C62.7646 95.1363 62.7807 94.9446 62.8129 94.721C62.8612 94.2578 62.9095 93.6348 62.9256 92.9799C62.9417 92.325 62.9256 91.6222 62.8773 91.0312C62.829 90.4402 62.7646 89.961 62.6841 89.7054Z" fill="#FDDE00"/>
<path d="M72.0216 84.53C71.4421 83.6834 70.6372 83.2042 70.2025 83.4758C69.7679 83.7473 69.8645 84.7057 70.4601 85.5842C70.7499 86.0315 71.8123 87.1336 72.8425 88.092C73.3577 88.5712 73.8567 89.0025 74.2269 89.3379C74.5972 89.6574 74.8386 89.865 74.8386 89.865C74.8386 89.865 74.2269 88.7629 73.5991 87.5489C72.9552 86.303 72.3113 84.9613 72.0216 84.53Z" fill="#FDDE00"/>
<path d="M87.0082 74.1953C86.9438 74.0994 86.8633 74.0036 86.7829 73.9237C86.7346 73.8758 86.7024 73.8439 86.6541 73.7959C86.6058 73.748 86.5575 73.7001 86.4931 73.6522C86.3804 73.5563 86.2677 73.4765 86.139 73.4126C86.0102 73.3487 85.8653 73.3008 85.7365 73.2688C85.4468 73.2049 85.2214 73.2848 85.0926 73.4126C85.0604 73.4445 85.0282 73.4765 85.0121 73.5084C84.996 73.5404 84.9799 73.5723 84.9638 73.6202C84.9316 73.6841 84.9316 73.764 84.9316 73.8279C84.9477 73.9557 84.996 74.0355 85.0282 74.1473C85.0443 74.1953 85.0765 74.2432 85.0926 74.3071C85.1087 74.355 85.1248 74.4189 85.1087 74.4668C85.1087 74.5147 85.1087 74.5627 85.1248 74.6106C85.1409 74.6585 85.157 74.7224 85.1731 74.7863C85.1892 74.8182 85.2053 74.8502 85.2214 74.8821L85.2375 74.9141L85.2536 74.946C85.2697 74.978 85.2858 74.9939 85.3019 75.0259C85.3502 75.1217 85.4146 75.2176 85.4951 75.3134C85.7848 75.6967 86.7668 76.6711 87.7004 77.5496C87.9258 77.7733 88.1511 77.9809 88.3604 78.1726C88.5697 78.3643 88.7307 78.54 88.8594 78.7157C88.9882 78.8914 89.0526 79.0511 89.1009 79.1629C89.117 79.2268 89.1331 79.2747 89.1331 79.3067C89.1331 79.3386 89.1492 79.3546 89.1492 79.3546C89.1492 79.3546 89.1492 79.3386 89.1653 79.3067C89.1814 79.2747 89.1814 79.2268 89.1814 79.1629C89.1975 79.0351 89.1814 78.8435 89.1331 78.6039C89.0848 78.3802 88.9721 78.1087 88.8594 77.8371C88.7307 77.5816 88.6019 77.2941 88.4731 77.0065C87.9097 75.8245 87.298 74.5786 87.0082 74.1953Z" fill="#FDDE00"/>
<path d="M91.5319 84.7217C91.4353 84.3703 91.2743 84.0987 91.0811 83.8911C90.888 83.6834 90.6465 83.5397 90.3728 83.5557C90.1153 83.5716 89.8899 83.7473 89.745 84.0668C89.6163 84.3703 89.5841 84.8175 89.7128 85.2328C89.745 85.3446 89.8094 85.4884 89.8899 85.6641C89.9704 85.8398 90.0831 86.0315 90.1958 86.2391C90.4372 86.6544 90.7431 87.1177 91.0006 87.5649C91.2582 88.0122 91.4836 88.4434 91.5962 88.7948C91.6284 88.8747 91.6606 88.9546 91.6767 89.0344C91.6928 89.0983 91.7089 89.1622 91.725 89.2261C91.7572 89.322 91.7733 89.3858 91.7733 89.3858C91.7733 89.3858 91.7894 89.322 91.8055 89.2261C91.8216 89.1782 91.8377 89.1143 91.8538 89.0344C91.8699 88.9546 91.8699 88.8747 91.886 88.7789C91.9343 88.3955 91.9504 87.8684 91.9021 87.3093C91.8538 86.7503 91.7733 86.1912 91.7089 85.728C91.6767 85.5044 91.6445 85.2967 91.6123 85.121C91.5801 84.9453 91.548 84.8175 91.5319 84.7217Z" fill="#FDDE00"/>
<path d="M32.2606 67.4867C32.4376 67.1353 32.4859 66.72 32.3894 66.4005C32.2928 66.081 32.0674 65.9053 31.8098 65.8734C31.5523 65.8414 31.2947 65.9373 31.0855 66.0651C30.8762 66.1928 30.6991 66.3685 30.5703 66.6401C30.5059 66.7679 30.4094 67.0554 30.2806 67.4547C30.1518 67.8381 29.9747 68.3492 29.9103 68.8604C29.8299 69.3715 29.8459 69.8667 29.9264 70.2021C29.9747 70.3778 30.023 70.5056 30.0552 70.5855C30.1035 70.6653 30.1196 70.7132 30.1196 70.7132C30.1196 70.7132 30.1196 70.6653 30.1357 70.5695C30.1518 70.4736 30.1679 70.3459 30.2162 70.2021C30.2967 69.8986 30.5059 69.5472 30.7796 69.2118C31.0533 68.8763 31.3591 68.5728 31.6489 68.2534C31.9386 67.9659 32.164 67.6624 32.2606 67.4867Z" fill="#FDDE00"/>
<path d="M38.6018 31.9847L35.1016 32.6162L49.0515 108.744L52.5518 108.113L38.6018 31.9847Z" fill="#8E959C"/>
<path d="M49.2093 99.7205C48.2435 99.8962 47.3098 99.2573 47.1327 98.2989L35.0918 32.6013C34.9147 31.6429 35.5586 30.7165 36.5245 30.5408C37.4903 30.3651 38.424 31.004 38.6011 31.9624L50.642 97.66C50.8191 98.6344 50.1752 99.5448 49.2093 99.7205Z" fill="#A35702"/>
<path d="M39.7594 110.103C37.9082 110.439 36.6687 112.212 37.0068 114.048L38.9867 118.745C39.1638 119.144 39.7594 119.032 39.7755 118.601L39.9687 113.521L41.3048 113.282L43.2848 117.978C43.4618 118.377 44.0575 118.265 44.0735 117.834L44.2667 112.755L45.6028 112.515L47.5828 117.211C47.7599 117.61 48.3555 117.499 48.3716 117.067L48.5647 111.988L49.9008 111.748L51.8808 116.444C52.0418 116.844 52.6535 116.732 52.6696 116.301L52.8628 111.221L54.1989 110.982L56.1789 115.678C56.3559 116.077 56.9515 115.965 56.9676 115.534L57.1608 110.455L58.4969 110.215L60.4769 114.911C60.654 115.31 61.2496 115.199 61.2657 114.767L61.4588 109.688L62.7949 109.448L64.7749 114.144C64.9359 114.544 65.5476 114.432 65.5637 114.001L65.7569 108.921C65.4188 107.084 63.632 105.854 61.7808 106.19L39.7594 110.103Z" fill="#8E959C"/>
<path d="M94.1426 13.81L66.3945 70.7429L69.5974 72.2799L97.3454 15.347L94.1426 13.81Z" fill="#8E959C"/>
<path d="M71.8762 63.5412C70.9909 63.11 70.6206 62.0557 71.0552 61.1772L94.139 13.8008C94.5737 12.9223 95.6361 12.5549 96.5215 12.9862C97.4068 13.4175 97.7771 14.4717 97.3424 15.3502L74.2586 62.7266C73.824 63.6051 72.7616 63.9725 71.8762 63.5412Z" fill="#A35702"/>
<path d="M57.0499 73.8919L51.1582 87.517C50.7397 88.4914 51.7699 88.9865 52.2851 88.0601L59.867 74.3871C60.2211 73.7481 60.865 73.4447 61.3479 73.6683C61.8309 73.9079 61.9918 74.5947 61.7021 75.2656L55.6494 89.5616C55.1987 90.6158 56.3255 91.1589 56.8728 90.1526L64.4065 76.5754C64.7606 75.9365 65.4045 75.633 65.8874 75.8566C66.3704 76.0962 66.5313 76.783 66.2416 77.4539L60.1889 91.7499C59.7382 92.8041 60.865 93.3472 61.4123 92.3409L68.946 78.7637C69.3001 78.1248 69.944 77.8213 70.4269 78.0449C70.9099 78.2845 71.0708 78.9714 70.7811 79.6422L64.7284 93.9222C64.3099 94.9126 65.3562 95.4077 65.8713 94.4653L72.922 81.5111C75.1113 77.4859 74.3869 72.8696 71.3445 71.4001L66.0323 68.8444C62.9738 67.3908 58.8689 69.691 57.0499 73.8919Z" fill="#8E959C"/>
</svg>
