<svg width="279" height="214" viewBox="0 0 279 214" fill="none" xmlns="http://www.w3.org/2000/svg">
<g clip-path="url(#clip0_335_2367)">
<path d="M201.805 107.557L241.292 120.259L242.552 114.428L251.071 112.311L279.001 159.887L237.106 203.155L229.809 195.393L230.698 187.111H180.84L171.727 192.867L202.694 193.313L197.397 198.773L166.208 198.921L142.057 214L82.9007 193.09L63.9723 204.938L18.707 172.849L150.095 88.0957L201.805 107.557Z" fill="black" fill-opacity="0.1"/>
<path d="M75.7488 64.1777L68.5256 60.538C67.9329 60.2409 67.5625 59.6466 67.5625 58.9781V38.6626C67.5625 37.3627 68.9331 36.5085 70.0814 37.1027L77.3045 40.7424C77.8972 41.0396 78.2676 41.6338 78.2676 42.3023V62.6178C78.2676 63.9177 76.8971 64.7719 75.7488 64.1777Z" fill="#124F67"/>
<path d="M77.5665 63.9921L76.0108 64.8834L75.4922 63.6207L77.4184 62.915L77.5665 63.9921Z" fill="#124F67"/>
<path d="M67.0078 37.9571L68.7117 37.0286L69.3044 37.4742L68.6006 38.6999L67.0078 37.9571Z" fill="#124F67"/>
<path d="M74.491 64.8462L67.2678 61.2065C66.6751 60.9093 66.3047 60.3151 66.3047 59.6466V39.3311C66.3047 38.0312 67.6752 37.177 68.8235 37.7712L76.0467 41.4109C76.6394 41.708 77.0098 42.3023 77.0098 42.9708V63.2863C77.0098 64.5862 75.6763 65.4404 74.491 64.8462Z" fill="#256E8D"/>
<path d="M28.8922 115.059L30.522 112.497C31.1147 112.274 31.337 112.199 31.9296 111.977L33.0039 113.574C33.4854 113.462 33.7447 113.425 34.2262 113.314L36.3006 111.085C36.8562 111.048 37.0414 111.048 37.5971 111.011L38.0416 113.128C38.449 113.202 38.7083 113.239 39.1158 113.277L41.4494 111.531C41.8939 111.717 42.0791 111.754 42.5236 111.939L42.3014 114.428C42.6348 114.651 42.82 114.762 43.1534 114.985L45.524 113.908C45.8574 114.242 45.9685 114.391 46.3019 114.725L45.4129 117.399C45.6352 117.77 45.7463 117.956 45.9315 118.29L48.1911 117.919C48.3763 118.402 48.4133 118.588 48.5985 119.107L47.1168 121.744C47.1909 122.227 47.228 122.45 47.3021 122.933L49.2653 123.341C49.2653 123.936 49.2653 124.159 49.2653 124.79L47.3021 127.167C47.228 127.687 47.1909 127.984 47.1168 128.541L48.5985 129.692C48.4133 130.361 48.3763 130.621 48.1911 131.289L45.9315 133.184C45.7092 133.741 45.5981 134.038 45.4129 134.632L46.3019 136.415C45.9685 137.083 45.8574 137.343 45.524 138.012L43.1534 139.312C42.82 139.869 42.6348 140.166 42.3014 140.686L42.5236 142.951C42.0791 143.583 41.8939 143.806 41.4494 144.437L39.1158 145.031C38.7083 145.514 38.449 145.774 38.0416 146.257L37.5971 148.819C37.0414 149.339 36.8562 149.562 36.3006 150.082L34.2262 149.934C33.7447 150.305 33.4854 150.528 33.0039 150.899L31.9296 153.573C31.337 153.945 31.1147 154.093 30.522 154.502L28.8922 153.573C28.3736 153.833 28.1143 153.945 27.5957 154.205L25.9659 156.767C25.3732 156.99 25.151 157.064 24.5583 157.287L23.4841 155.69C23.0025 155.802 22.7432 155.839 22.2617 155.95L20.1873 158.179C19.6317 158.216 19.4465 158.216 18.8909 158.253L18.4464 156.136C18.0389 156.062 17.7796 156.025 17.3722 155.987L15.0385 157.733C14.594 157.547 14.4088 157.51 13.9643 157.324L14.1865 154.836C13.8532 154.613 13.668 154.502 13.3346 154.279L10.9639 155.356C10.6305 155.022 10.5194 154.873 10.186 154.539L10.5564 152.199C10.3342 151.828 8.29687 151.308 8.29687 151.308C8.11166 150.825 8.07462 150.639 7.88941 150.119L9.37109 147.482C9.29701 147 9.25996 146.777 9.18588 146.294L7.22266 145.885C7.22266 145.291 7.22266 145.068 7.22266 144.437L9.18588 142.06C9.25996 141.54 9.29701 141.243 9.37109 140.686L7.88941 139.534C8.07462 138.866 8.11166 138.606 8.29687 137.937L10.5564 136.043C10.7787 135.486 10.8898 135.189 11.075 134.595L10.186 132.812C10.5194 132.144 10.6305 131.884 10.9639 131.215L13.3346 129.989C13.668 129.432 13.8532 129.135 14.1865 128.615L13.9643 126.35C14.4088 125.718 14.594 125.496 15.0385 124.864L17.3722 124.27C17.7796 123.787 18.0389 123.527 18.4464 123.044L18.8909 120.482C19.4465 119.962 19.6317 119.739 20.1873 119.219L22.2246 119.367C22.7062 118.996 22.9655 118.773 23.447 118.402L24.5212 115.728C25.1139 115.356 25.3362 115.208 25.9288 114.799L27.5587 115.728C28.1143 115.431 28.4107 115.319 28.8922 115.059Z" fill="#1E1E1E"/>
<path d="M42.375 114.465L42.5973 111.977L54.1914 117.659L51.8577 119.367L50.7835 119.219L42.375 114.465Z" fill="#1E1E1E"/>
<path d="M41.5972 121.113L43.2271 118.55C43.8197 118.327 44.042 118.253 44.6347 118.03L45.7089 119.627C46.1904 119.516 46.4497 119.479 46.9313 119.367L49.0056 117.139C49.5612 117.102 49.7464 117.102 50.3021 117.065L50.7466 119.182C51.154 119.256 51.4133 119.293 51.8208 119.33L54.1544 117.585C54.5989 117.77 54.7842 117.807 55.2287 117.993L55.0064 120.482C55.3398 120.704 55.525 120.816 55.8584 121.039L58.2291 119.962C58.5624 120.296 58.6736 120.444 59.0069 120.779L58.1179 123.453C58.3402 123.824 58.4513 124.01 58.6365 124.344L60.8961 123.973C61.0813 124.456 61.1183 124.641 61.3035 125.161L59.8219 127.798C59.8959 128.281 59.933 128.504 60.0071 128.987L61.9703 129.395C61.9703 129.989 61.9703 130.212 61.9703 130.844L60.0071 133.221C59.933 133.741 59.8959 134.038 59.8219 134.595L61.3035 135.746C61.1183 136.415 61.0813 136.675 60.8961 137.343L58.6365 139.237C58.4143 139.794 58.3031 140.091 58.1179 140.686L59.0069 142.468C58.6736 143.137 58.5624 143.397 58.2291 144.065L55.8584 145.365C55.525 145.922 55.3398 146.22 55.0064 146.739L55.2287 149.005C54.7842 149.636 54.5989 149.859 54.1544 150.491L51.8578 151.085C51.4504 151.568 51.1911 151.828 50.7836 152.31L50.3391 154.873C49.7835 155.393 49.5983 155.616 49.0427 156.136L46.9683 155.987C46.4868 156.359 46.2275 156.582 45.7459 156.953L44.6717 159.627C44.079 159.998 43.8568 160.147 43.2641 160.556L41.6343 159.627C41.1157 159.887 40.8564 159.998 40.3378 160.258L38.7079 162.821C38.1153 163.044 37.893 163.118 37.3003 163.341L36.2261 161.744C35.7446 161.855 35.4853 161.893 35.0037 162.004L32.9294 164.232C32.3738 164.27 32.1886 164.27 31.6329 164.307L31.1143 162.19C30.7069 162.115 30.4476 162.078 30.0401 162.041L27.7065 163.787C27.262 163.601 27.0768 163.564 26.6323 163.378L26.8545 160.89C26.5211 160.667 26.3359 160.556 26.0025 160.333L23.6319 161.41C23.2985 161.075 23.1874 160.927 22.854 160.593L23.743 157.919C23.5207 157.547 23.4096 157.361 23.2244 157.027L20.9648 157.399C20.7796 156.916 20.7426 156.73 20.5574 156.21L22.0391 153.573C21.965 153.09 21.9279 152.868 21.8538 152.385L19.8906 151.976C19.8906 151.382 19.8906 151.159 19.8906 150.528L21.8538 148.188C21.9279 147.668 21.965 147.371 22.0391 146.814L20.5574 145.662C20.7426 144.994 20.7796 144.734 20.9648 144.065L23.2244 142.171C23.4467 141.614 23.5578 141.317 23.743 140.723L22.854 138.94C23.1874 138.272 23.2985 138.012 23.6319 137.343L26.0025 136.043C26.3359 135.486 26.5211 135.189 26.8545 134.669L26.6323 132.403C27.0768 131.772 27.262 131.549 27.7065 130.918L30.0401 130.324C30.4476 129.841 30.7069 129.581 31.1143 129.098L31.5588 126.535C32.1145 126.015 32.2997 125.793 32.8553 125.273L34.9297 125.421C35.4112 125.05 35.6705 124.827 36.152 124.456L37.2263 121.781C37.8189 121.41 38.0412 121.262 38.6339 120.853L40.2637 121.781C40.8193 121.521 41.0786 121.373 41.5972 121.113Z" fill="#424242"/>
<path d="M54.1901 134.075C54.1901 126.758 48.2634 123.787 40.9662 127.427C33.6689 131.104 27.7422 140.017 27.7422 147.334C27.7422 154.65 33.6689 157.621 40.9662 153.982C48.2634 150.305 54.1901 141.391 54.1901 134.075Z" fill="#ABABAB"/>
<path d="M45.7831 138.272C45.7831 135.598 43.5976 134.52 40.9306 135.858C38.2636 137.195 36.0781 140.463 36.0781 143.137C36.0781 145.811 38.2636 146.888 40.9306 145.551C43.6347 144.214 45.7831 140.946 45.7831 138.272Z" fill="#D6D6D6"/>
<path d="M44.4131 138.977C44.4131 137.046 42.8573 136.266 40.9312 137.232C39.005 138.197 37.4492 140.537 37.4492 142.468C37.4492 144.4 39.005 145.18 40.9312 144.214C42.8573 143.211 44.4131 140.871 44.4131 138.977Z" fill="#ABABAB"/>
<path d="M44.1519 137.752C44.1519 137.863 44.189 138.012 44.189 138.16C44.189 140.092 42.6332 142.431 40.707 143.397C39.2624 144.14 38.04 143.843 37.4844 142.877C37.6696 144.511 39.1513 145.105 40.9293 144.214C42.8555 143.248 44.4112 140.909 44.4112 138.977C44.4112 138.494 44.3371 138.086 44.1519 137.752Z" fill="#A0A0A0"/>
<path d="M27.707 147.185C28.1145 147.111 28.522 146.962 28.9294 146.739C30.3 146.034 31.5594 144.957 32.4854 143.991C32.7447 143.731 32.967 143.508 33.1522 143.285C33.2633 143.174 33.3374 143.063 33.4115 142.951C33.5226 142.84 33.5967 142.728 33.6708 142.617C33.856 142.394 33.9671 142.171 34.0782 141.986C34.1894 141.763 34.3005 141.577 34.3746 141.354C34.4487 141.131 34.5228 140.908 34.5228 140.723C34.5228 140.611 34.5228 140.537 34.5228 140.426C34.5228 140.314 34.5228 140.24 34.5228 140.129C34.5228 139.943 34.4487 139.72 34.4116 139.497C34.3746 139.274 34.3005 139.089 34.2264 138.866C34.0412 138.42 33.819 138.012 33.5226 137.603C33.2263 137.194 32.8559 136.86 32.3373 136.637C32.0409 136.489 31.7076 136.415 31.3371 136.415C29.1146 139.869 27.7441 143.694 27.707 147.185Z" fill="black"/>
<path d="M46.2652 129.469C46.1911 129.804 46.1541 130.138 46.1171 130.435C46.08 130.732 46.043 131.066 46.043 131.326C46.043 131.586 46.043 131.846 46.043 132.069C46.043 132.329 46.08 132.515 46.1171 132.701C46.1541 132.886 46.1911 133.072 46.2652 133.183C46.3393 133.332 46.4504 133.406 46.5616 133.518C47.0431 133.852 47.7839 133.815 48.8582 133.481C49.3767 133.332 49.9694 133.109 50.5991 132.812C51.2288 132.515 51.8586 132.144 52.5253 131.624C52.9328 131.289 53.3032 130.955 53.6736 130.547C52.7105 127.798 50.5621 126.164 47.7469 125.904C47.4506 126.35 47.1913 126.795 46.969 127.278C46.5986 128.058 46.3763 128.764 46.2652 129.469Z" fill="black"/>
<path d="M34.4844 132.366C34.5955 132.701 34.7437 133.035 34.9659 133.295C35.2993 133.703 35.7438 134.001 36.1883 134.186C36.6328 134.409 37.1144 134.52 37.5589 134.558C38.4849 134.706 39.2257 134.595 39.9666 134.149C40.0777 134.075 40.1518 134.001 40.2259 133.926C40.3 133.852 40.4111 133.778 40.4852 133.703C40.6704 133.555 40.8185 133.332 41.0038 133.146C41.3371 132.775 41.7076 132.181 42.0409 131.624C42.3743 131.066 42.7447 130.361 43.0781 129.692C43.4115 129.024 43.6708 128.281 43.856 127.538C43.9671 127.055 44.0042 126.647 44.0042 126.238C43.004 126.498 42.0039 126.87 40.9297 127.427C38.596 128.615 36.3735 130.324 34.4844 132.366Z" fill="black"/>
<path d="M34.1884 155.505C34.4848 155.059 34.7441 154.613 34.9663 154.13C35.2997 153.388 35.5219 152.645 35.6701 151.939C35.7442 151.605 35.7812 151.271 35.8183 150.973C35.8553 150.676 35.8924 150.342 35.8924 150.082C35.8924 149.822 35.8924 149.562 35.8924 149.339C35.8924 149.079 35.8553 148.894 35.8183 148.708C35.7812 148.522 35.7072 148.337 35.6701 148.225C35.596 148.077 35.4849 148.002 35.3738 147.891C34.8922 147.557 34.1514 147.594 33.0772 147.928C32.5586 148.077 31.9659 148.299 31.3362 148.597C30.7065 148.894 30.0768 149.265 29.41 149.785C29.0026 150.119 28.6321 150.454 28.2617 150.862C29.2248 153.61 31.3732 155.245 34.1884 155.505Z" fill="black"/>
<path d="M54.1907 134.223C53.7833 134.298 53.3758 134.446 52.9683 134.669C51.5978 135.375 50.3384 136.452 49.4123 137.417C49.153 137.677 48.9308 137.9 48.7456 138.123C48.6344 138.234 48.5603 138.346 48.4863 138.457C48.3751 138.569 48.3011 138.68 48.227 138.792C48.0418 139.014 47.9306 139.237 47.8195 139.423C47.7084 139.646 47.5973 139.832 47.5232 140.054C47.4491 140.277 47.375 140.463 47.375 140.649C47.375 140.76 47.375 140.834 47.375 140.946C47.375 141.057 47.375 141.131 47.375 141.243C47.375 141.429 47.4491 141.651 47.4861 141.874C47.5232 142.097 47.5973 142.283 47.6713 142.506C47.8565 142.951 48.0788 143.36 48.3751 143.768C48.6715 144.177 49.0419 144.511 49.5605 144.734C49.8568 144.883 50.1902 144.957 50.5606 144.957C52.7831 141.54 54.1537 137.715 54.1907 134.223Z" fill="black"/>
<path d="M47.4143 149.042C47.3032 148.708 47.155 148.374 46.9328 148.114C46.5994 147.705 46.1549 147.408 45.7104 147.222C45.2659 146.999 44.7843 146.888 44.3398 146.851C43.4138 146.702 42.6729 146.814 41.9321 147.259C41.821 147.334 41.7469 147.408 41.6728 147.482C41.5987 147.557 41.4876 147.631 41.4135 147.705C41.2283 147.854 41.0801 148.076 40.8949 148.262C40.5616 148.634 40.1911 149.228 39.8578 149.785C39.5244 150.342 39.154 151.048 38.8206 151.716C38.4872 152.385 38.2279 153.127 38.0427 153.87C37.9316 154.353 37.8945 154.762 37.8945 155.17C38.8947 154.91 39.8948 154.539 40.969 153.982C43.3027 152.793 45.5252 151.085 47.4143 149.042Z" fill="black"/>
<path d="M40.9662 128.764C47.5226 125.458 52.8937 128.132 52.8937 134.743C52.8937 141.354 47.5596 149.376 40.9662 152.645C34.4097 155.95 29.0387 153.276 29.0387 146.665C29.0387 140.054 34.3727 132.069 40.9662 128.764ZM40.9662 127.427C33.6689 131.104 27.7422 140.017 27.7422 147.334C27.7422 154.65 33.6689 157.621 40.9662 153.982C48.2634 150.305 54.1901 141.391 54.1901 134.075C54.1901 126.721 48.2634 123.75 40.9662 127.427Z" fill="#CCCCCC"/>
<path d="M10.9654 131.289L16.1513 136.415L23.6337 137.38L22.8558 138.977L15.2252 137.937L10.1875 132.923L10.9654 131.289Z" fill="#474747"/>
<path d="M8.25902 138.012L13.8524 142.58L20.9644 144.103L20.557 145.663L13.2597 144.066L7.85156 139.609L8.25902 138.012Z" fill="#474747"/>
<path d="M13.9258 126.35L18.8524 130.918L26.6312 132.404L27.7054 130.918L20.1118 129.507L15.037 124.864L13.9258 126.35Z" fill="#474747"/>
<path d="M18.8555 120.444L23.8561 125.495L31.5609 126.535L32.8573 125.273L25.1896 124.233L20.189 119.182L18.8555 120.444Z" fill="#474747"/>
<path d="M24.5586 115.728L29.0407 119.925L37.2269 121.782L38.6716 120.853L30.226 118.885L25.9662 114.799L24.5586 115.728Z" fill="#474747"/>
<path d="M36.3359 111.085L38.5214 114.799L47.3374 118.959L49.0413 117.139L37.6694 111.011L36.3359 111.085Z" fill="#1E1E1E"/>
<path d="M30.5586 112.497L35.0036 116.025L43.2269 118.55L44.6716 118.068L36.3371 115.468L31.9662 111.977L30.5586 112.497Z" fill="#474747"/>
<path d="M36.3359 111.085L40.9662 114.242L49.0413 117.139L50.3378 117.102L42.0774 114.094L37.6694 111.011L36.3359 111.085Z" fill="#474747"/>
<path d="M41.5234 111.568L46.0055 114.242L54.1918 117.659L55.266 118.03L46.6352 114.094L42.5977 111.977L41.5234 111.568Z" fill="#474747"/>
<path d="M58.1175 120.073L55.1911 118.81L55.043 120.556L55.969 121.299L58.1175 120.073Z" fill="#1E1E1E"/>
<path d="M60.9344 124.047L58.4896 122.524L58.1562 123.49L58.6748 124.381L60.9344 124.047Z" fill="#1E1E1E"/>
<path d="M62.0078 129.432L59.8594 127.835L60.0446 129.024L62.0078 129.432Z" fill="#1E1E1E"/>
<path d="M37.2252 163.341L35.4102 161.93L36.151 161.781L37.2252 163.341Z" fill="#1E1E1E"/>
<path d="M31.5575 164.307L28.8164 162.933L30.0388 162.041L31.113 162.19L31.5575 164.307Z" fill="#1E1E1E"/>
<path d="M26.6312 163.378L13.9258 157.287L15.037 157.696L27.7054 163.75L26.6312 163.378Z" fill="#474747"/>
<path d="M7.22266 144.474L13.5568 149.414L19.891 150.528V151.976L13.5568 150.825L7.22266 145.923V144.474Z" fill="#474747"/>
<path d="M7.85156 150.119L14.5562 154.502L20.557 156.173L20.9644 157.362L14.6673 155.43L8.25902 151.308L7.85156 150.119Z" fill="#474747"/>
<path d="M10.1875 154.502L17.0032 158.067L22.8558 160.593L23.6337 161.41L18.1145 159.256L10.9654 155.356L10.1875 154.502Z" fill="#474747"/>
<path d="M22.8558 160.593L23.7449 157.919L23.2263 157.027L20.9667 157.362L15.3734 155.69L10.4468 152.793L10.1875 154.502L17.6329 158.55L22.8558 160.593Z" fill="#1E1E1E"/>
<path d="M13.9258 157.287L13.9628 156.99L18.1115 159.256L23.6308 161.41L26.0015 160.333L26.8534 160.853L26.6312 163.23L13.9258 157.287Z" fill="#1E1E1E"/>
<path d="M52.4894 113.908V114.019L50.9336 113.462V113.202L52.4894 113.908Z" fill="#FF9006"/>
<path d="M39.8194 107.706C35.6707 105.514 29.8922 105.774 23.4839 109.005C11.3712 115.096 1.44396 129.544 0.703125 141.874L14.0753 148.559C14.7791 136.229 24.7063 121.744 36.8561 115.653C42.8939 112.608 48.4502 112.571 52.5248 114.391L52.4507 114.019L39.8194 107.706Z" fill="#FF9006"/>
<path d="M39.1163 107.26C34.9676 105.069 29.1891 105.329 22.7808 108.56C10.6681 114.614 0.740839 129.061 0 141.392L13.3721 148.114C14.0759 135.783 24.0032 121.299 36.1529 115.208C42.339 112.125 47.9323 111.754 52.0439 113.722L39.1163 107.26Z" fill="#F9A72C"/>
<path d="M48.6719 169.247L144.462 122.933L151.649 119.331L151.797 140.649L52.5242 190.453L48.6719 169.247Z" fill="#597800"/>
<path d="M124.199 58.3468L169.724 35.3201L189.097 108.3L124.199 140.834V58.3468Z" fill="#FF9006"/>
<path d="M128.016 59.6467L167.021 40.1111L180.912 92.4783L128.016 117.733V59.6467Z" fill="#47C6E3"/>
<path d="M172.541 60.3523L167.022 40.1111L158.799 44.1965L138.426 112.757L143.241 110.454L159.984 95.5981L172.541 60.3523Z" fill="#50D2EB"/>
<path d="M128.016 101.095V117.733L130.016 116.842L150.315 48.4675L142.462 52.4044L128.016 101.095Z" fill="#50D2EB"/>
<path d="M124.202 0L73.1211 25.5894L124.202 51.2159L175.246 25.5894L124.202 0Z" fill="#79A60E"/>
<path d="M78.6386 35.3201L59.2656 108.3L124.2 140.834V58.3468L78.6386 35.3201Z" fill="#F99000"/>
<path d="M68.5273 88.5043L81.7513 39.2197L120.349 59.7952V114.094L68.5273 88.5043Z" fill="#67D1F3"/>
<path d="M73.1211 25.5894V32.7202L124.202 58.3467V51.2159L73.1211 25.5894Z" fill="#5D8400"/>
<path d="M175.243 25.5894V32.7202L124.199 58.3467V51.2159L175.243 25.5894Z" fill="#597800"/>
<path d="M124.199 8.87646L96.2695 22.8782L124.199 36.8799L152.092 22.8782L124.199 8.87646Z" fill="#79A60E"/>
<path d="M96.2695 22.8782V25.218L124.199 39.2197V36.8799L96.2695 22.8782Z" fill="#5D8400"/>
<path d="M152.092 22.8782V25.218L124.199 39.2197V36.8799L152.092 22.8782Z" fill="#597800"/>
<path d="M73.1211 25.5894L124.202 52.2558L175.246 25.5894L124.202 50.0645L73.1211 25.5894Z" fill="white"/>
<path d="M120.349 86.1645L88.4186 118.625L71.6016 110.157L120.349 60.6494V71.9028V86.1645Z" fill="#7ADBF4"/>
<path d="M115.125 57.0098L79.1569 93.5183L72.0078 90.25L108.309 53.3701L115.125 57.0098Z" fill="#7ADBF4"/>
<path d="M119.758 52.6271C119.758 50.8073 118.276 48.5789 116.461 47.6875C114.646 46.7962 113.164 47.539 113.164 49.3217C113.164 51.1044 114.646 53.3699 116.461 54.2613C118.276 55.1898 119.758 54.447 119.758 52.6271Z" fill="#FFAC2C"/>
<path d="M111.348 49.9901L113.829 47.7246L118.904 54.4098L114.867 55.3383L111.348 49.9901Z" fill="#FFAC2C"/>
<path d="M115.682 53.8899C115.682 52.5157 114.571 50.8073 113.163 50.1016C111.793 49.396 110.645 49.9902 110.645 51.3644C110.645 52.7386 111.756 54.447 113.163 55.1527C114.571 55.8583 115.682 55.2641 115.682 53.8899Z" fill="#FFC962"/>
<path d="M82.7146 34.0573C82.7146 32.2374 81.2329 30.009 79.4178 29.1177C77.6028 28.2263 76.1211 28.9691 76.1211 30.7518C76.1211 32.5346 77.6028 34.8001 79.4178 35.6914C81.2329 36.5828 82.7146 35.8771 82.7146 34.0573Z" fill="#FFAC2C"/>
<path d="M74.3047 31.4203L76.7865 29.1177L81.8242 35.84L77.8237 36.7685L74.3047 31.4203Z" fill="#FFAC2C"/>
<path d="M78.6393 35.3201C78.6393 33.9459 77.528 32.2375 76.1204 31.5318C74.7499 30.8261 73.6016 31.4204 73.6016 32.7946C73.6016 34.1687 74.7128 35.8772 76.1204 36.5828C77.528 37.2514 78.6393 36.6943 78.6393 35.3201Z" fill="#FFC962"/>
<path d="M168.355 115.542L163.095 119.182L150.797 47.1305L156.205 44.345L168.355 115.542Z" fill="#FF9006"/>
<path d="M168.911 100.649L170.986 97.418C171.726 97.158 172.023 97.0466 172.764 96.7867L174.134 98.7922C174.727 98.6808 175.06 98.6065 175.69 98.4579L178.283 95.6353C178.987 95.5982 179.246 95.5982 179.913 95.561L180.468 98.2351C180.987 98.3094 181.283 98.3465 181.839 98.4208L184.765 96.2296C185.358 96.4524 185.543 96.5267 186.136 96.7495L185.839 99.9064C186.247 100.166 186.469 100.315 186.877 100.612L189.877 99.2379C190.285 99.6836 190.433 99.8321 190.84 100.278L189.729 103.62C189.988 104.066 190.136 104.289 190.396 104.735L193.248 104.289C193.47 104.92 193.544 105.143 193.766 105.775L191.914 109.08C191.988 109.674 192.063 109.971 192.137 110.566L194.581 111.086C194.581 111.865 194.581 112.125 194.581 112.905L192.137 115.877C192.063 116.545 191.988 116.916 191.914 117.585L193.766 118.996C193.544 119.851 193.47 120.148 193.248 121.002L190.396 123.416C190.136 124.122 189.988 124.493 189.729 125.236L190.84 127.464C190.433 128.318 190.285 128.616 189.877 129.47L186.877 131.104C186.469 131.81 186.247 132.144 185.839 132.849L186.136 135.709C185.543 136.489 185.358 136.786 184.765 137.566L181.839 138.309C181.32 138.903 181.024 139.238 180.468 139.869L179.913 143.1C179.209 143.769 178.95 144.029 178.283 144.697L175.69 144.474C175.097 144.957 174.764 145.217 174.134 145.7L172.764 149.08C172.023 149.562 171.726 149.748 170.986 150.231L168.911 149.08C168.282 149.414 167.948 149.562 167.318 149.897L165.244 153.128C164.503 153.388 164.207 153.499 163.466 153.759L162.096 151.754C161.503 151.865 161.17 151.939 160.54 152.088L157.947 154.911C157.243 154.948 156.984 154.948 156.317 154.985L155.761 152.311C155.243 152.236 154.946 152.199 154.391 152.125L151.465 154.316C150.872 154.093 150.687 154.019 150.094 153.796L150.39 150.639C149.983 150.38 149.761 150.231 149.353 149.934L146.353 151.308C145.945 150.862 145.797 150.714 145.39 150.268L145.834 147.334C145.575 146.888 142.982 146.22 142.982 146.22C142.76 145.588 142.686 145.366 142.463 144.734L144.315 141.429C144.241 140.835 144.167 140.537 144.093 139.943L141.648 139.423C141.648 138.643 141.648 138.383 141.648 137.603L144.093 134.632C144.167 133.964 144.241 133.592 144.315 132.924L142.463 131.512C142.686 130.658 142.76 130.361 142.982 129.507L145.834 127.093C146.093 126.387 146.242 126.016 146.501 125.273L145.39 123.045C145.797 122.19 145.945 121.893 146.353 121.039L149.353 119.405C149.761 118.699 149.983 118.365 150.39 117.659L150.094 114.799C150.687 114.02 150.872 113.722 151.465 112.942L154.391 112.2C154.909 111.605 155.206 111.271 155.761 110.64L156.317 107.409C157.021 106.74 157.28 106.48 157.947 105.812L160.54 106.034C161.132 105.552 161.466 105.292 162.096 104.809L163.466 101.429C164.207 100.946 164.503 100.761 165.244 100.278L167.318 101.429C167.948 101.169 168.282 100.983 168.911 100.649Z" fill="#1E1E1E"/>
<path d="M185.84 99.9435L186.136 96.7866L200.731 103.917L197.804 106.072L196.434 105.886L185.84 99.9435Z" fill="#1E1E1E"/>
<path d="M184.876 108.3L186.951 105.069C187.691 104.809 187.988 104.698 188.729 104.438L190.099 106.443C190.692 106.332 191.025 106.257 191.655 106.109L194.248 103.286C194.952 103.249 195.211 103.249 195.878 103.212L196.433 105.886C196.952 105.96 197.248 105.997 197.804 106.072L200.73 103.88C201.323 104.103 201.508 104.178 202.101 104.4L201.804 107.557C202.212 107.817 202.434 107.966 202.842 108.263L205.842 106.889C206.249 107.334 206.398 107.483 206.805 107.929L205.694 111.271C205.953 111.717 206.101 111.94 206.36 112.385L209.213 111.94C209.435 112.571 209.509 112.794 209.731 113.425L207.879 116.731C207.953 117.325 208.027 117.622 208.101 118.216L210.546 118.736C210.546 119.516 210.546 119.776 210.546 120.556L208.101 123.527C208.027 124.196 207.953 124.567 207.879 125.236L209.731 126.647C209.509 127.501 209.435 127.799 209.213 128.653L206.36 131.067C206.101 131.772 205.953 132.144 205.694 132.887L206.805 135.115C206.398 135.969 206.249 136.266 205.842 137.121L202.842 138.755C202.434 139.46 202.212 139.795 201.804 140.5L202.101 143.36C201.508 144.14 201.323 144.437 200.73 145.217L197.804 145.96C197.285 146.554 196.989 146.888 196.433 147.52L195.878 150.751C195.174 151.419 194.915 151.679 194.248 152.348L191.655 152.125C191.062 152.608 190.729 152.868 190.099 153.351L188.729 156.73C187.988 157.213 187.691 157.399 186.951 157.882L184.876 156.73C184.246 157.065 183.913 157.213 183.283 157.548L181.209 160.779C180.468 161.039 180.172 161.15 179.431 161.41L178.06 159.405C177.468 159.516 177.134 159.59 176.505 159.739L173.912 162.561C173.208 162.599 172.949 162.599 172.282 162.636L171.726 159.962C171.208 159.887 170.911 159.85 170.356 159.776L167.429 161.93C166.837 161.707 166.652 161.633 166.059 161.41L166.355 158.253C165.948 157.993 165.725 157.845 165.318 157.548L162.318 158.922C161.91 158.476 161.762 158.327 161.355 157.882L162.466 154.539C162.206 154.094 162.058 153.871 161.799 153.425L158.947 153.871C158.725 153.239 158.65 153.016 158.428 152.385L160.28 149.08C160.206 148.485 160.132 148.188 160.058 147.594L157.613 147.074C157.613 146.294 157.613 146.034 157.613 145.254L160.058 142.283C160.132 141.615 160.206 141.243 160.28 140.575L158.428 139.163C158.65 138.309 158.725 138.012 158.947 137.158L161.799 134.744C162.058 134.038 162.206 133.667 162.466 132.924L161.355 130.695C161.762 129.841 161.91 129.544 162.318 128.69L165.318 127.056C165.725 126.35 165.948 126.016 166.355 125.31L166.059 122.45C166.652 121.67 166.837 121.373 167.429 120.593L170.356 119.851C170.874 119.256 171.171 118.922 171.726 118.291L172.282 115.06C172.986 114.391 173.245 114.131 173.912 113.463L176.505 113.685C177.097 113.203 177.431 112.943 178.06 112.46L179.431 109.08C180.172 108.597 180.468 108.411 181.209 107.929L183.283 109.08C183.913 108.783 184.246 108.597 184.876 108.3Z" fill="#424242"/>
<path d="M200.693 124.567C200.693 115.357 193.248 111.606 184.062 116.211C174.875 120.816 167.43 132.032 167.43 141.243C167.43 150.454 174.875 154.205 184.062 149.6C193.248 144.994 200.693 133.778 200.693 124.567Z" fill="#ABABAB"/>
<path d="M190.173 129.841C190.173 126.461 187.432 125.087 184.098 126.796C180.727 128.467 178.023 132.59 178.023 135.969C178.023 139.349 180.765 140.723 184.098 139.015C187.432 137.343 190.173 133.221 190.173 129.841Z" fill="#D6D6D6"/>
<path d="M188.433 130.733C188.433 128.318 186.47 127.316 184.062 128.541C181.655 129.767 179.691 132.701 179.691 135.115C179.691 137.529 181.655 138.532 184.062 137.306C186.47 136.081 188.433 133.147 188.433 130.733Z" fill="#ABABAB"/>
<path d="M188.098 129.21C188.135 129.358 188.135 129.544 188.135 129.693C188.135 132.107 186.172 135.041 183.764 136.266C181.949 137.195 180.393 136.861 179.727 135.598C179.986 137.64 181.838 138.42 184.06 137.306C186.468 136.081 188.431 133.147 188.431 130.732C188.431 130.138 188.32 129.618 188.098 129.21Z" fill="#A0A0A0"/>
<path d="M167.43 141.057C167.911 140.946 168.43 140.76 168.985 140.5C170.689 139.609 172.282 138.235 173.43 137.046C173.727 136.749 174.023 136.452 174.282 136.155C174.394 136.006 174.505 135.858 174.616 135.746C174.727 135.598 174.838 135.449 174.949 135.338C175.171 135.078 175.32 134.781 175.468 134.521C175.616 134.261 175.764 134.001 175.838 133.741C175.912 133.481 175.986 133.221 176.023 132.961C176.023 132.849 176.023 132.701 176.023 132.589C176.023 132.478 176.023 132.329 176.023 132.218C176.023 131.958 175.949 131.698 175.875 131.438C175.801 131.178 175.727 130.918 175.616 130.658C175.394 130.138 175.134 129.581 174.727 129.098C174.357 128.615 173.875 128.17 173.245 127.873C172.875 127.687 172.43 127.613 171.986 127.575C169.208 131.847 167.467 136.675 167.43 141.057Z" fill="black"/>
<path d="M190.731 118.773C190.657 119.182 190.583 119.59 190.546 119.999C190.509 120.37 190.471 120.779 190.434 121.113C190.397 121.447 190.434 121.782 190.434 122.079C190.434 122.376 190.471 122.673 190.509 122.896C190.583 123.119 190.62 123.342 190.731 123.527C190.805 123.713 190.953 123.824 191.101 123.973C191.694 124.382 192.657 124.344 193.99 123.899C194.62 123.713 195.361 123.416 196.176 123.044C196.954 122.673 197.769 122.19 198.584 121.522C199.102 121.113 199.584 120.668 200.028 120.185C198.843 116.731 196.139 114.688 192.583 114.354C192.212 114.911 191.879 115.468 191.62 116.099C191.175 116.991 190.916 117.919 190.731 118.773Z" fill="black"/>
<path d="M175.914 122.45C176.025 122.896 176.247 123.267 176.507 123.601C176.951 124.121 177.47 124.493 178.025 124.716C178.618 124.976 179.211 125.124 179.766 125.198C180.915 125.384 181.878 125.273 182.804 124.716C182.915 124.641 183.026 124.53 183.137 124.456C183.248 124.381 183.359 124.27 183.471 124.196C183.693 124.01 183.915 123.713 184.137 123.49C184.582 123.007 185.026 122.302 185.471 121.596C185.915 120.89 186.36 119.999 186.767 119.182C187.175 118.328 187.508 117.399 187.73 116.471C187.879 115.876 187.916 115.319 187.916 114.799C186.693 115.134 185.397 115.616 184.063 116.285C181.1 117.696 178.322 119.887 175.914 122.45Z" fill="black"/>
<path d="M175.543 151.531C175.914 150.974 176.247 150.417 176.506 149.785C176.951 148.82 177.21 147.891 177.395 147.037C177.469 146.628 177.543 146.22 177.58 145.811C177.617 145.44 177.654 145.031 177.692 144.697C177.729 144.363 177.692 144.029 177.692 143.731C177.692 143.434 177.654 143.137 177.617 142.914C177.543 142.692 177.506 142.469 177.395 142.283C177.321 142.097 177.173 141.986 177.025 141.837C176.432 141.429 175.469 141.466 174.135 141.912C173.506 142.097 172.765 142.394 171.95 142.766C171.172 143.137 170.357 143.62 169.542 144.289C169.024 144.697 168.542 145.143 168.098 145.626C169.32 149.117 172.024 151.197 175.543 151.531Z" fill="black"/>
<path d="M200.695 124.79C200.214 124.901 199.695 125.087 199.14 125.347C197.436 126.238 195.843 127.613 194.695 128.801C194.398 129.098 194.102 129.395 193.843 129.693C193.731 129.841 193.62 129.99 193.509 130.101C193.398 130.25 193.287 130.398 193.176 130.51C192.954 130.77 192.805 131.067 192.657 131.327C192.509 131.587 192.361 131.847 192.287 132.107C192.213 132.367 192.139 132.627 192.102 132.887C192.102 132.998 192.102 133.147 192.102 133.258C192.102 133.369 192.102 133.518 192.102 133.629C192.102 133.889 192.176 134.149 192.25 134.409C192.324 134.669 192.398 134.929 192.509 135.189C192.731 135.709 192.991 136.266 193.398 136.749C193.768 137.232 194.25 137.678 194.88 137.975C195.25 138.16 195.695 138.235 196.139 138.272C198.954 133.964 200.658 129.173 200.695 124.79Z" fill="black"/>
<path d="M192.213 143.397C192.101 142.952 191.879 142.58 191.62 142.246C191.175 141.726 190.657 141.355 190.101 141.132C189.508 140.872 188.916 140.723 188.36 140.649C187.212 140.463 186.249 140.575 185.323 141.132C185.212 141.206 185.1 141.317 184.989 141.392C184.878 141.466 184.767 141.577 184.656 141.652C184.434 141.837 184.211 142.134 183.989 142.357C183.545 142.84 183.1 143.546 182.656 144.251C182.211 144.957 181.767 145.848 181.359 146.666C180.952 147.52 180.618 148.448 180.396 149.377C180.248 149.971 180.211 150.528 180.211 151.048C181.433 150.714 182.73 150.231 184.063 149.562C187.027 148.114 189.805 145.96 192.213 143.397Z" fill="black"/>
<path d="M184.062 117.882C192.322 113.723 199.026 117.102 199.026 125.384C199.026 133.667 192.322 143.769 184.062 147.928C175.801 152.088 169.097 148.708 169.097 140.426C169.097 132.144 175.801 122.042 184.062 117.882ZM184.062 116.211C174.875 120.816 167.43 132.032 167.43 141.243C167.43 150.454 174.875 154.205 184.062 149.6C193.248 144.994 200.693 133.778 200.693 124.567C200.693 115.357 193.248 111.606 184.062 116.211Z" fill="#CCCCCC"/>
<path d="M146.352 121.076L152.908 127.501L162.28 128.727L161.317 130.733L151.686 129.433L145.352 123.119L146.352 121.076Z" fill="#474747"/>
<path d="M142.983 129.544L150.021 135.301L158.911 137.158L158.43 139.163L149.244 137.158L142.465 131.549L142.983 129.544Z" fill="#474747"/>
<path d="M150.094 114.874L156.28 120.593L166.059 122.488L167.429 120.593L157.836 118.811L151.464 112.98L150.094 114.874Z" fill="#474747"/>
<path d="M156.281 107.446L162.541 113.76L172.246 115.06L173.913 113.5L164.245 112.2L157.948 105.886L156.281 107.446Z" fill="#474747"/>
<path d="M163.465 101.466L169.095 106.777L179.393 109.117L181.208 107.966L170.577 105.477L165.243 100.315L163.465 101.466Z" fill="#474747"/>
<path d="M178.281 95.6724L181.022 100.315L192.135 105.589L194.246 103.286L179.948 95.5981L178.281 95.6724Z" fill="#1E1E1E"/>
<path d="M170.984 97.4551L176.578 101.875L186.949 105.069L188.727 104.437L178.282 101.169L172.762 96.8237L170.984 97.4551Z" fill="#474747"/>
<path d="M178.281 95.6724L184.06 99.6093L194.246 103.286L195.876 103.212L185.504 99.4607L179.948 95.5981L178.281 95.6724Z" fill="#474747"/>
<path d="M184.766 96.2666L190.396 99.6463L200.731 103.917L202.101 104.4L191.248 99.4606L186.136 96.7866L184.766 96.2666Z" fill="#474747"/>
<path d="M205.657 106.963L201.99 105.403L201.805 107.557L202.99 108.486L205.657 106.963Z" fill="#1E1E1E"/>
<path d="M209.214 111.94L206.103 110.046L205.695 111.271L206.362 112.385L209.214 111.94Z" fill="#1E1E1E"/>
<path d="M210.548 118.736L207.844 116.731L208.103 118.216L210.548 118.736Z" fill="#1E1E1E"/>
<path d="M179.394 161.373L177.098 159.59L178.024 159.405L179.394 161.373Z" fill="#1E1E1E"/>
<path d="M172.244 162.599L168.836 160.853L170.318 159.739L171.688 159.924L172.244 162.599Z" fill="#1E1E1E"/>
<path d="M166.059 161.41L150.094 153.796L151.464 154.279L167.429 161.93L166.059 161.41Z" fill="#474747"/>
<path d="M141.648 137.641L149.612 143.843L157.614 145.291V147.074L149.612 145.663L141.648 139.46V137.641Z" fill="#474747"/>
<path d="M142.465 144.771L150.91 150.268L158.43 152.385L158.911 153.871L151.022 151.457L142.983 146.257L142.465 144.771Z" fill="#474747"/>
<path d="M145.352 150.268L153.982 154.725L161.317 157.919L162.28 158.959L155.316 156.248L146.352 151.308L145.352 150.268Z" fill="#474747"/>
<path d="M161.317 157.919L162.428 154.539L161.761 153.425L158.909 153.871L151.908 151.754L145.685 148.114L145.352 150.268L154.723 155.356L161.317 157.919Z" fill="#1E1E1E"/>
<path d="M150.094 153.796L150.131 153.388L155.317 156.248L162.281 158.959L165.281 157.585L166.355 158.253L166.059 161.262L150.094 153.796Z" fill="#1E1E1E"/>
<path d="M126.758 129.024L138.871 123.639C138.871 123.639 141.463 108.671 151.687 92.6641C160.207 79.2937 177.505 73.0171 177.505 73.0171L183.358 93.184L148.835 127.836L127.128 138.086L126.758 129.024Z" fill="#FF9006"/>
<path d="M190.584 91.847C185.324 89.0615 177.989 89.3958 169.877 93.4812C154.505 101.206 141.91 119.516 140.984 135.189L157.95 143.694C158.839 128.021 171.433 109.674 186.842 101.949C194.695 98.0123 201.437 97.678 206.66 100.129V99.7578L190.584 91.847Z" fill="#FF9006"/>
<path d="M189.693 91.2899C184.433 88.5044 177.099 88.8387 168.986 92.9241C153.614 100.649 141.02 118.959 140.094 134.632L157.059 143.137C157.948 127.464 170.542 109.117 185.952 101.392C193.805 97.4551 200.917 97.0094 206.14 99.4978L189.693 91.2899Z" fill="#F9A72C"/>
<path opacity="0.5" d="M161.243 127.613C166.318 116.731 175.504 106.592 185.95 101.355C193.803 97.418 200.915 96.9723 206.138 99.4607L189.691 91.2899C184.431 88.5044 177.097 88.8387 168.985 92.9241C159.317 97.7522 150.76 106.814 145.5 116.731C145.5 124.382 155.057 130.955 161.243 127.613Z" fill="#EFBB2A"/>
<path d="M126.609 139.349L142.797 131.327L148.094 133.964L131.943 142.06L126.609 139.349Z" fill="#256E8D"/>
<path d="M131.945 142.06V150.417L148.096 142.432V133.964L131.945 142.06Z" fill="#124F67"/>
<path d="M131.945 150.417L148.133 142.357L153.43 144.994L137.279 153.091L131.945 150.417Z" fill="#256E8D"/>
<path d="M137.281 153.091V161.447L153.432 153.462V144.994L137.281 153.091Z" fill="#124F67"/>
<path d="M137.277 161.447L153.465 153.388L158.762 156.025L142.611 164.121L137.277 161.447Z" fill="#256E8D"/>
<path d="M126.609 139.349V140.24L131.128 142.543L131.054 151.048L136.314 153.722L136.426 162.338L142.612 165.458V164.121L137.277 161.447V153.091L131.943 150.417V142.06L126.609 139.349Z" fill="#003548"/>
<path d="M142.613 164.121V165.458L158.764 157.176V156.025L142.613 164.121Z" fill="#124F67"/>
<path d="M154.056 94.8182L155.39 96.6381C155.501 96.8238 155.723 96.8609 155.871 96.7495L162.094 91.3271C162.354 91.1042 162.057 90.5843 161.724 90.7328L154.13 94.2611C153.945 94.3354 153.908 94.6325 154.056 94.8182Z" fill="#256E8D"/>
<path opacity="0.7" d="M156.984 142.914C156.984 142.914 157.429 126.164 171.357 111.754C179.876 102.915 189.989 99.3862 189.989 99.3862C189.989 99.3862 179.135 104.177 171.838 112.088C158.762 126.164 156.984 142.914 156.984 142.914Z" fill="white"/>
<path d="M112.867 110.38L66.6387 133.332C59.6748 136.786 55.3409 143.917 55.415 151.679L55.6743 174.409L112.571 145.885L112.867 110.38Z" fill="#FF9006"/>
<path d="M55.7104 174.409L55.4512 151.679C55.34 143.917 59.711 136.786 66.6749 133.332L112.903 110.38L73.6017 90.9927L27.5215 113.871C20.5576 117.325 16.2237 124.456 16.2978 132.218L16.5571 154.948L55.7104 174.409Z" fill="#F9A72C"/>
<path opacity="0.5" d="M73.564 91.0298L65.8222 94.8552C5.7031 122.487 49.0422 131.809 74.1937 125.904C95.6039 120.89 112.828 110.38 112.828 110.38L73.564 91.0298Z" fill="#EFBB2A"/>
<path opacity="0.7" d="M112.868 110.788L79.6786 127.056L71.3441 131.141L67.1954 133.184C65.8249 133.852 64.4543 134.632 63.269 135.598C62.0466 136.563 60.9353 137.64 59.9722 138.829L59.2684 139.757C59.0462 140.092 58.8239 140.389 58.6387 140.723L58.4906 140.983L58.3424 141.243L58.0461 141.763C57.9349 141.949 57.8609 142.097 57.7497 142.283L57.4904 142.803C56.8237 144.177 56.268 145.663 55.9717 147.185C55.6383 148.708 55.4531 150.231 55.4531 151.791C55.4531 150.231 55.6013 148.671 55.8976 147.185C56.194 145.663 56.7496 144.177 57.3793 142.803L57.6386 142.283C57.7127 142.097 57.8238 141.949 57.9349 141.763L58.1942 141.132L58.3424 140.872L58.4906 140.612C58.7128 140.277 58.898 139.943 59.1203 139.646L59.8241 138.718C60.7872 137.492 61.8984 136.415 63.1208 135.449C64.3432 134.484 65.6767 133.704 67.0843 132.998L71.233 130.918L79.5304 126.758L112.461 110.194L112.868 110.38V110.788Z" fill="white"/>
<path d="M23.707 133.629V154.948L48.5992 167.464L48.6733 146.146L23.707 133.629Z" fill="#124F67"/>
<path d="M47.0075 147.854L25.375 137.009V136.118L47.0075 146.963V147.854Z" fill="#256E8D"/>
<path d="M47.0075 149.302L25.375 138.458V137.566L47.0075 148.374V149.302Z" fill="#256E8D"/>
<path d="M47.0075 150.714L25.375 139.869V138.978L47.0075 149.822V150.714Z" fill="#256E8D"/>
<path d="M47.0075 152.125L25.375 141.317V140.389L47.0075 151.234V152.125Z" fill="#256E8D"/>
<path d="M47.0075 153.573L25.375 142.729V141.837L47.0075 152.682V153.573Z" fill="#256E8D"/>
<path d="M47.0075 154.985L25.375 144.14V143.249L47.0075 154.093V154.985Z" fill="#256E8D"/>
<path d="M47.0075 156.433L25.375 145.588V144.697L47.0075 155.505V156.433Z" fill="#256E8D"/>
<path d="M47.0075 157.845L25.375 147V146.108L47.0075 156.953V157.845Z" fill="#256E8D"/>
<path d="M47.0075 159.256L25.375 148.411V147.52L47.0075 158.364V159.256Z" fill="#256E8D"/>
<path d="M47.0075 160.704L25.375 149.859V148.968L47.0075 159.813V160.704Z" fill="#256E8D"/>
<path d="M47.0075 162.116L25.375 151.271V150.379L47.0075 161.224V162.116Z" fill="#256E8D"/>
<path d="M47.0075 163.527L25.375 152.719V151.828L47.0075 162.636V163.527Z" fill="#256E8D"/>
<path d="M47.0075 164.975L25.375 154.131V153.239L47.0075 164.084V164.975Z" fill="#256E8D"/>
<path d="M55.5271 149.6L52.1562 147.891V155.579L55.5271 157.213V149.6Z" fill="white"/>
<path d="M52.1561 157.362L55.5269 159.107L55.564 163.861L52.082 162.115L52.1561 157.362Z" fill="#FFC962"/>
<path d="M19.818 131.587L16.4102 129.915V137.603L19.781 139.237L19.818 131.587Z" fill="white"/>
<path d="M16.4102 139.386L19.8551 141.169L19.8921 145.923L16.4102 144.177V139.386Z" fill="#FFC962"/>
<path d="M126.609 139.349L116.496 144.474L117.422 144.92L126.609 140.24V139.349Z" fill="#597800"/>
<path d="M123.907 140.723L112.683 135.078L105.016 138.754L116.499 144.474L123.907 140.723Z" fill="#79A60E"/>
<path d="M16.5935 154.948L5.70312 160.37L45.0417 179.98L55.7098 174.409L16.5935 154.948Z" fill="#79A60E"/>
<path d="M5.70312 160.37V174.112L45.1528 193.982L45.1898 179.497L5.70312 160.37Z" fill="#5D8400"/>
<path d="M116.535 144.474L116.906 147.482L109.016 143.62L112.609 143.211L116.535 144.474Z" fill="#4D6000"/>
<path d="M45.043 179.98L55.7111 174.409L55.7481 188.893L45.1541 193.982L45.043 179.98Z" fill="#597800"/>
<path d="M92.9391 145.625L94.5689 143.063C95.1616 142.84 95.3838 142.766 95.9765 142.543L97.0507 144.14C97.5323 144.028 97.7916 143.991 98.2731 143.88L100.347 141.651C100.903 141.614 101.088 141.614 101.644 141.577L102.088 143.694C102.496 143.768 102.755 143.806 103.163 143.843L105.496 142.097C105.941 142.283 106.126 142.32 106.571 142.506L106.348 144.994C106.682 145.217 106.867 145.328 107.2 145.551L109.571 144.474C109.904 144.808 110.015 144.957 110.349 145.291L109.46 147.965C109.682 148.337 109.793 148.522 109.978 148.857L112.238 148.485C112.423 148.968 112.46 149.154 112.645 149.674L111.164 152.311C111.238 152.793 111.275 153.016 111.349 153.499L113.312 153.908C113.312 154.502 113.312 154.725 113.312 155.356L111.349 157.733C111.275 158.253 111.238 158.55 111.164 159.107L112.645 160.259C112.46 160.927 112.423 161.187 112.238 161.856L109.978 163.75C109.756 164.307 109.645 164.604 109.46 165.198L110.349 166.981C110.015 167.649 109.904 167.909 109.571 168.578L107.2 169.878C106.867 170.435 106.682 170.732 106.348 171.252L106.571 173.517C106.126 174.149 105.941 174.372 105.496 175.003L103.163 175.597C102.755 176.08 102.496 176.34 102.088 176.823L101.644 179.386C101.088 179.906 100.903 180.128 100.347 180.648L98.2731 180.5C97.7916 180.871 97.5323 181.094 97.0507 181.465L95.9765 184.139C95.3838 184.511 95.1616 184.659 94.5689 185.068L92.9391 184.139C92.4205 184.399 92.1612 184.511 91.6426 184.771L90.0128 187.333C89.4201 187.556 89.1978 187.631 88.6052 187.853L87.5309 186.256C87.0494 186.368 86.7901 186.405 86.3086 186.516L84.2342 188.745C83.6786 188.782 83.4934 188.782 82.9377 188.819L82.4932 186.702C82.0858 186.628 81.8265 186.591 81.419 186.554L79.0854 188.299C78.6409 188.113 78.4557 188.076 78.0112 187.891L78.2334 185.402C77.9 185.179 77.7148 185.068 77.3815 184.845L75.0108 185.922C74.6774 185.588 74.5663 185.439 74.2329 185.105L74.6033 182.765C74.3811 182.394 72.3438 181.874 72.3438 181.874C72.1585 181.391 72.1215 181.205 71.9363 180.685L73.418 178.049C73.3439 177.566 73.3068 177.343 73.2328 176.86L71.2695 176.451C71.2695 175.857 71.2695 175.634 71.2695 175.003L73.2328 172.626C73.3068 172.106 73.3439 171.809 73.418 171.252L71.9363 170.101C72.1215 169.432 72.1585 169.172 72.3438 168.504L74.6033 166.609C74.8256 166.052 74.9367 165.755 75.1219 165.161L74.2329 163.378C74.5663 162.71 74.6774 162.45 75.0108 161.781L77.3815 160.481C77.7148 159.924 77.9 159.627 78.2334 159.107L78.0112 156.842C78.4557 156.21 78.6409 155.987 79.0854 155.356L81.419 154.762C81.8265 154.279 82.0858 154.019 82.4932 153.536L82.9377 150.974C83.4934 150.454 83.6786 150.231 84.2342 149.711L86.3086 149.859C86.7901 149.488 87.0494 149.265 87.5309 148.894L88.6052 146.22C89.1978 145.848 89.4201 145.7 90.0128 145.291L91.6426 146.22C92.1612 145.997 92.4575 145.848 92.9391 145.625Z" fill="#1E1E1E"/>
<path d="M106.422 145.031L106.644 142.543L118.238 148.188L115.905 149.934L114.83 149.785L106.422 145.031Z" fill="#1E1E1E"/>
<path d="M105.644 151.679L107.274 149.116C107.867 148.894 108.089 148.819 108.682 148.596L109.756 150.194C110.237 150.082 110.497 150.045 110.978 149.934L113.053 147.705C113.608 147.668 113.793 147.668 114.349 147.631L114.831 149.785C115.238 149.859 115.497 149.896 115.905 149.934L118.238 148.188C118.683 148.374 118.868 148.411 119.313 148.596L119.09 151.085C119.424 151.308 119.609 151.419 119.942 151.642L122.313 150.565C122.646 150.899 122.758 151.048 123.091 151.382L122.202 154.056C122.424 154.427 122.535 154.613 122.721 154.947L124.98 154.576C125.165 155.059 125.202 155.245 125.388 155.764L123.906 158.401C123.98 158.884 124.017 159.107 124.091 159.59L126.054 159.998C126.054 160.593 126.054 160.816 126.054 161.447L124.091 163.787C124.017 164.307 123.98 164.604 123.906 165.161L125.388 166.312C125.202 166.981 125.165 167.241 124.98 167.909L122.721 169.803C122.498 170.36 122.387 170.658 122.202 171.252L123.091 173.035C122.758 173.703 122.646 173.963 122.313 174.632L119.942 175.931C119.609 176.489 119.424 176.786 119.09 177.306L119.313 179.571C118.868 180.203 118.683 180.425 118.238 181.057L115.905 181.651C115.497 182.134 115.238 182.394 114.831 182.877L114.386 185.439C113.83 185.959 113.645 186.182 113.09 186.702L111.015 186.553C110.534 186.925 110.274 187.148 109.793 187.519L108.719 190.193C108.126 190.565 107.904 190.713 107.311 191.122L105.681 190.193C105.163 190.453 104.903 190.565 104.385 190.825L102.755 193.387C102.162 193.61 101.94 193.684 101.347 193.907L100.273 192.31C99.7916 192.422 99.5323 192.459 99.0508 192.57L96.9764 194.799C96.4208 194.836 96.2356 194.836 95.6799 194.873L95.2354 192.756C94.828 192.682 94.5687 192.644 94.1612 192.607L91.8276 194.353C91.3831 194.167 91.1979 194.13 90.7534 193.944L90.9756 191.456C90.6422 191.233 90.457 191.122 90.1236 190.899L87.753 191.976C87.4196 191.642 87.3085 191.493 86.9751 191.159L87.8641 188.485C87.6418 188.113 87.5307 187.928 87.3455 187.593L85.0859 187.965C84.9007 187.482 84.8637 187.296 84.6785 186.776L86.1602 184.139C86.0861 183.657 86.049 183.434 85.9749 182.951L84.0117 182.542C84.0117 181.948 84.0117 181.725 84.0117 181.094L85.9749 178.717C86.049 178.197 86.0861 177.9 86.1602 177.343L84.6785 176.191C84.8637 175.523 84.9007 175.263 85.0859 174.594L87.3455 172.7C87.5677 172.143 87.6789 171.846 87.8641 171.252L86.9751 169.469C87.3085 168.801 87.4196 168.541 87.753 167.872L90.1236 166.572C90.457 166.015 90.6422 165.718 90.9756 165.198L90.7534 162.932C91.1979 162.301 91.3831 162.078 91.8276 161.447L94.1612 160.853C94.5687 160.37 94.828 160.11 95.2354 159.627L95.6799 157.064C96.2356 156.544 96.4208 156.322 96.9764 155.802L98.9767 155.987C99.4582 155.616 99.7175 155.393 100.199 155.022L101.273 152.348C101.866 151.976 102.088 151.828 102.681 151.419L104.311 152.348C104.866 152.051 105.126 151.939 105.644 151.679Z" fill="#424242"/>
<path d="M118.237 164.604C118.237 157.287 112.31 154.316 105.013 157.956C97.7158 161.633 91.7891 170.546 91.7891 177.863C91.7891 185.179 97.7158 188.15 105.013 184.511C112.31 180.871 118.237 171.957 118.237 164.604Z" fill="#ABABAB"/>
<path d="M109.83 168.838C109.83 166.164 107.645 165.087 104.977 166.424C102.31 167.761 100.125 171.029 100.125 173.703C100.125 176.377 102.31 177.454 104.977 176.117C107.682 174.78 109.83 171.512 109.83 168.838Z" fill="#D6D6D6"/>
<path d="M108.46 169.506C108.46 167.575 106.904 166.795 104.978 167.761C103.052 168.726 101.496 171.066 101.496 172.997C101.496 174.929 103.052 175.709 104.978 174.743C106.904 173.777 108.46 171.437 108.46 169.506Z" fill="#ABABAB"/>
<path d="M108.199 168.318C108.199 168.429 108.236 168.578 108.236 168.726C108.236 170.658 106.68 172.998 104.754 173.963C103.309 174.706 102.087 174.409 101.531 173.443C101.716 175.077 103.198 175.672 104.976 174.78C106.902 173.815 108.458 171.475 108.458 169.543C108.458 169.024 108.384 168.615 108.199 168.318Z" fill="#A0A0A0"/>
<path d="M91.7539 177.714C92.1614 177.64 92.5688 177.492 92.9763 177.269C94.3468 176.563 95.6063 175.486 96.5323 174.52C96.7916 174.26 97.0139 174.038 97.1991 173.815C97.3102 173.703 97.3843 173.592 97.4584 173.48C97.5695 173.369 97.6436 173.258 97.7177 173.146C97.9029 172.923 98.014 172.701 98.1251 172.515C98.2362 172.292 98.3474 172.106 98.4215 171.883C98.4955 171.661 98.5696 171.475 98.5696 171.289C98.5696 171.178 98.5696 171.103 98.5696 170.992C98.5696 170.881 98.5696 170.806 98.5696 170.695C98.5696 170.509 98.4955 170.286 98.4585 170.064C98.4215 169.841 98.3474 169.655 98.2733 169.432C98.0881 168.987 97.8658 168.578 97.5695 168.169C97.2732 167.761 96.9027 167.427 96.3842 167.204C96.0878 167.055 95.7544 166.981 95.384 166.981C93.1615 170.398 91.7909 174.223 91.7539 177.714Z" fill="black"/>
<path d="M110.273 159.999C110.199 160.333 110.162 160.667 110.125 160.964C110.088 161.261 110.051 161.596 110.051 161.856C110.051 162.116 110.051 162.375 110.051 162.598C110.051 162.858 110.088 163.044 110.125 163.23C110.162 163.415 110.199 163.601 110.273 163.713C110.347 163.861 110.458 163.935 110.569 164.047C111.051 164.381 111.792 164.344 112.866 164.01C113.385 163.861 113.977 163.638 114.607 163.341C115.237 163.044 115.866 162.673 116.533 162.153C116.941 161.818 117.311 161.484 117.681 161.076C116.718 158.327 114.57 156.693 111.755 156.433C111.458 156.879 111.199 157.324 110.977 157.807C110.643 158.587 110.421 159.33 110.273 159.999Z" fill="black"/>
<path d="M98.5312 162.933C98.6424 163.267 98.7905 163.601 99.0128 163.861C99.3462 164.27 99.7907 164.567 100.235 164.752C100.68 164.975 101.161 165.087 101.606 165.124C102.532 165.272 103.273 165.161 104.013 164.715C104.125 164.641 104.199 164.567 104.273 164.492C104.347 164.418 104.458 164.344 104.532 164.27C104.717 164.121 104.865 163.898 105.051 163.712C105.384 163.341 105.754 162.747 106.088 162.19C106.421 161.633 106.792 160.927 107.125 160.258C107.421 159.59 107.718 158.847 107.903 158.104C108.014 157.622 108.051 157.213 108.051 156.804C107.051 157.064 106.051 157.436 104.977 157.993C102.643 159.144 100.42 160.89 98.5312 162.933Z" fill="black"/>
<path d="M98.2353 186.034C98.5316 185.588 98.7909 185.142 99.0132 184.659C99.3466 183.917 99.5688 183.174 99.717 182.468C99.7911 182.134 99.8281 181.8 99.8652 181.503C99.9022 181.205 99.9392 180.871 99.9392 180.611C99.9392 180.351 99.9392 180.091 99.9392 179.868C99.9392 179.608 99.9022 179.423 99.8652 179.237C99.8281 179.051 99.7911 178.866 99.717 178.754C99.6429 178.606 99.5318 178.531 99.4207 178.42C98.9391 178.086 98.1983 178.123 97.124 178.457C96.6055 178.606 96.0128 178.828 95.3831 179.126C94.7534 179.423 94.1236 179.794 93.4569 180.314C93.0494 180.648 92.679 180.983 92.3086 181.391C93.2717 184.139 95.4201 185.774 98.2353 186.034Z" fill="black"/>
<path d="M118.238 164.79C117.83 164.864 117.423 165.012 117.015 165.235C115.645 165.941 114.385 167.018 113.459 167.984C113.2 168.244 112.978 168.466 112.792 168.689C112.681 168.801 112.607 168.912 112.533 169.023C112.422 169.135 112.348 169.246 112.274 169.358C112.089 169.581 111.978 169.803 111.866 169.989C111.755 170.212 111.644 170.398 111.57 170.621C111.496 170.843 111.422 171.029 111.422 171.215C111.422 171.326 111.422 171.4 111.422 171.512C111.422 171.623 111.422 171.698 111.422 171.809C111.422 171.995 111.496 172.218 111.533 172.44C111.57 172.663 111.644 172.849 111.718 173.072C111.903 173.517 112.126 173.926 112.422 174.334C112.718 174.743 113.089 175.077 113.607 175.3C113.904 175.449 114.237 175.523 114.607 175.523C116.83 172.106 118.201 168.281 118.238 164.79Z" fill="black"/>
<path d="M111.461 179.571C111.35 179.237 111.202 178.903 110.98 178.643C110.646 178.234 110.202 177.937 109.757 177.751C109.313 177.528 108.831 177.417 108.387 177.38C107.461 177.231 106.72 177.343 105.979 177.788C105.905 177.863 105.794 177.937 105.72 178.011C105.646 178.086 105.534 178.16 105.46 178.234C105.275 178.383 105.127 178.606 104.942 178.791C104.608 179.163 104.238 179.757 103.905 180.314C103.571 180.871 103.201 181.577 102.867 182.245C102.571 182.914 102.275 183.657 102.09 184.399C101.978 184.882 101.941 185.291 101.941 185.699C102.942 185.439 103.942 185.068 105.016 184.511C107.35 183.359 109.572 181.614 111.461 179.571Z" fill="black"/>
<path d="M104.978 159.293C111.534 155.987 116.905 158.661 116.905 165.272C116.905 171.846 111.571 179.905 104.978 183.174C98.4215 186.479 93.0504 183.805 93.0504 177.194C93.0874 170.658 98.4215 162.598 104.978 159.293ZM104.978 157.993C97.6806 161.67 91.7539 170.583 91.7539 177.9C91.7539 185.216 97.6806 188.188 104.978 184.548C112.275 180.871 118.202 171.957 118.202 164.641C118.239 157.287 112.312 154.316 104.978 157.993Z" fill="#CCCCCC"/>
<path d="M75.0123 161.855L80.1981 166.944L87.6806 167.909L86.9027 169.506L79.2721 168.466L74.2344 163.452L75.0123 161.855Z" fill="#474747"/>
<path d="M72.3059 168.578L77.8992 173.146L85.0113 174.632L84.6038 176.229L77.3066 174.632L71.8984 170.175L72.3059 168.578Z" fill="#474747"/>
<path d="M77.9727 156.879L82.8992 161.484L90.678 162.97L91.7523 161.484L84.1587 160.036L79.0839 155.393L77.9727 156.879Z" fill="#474747"/>
<path d="M82.9023 151.011L87.903 156.024L95.6077 157.064L96.9042 155.802L89.2365 154.799L84.2359 149.748L82.9023 151.011Z" fill="#474747"/>
<path d="M88.6055 146.257L93.0875 150.491L101.274 152.311L102.718 151.419L94.2729 149.451L90.0131 145.328L88.6055 146.257Z" fill="#474747"/>
<path d="M100.383 141.651L102.568 145.328L111.384 149.525L113.088 147.705L101.716 141.577L100.383 141.651Z" fill="#1E1E1E"/>
<path d="M94.6055 143.063L99.0505 146.554L107.274 149.116L108.718 148.597L100.384 146.034L96.0131 142.543L94.6055 143.063Z" fill="#474747"/>
<path d="M100.383 141.651L104.976 144.771L113.088 147.705L114.385 147.631L106.124 144.623L101.716 141.577L100.383 141.651Z" fill="#474747"/>
<path d="M105.535 142.134L110.054 144.808L118.241 148.188L119.315 148.597L110.684 144.623L106.646 142.543L105.535 142.134Z" fill="#474747"/>
<path d="M122.164 150.602L119.238 149.376L119.09 151.085L120.016 151.828L122.164 150.602Z" fill="#1E1E1E"/>
<path d="M124.981 154.576L122.537 153.091L122.203 154.056L122.722 154.948L124.981 154.576Z" fill="#1E1E1E"/>
<path d="M126.055 159.961L123.906 158.402L124.091 159.553L126.055 159.961Z" fill="#1E1E1E"/>
<path d="M101.272 193.907L99.457 192.459L100.198 192.31L101.272 193.907Z" fill="#1E1E1E"/>
<path d="M95.6044 194.873L92.8633 193.462L94.0857 192.57L95.1599 192.719L95.6044 194.873Z" fill="#1E1E1E"/>
<path d="M90.678 193.907L77.9727 187.854L79.0839 188.262L91.7523 194.316L90.678 193.907Z" fill="#474747"/>
<path d="M71.2695 175.003L77.6037 179.943L83.9379 181.094V182.542L77.6037 181.391L71.2695 176.451V175.003Z" fill="#474747"/>
<path d="M71.8984 180.686L78.603 185.068L84.6038 186.739L85.0113 187.928L78.7142 185.997L72.3059 181.837L71.8984 180.686Z" fill="#474747"/>
<path d="M74.2344 185.068L81.0501 188.596L86.9027 191.122L87.6806 191.939L82.1614 189.785L75.0123 185.885L74.2344 185.068Z" fill="#474747"/>
<path d="M86.9027 191.122L87.7917 188.448L87.2731 187.556L85.0136 187.928L79.4202 186.256L74.4937 183.322L74.2344 185.068L81.6798 189.116L86.9027 191.122Z" fill="#1E1E1E"/>
<path d="M77.9727 187.854L78.0097 187.556L82.1584 189.785L87.6777 191.939L90.0483 190.862L90.9003 191.419L90.6781 193.796L77.9727 187.854Z" fill="#1E1E1E"/>
<path d="M116.536 144.474V144.548L114.98 143.991V143.731L116.536 144.474Z" fill="#FF9006"/>
<path d="M103.866 138.235C99.7176 136.043 93.9391 136.303 87.5308 139.534C75.4181 145.625 65.4908 160.073 64.75 172.403L78.1221 179.126C78.8259 166.795 88.7532 152.311 100.903 146.22C106.941 143.174 112.497 143.137 116.572 144.957L116.498 144.585L103.866 138.235Z" fill="#FF9006"/>
<path d="M103.163 137.826C99.0145 135.635 93.2359 135.895 86.8277 139.126C74.715 145.217 64.7877 159.664 64.0469 171.995L77.419 178.717C78.1228 166.387 88.0501 151.902 100.2 145.811C106.386 142.729 111.979 142.357 116.091 144.326L103.163 137.826Z" fill="#F9A72C"/>
<path opacity="0.7" d="M77.418 178.68C77.455 178.086 77.4921 177.454 77.5661 176.86L77.6032 176.415C77.6032 176.266 77.6402 176.117 77.6773 175.969C77.7143 175.672 77.7513 175.375 77.8254 175.077C78.0477 173.889 78.307 172.701 78.6404 171.512C78.9737 170.361 79.3812 169.209 79.8257 168.058C79.9368 167.761 80.0479 167.501 80.1961 167.204C80.3072 166.907 80.4184 166.647 80.5665 166.387L80.937 165.57L81.3444 164.753L81.5667 164.344L81.7889 163.936L82.2334 163.118C82.5298 162.598 82.8261 162.041 83.1595 161.559C83.7892 160.519 84.493 159.516 85.1968 158.513C86.6414 156.545 88.2342 154.688 89.9382 152.979C91.6791 151.271 93.5312 149.674 95.5315 148.262C95.7908 148.077 96.0501 147.928 96.2723 147.743L96.6427 147.483C96.7539 147.408 96.902 147.334 97.0132 147.26L97.791 146.777L98.5689 146.331C98.8282 146.183 99.0875 146.034 99.3839 145.886C99.6431 145.737 99.9395 145.588 100.199 145.477L101.014 145.106C101.273 144.957 101.569 144.883 101.866 144.734C104.125 143.806 106.496 143.174 108.941 142.989C110.163 142.914 111.385 142.951 112.571 143.174C112.867 143.211 113.163 143.286 113.46 143.36C113.756 143.434 114.052 143.509 114.349 143.62C114.645 143.731 114.904 143.843 115.201 143.917C115.497 144.029 115.756 144.177 116.016 144.289C115.719 144.177 115.46 144.066 115.164 143.954C114.867 143.88 114.571 143.769 114.312 143.694C114.015 143.62 113.719 143.546 113.423 143.471C113.126 143.434 112.83 143.36 112.534 143.323C111.348 143.174 110.126 143.137 108.941 143.286C107.755 143.397 106.57 143.62 105.422 143.954C105.125 144.029 104.829 144.103 104.57 144.214L103.718 144.511C103.421 144.623 103.162 144.734 102.866 144.846C102.718 144.883 102.569 144.957 102.458 144.994L102.051 145.18C99.8284 146.146 97.754 147.371 95.7908 148.745C95.3092 149.117 94.8277 149.451 94.3461 149.822C94.1239 150.008 93.8646 150.194 93.6424 150.379L92.9386 150.974C92.0125 151.754 91.1235 152.571 90.2715 153.425C86.8637 156.805 83.9374 160.741 81.6778 164.975C81.0851 166.052 80.6036 167.13 80.122 168.244C79.6405 169.358 79.233 170.472 78.8256 171.623C78.4551 172.775 78.1218 173.926 77.8995 175.115C77.8254 175.412 77.7884 175.709 77.7143 176.006C77.6773 176.155 77.6402 176.303 77.6402 176.452L77.5661 176.897C77.5291 177.454 77.4921 178.049 77.418 178.68Z" fill="white"/>
<path opacity="0.5" d="M86.8282 139.089C80.0125 142.506 73.9006 148.56 69.7148 155.43C70.3816 161.893 74.3451 168.838 79.1235 170.398C82.5684 160.407 90.6806 150.491 100.2 145.737C106.386 142.654 111.98 142.283 116.091 144.251L103.127 137.826C99.015 135.635 93.2365 135.895 86.8282 139.089Z" fill="#EFBB2A"/>
<path opacity="0.5" d="M60.157 138.42L21.1888 118.811C20.2257 119.925 19.3738 121.15 18.707 122.45L57.7122 142.097C58.379 140.797 59.2309 139.572 60.157 138.42Z" fill="white"/>
<path d="M63.0453 152.459L62.1562 152.905V141.689L63.0453 141.206V152.459Z" fill="#F16C17"/>
<path d="M64.8987 151.531L63.9727 151.976V140.76L64.8987 140.277V151.531Z" fill="#F16C17"/>
<path d="M66.7503 150.602L65.8242 151.048V139.831L66.7503 139.349V150.602Z" fill="#F16C17"/>
<path d="M68.6018 149.674L67.6758 150.119V138.903L68.6018 138.457V149.674Z" fill="#F16C17"/>
<path d="M70.4164 148.745L69.5273 149.191V137.974L70.4164 137.529V148.745Z" fill="#F16C17"/>
<path d="M72.2679 147.817L71.3789 148.262V137.046L72.2679 136.6V147.817Z" fill="#F16C17"/>
<path d="M74.1195 146.888L73.2305 147.334V136.118L74.1195 135.672V146.888Z" fill="#F16C17"/>
<path d="M75.971 145.96L75.082 146.405V135.189L75.971 134.743V145.96Z" fill="#F16C17"/>
<path d="M131.166 103.063C130.648 103.063 130.166 102.952 129.685 102.729L125.906 100.835L126.795 99.0521L130.574 100.946C130.981 101.169 131.463 101.132 131.833 100.872C132.24 100.612 132.463 100.241 132.463 99.7578V84.939H134.463V99.7578C134.463 100.909 133.87 101.949 132.907 102.58C132.352 102.878 131.759 103.063 131.166 103.063Z" fill="#124F67"/>
<path d="M127.831 99.0151C127.831 98.198 127.164 97.8637 126.349 98.2723C125.534 98.6808 124.867 99.6836 124.867 100.464C124.867 101.281 125.534 101.615 126.349 101.206C127.164 100.798 127.831 99.8321 127.831 99.0151Z" fill="#124F67"/>
<path d="M137.35 94.9668L130.127 91.3271C129.534 91.0299 129.164 90.4357 129.164 89.7672V69.4517C129.164 68.1518 130.535 67.2976 131.683 67.8918L138.906 71.5315C139.499 71.8286 139.869 72.4229 139.869 73.0914V93.4069C139.869 94.7068 138.536 95.561 137.35 94.9668Z" fill="#124F67"/>
<path d="M139.203 94.781L137.647 95.6352L137.129 94.4096L139.018 93.6667L139.203 94.781Z" fill="#124F67"/>
<path d="M128.645 68.709L130.311 67.8176L130.941 68.2633L130.2 69.4889L128.645 68.709Z" fill="#124F67"/>
<path d="M136.128 95.6352L128.904 91.9955C128.312 91.6984 127.941 91.1042 127.941 90.4356V70.1201C127.941 68.8202 129.312 67.966 130.46 68.5603L137.683 72.2C138.276 72.4971 138.647 73.0913 138.647 73.7598V94.0754C138.647 95.3753 137.276 96.1923 136.128 95.6352Z" fill="#256E8D"/>
<path d="M113.717 141.54C116.5 141.54 118.755 140.409 118.755 139.015C118.755 137.62 116.5 136.489 113.717 136.489C110.935 136.489 108.68 137.62 108.68 139.015C108.68 140.409 110.935 141.54 113.717 141.54Z" fill="#5D8400"/>
<path d="M118.642 103.36H108.715V139.609H118.642V103.36Z" fill="#5D8400"/>
<path d="M113.717 105.886C116.5 105.886 118.755 104.755 118.755 103.36C118.755 101.965 116.5 100.835 113.717 100.835C110.935 100.835 108.68 101.965 108.68 103.36C108.68 104.755 110.935 105.886 113.717 105.886Z" fill="#79A60E"/>
<path d="M116.014 101.243C114.755 100.612 112.681 100.612 111.421 101.243C110.162 101.875 110.162 102.915 111.421 103.546C112.681 104.177 114.755 104.177 116.014 103.546C117.311 102.915 117.311 101.875 116.014 101.243Z" fill="#5D8400"/>
<path d="M116.904 102.803H110.496V84.1219L113.052 82.4134L115.386 79.3308L116.349 80.0736L116.904 80.3707V102.803Z" fill="#5D8400"/>
<path d="M116.607 79.6278C115.903 78.8479 114.014 79.3678 112.421 80.8163C110.791 82.2648 110.05 84.0846 110.754 84.8645C111.458 85.6445 113.347 85.1245 114.94 83.6761C116.57 82.2276 117.311 80.4078 116.607 79.6278Z" fill="#79A60E"/>
<path d="M115.864 80.2965C115.346 79.7022 113.938 80.1108 112.753 81.1878C111.568 82.2649 111.012 83.6019 111.493 84.1961C112.012 84.7904 113.42 84.3818 114.605 83.3048C115.827 82.2277 116.383 80.8907 115.864 80.2965Z" fill="#5D8400"/>
<path opacity="0.5" d="M16.8163 88.0957L16.7422 170.583L17.2237 170.843L18.1868 170.398L18.335 88.0586L17.5201 88.4671L16.8163 88.0957Z" fill="white"/>
</g>
<defs>
<clipPath id="clip0_335_2367">
<rect width="279" height="214" fill="white"/>
</clipPath>
</defs>
</svg>
