<svg width="52" height="26" viewBox="0 0 52 26" fill="none" xmlns="http://www.w3.org/2000/svg">
<path d="M1.99414 15.4298C1.99414 15.4298 7.93858 15.0079 11.0067 14.356C14.0748 13.704 20.863 15.1997 20.863 15.1997L33.3656 17.0022C33.3656 17.0022 41.6111 16.4653 47.6707 18.4979C47.6707 18.4979 42.2631 20.8374 37.2007 20.3005C37.2007 20.3005 38.5814 24.2123 38.2746 24.8643C38.2746 24.8643 32.3301 25.9381 25.8871 24.3274C25.8871 24.3274 23.8928 23.6754 20.9014 24.0973C17.9483 24.5191 12.1189 24.6342 8.28377 22.9467C8.28377 22.9467 11.045 21.451 11.3518 19.8786C11.3135 19.8786 12.2723 17.3474 1.99414 15.4298Z" fill="#86B416"/>
<path d="M39.5403 16.7725C37.9296 17.5778 36.5105 18.6133 35.2066 19.457C37.1625 21.6431 37.5844 24.4044 37.5844 24.4044C33.3658 24.7879 28.3033 24.1743 24.89 23.0621C24.0463 23.0621 23.1643 22.9087 22.2822 22.6785C19.1374 23.8674 13.9599 24.0976 8.16887 22.18C8.16887 22.18 10.3549 19.0736 13.6914 17.156C13.0011 16.3123 12.4642 15.4301 12.1191 14.5481C9.58787 8.02832 0 10.8664 0 10.8664C8.09215 4.38496 14.6886 4.80681 19.6359 7.49141C18.8689 5.45879 18.2552 3.27277 18.0635 0.97168C18.0635 0.97168 26.961 1.54693 28.9937 8.6803C33.2123 2.39066 41.803 5.22869 41.803 5.22869C38.7349 5.80396 35.2066 9.37065 32.4837 12.7839C37.0091 10.0226 43.5672 8.37347 51.9662 12.8606C52.0046 12.8222 44.6411 14.2029 39.5403 16.7725Z" fill="#11771B"/>
<path d="M37.5028 16.4274C33.3224 18.3066 33.3225 18.3065 33.3225 18.3065C33.3225 18.3065 33.6676 18.46 34.9332 19.4571C35.0866 19.5722 35.24 19.6489 35.4317 19.7639C37.1576 21.8732 37.5411 24.3661 37.5411 24.3661C37.5411 24.3661 37.1576 24.4045 36.5056 24.4045C33.706 24.4045 25.7288 23.9826 24.5399 19.7256L24.2331 17.4628C24.2331 17.4628 22.9292 20.7611 24.8468 23.0238C24.003 23.0238 23.121 22.8704 22.2389 22.6403C23.6963 21.2596 23.5428 18.0381 23.5428 18.0381C23.5428 18.0381 23.3511 19.0352 20.6665 21.3747C17.9819 23.6758 8.16393 22.1417 8.16393 22.1417C8.16393 22.1417 10.3499 19.0352 13.6865 17.1177L15.1822 16.5424C20.5897 15.1234 23.4278 16.6958 23.4278 16.6958C23.4278 16.6958 12.4209 19.5338 16.6396 19.3804C20.8582 19.227 24.5783 16.8492 24.5783 16.8492C24.5783 16.8492 25.1919 17.1561 27.378 17.9998C29.564 18.8435 31.9034 20.9528 30.1776 19.1119C28.4901 17.2711 25.7288 16.8492 27.1095 16.6191C28.4134 16.4274 30.5611 17.0026 30.5611 17.0026C32.4404 15.4302 39.6888 12.5922 39.6888 12.5922C39.6888 12.5922 36.0454 12.8223 33.5909 14.5098C31.098 16.1973 26.1891 17.1177 27.378 14.0112C28.4135 11.2499 33.054 7.64484 34.2429 6.80111C33.8593 6.99287 33.0156 7.5298 31.1364 8.60364C28.0683 10.3678 26.3041 16.3123 26.7643 12.4772C27.2629 8.68038 25.6521 6.9929 24.8851 6.53268C24.1181 6.11082 25.9973 8.4119 26.3809 10.9047C26.726 13.3976 25.7288 17.8464 22.6224 13.6661C19.5543 9.48575 12.8811 8.41189 16.141 9.63914C19.3625 10.828 25.1536 16.4273 21.6253 15.2001C18.3654 14.1262 14.9905 14.97 14.4536 15.085C13.6865 13.7044 12.1908 11.5567 9.96639 10.0227C6.70652 7.75994 0.992169 10.3678 0.148438 10.7513C8.20224 4.30827 14.722 4.73015 19.6694 7.41475C20.8199 8.10508 23.773 12.4388 24.1565 12.9757C23.6963 10.3294 21.7787 9.25566 20.6665 7.45314C19.5543 5.68897 18.1353 0.89502 18.1353 0.89502C18.1353 0.89502 27.0328 1.47027 29.0654 8.60364C33.2841 2.314 41.8748 5.15203 41.8748 5.15203C41.8748 5.15203 41.7597 5.1904 41.6063 5.22875C40.3791 5.53556 35.3934 6.9162 33.054 10.3678C31.0213 13.3592 30.2543 14.2796 29.9858 14.5864L32.5171 12.7073C37.0425 9.94596 43.6006 8.29687 51.9996 12.784C51.9996 12.784 51.7311 12.8223 51.2709 12.9374C48.8548 13.3592 40.9927 14.8166 37.5028 16.4274Z" fill="url(#paint0_linear_426_468)"/>
<defs>
<linearGradient id="paint0_linear_426_468" x1="27.1452" y1="1.02426" x2="25.636" y2="15.9794" gradientUnits="userSpaceOnUse">
<stop stop-color="#3EBF00"/>
<stop offset="1" stop-color="#189228"/>
</linearGradient>
</defs>
</svg>
