<svg width="427" height="407" viewBox="0 0 427 407" fill="none" xmlns="http://www.w3.org/2000/svg">
<g clip-path="url(#clip0_335_2644)">
<path d="M477 290.5L349.5 365L289 338.5L427 269.5V227.5L461 251L477 290.5Z" fill="black" fill-opacity="0.1"/>
<path d="M0 196.578L138.688 126.911L422.848 267.215L284.367 336.64L0 196.578Z" fill="#707070"/>
<path d="M138.445 13.8435L421.809 154.494L422.362 267.215L138.203 126.911L138.445 13.8435Z" fill="#D2F5FA"/>
<path d="M70.6932 5.74512L4.35938 79.3927L5.60508 194.398L138.688 126.911L138.93 13.8436L70.6932 5.74512Z" fill="#D2F5FA"/>
<path d="M426.656 249.703L137.895 107.495V126.461L427.002 269.638L426.656 249.703Z" fill="#DA8651"/>
<path d="M321.738 105.072V221.704L326.029 223.85L326.098 102.857L321.738 105.072Z" fill="#DA8651"/>
<path d="M137.894 126.599L9.10156 191.041L9.17077 187.961L133.534 126.599" fill="#FFC88F"/>
<path d="M133.531 13.9127V133.244L137.891 131.029V11.6978L133.531 13.9127Z" fill="#DA8651"/>
<path d="M225.402 56.101V174.429L229.762 176.609V53.886L225.402 56.101Z" fill="#DA8651"/>
<path d="M73.496 2.11108L4.35938 79.358V148.506V198.689L73.496 164.115L142.633 129.541V79.358V10.2096L73.496 2.11108ZM137.892 126.599L9.09997 191.041V81.1923L75.3992 7.12937L137.892 14.4318V126.599V126.599Z" fill="#F5A46F"/>
<path d="M91.6283 227.934L5.60547 184.915L54.4302 160.308L141.249 203.742L91.6283 227.934Z" fill="#914E3A"/>
<path d="M5.60547 184.915V194.398L91.6283 237.417V227.934L5.60547 184.915Z" fill="#733529"/>
<path d="M141.249 203.742V213.19L91.6289 237.417V227.934L141.249 203.742Z" fill="#672C24"/>
<path d="M180.074 184.5L94.0508 141.481L142.876 116.874L229.694 160.308L180.074 184.5Z" fill="#914E3A"/>
<path d="M94.0508 141.481V150.964L180.074 193.983V184.5L94.0508 141.481Z" fill="#733529"/>
<path d="M229.695 160.308V169.791L180.074 193.982V184.5L229.695 160.308Z" fill="#672C24"/>
<path d="M229.764 59.7002L321.739 106.111V98.3929L229.66 53.2629L229.764 59.7002Z" fill="#DA8651"/>
<path d="M138.93 13.8435L230.87 60.254V53.0553L140.002 7.99463L138.93 13.8435Z" fill="#DA8651"/>
<path d="M64.3273 178.236C64.2927 176.713 63.9812 175.259 63.393 173.91C63.4276 174.152 63.4276 174.429 63.4276 174.671C63.4276 174.775 63.4276 174.844 63.4276 174.948C63.3584 176.228 62.3549 177.509 60.3825 178.478C56.334 180.485 49.7941 180.485 45.7455 178.478C43.8078 177.509 42.7697 176.228 42.7005 174.948C42.7005 174.913 42.7005 174.844 42.7005 174.809C42.7005 174.775 42.7005 174.706 42.7005 174.671C42.7005 174.429 42.7005 174.152 42.7351 173.91C42.1468 175.225 41.8354 176.678 41.8008 178.236C41.8008 178.27 41.8008 178.34 41.8008 178.374C41.8008 178.409 41.8008 178.478 41.8008 178.513C41.87 179.897 42.9773 181.281 45.0881 182.32C49.4826 184.5 56.5762 184.5 60.9708 182.32C63.0816 181.247 64.1889 179.897 64.2581 178.513C64.3273 178.409 64.3273 178.34 64.3273 178.236Z" fill="#669B00"/>
<path d="M42.7344 174.809C42.7344 174.844 42.7344 174.913 42.7344 174.948C42.8036 176.228 43.8071 177.509 45.7794 178.478C49.828 180.485 56.3679 180.485 60.4165 178.478C62.3542 177.509 63.3923 176.228 63.4615 174.948C63.4615 174.844 63.4615 174.775 63.4615 174.671C63.4615 174.429 63.4615 174.152 63.4269 173.91C61.6968 169.93 57.7174 167.126 53.1152 167.126C48.5131 167.126 44.5337 169.93 42.8036 173.91C42.769 174.152 42.769 174.429 42.769 174.671C42.7344 174.706 42.7344 174.775 42.7344 174.809Z" fill="#71AE00"/>
<path d="M53.0799 167.126C49.6196 167.126 46.5053 168.718 44.4291 171.175C44.4291 171.314 44.4291 171.487 44.3945 171.625C44.3945 171.66 44.3945 171.695 44.3945 171.729C44.3945 171.764 44.3945 171.798 44.3945 171.833C44.4637 172.906 45.2942 173.979 46.9205 174.775C50.3116 176.471 55.7789 176.471 59.17 174.775C60.7963 173.944 61.6614 172.906 61.696 171.833C61.696 171.764 61.696 171.66 61.696 171.591C61.696 171.452 61.696 171.279 61.6614 171.141C59.689 168.718 56.5748 167.126 53.0799 167.126Z" fill="#7BBA00"/>
<path d="M42.7335 190.037C42.6989 188.514 42.3875 187.061 41.7993 185.711C41.8339 185.953 41.8339 186.23 41.8339 186.472C41.8339 186.576 41.8339 186.645 41.8339 186.749C41.7646 188.03 40.7612 189.31 38.7888 190.279C34.7403 192.287 28.2003 192.287 24.1518 190.279C22.214 189.31 21.1759 188.03 21.1067 186.749C21.1067 186.715 21.1067 186.645 21.1067 186.611C21.1067 186.576 21.1067 186.507 21.1067 186.472C21.1067 186.23 21.1067 185.953 21.1413 185.711C20.5531 187.026 20.2416 188.48 20.207 190.037C20.207 190.072 20.207 190.141 20.207 190.175C20.207 190.21 20.207 190.279 20.207 190.314C20.2762 191.698 21.3835 193.083 23.4943 194.121C27.8889 196.301 34.9825 196.301 39.377 194.121C41.4878 193.048 42.5951 191.698 42.6643 190.314C42.7335 190.245 42.7335 190.141 42.7335 190.037Z" fill="#669B00"/>
<path d="M21.1406 186.611C21.1406 186.646 21.1406 186.715 21.1406 186.749C21.2098 188.03 22.2133 189.31 24.1857 190.279C28.2342 192.287 34.7742 192.287 38.8227 190.279C40.7605 189.31 41.7986 188.03 41.8678 186.749C41.8678 186.646 41.8678 186.576 41.8678 186.472C41.8678 186.23 41.8678 185.953 41.8332 185.711C40.103 181.731 36.1237 178.928 31.5215 178.928C26.9193 178.928 22.94 181.731 21.2098 185.711C21.1752 185.953 21.1752 186.23 21.1752 186.472C21.1406 186.542 21.1406 186.576 21.1406 186.611Z" fill="#71AE00"/>
<path d="M31.4861 178.962C28.0258 178.962 24.9116 180.554 22.8354 183.012C22.8354 183.15 22.8354 183.323 22.8008 183.462C22.8008 183.496 22.8008 183.531 22.8008 183.565C22.8008 183.6 22.8008 183.635 22.8008 183.669C22.87 184.742 23.7005 185.815 25.3268 186.611C28.7179 188.307 34.1851 188.307 37.5762 186.611C39.2026 185.78 40.0676 184.742 40.1022 183.669C40.1022 183.6 40.1022 183.496 40.1022 183.427C40.1022 183.289 40.1022 183.115 40.0676 182.977C38.0953 180.52 34.981 178.962 31.4861 178.962Z" fill="#7BBA00"/>
<path d="M89.4132 191.872C89.3786 190.349 89.0672 188.895 88.4789 187.545C88.5135 187.788 88.5135 188.065 88.5135 188.307C88.5135 188.411 88.5135 188.48 88.5135 188.584C88.4443 189.864 87.4409 191.145 85.4685 192.114C81.4199 194.121 74.88 194.121 70.8314 192.114C68.8937 191.145 67.8556 189.864 67.7864 188.584C67.7864 188.549 67.7864 188.48 67.7864 188.445C67.7864 188.411 67.7864 188.341 67.7864 188.307C67.7864 188.065 67.7864 187.788 67.821 187.545C67.2327 188.861 66.9213 190.314 66.8867 191.872C66.8867 191.906 66.8867 191.975 66.8867 192.01C66.8867 192.045 66.8867 192.114 66.8867 192.148C66.9559 193.533 68.0632 194.917 70.174 195.955C74.5686 198.136 81.6622 198.136 86.0567 195.955C88.1675 194.882 89.2748 193.533 89.344 192.148C89.4132 192.079 89.4132 191.975 89.4132 191.872Z" fill="#669B00"/>
<path d="M67.8203 188.48C67.8203 188.514 67.8203 188.584 67.8203 188.618C67.8895 189.899 68.893 191.179 70.8654 192.148C74.9139 194.156 81.4539 194.156 85.5024 192.148C87.4402 191.179 88.4782 189.899 88.5475 188.618C88.5475 188.514 88.5475 188.445 88.5475 188.341C88.5475 188.099 88.5475 187.822 88.5129 187.58C86.7827 183.6 82.8034 180.797 78.2012 180.797C73.599 180.797 69.6197 183.6 67.8895 187.58C67.8549 187.822 67.8549 188.099 67.8549 188.341C67.8203 188.376 67.8203 188.411 67.8203 188.48Z" fill="#71AE00"/>
<path d="M78.1658 180.797C74.7055 180.797 71.5912 182.389 69.5151 184.846C69.5151 184.984 69.5151 185.157 69.4805 185.296C69.4805 185.33 69.4805 185.365 69.4805 185.4C69.4805 185.434 69.4805 185.469 69.4805 185.503C69.5497 186.576 70.3801 187.649 72.0065 188.445C75.3976 190.141 80.8648 190.141 84.2559 188.445C85.8822 187.615 86.7473 186.576 86.7819 185.503C86.7819 185.434 86.7819 185.365 86.7819 185.261C86.7819 185.123 86.7819 184.95 86.7473 184.811C84.775 182.389 81.6607 180.797 78.1658 180.797Z" fill="#7BBA00"/>
<path d="M67.8195 203.708C67.7849 202.185 67.4734 200.732 66.8852 199.382C66.9198 199.624 66.9198 199.901 66.9198 200.143C66.9198 200.247 66.9198 200.316 66.9198 200.42C66.8506 201.701 65.8471 202.981 63.8747 203.95C59.8262 205.958 53.2862 205.958 49.2377 203.95C47.2999 202.981 46.2619 201.701 46.1926 200.42C46.1926 200.385 46.1926 200.316 46.1926 200.282C46.1926 200.247 46.1926 200.178 46.1926 200.143C46.1926 199.901 46.1926 199.624 46.2272 199.382C45.639 200.697 45.3276 202.151 45.293 203.708C45.293 203.743 45.293 203.812 45.293 203.846C45.293 203.881 45.293 203.95 45.293 203.985C45.3622 205.369 46.4695 206.754 48.5802 207.792C52.9748 209.972 60.0684 209.972 64.463 207.792C66.5738 206.719 67.6811 205.369 67.7503 203.985C67.8195 203.916 67.8195 203.812 67.8195 203.708Z" fill="#669B00"/>
<path d="M46.2266 200.282C46.2266 200.316 46.2266 200.385 46.2266 200.42C46.2958 201.701 47.2993 202.981 49.2716 203.95C53.3202 205.957 59.8601 205.957 63.9087 203.95C65.8464 202.981 66.8845 201.701 66.9537 200.42C66.9537 200.316 66.9537 200.247 66.9537 200.143C66.9537 199.901 66.9537 199.624 66.9191 199.382C65.189 195.402 61.2096 192.598 56.6074 192.598C52.0053 192.598 48.0259 195.402 46.2958 199.382C46.2612 199.624 46.2612 199.901 46.2612 200.143C46.2266 200.178 46.2266 200.247 46.2266 200.282Z" fill="#71AE00"/>
<path d="M56.6072 192.598C53.1469 192.598 50.0327 194.19 47.9565 196.648C47.9565 196.786 47.9565 196.959 47.9219 197.098C47.9219 197.132 47.9219 197.167 47.9219 197.201C47.9219 197.236 47.9219 197.271 47.9219 197.305C47.9911 198.378 48.8215 199.451 50.4479 200.247C53.839 201.943 59.3062 201.943 62.6973 200.247C64.3237 199.416 65.1887 198.378 65.2233 197.305C65.2233 197.236 65.2233 197.167 65.2233 197.063C65.2233 196.924 65.2233 196.751 65.1887 196.613C63.1818 194.19 60.0675 192.598 56.6072 192.598Z" fill="#7BBA00"/>
<path d="M117.995 203.5C117.961 201.977 117.649 200.524 117.061 199.174C117.096 199.416 117.096 199.693 117.096 199.935C117.096 200.039 117.096 200.108 117.096 200.212C117.026 201.493 116.023 202.773 114.051 203.742C110.002 205.75 103.462 205.75 99.4135 203.742C97.4757 202.773 96.4376 201.493 96.3684 200.212C96.3684 200.177 96.3684 200.108 96.3684 200.074C96.3684 200.039 96.3684 199.97 96.3684 199.935C96.3684 199.693 96.3684 199.416 96.403 199.174C95.8148 200.489 95.5034 201.943 95.4688 203.5C95.4688 203.535 95.4688 203.604 95.4688 203.638C95.4688 203.673 95.4688 203.742 95.4688 203.777C95.538 205.161 96.6453 206.546 98.756 207.584C103.151 209.764 110.244 209.764 114.639 207.584C116.75 206.511 117.857 205.161 117.926 203.777C117.995 203.708 117.995 203.604 117.995 203.5Z" fill="#669B00"/>
<path d="M96.4023 200.074C96.4023 200.108 96.4023 200.178 96.4023 200.212C96.4715 201.493 97.475 202.773 99.4474 203.742C103.496 205.75 110.036 205.75 114.084 203.742C116.022 202.773 117.06 201.493 117.129 200.212C117.129 200.108 117.129 200.039 117.129 199.935C117.129 199.693 117.129 199.416 117.095 199.174C115.365 195.194 111.385 192.391 106.783 192.391C102.181 192.391 98.2017 195.194 96.4715 199.174C96.4369 199.416 96.4369 199.693 96.4369 199.935C96.4023 200.005 96.4023 200.039 96.4023 200.074Z" fill="#71AE00"/>
<path d="M106.748 192.425C103.288 192.425 100.173 194.017 98.0971 196.475C98.0971 196.613 98.0971 196.786 98.0625 196.924C98.0625 196.959 98.0625 196.994 98.0625 197.028C98.0625 197.063 98.0625 197.097 98.0625 197.132C98.1317 198.205 98.9622 199.278 100.589 200.074C103.98 201.77 109.447 201.77 112.838 200.074C114.464 199.243 115.329 198.205 115.364 197.132C115.364 197.063 115.364 196.959 115.364 196.89C115.364 196.751 115.364 196.578 115.329 196.44C113.322 193.983 110.243 192.425 106.748 192.425Z" fill="#7BBA00"/>
<path d="M96.4015 215.302C96.3669 213.779 96.0555 212.325 95.4672 210.976C95.5018 211.218 95.5018 211.495 95.5018 211.737C95.5018 211.841 95.5018 211.91 95.5018 212.014C95.4326 213.294 94.4291 214.575 92.4568 215.544C88.4082 217.551 81.8683 217.551 77.8197 215.544C75.882 214.575 74.8439 213.294 74.7747 212.014C74.7747 211.979 74.7747 211.91 74.7747 211.875C74.7747 211.841 74.7747 211.772 74.7747 211.737C74.7747 211.495 74.7747 211.218 74.8093 210.976C74.221 212.291 73.9096 213.744 73.875 215.302C73.875 215.336 73.875 215.406 73.875 215.44C73.875 215.475 73.875 215.544 73.875 215.579C73.9442 216.963 75.0515 218.347 77.1623 219.386C81.5568 221.566 88.685 221.566 93.045 219.386C95.1558 218.313 96.2631 216.963 96.3323 215.579C96.4015 215.509 96.4015 215.406 96.4015 215.302Z" fill="#669B00"/>
<path d="M74.8086 211.91C74.8086 211.945 74.8086 212.014 74.8086 212.048C74.8778 213.329 75.8813 214.609 77.8536 215.579C81.9022 217.586 88.4421 217.586 92.4907 215.579C94.4284 214.609 95.4665 213.329 95.5357 212.048C95.5357 211.945 95.5357 211.875 95.5357 211.772C95.5357 211.529 95.5357 211.252 95.5011 211.01C93.771 207.03 89.7917 204.227 85.1895 204.227C80.5873 204.227 76.6079 207.03 74.8778 211.01C74.8432 211.252 74.8432 211.529 74.8432 211.772C74.8086 211.806 74.8086 211.841 74.8086 211.91Z" fill="#71AE00"/>
<path d="M85.1541 204.227C81.6938 204.227 78.5795 205.819 76.5034 208.276C76.5034 208.414 76.5034 208.588 76.4688 208.726C76.4688 208.761 76.4688 208.795 76.4688 208.83C76.4688 208.864 76.4688 208.899 76.4688 208.934C76.538 210.006 77.3684 211.079 78.9948 211.875C82.3858 213.571 87.8531 213.571 91.2442 211.875C92.8705 211.045 93.7356 210.006 93.7702 208.934C93.7702 208.864 93.7702 208.795 93.7702 208.691C93.7702 208.553 93.7702 208.38 93.7356 208.241C91.7286 205.819 88.649 204.227 85.1541 204.227Z" fill="#7BBA00"/>
<path d="M165.368 47.4141L96.2656 124.661V243.992L100.972 236.309V126.461L167.271 52.3977L229.764 59.7002V176.678L234.504 174.186V55.4779L165.368 47.4141Z" fill="#F5A46F"/>
<path d="M185.23 274.621L99.2422 231.602L148.032 206.995L234.851 250.429L185.23 274.621Z" fill="#914E3A"/>
<path d="M99.2422 231.602V241.085L185.23 284.104V274.621L99.2422 231.602Z" fill="#733529"/>
<path d="M234.851 250.429V259.912L185.23 284.104V274.621L234.851 250.429Z" fill="#672C24"/>
<path d="M273.71 231.222L187.688 188.168L236.512 163.561L323.331 206.995L273.71 231.222Z" fill="#914E3A"/>
<path d="M187.688 188.168V197.651L273.71 240.67V231.222L187.688 188.168Z" fill="#733529"/>
<path d="M323.332 206.995V216.478L273.711 240.67V231.222L323.332 206.995Z" fill="#672C24"/>
<path d="M156.062 130.302C156.027 128.78 155.716 127.326 155.127 125.976C155.162 126.219 155.162 126.495 155.162 126.738C155.162 126.842 155.162 126.911 155.162 127.015C155.093 128.295 154.089 129.576 152.117 130.545C148.068 132.552 141.528 132.552 137.48 130.545C135.542 129.576 134.504 128.295 134.435 127.015C134.435 126.98 134.435 126.911 134.435 126.876C134.435 126.842 134.435 126.772 134.435 126.738C134.435 126.495 134.435 126.219 134.469 125.976C133.881 127.291 133.57 128.745 133.535 130.302C133.535 130.337 133.535 130.406 133.535 130.441C133.535 130.475 133.535 130.545 133.535 130.579C133.604 131.964 134.712 133.348 136.822 134.386C141.217 136.567 148.345 136.567 152.705 134.386C154.816 133.313 155.923 131.964 155.992 130.579C156.062 130.51 156.062 130.406 156.062 130.302Z" fill="#669B00"/>
<path d="M134.469 126.876C134.469 126.911 134.469 126.98 134.469 127.014C134.538 128.295 135.541 129.576 137.514 130.545C141.562 132.552 148.102 132.552 152.151 130.545C154.089 129.576 155.127 128.295 155.196 127.014C155.196 126.911 155.196 126.841 155.196 126.738C155.196 126.495 155.196 126.218 155.161 125.976C153.431 121.996 149.452 119.193 144.85 119.193C140.247 119.193 136.268 121.996 134.538 125.976C134.503 126.218 134.503 126.495 134.503 126.738C134.469 126.772 134.469 126.841 134.469 126.876Z" fill="#71AE00"/>
<path d="M144.814 119.193C141.354 119.193 138.24 120.785 136.164 123.242C136.164 123.381 136.164 123.554 136.129 123.692C136.129 123.727 136.129 123.761 136.129 123.796C136.129 123.83 136.129 123.865 136.129 123.9C136.198 124.973 137.029 126.045 138.655 126.841C142.046 128.537 147.513 128.537 150.904 126.841C152.531 126.011 153.396 124.973 153.43 123.9C153.43 123.83 153.43 123.727 153.43 123.657C153.43 123.519 153.43 123.346 153.396 123.207C151.389 120.785 148.275 119.193 144.814 119.193Z" fill="#7BBA00"/>
<path d="M134.468 142.104C134.433 140.581 134.122 139.128 133.534 137.778C133.568 138.02 133.568 138.297 133.568 138.539C133.568 138.643 133.568 138.712 133.568 138.816C133.499 140.097 132.496 141.377 130.523 142.346C126.475 144.354 119.935 144.354 115.886 142.346C113.948 141.377 112.91 140.097 112.841 138.816C112.841 138.781 112.841 138.712 112.841 138.678C112.841 138.643 112.841 138.574 112.841 138.539C112.841 138.297 112.841 138.02 112.876 137.778C112.287 139.093 111.976 140.547 111.941 142.104C111.941 142.139 111.941 142.208 111.941 142.242C111.941 142.277 111.941 142.346 111.941 142.381C112.011 143.765 113.118 145.15 115.229 146.188C119.623 148.368 126.717 148.368 131.111 146.188C133.222 145.115 134.33 143.765 134.399 142.381C134.468 142.312 134.468 142.208 134.468 142.104Z" fill="#669B00"/>
<path d="M112.875 138.678C112.875 138.712 112.875 138.781 112.875 138.816C112.944 140.097 113.948 141.377 115.92 142.346C119.969 144.353 126.509 144.353 130.557 142.346C132.495 141.377 133.533 140.097 133.602 138.816C133.602 138.712 133.602 138.643 133.602 138.539C133.602 138.297 133.602 138.02 133.568 137.778C131.837 133.798 127.858 130.994 123.256 130.994C118.654 130.994 114.674 133.798 112.944 137.778C112.91 138.02 112.91 138.297 112.91 138.539C112.875 138.608 112.875 138.643 112.875 138.678Z" fill="#71AE00"/>
<path d="M123.22 131.029C119.76 131.029 116.646 132.621 114.57 135.078C114.57 135.217 114.57 135.39 114.535 135.528C114.535 135.563 114.535 135.597 114.535 135.632C114.535 135.667 114.535 135.701 114.535 135.736C114.604 136.809 115.435 137.882 117.061 138.678C120.452 140.373 125.92 140.373 129.311 138.678C130.937 137.847 131.802 136.809 131.837 135.736C131.837 135.667 131.837 135.597 131.837 135.494C131.837 135.355 131.837 135.182 131.802 135.044C129.795 132.586 126.681 131.029 123.22 131.029Z" fill="#7BBA00"/>
<path d="M181.148 143.938C181.113 142.415 180.802 140.962 180.213 139.612C180.248 139.854 180.248 140.131 180.248 140.373C180.248 140.477 180.248 140.546 180.248 140.65C180.179 141.931 179.175 143.211 177.203 144.18C173.154 146.188 166.614 146.188 162.566 144.18C160.628 143.211 159.59 141.931 159.521 140.65C159.521 140.616 159.521 140.546 159.521 140.512C159.521 140.477 159.521 140.408 159.521 140.373C159.521 140.131 159.521 139.854 159.555 139.612C158.967 140.927 158.656 142.381 158.621 143.938C158.621 143.973 158.621 144.042 158.621 144.077C158.621 144.111 158.621 144.18 158.621 144.215C158.69 145.599 159.798 146.984 161.908 148.022C166.303 150.202 173.397 150.202 177.791 148.022C179.902 146.949 181.009 145.599 181.078 144.215C181.148 144.146 181.148 144.042 181.148 143.938Z" fill="#669B00"/>
<path d="M159.555 140.546C159.555 140.581 159.555 140.65 159.555 140.685C159.624 141.965 160.627 143.246 162.6 144.215C166.648 146.222 173.188 146.222 177.237 144.215C179.175 143.246 180.213 141.965 180.282 140.685C180.282 140.581 180.282 140.512 180.282 140.408C180.282 140.166 180.282 139.889 180.247 139.647C178.517 135.667 174.538 132.863 169.936 132.863C165.333 132.863 161.354 135.667 159.624 139.647C159.589 139.889 159.589 140.166 159.589 140.408C159.555 140.443 159.555 140.477 159.555 140.546Z" fill="#71AE00"/>
<path d="M169.9 132.863C166.44 132.863 163.326 134.455 161.249 136.913C161.249 137.051 161.249 137.224 161.215 137.362C161.215 137.397 161.215 137.432 161.215 137.466C161.215 137.501 161.215 137.535 161.215 137.57C161.284 138.643 162.115 139.716 163.741 140.512C167.132 142.208 172.599 142.208 175.99 140.512C177.617 139.681 178.482 138.643 178.516 137.57C178.516 137.501 178.516 137.432 178.516 137.328C178.516 137.189 178.516 137.016 178.482 136.878C176.475 134.455 173.36 132.863 169.9 132.863Z" fill="#7BBA00"/>
<path d="M159.554 155.775C159.519 154.252 159.208 152.798 158.62 151.448C158.654 151.691 158.654 151.968 158.654 152.21C158.654 152.314 158.654 152.383 158.654 152.487C158.585 153.767 157.581 155.048 155.609 156.017C151.561 158.024 145.021 158.024 140.972 156.017C139.034 155.048 137.996 153.767 137.927 152.487C137.927 152.452 137.927 152.383 137.927 152.348C137.927 152.314 137.927 152.244 137.927 152.21C137.927 151.968 137.927 151.691 137.962 151.448C137.373 152.764 137.062 154.217 137.027 155.775C137.027 155.809 137.027 155.878 137.027 155.913C137.027 155.948 137.027 156.017 137.027 156.051C137.097 157.436 138.204 158.82 140.315 159.858C144.709 162.039 151.837 162.039 156.197 159.858C158.308 158.786 159.415 157.436 159.485 156.051C159.554 155.982 159.554 155.878 159.554 155.775Z" fill="#669B00"/>
<path d="M137.961 152.348C137.961 152.383 137.961 152.452 137.961 152.487C138.03 153.767 139.034 155.048 141.006 156.017C145.055 158.024 151.594 158.024 155.643 156.017C157.581 155.048 158.619 153.767 158.688 152.487C158.688 152.383 158.688 152.314 158.688 152.21C158.688 151.968 158.688 151.691 158.653 151.448C156.923 147.468 152.944 144.665 148.342 144.665C143.74 144.665 139.76 147.468 138.03 151.448C137.996 151.691 137.996 151.968 137.996 152.21C137.961 152.244 137.961 152.314 137.961 152.348Z" fill="#71AE00"/>
<path d="M148.306 144.665C144.846 144.665 141.732 146.257 139.656 148.714C139.656 148.853 139.656 149.026 139.621 149.164C139.621 149.199 139.621 149.233 139.621 149.268C139.621 149.303 139.621 149.337 139.621 149.372C139.69 150.445 140.521 151.518 142.147 152.314C145.538 154.009 151.005 154.009 154.397 152.314C156.023 151.483 156.888 150.445 156.923 149.372C156.923 149.303 156.923 149.199 156.923 149.13C156.923 148.991 156.923 148.818 156.888 148.68C154.881 146.257 151.767 144.665 148.306 144.665Z" fill="#7BBA00"/>
<path d="M209.694 155.567C209.66 154.044 209.348 152.59 208.76 151.241C208.795 151.483 208.795 151.76 208.795 152.002C208.795 152.106 208.795 152.175 208.795 152.279C208.726 153.56 207.722 154.84 205.75 155.809C201.701 157.816 195.161 157.816 191.113 155.809C189.175 154.84 188.137 153.56 188.068 152.279C188.068 152.244 188.068 152.175 188.068 152.141C188.068 152.106 188.068 152.037 188.068 152.002C188.068 151.76 188.068 151.483 188.102 151.241C187.514 152.556 187.203 154.009 187.168 155.567C187.168 155.601 187.168 155.671 187.168 155.705C187.168 155.74 187.168 155.809 187.168 155.844C187.237 157.228 188.344 158.612 190.455 159.651C194.85 161.831 201.943 161.831 206.338 159.651C208.449 158.578 209.556 157.228 209.625 155.844C209.729 155.774 209.729 155.671 209.694 155.567Z" fill="#669B00"/>
<path d="M188.137 152.14C188.137 152.175 188.137 152.244 188.137 152.279C188.206 153.559 189.209 154.84 191.182 155.809C195.23 157.816 201.77 157.816 205.819 155.809C207.757 154.84 208.795 153.559 208.864 152.279C208.864 152.175 208.864 152.106 208.864 152.002C208.864 151.76 208.864 151.483 208.829 151.241C207.099 147.261 203.12 144.457 198.518 144.457C193.915 144.457 189.936 147.261 188.206 151.241C188.171 151.483 188.171 151.76 188.171 152.002C188.137 152.071 188.137 152.106 188.137 152.14Z" fill="#71AE00"/>
<path d="M198.482 144.492C195.022 144.492 191.908 146.084 189.831 148.541C189.831 148.68 189.831 148.853 189.797 148.991C189.797 149.026 189.797 149.06 189.797 149.095C189.797 149.13 189.797 149.164 189.797 149.199C189.866 150.272 190.697 151.344 192.323 152.14C195.714 153.836 201.181 153.836 204.572 152.14C206.199 151.31 207.064 150.272 207.098 149.199C207.098 149.13 207.098 149.06 207.098 148.956C207.098 148.818 207.098 148.645 207.064 148.507C205.057 146.049 201.943 144.492 198.482 144.492Z" fill="#7BBA00"/>
<path d="M188.136 167.368C188.101 165.846 187.79 164.392 187.202 163.042C187.236 163.284 187.236 163.561 187.236 163.804C187.236 163.907 187.236 163.977 187.236 164.08C187.167 165.361 186.164 166.642 184.191 167.611C180.143 169.618 173.603 169.618 169.554 167.611C167.616 166.642 166.578 165.361 166.509 164.08C166.509 164.046 166.509 163.977 166.509 163.942C166.509 163.907 166.509 163.838 166.509 163.804C166.509 163.561 166.509 163.284 166.544 163.042C165.955 164.357 165.644 165.811 165.609 167.368C165.609 167.403 165.609 167.472 165.609 167.507C165.609 167.541 165.609 167.611 165.609 167.645C165.679 169.03 166.786 170.414 168.897 171.452C173.291 173.633 180.419 173.633 184.779 171.452C186.89 170.379 187.997 169.03 188.067 167.645C188.136 167.576 188.136 167.472 188.136 167.368Z" fill="#669B00"/>
<path d="M166.543 163.977C166.543 164.011 166.543 164.08 166.543 164.115C166.612 165.396 167.616 166.676 169.588 167.645C173.637 169.652 180.177 169.652 184.225 167.645C186.163 166.676 187.201 165.396 187.27 164.115C187.27 164.011 187.27 163.942 187.27 163.838C187.27 163.596 187.27 163.319 187.236 163.077C185.505 159.097 181.526 156.293 176.924 156.293C172.322 156.293 168.342 159.097 166.612 163.077C166.578 163.319 166.578 163.596 166.578 163.838C166.543 163.873 166.543 163.907 166.543 163.977Z" fill="#71AE00"/>
<path d="M176.888 156.293C173.428 156.293 170.314 157.885 168.238 160.343C168.238 160.481 168.238 160.654 168.203 160.793C168.203 160.827 168.203 160.862 168.203 160.896C168.203 160.931 168.203 160.966 168.203 161C168.272 162.073 169.103 163.146 170.729 163.942C174.12 165.638 179.587 165.638 182.979 163.942C184.605 163.111 185.47 162.073 185.505 161C185.505 160.931 185.505 160.862 185.505 160.758C185.505 160.62 185.505 160.447 185.47 160.308C183.463 157.885 180.349 156.293 176.888 156.293Z" fill="#7BBA00"/>
<path d="M417.898 147.191V268.876L422.258 266.696V149.337L417.898 147.191Z" fill="#DA8651"/>
<path d="M157.343 221.462C157.308 219.939 156.997 218.486 156.409 217.136C156.443 217.378 156.443 217.655 156.443 217.897C156.443 218.001 156.443 218.07 156.443 218.174C156.374 219.455 155.371 220.735 153.398 221.704C149.35 223.712 142.81 223.712 138.761 221.704C136.823 220.735 135.785 219.455 135.716 218.174C135.716 218.14 135.716 218.07 135.716 218.036C135.716 218.001 135.716 217.932 135.716 217.897C135.716 217.655 135.716 217.378 135.751 217.136C135.162 218.451 134.851 219.905 134.816 221.462C134.816 221.497 134.816 221.566 134.816 221.601C134.816 221.635 134.816 221.704 134.816 221.739C134.886 223.123 135.993 224.508 138.104 225.546C142.498 227.726 149.626 227.726 153.986 225.546C156.097 224.473 157.204 223.123 157.274 221.739C157.343 221.67 157.343 221.566 157.343 221.462Z" fill="#669B00"/>
<path d="M135.75 218.07C135.75 218.105 135.75 218.174 135.75 218.209C135.819 219.489 136.823 220.77 138.795 221.739C142.844 223.746 149.384 223.746 153.432 221.739C155.37 220.77 156.408 219.489 156.477 218.209C156.477 218.105 156.477 218.036 156.477 217.932C156.477 217.69 156.477 217.413 156.443 217.171C154.712 213.191 150.733 210.387 146.131 210.387C141.529 210.387 137.549 213.191 135.819 217.171C135.785 217.413 135.785 217.69 135.785 217.932C135.75 217.967 135.75 218.001 135.75 218.07Z" fill="#71AE00"/>
<path d="M146.096 210.387C142.635 210.387 139.521 211.979 137.445 214.436C137.445 214.575 137.445 214.748 137.41 214.886C137.41 214.921 137.41 214.956 137.41 214.99C137.41 215.025 137.41 215.059 137.41 215.094C137.479 216.167 138.31 217.24 139.936 218.036C143.327 219.732 148.795 219.732 152.186 218.036C153.812 217.205 154.677 216.167 154.712 215.094C154.712 215.025 154.712 214.956 154.712 214.852C154.712 214.713 154.712 214.54 154.677 214.402C152.67 211.979 149.556 210.387 146.096 210.387Z" fill="#7BBA00"/>
<path d="M135.749 233.298C135.715 231.775 135.403 230.322 134.815 228.972C134.849 229.214 134.849 229.491 134.849 229.734C134.849 229.837 134.849 229.907 134.849 230.01C134.78 231.291 133.777 232.571 131.804 233.541C127.756 235.548 121.216 235.548 117.167 233.541C115.23 232.571 114.192 231.291 114.122 230.01C114.122 229.976 114.122 229.907 114.122 229.872C114.122 229.837 114.122 229.768 114.122 229.734C114.122 229.491 114.122 229.214 114.157 228.972C113.569 230.287 113.257 231.741 113.223 233.298C113.223 233.333 113.223 233.402 113.223 233.437C113.223 233.471 113.223 233.541 113.223 233.575C113.292 234.959 114.399 236.344 116.51 237.382C120.904 239.562 127.998 239.562 132.393 237.382C134.503 236.309 135.611 234.959 135.68 233.575C135.749 233.506 135.749 233.402 135.749 233.298Z" fill="#669B00"/>
<path d="M114.156 229.872C114.156 229.906 114.156 229.976 114.156 230.01C114.225 231.291 115.229 232.571 117.201 233.54C121.25 235.548 127.79 235.548 131.838 233.54C133.776 232.571 134.814 231.291 134.883 230.01C134.883 229.906 134.883 229.837 134.883 229.733C134.883 229.491 134.883 229.214 134.849 228.972C133.119 224.992 129.139 222.189 124.537 222.189C119.935 222.189 115.921 224.992 114.191 228.972C114.156 229.214 114.156 229.491 114.156 229.733C114.156 229.768 114.156 229.837 114.156 229.872Z" fill="#71AE00"/>
<path d="M124.502 222.189C121.041 222.189 117.927 223.781 115.851 226.238C115.851 226.376 115.851 226.549 115.816 226.688C115.816 226.722 115.816 226.757 115.816 226.792C115.816 226.826 115.816 226.861 115.816 226.896C115.886 227.968 116.716 229.041 118.342 229.837C121.734 231.533 127.201 231.533 130.592 229.837C132.218 229.007 133.083 227.968 133.118 226.896C133.118 226.826 133.118 226.757 133.118 226.653C133.118 226.515 133.118 226.342 133.083 226.203C131.076 223.781 127.962 222.189 124.502 222.189Z" fill="#7BBA00"/>
<path d="M182.429 235.133C182.394 233.61 182.083 232.156 181.495 230.807C181.529 231.049 181.529 231.326 181.529 231.568C181.529 231.672 181.529 231.741 181.529 231.845C181.46 233.125 180.456 234.406 178.484 235.375C174.436 237.382 167.896 237.382 163.847 235.375C161.909 234.406 160.871 233.125 160.802 231.845C160.802 231.81 160.802 231.741 160.802 231.706C160.802 231.672 160.802 231.603 160.802 231.568C160.802 231.326 160.802 231.049 160.837 230.807C160.248 232.122 159.937 233.575 159.902 235.133C159.902 235.167 159.902 235.237 159.902 235.271C159.902 235.306 159.902 235.375 159.902 235.41C159.972 236.794 161.079 238.178 163.19 239.217C167.584 241.397 174.678 241.397 179.072 239.217C181.183 238.144 182.29 236.794 182.36 235.41C182.429 235.34 182.429 235.237 182.429 235.133Z" fill="#669B00"/>
<path d="M160.836 231.706C160.836 231.741 160.836 231.81 160.836 231.845C160.905 233.125 161.909 234.406 163.881 235.375C167.93 237.382 174.469 237.382 178.518 235.375C180.456 234.406 181.494 233.125 181.563 231.845C181.563 231.741 181.563 231.672 181.563 231.568C181.563 231.326 181.563 231.049 181.528 230.807C179.798 226.827 175.819 224.023 171.217 224.023C166.615 224.023 162.635 226.827 160.905 230.807C160.871 231.049 160.871 231.326 160.871 231.568C160.836 231.637 160.836 231.672 160.836 231.706Z" fill="#71AE00"/>
<path d="M171.181 224.058C167.721 224.058 164.607 225.65 162.531 228.107C162.531 228.246 162.531 228.419 162.496 228.557C162.496 228.592 162.496 228.626 162.496 228.661C162.496 228.695 162.496 228.73 162.496 228.765C162.565 229.838 163.396 230.91 165.022 231.706C168.413 233.402 173.88 233.402 177.272 231.706C178.898 230.876 179.763 229.838 179.798 228.765C179.798 228.695 179.798 228.626 179.798 228.522C179.798 228.384 179.798 228.211 179.763 228.073C177.756 225.615 174.642 224.058 171.181 224.058Z" fill="#7BBA00"/>
<path d="M160.835 246.934C160.8 245.411 160.489 243.958 159.901 242.608C159.935 242.85 159.935 243.127 159.935 243.37C159.935 243.473 159.935 243.543 159.935 243.646C159.866 244.927 158.863 246.207 156.89 247.177C152.842 249.184 146.302 249.184 142.253 247.177C140.316 246.207 139.277 244.927 139.208 243.646C139.208 243.612 139.208 243.543 139.208 243.508C139.208 243.473 139.208 243.404 139.208 243.37C139.208 243.127 139.208 242.85 139.243 242.608C138.655 243.923 138.343 245.377 138.309 246.934C138.309 246.969 138.309 247.038 138.309 247.073C138.309 247.107 138.309 247.177 138.309 247.211C138.378 248.595 139.485 249.98 141.596 251.018C145.99 253.198 153.119 253.198 157.479 251.018C159.589 249.945 160.697 248.595 160.766 247.211C160.835 247.142 160.835 247.038 160.835 246.934Z" fill="#669B00"/>
<path d="M139.242 243.543C139.242 243.577 139.242 243.646 139.242 243.681C139.311 244.962 140.315 246.242 142.287 247.211C146.336 249.218 152.876 249.218 156.924 247.211C158.862 246.242 159.9 244.962 159.969 243.681C159.969 243.577 159.969 243.508 159.969 243.404C159.969 243.162 159.969 242.885 159.935 242.643C158.205 238.663 154.225 235.859 149.623 235.859C145.021 235.859 141.042 238.663 139.311 242.643C139.277 242.885 139.277 243.162 139.277 243.404C139.242 243.439 139.242 243.473 139.242 243.543Z" fill="#71AE00"/>
<path d="M149.588 235.859C146.127 235.859 143.013 237.451 140.937 239.909C140.937 240.047 140.937 240.22 140.902 240.359C140.902 240.393 140.902 240.428 140.902 240.462C140.902 240.497 140.902 240.532 140.902 240.566C140.972 241.639 141.802 242.712 143.428 243.508C146.819 245.204 152.287 245.204 155.678 243.508C157.304 242.677 158.169 241.639 158.204 240.566C158.204 240.497 158.204 240.393 158.204 240.324C158.204 240.185 158.204 240.012 158.169 239.874C156.162 237.451 153.048 235.859 149.588 235.859Z" fill="#7BBA00"/>
<path d="M210.976 246.761C210.941 245.238 210.63 243.785 210.041 242.435C210.076 242.677 210.076 242.954 210.076 243.196C210.076 243.3 210.076 243.369 210.076 243.473C210.007 244.754 209.003 246.034 207.031 247.003C202.982 249.011 196.442 249.011 192.394 247.003C190.456 246.034 189.418 244.754 189.349 243.473C189.349 243.439 189.349 243.369 189.349 243.335C189.349 243.3 189.349 243.231 189.349 243.196C189.349 242.954 189.349 242.677 189.383 242.435C188.795 243.75 188.484 245.204 188.449 246.761C188.449 246.796 188.449 246.865 188.449 246.9C188.449 246.934 188.449 247.003 188.449 247.038C188.518 248.422 189.626 249.807 191.737 250.845C196.131 253.025 203.225 253.025 207.619 250.845C209.73 249.772 210.837 248.422 210.907 247.038C211.01 246.969 211.01 246.865 210.976 246.761Z" fill="#669B00"/>
<path d="M189.418 243.335C189.418 243.369 189.418 243.439 189.418 243.473C189.487 244.754 190.491 246.034 192.463 247.003C196.512 249.011 203.052 249.011 207.1 247.003C209.038 246.034 210.076 244.754 210.145 243.473C210.145 243.369 210.145 243.3 210.145 243.196C210.145 242.954 210.145 242.677 210.111 242.435C208.38 238.455 204.401 235.652 199.799 235.652C195.197 235.652 191.217 238.455 189.487 242.435C189.453 242.677 189.453 242.954 189.453 243.196C189.418 243.231 189.418 243.3 189.418 243.335Z" fill="#71AE00"/>
<path d="M199.763 235.652C196.303 235.652 193.189 237.244 191.113 239.701C191.113 239.839 191.113 240.012 191.078 240.151C191.078 240.185 191.078 240.22 191.078 240.255C191.078 240.289 191.078 240.324 191.078 240.358C191.147 241.431 191.978 242.504 193.604 243.3C196.995 244.996 202.462 244.996 205.854 243.3C207.48 242.47 208.345 241.431 208.38 240.358C208.38 240.289 208.38 240.22 208.38 240.116C208.38 239.978 208.38 239.805 208.345 239.666C206.338 237.244 203.224 235.652 199.763 235.652Z" fill="#7BBA00"/>
<path d="M189.382 258.563C189.347 257.04 189.036 255.587 188.448 254.237C188.482 254.479 188.482 254.756 188.482 254.998C188.482 255.102 188.482 255.171 188.482 255.275C188.413 256.556 187.41 257.836 185.437 258.805C181.389 260.812 174.849 260.812 170.8 258.805C168.862 257.836 167.824 256.556 167.755 255.275C167.755 255.24 167.755 255.171 167.755 255.137C167.755 255.102 167.755 255.033 167.755 254.998C167.755 254.756 167.755 254.479 167.79 254.237C167.201 255.552 166.89 257.006 166.855 258.563C166.855 258.598 166.855 258.667 166.855 258.701C166.855 258.736 166.855 258.805 166.855 258.84C166.925 260.224 168.032 261.608 170.143 262.647C174.537 264.827 181.666 264.827 186.025 262.647C188.136 261.574 189.244 260.224 189.313 258.84C189.417 258.771 189.417 258.667 189.382 258.563Z" fill="#669B00"/>
<path d="M167.824 255.137C167.824 255.171 167.824 255.24 167.824 255.275C167.893 256.556 168.897 257.836 170.869 258.805C174.918 260.812 181.458 260.812 185.506 258.805C187.444 257.836 188.482 256.556 188.551 255.275C188.551 255.171 188.551 255.102 188.551 254.998C188.551 254.756 188.551 254.479 188.517 254.237C186.787 250.257 182.807 247.453 178.205 247.453C173.603 247.453 169.624 250.257 167.893 254.237C167.859 254.479 167.859 254.756 167.859 254.998C167.824 255.067 167.824 255.102 167.824 255.137Z" fill="#71AE00"/>
<path d="M178.17 247.488C174.709 247.488 171.595 249.08 169.519 251.537C169.519 251.676 169.519 251.849 169.484 251.987C169.484 252.022 169.484 252.056 169.484 252.091C169.484 252.126 169.484 252.16 169.484 252.195C169.554 253.268 170.384 254.341 172.01 255.137C175.401 256.832 180.869 256.832 184.26 255.137C185.886 254.306 186.751 253.268 186.786 252.195C186.786 252.126 186.786 252.056 186.786 251.953C186.786 251.814 186.786 251.641 186.751 251.503C184.744 249.045 181.63 247.488 178.17 247.488Z" fill="#7BBA00"/>
<path d="M261.633 94.7937L192.496 172.041V241.189V291.372L197.237 283.723V174.394L263.536 99.812L326.029 107.114V223.85L330.769 221.427V172.041V102.892L261.633 94.7937Z" fill="#F5A46F"/>
<path d="M279.835 322.901L193.812 279.882L242.637 255.275L329.456 298.709L279.835 322.901Z" fill="#914E3A"/>
<path d="M193.812 279.882V289.365L279.835 332.383V322.901L193.812 279.882Z" fill="#733529"/>
<path d="M329.457 298.709V308.192L279.836 332.383V322.901L329.457 298.709Z" fill="#672C24"/>
<path d="M368.281 279.467L282.258 236.448L331.083 211.841L417.901 255.275L368.281 279.467Z" fill="#914E3A"/>
<path d="M282.258 236.448V245.931L368.281 288.949V279.467L282.258 236.448Z" fill="#733529"/>
<path d="M417.902 255.275V264.758L368.281 288.949V279.466L417.902 255.275Z" fill="#672C24"/>
<path d="M254.644 270.538C254.609 269.015 254.298 267.561 253.709 266.211C253.744 266.454 253.744 266.731 253.744 266.973C253.744 267.077 253.744 267.146 253.744 267.25C253.675 268.53 252.671 269.811 250.699 270.78C246.65 272.787 240.11 272.787 236.062 270.78C234.124 269.811 233.086 268.53 233.017 267.25C233.017 267.215 233.017 267.146 233.017 267.111C233.017 267.077 233.017 267.007 233.017 266.973C233.017 266.731 233.017 266.454 233.051 266.211C232.463 267.527 232.152 268.98 232.117 270.538C232.117 270.572 232.117 270.641 232.117 270.676C232.117 270.711 232.117 270.78 232.117 270.814C232.186 272.199 233.294 273.583 235.404 274.621C239.799 276.802 246.893 276.802 251.287 274.621C253.398 273.548 254.505 272.199 254.574 270.814C254.644 270.711 254.644 270.607 254.644 270.538Z" fill="#669B00"/>
<path d="M233.051 267.111C233.051 267.146 233.051 267.215 233.051 267.25C233.12 268.53 234.123 269.811 236.096 270.78C240.144 272.787 246.684 272.787 250.733 270.78C252.671 269.811 253.709 268.53 253.778 267.25C253.778 267.146 253.778 267.077 253.778 266.973C253.778 266.73 253.778 266.454 253.743 266.211C252.013 262.231 248.034 259.428 243.432 259.428C238.829 259.428 234.85 262.231 233.12 266.211C233.085 266.454 233.085 266.73 233.085 266.973C233.051 267.007 233.051 267.042 233.051 267.111Z" fill="#71AE00"/>
<path d="M243.396 259.428C239.936 259.428 236.822 261.02 234.746 263.477C234.746 263.616 234.746 263.789 234.711 263.927C234.711 263.962 234.711 263.996 234.711 264.031C234.711 264.066 234.711 264.1 234.711 264.135C234.78 265.208 235.611 266.281 237.237 267.077C240.628 268.772 246.095 268.772 249.486 267.077C251.113 266.246 251.978 265.208 252.012 264.135C252.012 264.066 252.012 263.996 252.012 263.893C252.012 263.754 252.012 263.581 251.978 263.443C250.005 261.02 246.891 259.428 243.396 259.428Z" fill="#7BBA00"/>
<path d="M233.05 282.339C233.015 280.816 232.704 279.362 232.116 278.013C232.15 278.255 232.15 278.532 232.15 278.774C232.15 278.878 232.15 278.947 232.15 279.051C232.081 280.331 231.078 281.612 229.105 282.581C225.057 284.588 218.517 284.588 214.468 282.581C212.53 281.612 211.492 280.331 211.423 279.051C211.423 279.016 211.423 278.947 211.423 278.913C211.423 278.878 211.423 278.809 211.423 278.774C211.423 278.532 211.423 278.255 211.458 278.013C210.869 279.328 210.558 280.781 210.523 282.339C210.523 282.373 210.523 282.443 210.523 282.477C210.523 282.512 210.523 282.581 210.523 282.616C210.593 284 211.7 285.384 213.811 286.423C218.205 288.603 225.299 288.603 229.693 286.423C231.804 285.35 232.912 284 232.981 282.616C233.05 282.546 233.05 282.443 233.05 282.339Z" fill="#669B00"/>
<path d="M211.457 278.913C211.457 278.947 211.457 279.016 211.457 279.051C211.526 280.332 212.53 281.612 214.502 282.581C218.551 284.588 225.091 284.588 229.139 282.581C231.077 281.612 232.115 280.332 232.184 279.051C232.184 278.947 232.184 278.878 232.184 278.774C232.184 278.532 232.184 278.255 232.15 278.013C230.419 274.033 226.44 271.229 221.838 271.229C217.236 271.229 213.256 274.033 211.526 278.013C211.492 278.255 211.492 278.532 211.492 278.774C211.457 278.843 211.457 278.878 211.457 278.913Z" fill="#71AE00"/>
<path d="M221.803 271.264C218.342 271.264 215.228 272.856 213.152 275.313C213.152 275.452 213.152 275.625 213.117 275.763C213.117 275.798 213.117 275.833 213.117 275.867C213.117 275.902 213.117 275.936 213.117 275.971C213.186 277.044 214.017 278.117 215.643 278.913C219.034 280.609 224.502 280.609 227.893 278.913C229.519 278.082 230.384 277.044 230.419 275.971C230.419 275.902 230.419 275.833 230.419 275.729C230.419 275.59 230.419 275.417 230.384 275.279C228.412 272.822 225.297 271.264 221.803 271.264Z" fill="#7BBA00"/>
<path d="M279.73 284.173C279.695 282.65 279.384 281.197 278.795 279.847C278.83 280.089 278.83 280.366 278.83 280.609C278.83 280.712 278.83 280.782 278.83 280.885C278.761 282.166 277.757 283.446 275.785 284.416C271.736 286.423 265.196 286.423 261.148 284.416C259.21 283.446 258.172 282.166 258.103 280.885C258.103 280.851 258.103 280.782 258.103 280.747C258.103 280.712 258.103 280.643 258.103 280.609C258.103 280.366 258.103 280.089 258.137 279.847C257.549 281.162 257.238 282.616 257.203 284.173C257.203 284.208 257.203 284.277 257.203 284.312C257.203 284.346 257.203 284.416 257.203 284.45C257.272 285.835 258.38 287.219 260.49 288.257C264.885 290.437 271.979 290.437 276.373 288.257C278.484 287.184 279.591 285.835 279.66 284.45C279.73 284.381 279.73 284.277 279.73 284.173Z" fill="#669B00"/>
<path d="M258.137 280.747C258.137 280.782 258.137 280.851 258.137 280.886C258.206 282.166 259.209 283.447 261.182 284.416C265.23 286.423 271.77 286.423 275.819 284.416C277.757 283.447 278.795 282.166 278.864 280.886C278.864 280.782 278.864 280.713 278.864 280.609C278.864 280.366 278.864 280.09 278.829 279.847C277.099 275.867 273.12 273.064 268.518 273.064C263.915 273.064 259.936 275.867 258.206 279.847C258.171 280.09 258.171 280.366 258.171 280.609C258.137 280.678 258.137 280.713 258.137 280.747Z" fill="#71AE00"/>
<path d="M268.482 273.099C265.022 273.099 261.908 274.691 259.831 277.148C259.831 277.286 259.831 277.459 259.797 277.598C259.797 277.632 259.797 277.667 259.797 277.702C259.797 277.736 259.797 277.771 259.797 277.805C259.866 278.878 260.697 279.951 262.323 280.747C265.714 282.443 271.181 282.443 274.572 280.747C276.199 279.917 277.064 278.878 277.098 277.805C277.098 277.736 277.098 277.667 277.098 277.563C277.098 277.425 277.098 277.252 277.064 277.113C275.091 274.656 271.977 273.099 268.482 273.099Z" fill="#7BBA00"/>
<path d="M258.136 296.01C258.101 294.487 257.79 293.033 257.202 291.684C257.236 291.926 257.236 292.203 257.236 292.445C257.236 292.549 257.236 292.618 257.236 292.722C257.167 294.002 256.164 295.283 254.191 296.252C250.143 298.259 243.603 298.259 239.554 296.252C237.616 295.283 236.578 294.002 236.509 292.722C236.509 292.687 236.509 292.618 236.509 292.583C236.509 292.549 236.509 292.48 236.509 292.445C236.509 292.203 236.509 291.926 236.544 291.684C235.955 292.999 235.644 294.452 235.609 296.01C235.609 296.044 235.609 296.114 235.609 296.148C235.609 296.183 235.609 296.252 235.609 296.287C235.679 297.671 236.786 299.055 238.897 300.094C243.291 302.274 250.385 302.274 254.779 300.094C256.89 299.021 257.997 297.671 258.067 296.287C258.136 296.183 258.136 296.114 258.136 296.01Z" fill="#669B00"/>
<path d="M236.543 292.583C236.543 292.618 236.543 292.687 236.543 292.722C236.612 294.002 237.616 295.283 239.588 296.252C243.637 298.259 250.177 298.259 254.225 296.252C256.163 295.283 257.201 294.002 257.27 292.722C257.27 292.618 257.27 292.549 257.27 292.445C257.27 292.203 257.27 291.926 257.236 291.683C255.505 287.703 251.526 284.9 246.924 284.9C242.322 284.9 238.342 287.703 236.612 291.683C236.578 291.926 236.578 292.203 236.578 292.445C236.543 292.48 236.543 292.549 236.543 292.583Z" fill="#71AE00"/>
<path d="M246.888 284.9C243.428 284.9 240.314 286.492 238.238 288.949C238.238 289.088 238.238 289.261 238.203 289.399C238.203 289.434 238.203 289.469 238.203 289.503C238.203 289.538 238.203 289.572 238.203 289.607C238.272 290.68 239.103 291.753 240.729 292.549C244.12 294.245 249.588 294.245 252.979 292.549C254.605 291.718 255.47 290.68 255.505 289.607C255.505 289.538 255.505 289.469 255.505 289.365C255.505 289.226 255.505 289.053 255.47 288.915C253.498 286.492 250.383 284.9 246.888 284.9Z" fill="#7BBA00"/>
<path d="M308.312 295.802C308.277 294.279 307.966 292.825 307.377 291.476C307.412 291.718 307.412 291.995 307.412 292.237C307.412 292.341 307.412 292.41 307.412 292.514C307.343 293.794 306.339 295.075 304.367 296.044C300.318 298.051 293.778 298.051 289.73 296.044C287.792 295.075 286.754 293.794 286.685 292.514C286.685 292.479 286.685 292.41 286.685 292.375C286.685 292.341 286.685 292.272 286.685 292.237C286.685 291.995 286.685 291.718 286.719 291.476C286.131 292.791 285.82 294.244 285.785 295.802C285.785 295.836 285.785 295.906 285.785 295.94C285.785 295.975 285.785 296.044 285.785 296.079C285.854 297.463 286.962 298.847 289.072 299.886C293.467 302.066 300.595 302.066 304.955 299.886C307.066 298.813 308.173 297.463 308.242 296.079C308.312 296.009 308.312 295.906 308.312 295.802Z" fill="#669B00"/>
<path d="M286.719 292.376C286.719 292.41 286.719 292.479 286.719 292.514C286.788 293.794 287.791 295.075 289.764 296.044C293.812 298.051 300.352 298.051 304.401 296.044C306.339 295.075 307.377 293.794 307.446 292.514C307.446 292.41 307.446 292.341 307.446 292.237C307.446 291.995 307.446 291.718 307.411 291.476C305.681 287.496 301.702 284.692 297.1 284.692C292.497 284.692 288.518 287.496 286.788 291.476C286.753 291.718 286.753 291.995 286.753 292.237C286.719 292.272 286.719 292.341 286.719 292.376Z" fill="#71AE00"/>
<path d="M297.064 284.692C293.604 284.692 290.49 286.284 288.414 288.742C288.414 288.88 288.414 289.053 288.379 289.192C288.379 289.226 288.379 289.261 288.379 289.295C288.379 289.33 288.379 289.365 288.379 289.399C288.448 290.472 289.279 291.545 290.905 292.341C294.296 294.037 299.763 294.037 303.154 292.341C304.781 291.51 305.646 290.472 305.68 289.399C305.68 289.33 305.68 289.261 305.68 289.157C305.68 289.018 305.68 288.845 305.646 288.707C303.639 286.284 300.559 284.692 297.064 284.692Z" fill="#7BBA00"/>
<path d="M286.718 307.603C286.683 306.081 286.372 304.627 285.784 303.277C285.818 303.52 285.818 303.796 285.818 304.039C285.818 304.143 285.818 304.212 285.818 304.316C285.749 305.596 284.746 306.877 282.773 307.846C278.725 309.853 272.185 309.853 268.136 307.846C266.198 306.877 265.16 305.596 265.091 304.316C265.091 304.281 265.091 304.212 265.091 304.177C265.091 304.143 265.091 304.073 265.091 304.039C265.091 303.796 265.091 303.52 265.126 303.277C264.537 304.592 264.226 306.046 264.191 307.603C264.191 307.638 264.191 307.707 264.191 307.742C264.191 307.776 264.191 307.846 264.191 307.88C264.261 309.265 265.368 310.649 267.479 311.687C271.873 313.868 278.967 313.868 283.361 311.687C285.472 310.614 286.579 309.265 286.649 307.88C286.718 307.811 286.718 307.707 286.718 307.603Z" fill="#669B00"/>
<path d="M265.125 304.212C265.125 304.246 265.125 304.316 265.125 304.35C265.194 305.631 266.198 306.911 268.17 307.88C272.219 309.888 278.759 309.888 282.807 307.88C284.745 306.911 285.783 305.631 285.852 304.35C285.852 304.246 285.852 304.177 285.852 304.073C285.852 303.831 285.852 303.554 285.818 303.312C284.087 299.332 280.108 296.529 275.506 296.529C270.904 296.529 266.924 299.332 265.194 303.312C265.16 303.554 265.16 303.831 265.16 304.073C265.125 304.108 265.125 304.143 265.125 304.212Z" fill="#71AE00"/>
<path d="M275.471 296.529C272.01 296.529 268.896 298.121 266.82 300.578C266.82 300.716 266.82 300.889 266.785 301.028C266.785 301.062 266.785 301.097 266.785 301.132C266.785 301.166 266.785 301.201 266.785 301.235C266.854 302.308 267.685 303.381 269.311 304.177C272.702 305.873 278.17 305.873 281.561 304.177C283.187 303.347 284.052 302.308 284.087 301.235C284.087 301.166 284.087 301.097 284.087 300.993C284.087 300.855 284.087 300.682 284.052 300.543C282.045 298.086 278.965 296.529 275.471 296.529Z" fill="#7BBA00"/>
<path d="M345.304 225.823C345.269 224.3 344.958 222.847 344.37 221.497C344.404 221.739 344.404 222.016 344.404 222.258C344.404 222.362 344.404 222.431 344.404 222.535C344.335 223.816 343.331 225.096 341.359 226.065C337.311 228.072 330.771 228.072 326.722 226.065C324.784 225.096 323.746 223.816 323.677 222.535C323.677 222.5 323.677 222.431 323.677 222.397C323.677 222.362 323.677 222.293 323.677 222.258C323.677 222.016 323.677 221.739 323.712 221.497C323.123 222.812 322.812 224.266 322.777 225.823C322.777 225.858 322.777 225.927 322.777 225.961C322.777 225.996 322.777 226.065 322.777 226.1C322.847 227.484 323.954 228.868 326.065 229.907C330.459 232.087 337.553 232.087 341.947 229.907C344.058 228.834 345.165 227.484 345.235 226.1C345.304 226.031 345.304 225.927 345.304 225.823Z" fill="#669B00"/>
<path d="M323.711 222.397C323.711 222.431 323.711 222.5 323.711 222.535C323.78 223.816 324.784 225.096 326.756 226.065C330.805 228.072 337.344 228.072 341.393 226.065C343.331 225.096 344.369 223.816 344.438 222.535C344.438 222.431 344.438 222.362 344.438 222.258C344.438 222.016 344.438 221.739 344.403 221.497C342.673 217.517 338.694 214.713 334.092 214.713C329.49 214.713 325.51 217.517 323.78 221.497C323.746 221.739 323.746 222.016 323.746 222.258C323.711 222.327 323.711 222.362 323.711 222.397Z" fill="#71AE00"/>
<path d="M334.056 214.748C330.596 214.748 327.482 216.34 325.406 218.797C325.406 218.936 325.406 219.109 325.371 219.247C325.371 219.282 325.371 219.316 325.371 219.351C325.371 219.386 325.371 219.42 325.371 219.455C325.44 220.528 326.271 221.601 327.897 222.397C331.288 224.092 336.755 224.092 340.147 222.397C341.773 221.566 342.638 220.528 342.673 219.455C342.673 219.386 342.673 219.282 342.673 219.213C342.673 219.074 342.673 218.901 342.638 218.763C340.631 216.305 337.517 214.748 334.056 214.748Z" fill="#7BBA00"/>
<path d="M323.71 237.659C323.676 236.136 323.364 234.683 322.776 233.333C322.81 233.575 322.81 233.852 322.81 234.094C322.81 234.198 322.81 234.267 322.81 234.371C322.741 235.652 321.738 236.932 319.765 237.901C315.717 239.909 309.177 239.909 305.128 237.901C303.191 236.932 302.152 235.652 302.083 234.371C302.083 234.337 302.083 234.267 302.083 234.233C302.083 234.198 302.083 234.129 302.083 234.094C302.083 233.852 302.083 233.575 302.118 233.333C301.53 234.648 301.218 236.102 301.184 237.659C301.184 237.694 301.184 237.763 301.184 237.798C301.184 237.832 301.184 237.901 301.184 237.936C301.253 239.32 302.36 240.705 304.471 241.743C308.865 243.923 315.959 243.923 320.354 241.743C322.464 240.67 323.572 239.32 323.641 237.936C323.71 237.832 323.71 237.728 323.71 237.659Z" fill="#669B00"/>
<path d="M302.117 234.233C302.117 234.267 302.117 234.337 302.117 234.371C302.186 235.652 303.19 236.932 305.162 237.901C309.211 239.909 315.751 239.909 319.799 237.901C321.737 236.932 322.775 235.652 322.844 234.371C322.844 234.267 322.844 234.198 322.844 234.094C322.844 233.852 322.844 233.575 322.81 233.333C321.08 229.353 317.1 226.55 312.498 226.55C307.896 226.55 303.917 229.353 302.186 233.333C302.152 233.575 302.152 233.852 302.152 234.094C302.117 234.129 302.117 234.198 302.117 234.233Z" fill="#71AE00"/>
<path d="M312.463 226.55C309.002 226.55 305.888 228.142 303.812 230.599C303.812 230.737 303.812 230.91 303.777 231.049C303.777 231.083 303.777 231.118 303.777 231.153C303.777 231.187 303.777 231.222 303.777 231.256C303.847 232.329 304.677 233.402 306.303 234.198C309.694 235.894 315.162 235.894 318.553 234.198C320.179 233.367 321.044 232.329 321.079 231.256C321.079 231.187 321.079 231.118 321.079 231.014C321.079 230.876 321.079 230.703 321.044 230.564C319.037 228.142 315.923 226.55 312.463 226.55Z" fill="#7BBA00"/>
<path d="M370.39 239.493C370.355 237.97 370.044 236.517 369.456 235.167C369.49 235.409 369.49 235.686 369.49 235.928C369.49 236.032 369.49 236.101 369.49 236.205C369.421 237.486 368.417 238.766 366.445 239.735C362.397 241.743 355.857 241.743 351.808 239.735C349.87 238.766 348.832 237.486 348.763 236.205C348.763 236.171 348.763 236.101 348.763 236.067C348.763 236.032 348.763 235.963 348.763 235.928C348.763 235.686 348.763 235.409 348.798 235.167C348.209 236.482 347.898 237.936 347.863 239.493C347.863 239.528 347.863 239.597 347.863 239.632C347.863 239.666 347.863 239.735 347.863 239.77C347.932 241.154 349.04 242.539 351.151 243.577C355.545 245.757 362.639 245.757 367.033 243.577C369.144 242.504 370.251 241.154 370.321 239.77C370.39 239.701 370.39 239.597 370.39 239.493Z" fill="#669B00"/>
<path d="M348.797 236.067C348.797 236.102 348.797 236.171 348.797 236.205C348.866 237.486 349.87 238.766 351.842 239.735C355.89 241.743 362.43 241.743 366.479 239.735C368.417 238.766 369.455 237.486 369.524 236.205C369.524 236.102 369.524 236.032 369.524 235.929C369.524 235.686 369.524 235.409 369.489 235.167C367.759 231.187 363.78 228.384 359.178 228.384C354.576 228.384 350.596 231.187 348.866 235.167C348.831 235.409 348.831 235.686 348.831 235.929C348.797 235.963 348.797 236.032 348.797 236.067Z" fill="#71AE00"/>
<path d="M359.142 228.384C355.682 228.384 352.568 229.976 350.492 232.433C350.492 232.571 350.492 232.745 350.457 232.883C350.457 232.918 350.457 232.952 350.457 232.987C350.457 233.021 350.457 233.056 350.457 233.091C350.526 234.163 351.357 235.236 352.983 236.032C356.374 237.728 361.841 237.728 365.232 236.032C366.859 235.202 367.724 234.163 367.758 233.091C367.758 233.021 367.758 232.918 367.758 232.848C367.758 232.71 367.758 232.537 367.724 232.398C365.717 229.976 362.603 228.384 359.142 228.384Z" fill="#7BBA00"/>
<path d="M348.796 251.295C348.761 249.772 348.45 248.319 347.862 246.969C347.896 247.211 347.896 247.488 347.896 247.73C347.896 247.834 347.896 247.903 347.896 248.007C347.827 249.288 346.824 250.568 344.851 251.537C340.803 253.545 334.263 253.545 330.214 251.537C328.276 250.568 327.238 249.288 327.169 248.007C327.169 247.973 327.169 247.903 327.169 247.869C327.169 247.834 327.169 247.765 327.169 247.73C327.169 247.488 327.169 247.211 327.204 246.969C326.616 248.284 326.304 249.738 326.27 251.295C326.27 251.33 326.27 251.399 326.27 251.434C326.27 251.468 326.27 251.537 326.27 251.572C326.339 252.956 327.446 254.341 329.557 255.379C333.951 257.559 341.045 257.559 345.44 255.379C347.55 254.306 348.658 252.956 348.727 251.572C348.796 251.503 348.796 251.399 348.796 251.295Z" fill="#669B00"/>
<path d="M327.203 247.903C327.203 247.938 327.203 248.007 327.203 248.042C327.272 249.322 328.276 250.603 330.248 251.572C334.297 253.579 340.837 253.579 344.885 251.572C346.823 250.603 347.861 249.322 347.93 248.042C347.93 247.938 347.93 247.869 347.93 247.765C347.93 247.523 347.93 247.246 347.896 247.004C346.166 243.024 342.186 240.22 337.584 240.22C332.982 240.22 329.002 243.024 327.272 247.004C327.238 247.246 327.238 247.523 327.238 247.765C327.203 247.8 327.203 247.834 327.203 247.903Z" fill="#71AE00"/>
<path d="M337.549 240.22C334.088 240.22 330.974 241.812 328.898 244.269C328.898 244.408 328.898 244.581 328.863 244.719C328.863 244.754 328.863 244.789 328.863 244.823C328.863 244.858 328.863 244.892 328.863 244.927C328.932 246 329.763 247.073 331.389 247.869C334.78 249.565 340.248 249.565 343.639 247.869C345.265 247.038 346.13 246 346.165 244.927C346.165 244.858 346.165 244.754 346.165 244.685C346.165 244.546 346.165 244.373 346.13 244.235C344.123 241.778 341.009 240.22 337.549 240.22Z" fill="#7BBA00"/>
<path d="M398.937 251.087C398.902 249.565 398.591 248.111 398.002 246.761C398.037 247.003 398.037 247.28 398.037 247.523C398.037 247.626 398.037 247.696 398.037 247.799C397.968 249.08 396.964 250.361 394.992 251.33C390.943 253.337 384.403 253.337 380.355 251.33C378.417 250.361 377.379 249.08 377.31 247.799C377.31 247.765 377.31 247.696 377.31 247.661C377.31 247.626 377.31 247.557 377.31 247.523C377.31 247.28 377.31 247.003 377.344 246.761C376.756 248.076 376.445 249.53 376.41 251.087C376.41 251.122 376.41 251.191 376.41 251.226C376.41 251.26 376.41 251.33 376.41 251.364C376.479 252.749 377.587 254.133 379.697 255.171C384.092 257.352 391.186 257.352 395.58 255.171C397.691 254.098 398.798 252.749 398.867 251.364C398.937 251.295 398.937 251.191 398.937 251.087Z" fill="#669B00"/>
<path d="M377.344 247.696C377.344 247.73 377.344 247.799 377.344 247.834C377.413 249.115 378.416 250.395 380.389 251.364C384.437 253.371 390.977 253.371 395.026 251.364C396.964 250.395 398.002 249.115 398.071 247.834C398.071 247.73 398.071 247.661 398.071 247.557C398.071 247.315 398.071 247.038 398.036 246.796C396.306 242.816 392.327 240.012 387.725 240.012C383.122 240.012 379.143 242.816 377.413 246.796C377.378 247.038 377.378 247.315 377.378 247.557C377.378 247.592 377.344 247.626 377.344 247.696Z" fill="#71AE00"/>
<path d="M387.724 240.012C384.264 240.012 381.15 241.604 379.074 244.062C379.074 244.2 379.074 244.373 379.039 244.512C379.039 244.546 379.039 244.581 379.039 244.615C379.039 244.65 379.039 244.685 379.039 244.719C379.108 245.792 379.939 246.865 381.565 247.661C384.956 249.357 390.423 249.357 393.814 247.661C395.441 246.83 396.306 245.792 396.341 244.719C396.341 244.65 396.341 244.581 396.341 244.477C396.341 244.339 396.341 244.166 396.306 244.027C394.299 241.604 391.185 240.012 387.724 240.012Z" fill="#7BBA00"/>
<path d="M377.343 262.923C377.308 261.4 376.997 259.947 376.409 258.597C376.443 258.839 376.443 259.116 376.443 259.359C376.443 259.462 376.443 259.532 376.443 259.635C376.374 260.916 375.371 262.196 373.398 263.166C369.35 265.173 362.81 265.173 358.761 263.166C356.823 262.196 355.785 260.916 355.716 259.635C355.716 259.601 355.716 259.532 355.716 259.497C355.716 259.462 355.716 259.393 355.716 259.359C355.716 259.116 355.716 258.839 355.751 258.597C355.162 259.912 354.851 261.366 354.816 262.923C354.816 262.958 354.816 263.027 354.816 263.062C354.816 263.096 354.816 263.166 354.816 263.2C354.886 264.584 355.993 265.969 358.104 267.007C362.498 269.187 369.592 269.187 373.986 267.007C376.097 265.934 377.204 264.584 377.274 263.2C377.378 263.131 377.378 263.027 377.343 262.923Z" fill="#669B00"/>
<path d="M355.75 259.497C355.75 259.532 355.75 259.601 355.75 259.636C355.819 260.916 356.823 262.197 358.795 263.166C362.844 265.173 369.384 265.173 373.432 263.166C375.37 262.197 376.408 260.916 376.477 259.636C376.477 259.532 376.477 259.463 376.477 259.359C376.477 259.116 376.477 258.84 376.443 258.597C374.712 254.617 370.733 251.814 366.131 251.814C361.529 251.814 357.549 254.617 355.819 258.597C355.785 258.84 355.785 259.116 355.785 259.359C355.785 259.393 355.75 259.463 355.75 259.497Z" fill="#71AE00"/>
<path d="M366.131 251.849C362.67 251.849 359.556 253.441 357.48 255.898C357.48 256.036 357.48 256.209 357.445 256.348C357.445 256.382 357.445 256.417 357.445 256.452C357.445 256.486 357.445 256.521 357.445 256.555C357.515 257.628 358.345 258.701 359.971 259.497C363.362 261.193 368.83 261.193 372.221 259.497C373.847 258.667 374.712 257.628 374.747 256.555C374.747 256.486 374.747 256.417 374.747 256.313C374.747 256.175 374.747 256.002 374.712 255.863C372.705 253.406 369.591 251.849 366.131 251.849Z" fill="#7BBA00"/>
<path d="M250.698 175.917C250.664 174.394 250.352 172.941 249.764 171.591C249.799 171.833 249.799 172.11 249.799 172.352C249.799 172.456 249.799 172.525 249.799 172.629C249.729 173.91 248.726 175.19 246.754 176.159C242.705 178.167 236.165 178.167 232.117 176.159C230.179 175.19 229.141 173.91 229.072 172.629C229.072 172.594 229.072 172.525 229.072 172.491C229.072 172.456 229.072 172.387 229.072 172.352C229.072 172.11 229.072 171.833 229.106 171.591C228.518 172.906 228.206 174.36 228.172 175.917C228.172 175.952 228.172 176.021 228.172 176.055C228.172 176.09 228.172 176.159 228.172 176.194C228.241 177.578 229.348 178.962 231.459 180.001C235.854 182.181 242.947 182.181 247.342 180.001C249.453 178.928 250.56 177.578 250.629 176.194C250.698 176.125 250.698 176.021 250.698 175.917Z" fill="#669B00"/>
<path d="M229.105 172.491C229.105 172.525 229.105 172.594 229.105 172.629C229.175 173.91 230.178 175.19 232.151 176.159C236.199 178.166 242.739 178.166 246.788 176.159C248.725 175.19 249.763 173.91 249.833 172.629C249.833 172.525 249.833 172.456 249.833 172.352C249.833 172.11 249.833 171.833 249.798 171.591C248.068 167.611 244.089 164.807 239.486 164.807C234.884 164.807 230.905 167.611 229.175 171.591C229.14 171.833 229.14 172.11 229.14 172.352C229.105 172.387 229.105 172.456 229.105 172.491Z" fill="#71AE00"/>
<path d="M239.451 164.842C235.991 164.842 232.876 166.434 230.8 168.891C230.8 169.03 230.8 169.203 230.766 169.341C230.766 169.376 230.766 169.41 230.766 169.445C230.766 169.48 230.766 169.514 230.766 169.549C230.835 170.622 231.665 171.695 233.292 172.491C236.683 174.186 242.15 174.186 245.541 172.491C247.167 171.66 248.032 170.622 248.067 169.549C248.067 169.48 248.067 169.376 248.067 169.307C248.067 169.168 248.067 168.995 248.032 168.857C246.025 166.399 242.946 164.842 239.451 164.842Z" fill="#7BBA00"/>
<path d="M229.105 187.718C229.07 186.196 228.759 184.742 228.17 183.392C228.205 183.635 228.205 183.911 228.205 184.154C228.205 184.258 228.205 184.327 228.205 184.431C228.136 185.711 227.132 186.992 225.16 187.961C221.111 189.968 214.571 189.968 210.523 187.961C208.585 186.992 207.547 185.711 207.478 184.431C207.478 184.396 207.478 184.327 207.478 184.292C207.478 184.258 207.478 184.188 207.478 184.154C207.478 183.911 207.478 183.635 207.512 183.392C206.924 184.707 206.613 186.161 206.578 187.718C206.578 187.753 206.578 187.822 206.578 187.857C206.578 187.891 206.578 187.961 206.578 187.995C206.647 189.38 207.755 190.764 209.865 191.802C214.26 193.983 221.354 193.983 225.748 191.802C227.859 190.729 228.966 189.38 229.035 187.995C229.105 187.926 229.105 187.822 229.105 187.718Z" fill="#669B00"/>
<path d="M207.512 184.327C207.512 184.361 207.512 184.431 207.512 184.465C207.581 185.746 208.584 187.026 210.557 187.995C214.605 190.003 221.145 190.003 225.194 187.995C227.132 187.026 228.17 185.746 228.239 184.465C228.239 184.361 228.239 184.292 228.239 184.188C228.239 183.946 228.239 183.669 228.204 183.427C226.474 179.447 222.495 176.644 217.893 176.644C213.29 176.644 209.311 179.447 207.581 183.427C207.546 183.669 207.546 183.946 207.546 184.188C207.512 184.223 207.512 184.257 207.512 184.327Z" fill="#71AE00"/>
<path d="M217.857 176.644C214.397 176.644 211.283 178.236 209.206 180.693C209.206 180.831 209.206 181.004 209.172 181.143C209.172 181.177 209.172 181.212 209.172 181.247C209.172 181.281 209.172 181.316 209.172 181.35C209.241 182.423 210.072 183.496 211.698 184.292C215.089 185.988 220.556 185.988 223.947 184.292C225.574 183.461 226.439 182.423 226.473 181.35C226.473 181.281 226.473 181.177 226.473 181.108C226.473 180.97 226.473 180.797 226.439 180.658C224.432 178.236 221.352 176.644 217.857 176.644Z" fill="#7BBA00"/>
<path d="M275.784 189.587C275.75 188.065 275.438 186.611 274.85 185.261C274.885 185.503 274.885 185.78 274.885 186.023C274.885 186.126 274.885 186.196 274.885 186.3C274.815 187.58 273.812 188.861 271.84 189.83C267.791 191.837 261.251 191.837 257.203 189.83C255.265 188.861 254.227 187.58 254.157 186.3C254.157 186.265 254.157 186.196 254.157 186.161C254.157 186.126 254.157 186.057 254.157 186.023C254.157 185.78 254.157 185.503 254.192 185.261C253.604 186.576 253.292 188.03 253.258 189.587C253.258 189.622 253.258 189.691 253.258 189.726C253.258 189.76 253.258 189.83 253.258 189.864C253.327 191.249 254.434 192.633 256.545 193.671C260.94 195.852 268.068 195.852 272.428 193.671C274.539 192.598 275.646 191.249 275.715 189.864C275.784 189.76 275.784 189.657 275.784 189.587Z" fill="#669B00"/>
<path d="M254.191 186.161C254.191 186.196 254.191 186.265 254.191 186.299C254.261 187.58 255.264 188.86 257.236 189.829C261.285 191.837 267.825 191.837 271.873 189.829C273.811 188.86 274.849 187.58 274.919 186.299C274.919 186.196 274.919 186.126 274.919 186.023C274.919 185.78 274.919 185.503 274.884 185.261C273.154 181.281 269.174 178.478 264.572 178.478C259.97 178.478 255.991 181.281 254.261 185.261C254.226 185.503 254.226 185.78 254.226 186.023C254.191 186.057 254.191 186.092 254.191 186.161Z" fill="#71AE00"/>
<path d="M264.537 178.478C261.077 178.478 257.962 180.07 255.886 182.527C255.886 182.665 255.886 182.839 255.852 182.977C255.852 183.012 255.852 183.046 255.852 183.081C255.852 183.115 255.852 183.15 255.852 183.185C255.921 184.257 256.751 185.33 258.378 186.126C261.769 187.822 267.236 187.822 270.627 186.126C272.253 185.296 273.118 184.257 273.153 183.185C273.153 183.115 273.153 183.046 273.153 182.942C273.153 182.804 273.153 182.631 273.118 182.492C271.111 180.07 268.032 178.478 264.537 178.478Z" fill="#7BBA00"/>
<path d="M254.191 201.389C254.156 199.866 253.845 198.413 253.256 197.063C253.291 197.305 253.291 197.582 253.291 197.824C253.291 197.928 253.291 197.997 253.291 198.101C253.222 199.382 252.218 200.662 250.246 201.631C246.197 203.639 239.657 203.639 235.609 201.631C233.671 200.662 232.633 199.382 232.564 198.101C232.564 198.067 232.564 197.997 232.564 197.963C232.564 197.928 232.564 197.859 232.564 197.824C232.564 197.582 232.564 197.305 232.598 197.063C232.01 198.378 231.699 199.832 231.664 201.389C231.664 201.424 231.664 201.493 231.664 201.528C231.664 201.562 231.664 201.631 231.664 201.666C231.733 203.05 232.841 204.435 234.951 205.473C239.346 207.653 246.44 207.653 250.834 205.473C252.945 204.4 254.052 203.05 254.121 201.666C254.191 201.597 254.191 201.493 254.191 201.389Z" fill="#669B00"/>
<path d="M232.598 197.963C232.598 197.997 232.598 198.067 232.598 198.101C232.667 199.382 233.67 200.662 235.643 201.631C239.691 203.639 246.231 203.639 250.28 201.631C252.217 200.662 253.256 199.382 253.325 198.101C253.325 197.997 253.325 197.928 253.325 197.824C253.325 197.582 253.325 197.305 253.29 197.063C251.56 193.083 247.581 190.28 242.979 190.28C238.376 190.28 234.397 193.083 232.667 197.063C232.632 197.305 232.632 197.582 232.632 197.824C232.598 197.893 232.598 197.928 232.598 197.963Z" fill="#71AE00"/>
<path d="M242.943 190.314C239.483 190.314 236.369 191.906 234.292 194.363C234.292 194.502 234.292 194.675 234.258 194.813C234.258 194.848 234.258 194.883 234.258 194.917C234.258 194.952 234.258 194.986 234.258 195.021C234.327 196.094 235.157 197.167 236.784 197.963C240.175 199.659 245.642 199.659 249.033 197.963C250.66 197.132 251.525 196.094 251.559 195.021C251.559 194.952 251.559 194.883 251.559 194.779C251.559 194.64 251.559 194.467 251.525 194.329C249.518 191.872 246.438 190.314 242.943 190.314Z" fill="#7BBA00"/>
<path d="M304.366 201.181C304.332 199.659 304.02 198.205 303.432 196.855C303.467 197.097 303.467 197.374 303.467 197.617C303.467 197.72 303.467 197.79 303.467 197.893C303.397 199.174 302.394 200.455 300.422 201.424C296.373 203.431 289.833 203.431 285.785 201.424C283.847 200.455 282.809 199.174 282.74 197.893C282.74 197.859 282.74 197.79 282.74 197.755C282.74 197.72 282.74 197.651 282.74 197.617C282.74 197.374 282.74 197.097 282.774 196.855C282.186 198.17 281.874 199.624 281.84 201.181C281.84 201.216 281.84 201.285 281.84 201.32C281.84 201.354 281.84 201.424 281.84 201.458C281.909 202.843 283.016 204.227 285.127 205.265C289.522 207.446 296.615 207.446 301.01 205.265C303.121 204.192 304.228 202.843 304.297 201.458C304.366 201.389 304.366 201.285 304.366 201.181Z" fill="#669B00"/>
<path d="M282.773 197.79C282.773 197.824 282.773 197.893 282.773 197.928C282.843 199.209 283.846 200.489 285.818 201.458C289.867 203.465 296.407 203.465 300.456 201.458C302.393 200.489 303.431 199.209 303.501 197.928C303.501 197.824 303.501 197.755 303.501 197.651C303.501 197.409 303.501 197.132 303.466 196.89C301.736 192.91 297.756 190.106 293.154 190.106C288.552 190.106 284.573 192.91 282.843 196.89C282.808 197.132 282.808 197.409 282.808 197.651C282.773 197.686 282.773 197.72 282.773 197.79Z" fill="#71AE00"/>
<path d="M293.119 190.106C289.659 190.106 286.544 191.698 284.468 194.156C284.468 194.294 284.468 194.467 284.434 194.606C284.434 194.64 284.434 194.675 284.434 194.709C284.434 194.744 284.434 194.779 284.434 194.813C284.503 195.886 285.333 196.959 286.96 197.755C290.351 199.451 295.818 199.451 299.209 197.755C300.835 196.924 301.7 195.886 301.735 194.813C301.735 194.744 301.735 194.675 301.735 194.571C301.735 194.433 301.735 194.26 301.7 194.121C299.693 191.664 296.614 190.106 293.119 190.106Z" fill="#7BBA00"/>
<path d="M282.773 213.018C282.738 211.495 282.427 210.041 281.838 208.691C281.873 208.934 281.873 209.211 281.873 209.453C281.873 209.557 281.873 209.626 281.873 209.73C281.804 211.01 280.8 212.291 278.828 213.26C274.779 215.267 268.239 215.267 264.191 213.26C262.253 212.291 261.215 211.01 261.146 209.73C261.146 209.695 261.146 209.626 261.146 209.591C261.146 209.557 261.146 209.487 261.146 209.453C261.146 209.211 261.146 208.934 261.18 208.691C260.592 210.007 260.281 211.46 260.246 213.018C260.246 213.052 260.246 213.121 260.246 213.156C260.246 213.191 260.246 213.26 260.246 213.294C260.315 214.679 261.423 216.063 263.533 217.101C267.928 219.282 275.022 219.282 279.416 217.101C281.527 216.028 282.634 214.679 282.703 213.294C282.773 213.191 282.773 213.121 282.773 213.018Z" fill="#669B00"/>
<path d="M261.18 209.591C261.18 209.626 261.18 209.695 261.18 209.73C261.249 211.01 262.252 212.291 264.225 213.26C268.273 215.267 274.813 215.267 278.862 213.26C280.799 212.291 281.838 211.01 281.907 209.73C281.907 209.626 281.907 209.557 281.907 209.453C281.907 209.21 281.907 208.934 281.872 208.691C280.142 204.711 276.163 201.908 271.561 201.908C266.958 201.908 262.979 204.711 261.249 208.691C261.214 208.934 261.214 209.21 261.214 209.453C261.18 209.487 261.18 209.557 261.18 209.591Z" fill="#71AE00"/>
<path d="M271.525 201.908C268.065 201.908 264.951 203.5 262.874 205.957C262.874 206.096 262.874 206.269 262.84 206.407C262.84 206.442 262.84 206.476 262.84 206.511C262.84 206.546 262.84 206.58 262.84 206.615C262.909 207.688 263.74 208.761 265.366 209.557C268.757 211.252 274.224 211.252 277.615 209.557C279.242 208.726 280.107 207.688 280.141 206.615C280.141 206.546 280.141 206.476 280.141 206.373C280.141 206.234 280.141 206.061 280.107 205.923C278.1 203.5 275.02 201.908 271.525 201.908Z" fill="#7BBA00"/>
<path d="M288.761 319.82L0 177.613V196.578L288.761 338.786V319.82Z" fill="#DA8651"/>
<path d="M288.761 219.455L0 77.2468V82.7496L288.761 224.646V219.455Z" fill="#DA8651"/>
<path d="M357.862 142.208L69.1356 0L64.6719 4.98367L354.679 145.807L357.862 142.208Z" fill="#FFC88F"/>
<path d="M354.68 145.807L349.559 143.315L284.367 217.309L288.762 219.455L354.68 145.807Z" fill="#FFC88F"/>
<path d="M261.633 94.7936L256.858 92.4402L188.137 169.895L192.497 172.041L261.633 94.7936Z" fill="#FFC88F"/>
<path d="M162.184 50.9443L157.409 48.6255L91.8711 122.446L96.2657 124.592L162.184 50.9443Z" fill="#FFC88F"/>
<path d="M326.027 107.114L426.999 158.024V150.306L326.027 100.227V107.114Z" fill="#DA8651"/>
<path d="M357.898 142.208L288.762 219.455V288.603V338.786L357.898 304.212L427.035 269.638V219.42V150.306L357.898 142.208ZM422.26 266.696L293.502 331.103V221.254L359.802 147.191L422.294 154.494V266.696H422.26Z" fill="#F5A46F"/>
<path d="M70.6938 5.74506L65.9186 3.42627L0 77.2469L4.63679 79.5311L70.6938 5.74506Z" fill="#FFC88F"/>
<path d="M284.367 217.309V336.64L288.762 338.786V219.455L284.367 217.309Z" fill="#DA8651"/>
<path d="M188.137 169.895V289.226L192.497 291.372V172.041L188.137 169.895Z" fill="#DA8651"/>
<path d="M91.8711 122.481V241.812L96.2657 243.992V124.661L91.8711 122.481Z" fill="#DA8651"/>
<path d="M0 77.2468V196.578L4.35997 198.724V79.3926L0 77.2468Z" fill="#DA8651"/>
<path d="M256.859 92.4402L326.031 100.227L333.193 103.757L261.635 94.7936L256.859 92.4402Z" fill="#FFBA81"/>
<path d="M353.09 139.854L421.119 147.607L427.002 150.306L357.865 142.208L353.09 139.854Z" fill="#FFBA81"/>
<path d="M160.594 45.0608L228.623 52.8132L234.506 55.4781L165.369 47.4142L160.594 45.0608Z" fill="#FFBA81"/>
<path d="M357.863 142.208L69.1367 0L79.4484 2.83793L365.545 143.108L357.863 142.208Z" fill="#FFBA81"/>
<path d="M69.1367 0L140.003 7.99464L142.633 10.2096L73.4967 2.11114L69.1367 0Z" fill="#FFBA81"/>
<path d="M288.761 214.229L3.21807 73.613L0 77.5238L288.761 219.42V214.229Z" fill="#F5A46F"/>
<path d="M140.003 7.99461L418.175 145.911L426.999 150.306L420.148 149.51L133.566 7.26782L140.003 7.99461Z" fill="#FFBA81"/>
<path d="M417.897 264.758L293.5 325.427V331.103L422.846 267.215L417.897 264.758Z" fill="#FFC88F"/>
<path d="M334.99 310.614L329.453 313.348V180.658L334.99 174.878V310.614Z" fill="#F5A46F"/>
<path d="M329.453 313.349L324.055 310.718L323.605 187.615L329.453 180.658V313.349Z" fill="#DA8651"/>
<path d="M384.576 286.388L379.039 288.949V149.441L384.576 150.098V286.388Z" fill="#F5A46F"/>
<path d="M379.039 288.949L373.676 286.319L373.191 148.783L379.039 149.441V288.949Z" fill="#DA8651"/>
<path d="M379.042 198.066L334.992 219.524V213.363L379.042 191.906V198.066Z" fill="#F5A46F"/>
<path d="M379.042 191.906H373.194L334.992 209.972V213.363L379.042 191.906Z" fill="#FFC88F"/>
</g>
<defs>
<clipPath id="clip0_335_2644">
<rect width="427" height="407" fill="white"/>
</clipPath>
</defs>
</svg>
