<svg width="863" height="139" viewBox="0 0 863 139" fill="none" xmlns="http://www.w3.org/2000/svg">
<path d="M861.521 125.116C861.512 125.106 861.504 125.099 861.496 125.089C861.992 125.174 862.497 125.255 863.001 125.32V79.4116H0.203125V135.683C1.51534 135.676 4.35847 135.924 5.67069 135.917C6.64644 135.585 7.8493 135.768 8.9344 135.676C9.11105 135.676 9.28769 135.68 9.47275 135.68C9.79239 135.585 10.1541 135.503 10.4401 135.395C10.785 135.306 11.071 135.174 11.3485 135.038C12.6523 134.553 14.0739 134.213 15.8151 134.108C18.7928 134.264 21.7621 134.332 24.681 133.867C24.6978 133.867 24.7062 133.867 24.723 133.864C27.4568 134.227 30.1822 135.15 32.9748 133.908C32.9917 133.891 33.0001 133.874 33.0085 133.857C34.0011 133.708 34.9263 133.463 36.0367 133.456C38.0555 133.3 40.2004 132.693 41.8575 133.745C43.2875 134.322 45.3315 134.471 46.955 134.913C47.8803 135.045 48.7971 135.252 49.7476 134.947C49.8149 134.909 49.857 134.875 49.8991 134.841C52.9777 135.11 55.9891 135.205 58.8827 134.488C59.4883 134.339 60.4388 134.414 61.2295 134.383C61.3725 134.532 61.5155 134.682 61.6585 134.831C61.6585 134.831 61.6585 134.831 61.6669 134.831C63.4586 135.296 64.8634 135.459 66.2597 135.34C66.8233 135.378 67.4205 135.32 67.6728 135.133C68.1018 135.042 68.5392 134.93 68.9935 134.79C70.4739 134.342 72.1647 134.465 73.7629 134.77C77.935 135.52 82.082 136.243 86.7168 136.478C91.1413 136.702 95.2966 137.394 99.4604 138.032C100.369 138.171 101.05 138.375 101.227 138.786C102.169 138.884 102.993 138.81 103.742 138.555C104.263 138.375 104.81 138.334 105.433 138.535C107.477 139.19 109.706 139.04 111.943 138.769C111.985 138.793 112.027 138.813 112.078 138.833C112.473 138.901 112.835 138.874 113.171 138.772C114.265 138.667 114.795 138.26 115.644 138.029C115.703 137.194 117.419 136.949 118.807 136.59C119.404 136.433 120.456 136.349 120.59 136.152C121.507 134.824 124.283 134.044 126.075 132.981C126.95 132.679 127.824 132.377 128.699 132.075C128.926 131.942 129.145 131.81 129.372 131.678C129.364 131.678 129.355 131.678 129.347 131.674C130.247 131.586 130.827 131.382 130.869 130.982C131.071 130.91 131.265 130.836 131.467 130.765C131.618 130.693 131.753 130.615 131.862 130.534C131.912 130.021 132.535 129.644 133.578 129.369C134.411 128.755 136.421 129.006 137.422 128.514C137.607 128.382 137.876 128.263 138.12 128.137C139.306 127.91 140.24 127.563 140.635 126.976C141.241 127.003 142.217 126.942 142.402 127.068C143.916 128.12 146.229 127.574 148.248 127.594C150.956 128.202 154.128 127.614 156.895 128.144C157.618 128.283 158.333 128.344 158.914 128.626C162.405 130.33 165.963 130.462 170.194 129.081C170.278 129.04 170.37 128.999 170.455 128.959C170.455 128.948 170.446 128.942 170.446 128.931C170.522 128.904 170.598 128.874 170.673 128.847C172.171 128.752 172.499 128.205 173.104 127.784C174.231 126.993 175.636 126.694 177.966 127.031C179.724 127.282 181.566 127.58 183.543 127.414C184.889 126.925 185.882 127.421 186.983 127.611C187.513 127.614 188.212 127.713 188.54 127.611C191.198 126.796 192.619 127.214 193.418 128.348C196.556 130.052 199.407 130.194 202.671 128.205C203.243 127.54 203.908 126.918 205.926 126.776C206.625 126.728 206.7 126.419 207.054 126.223C207.71 125.995 208.66 126.321 209.274 126.026C209.417 125.992 209.569 125.961 209.729 125.931C210.603 126.039 211.058 125.788 211.545 125.574C214.902 125.021 217.863 125.469 220.731 126.165C221.059 126.178 221.395 126.192 221.724 126.206C221.774 126.175 221.824 126.141 221.875 126.111C221.883 126.117 221.883 126.121 221.883 126.128C221.875 126.131 221.724 126.206 221.724 126.206C223.431 126.307 224.205 126.963 225.568 127.265C227.267 127.56 228.907 127.94 230.859 127.889C231.86 127.866 232.499 128.117 233.189 128.354C234.391 128.769 235.687 128.904 237.075 128.47C237.975 128.069 239.556 128.096 240.338 127.621C240.91 127.485 241.482 127.346 242.054 127.21C244.056 126.569 245.873 125.802 248.531 125.581C248.632 125.574 248.632 125.489 248.59 125.405C248.918 125.398 249.238 125.391 249.566 125.384C249.709 125.33 249.844 125.272 249.987 125.218C250.483 125.523 251.232 125.656 252.031 125.51C255.202 124.939 257.767 125.248 260.24 126.192C261.115 126.525 262.175 126.963 263.672 126.939C263.47 127.071 263.479 127.193 263.841 127.295C263.925 127.299 264 127.302 264.085 127.309C264.076 127.312 264.076 127.312 264.068 127.312C263.588 127.781 263.992 128.222 265.178 128.158C267.474 128.032 269.729 128.039 272 128.164C272.176 128.083 272.345 128.005 272.521 127.923C272.765 127.594 273.968 127.621 274.061 127.238C274.431 127.037 274.717 126.711 275.196 126.654C277.854 126.341 278.805 125.428 279.974 124.583C283.086 124.108 285.231 124.956 287.62 125.486C288.571 125.883 289.059 126.033 290.741 125.632C292.928 125.113 295.679 124.179 298.623 125.235C299.64 125.598 300.894 124.922 301.886 125.364C303.586 125.951 305.436 125.893 307.346 125.578C307.396 125.486 307.413 125.408 307.404 125.34C308.052 125.048 308.178 124.464 309.541 124.576C310.576 124.661 311.114 124.933 311.4 125.276C311.375 125.462 311.358 125.652 311.492 125.798V125.802C310.693 126.365 312.308 126.684 312.367 127.16C312.754 127.434 313.36 127.506 314.083 127.465C317.641 126.81 319.719 127.957 322.243 128.565C322.882 128.514 323.37 128.385 323.63 128.134C324.783 127.506 325.422 127.411 325.986 127.893C326.802 128.582 328.434 128.673 329.72 129.02C330.427 129.41 331.361 129.522 332.488 129.373C332.673 129.386 332.85 129.4 333.035 129.413C333.598 129.128 334.162 128.847 334.725 128.561L334.734 128.568C336.795 128.432 337.51 127.621 338.973 127.187C338.973 127.187 338.973 127.187 338.982 127.187C339.444 127.275 339.789 127.153 340.1 126.983C340.269 126.902 340.428 126.82 340.597 126.739C341.068 126.049 342.38 125.561 343.196 124.956C343.061 124.305 345.4 124.101 344.954 123.392C344.946 123.392 344.946 123.388 344.937 123.388C345.29 123.259 345.635 123.134 345.989 123.005C346.115 122.988 346.249 122.971 346.384 122.957C346.653 122.614 346.897 122.271 347.2 121.932C348.378 120.622 349.749 120.387 352.903 120.954C353.256 120.873 353.34 120.72 353.5 120.584C353.559 120.51 353.677 120.442 353.828 120.381C355.813 119.902 357.067 119.067 358.976 118.551C359.582 118.558 359.927 118.693 360.103 118.914C360.902 118.86 361.634 118.921 362.257 119.142C362.77 119.152 363.275 119.165 363.788 119.176C363.981 119.23 364.191 119.267 364.393 119.291C366.395 119.675 368.406 120.058 370.408 120.442C371.484 120.421 372.292 120.656 373.116 120.886C373.814 121.525 374.58 122.037 376.657 122.153C378.129 122.234 378.912 122.852 379.324 123.449C379.458 123.473 379.593 123.493 379.736 123.507C379.972 123.857 380.123 124.264 381.418 123.935C383.471 123.7 385.725 123.113 386.751 124.508C386.953 124.787 387.609 124.705 387.988 124.498C388.762 124.077 389.662 124.003 390.738 124.305C391.63 124.359 391.941 124.678 392.446 124.909C393.91 125.048 395.121 124.987 396.147 124.44C396.601 124.199 397.182 123.85 398.216 123.867C398.486 124.6 400.622 124.373 401.413 124.889C401.909 125.211 402.902 125.401 403.28 125.788C404.542 125.571 405.392 125.191 406.006 124.709C408.285 124.508 409.168 125.245 410.38 125.764V125.87V125.975C411.069 126.036 411.65 126.168 412.045 126.409C412.39 126.613 413.038 126.725 413.441 126.627C416.133 125.975 418.657 126.722 421.256 126.732C422.08 126.735 422.223 126.993 422.425 127.231C422.577 127.241 422.728 127.255 422.871 127.278C423.426 127.265 423.981 127.251 424.536 127.238C428.372 126.63 431.232 127.109 433.268 128.507V128.514C434.866 128.446 436.666 128.059 437.701 128.945C437.768 129.003 437.802 129.064 437.802 129.128C437.953 129.132 438.088 129.152 438.214 129.189C438.55 129.094 438.887 129.003 439.215 128.908C439.602 128.813 439.661 128.653 439.686 128.49C439.677 128.463 439.661 128.436 439.644 128.412C441.78 127.906 444.051 127.781 446.499 128.049C447.34 128.141 448.224 128.174 449.09 128.236C451.395 127.788 454.061 127.859 456.349 127.35C457.729 127.041 458.78 127.268 458.965 127.957C459.293 128.042 459.63 128.124 459.958 128.208C461.262 128.823 463.566 128.473 464.912 129.047C465.072 129.125 465.232 129.203 465.383 129.281C466.182 129.553 467.04 129.787 468.075 129.889C469.749 128.551 470.027 128.528 473.038 129.468C473.189 129.865 473.761 130.164 474.678 130.266C478.312 130.669 481.029 131.807 484.823 132.18C487.893 132.482 490.786 132.52 493.318 131.566C493.84 131.454 494.075 131.002 494.984 131.331C495.413 131.369 496.044 131.498 496.246 131.426C499.047 130.462 499.535 131.515 500.46 132.19C500.485 132.329 500.51 132.472 500.527 132.611C503.261 133.202 506.356 132.693 509.166 133.073C511.344 133.494 513.515 133.915 515.693 134.339C517.014 135.11 518.284 134.658 519.563 134.319C521.001 134.268 522.212 134.512 523.382 134.804V134.709C523.71 134.726 524.029 134.743 524.349 134.76C526.46 135.004 528.521 134.58 530.649 134.702C531.65 134.76 532.634 134.699 533.206 135.123C535.923 135.205 538.632 134.702 541.349 135.099C541.954 135.371 542.703 135.317 543.46 135.256C544.411 134.315 545.799 133.803 548.591 134.156C549.592 134.281 550.862 134.027 552.015 133.993C554.345 133.925 556.717 133.813 558.105 134.869C558.239 134.97 558.912 134.957 559.341 134.998C562.369 134.468 564.901 133.392 568.619 133.626C569.696 133.592 570.773 133.843 571.858 133.643C573.826 133.677 575.736 133.596 577.603 133.317C578.772 133.144 579.992 133.019 581.144 133.368C583.323 133.833 585.535 134.275 587.672 134.774C588.832 135.042 589.85 135.082 590.893 134.74C592.113 134.332 593.593 134.444 594.241 134.845C595.402 135.558 597.261 135.826 598.741 136.325C599.061 136.349 599.372 136.372 599.692 136.393C599.894 136.461 600.087 136.525 600.289 136.593C601.383 137.089 602.459 136.573 603.544 136.586C604.041 136.668 604.537 136.753 605.025 136.834C605.075 136.898 605.126 136.966 605.176 137.031C607.086 137.537 608.457 137.252 609.567 136.556C611.123 135.985 613.277 135.663 614.126 134.79C614.387 134.526 614.824 134.4 615.607 134.451C617.289 134.556 618.761 134.196 620.334 134.057C620.292 133.446 621.36 133.29 622.538 133.178C623.539 133.273 624.54 133.019 625.6 133.29C626.853 133.613 627.467 133.154 628.031 132.788C628.233 132.774 628.434 132.757 628.636 132.744C628.132 131.654 631.042 132.139 631.782 131.63C634.617 130.534 637.973 130.812 640.926 131.328C642.684 131.634 644.879 131.861 646.057 132.628C646.519 132.764 646.982 132.91 647.613 132.869C647.781 132.784 647.941 132.696 648.109 132.611C648.252 132.615 648.404 132.621 648.547 132.625C648.547 132.638 648.547 132.649 648.555 132.662C651.348 133.008 654.182 132.53 655.797 131.437C656.824 130.744 658.321 130.666 659.372 131.338C660.045 131.769 661.265 131.895 661.896 132.299C662.022 132.319 662.148 132.34 662.274 132.363C663.528 132.672 664.773 133.022 666.102 132.411C666.287 132.251 666.548 132.099 666.707 131.936C667.885 131.715 669.096 131.538 670.4 131.467C670.543 131.617 670.686 131.763 670.829 131.912C670.905 131.97 670.972 132.031 671.039 132.092C671.224 132.234 671.418 132.38 671.603 132.523C672.276 133.052 673.521 133.253 674.833 133.327C675.632 133.375 676.389 133.392 676.995 133.626C677.037 133.691 677.079 133.755 677.129 133.82C677.281 133.82 677.432 133.826 677.584 133.833C679.745 133.843 681.747 133.64 683.539 133.134C683.943 132.852 684.363 132.574 684.75 132.285C685.911 131.416 687.005 130.557 690.066 131.325C690.622 131.464 691.799 131.752 692.304 131.168C692.472 131.148 692.64 131.135 692.809 131.128C693.011 130.992 693.212 130.86 693.414 130.727C694.979 130.374 694.979 129.705 695.332 129.125C695.576 128.721 695.677 128.324 696.972 128.273C696.989 128.273 697.006 128.27 697.023 128.27C696.686 128.83 697.763 128.979 698.857 129.037C701.338 129.162 702.827 129.739 703.702 130.636C704.072 130.775 704.442 130.917 704.804 131.056C705.788 131.067 706.999 130.948 707.63 131.277C709.825 132.428 712.231 131.718 714.603 131.477C715.259 131.107 716.143 130.972 717.244 131.039C717.27 131.104 717.286 131.168 717.303 131.233C721.307 130.995 724.882 131.386 728.381 132.221C730.442 132.713 733.471 132.231 735.329 133.137C735.531 133.351 735.843 133.524 736.398 133.609C737.138 134.475 739.199 134.889 740.923 135.001C743.329 135.16 744.464 135.748 745.735 136.393C745.768 136.528 745.802 136.668 745.836 136.803C746.794 137.004 747.703 137.282 748.721 137.384C750.655 137.574 752.809 137.913 753.255 136.562C753.406 136.101 754.424 135.687 755.046 135.249C759.286 133.582 759.782 133.348 762.6 133.901C762.575 133.986 762.549 134.074 762.524 134.159C762.743 134.363 762.962 134.57 763.18 134.774C764.24 135.042 765.048 134.838 765.721 134.519C766.486 134.159 767.487 134.074 768.572 134.05C768.917 133.786 769.464 133.653 770.204 133.657C772.189 134.21 773.182 135.12 775.083 135.748C776.639 136.264 777.682 136.162 778.792 135.812C779.869 135.476 780.904 135.293 782.224 135.354C784.159 135.914 785.841 136.389 788.306 135.49C789.189 135.167 791.755 135.194 793.353 135.69C793.487 135.7 793.605 135.721 793.706 135.755C793.975 135.765 794.472 135.795 794.48 135.782C795.203 134.516 799.098 134.159 799.628 132.845C800.822 132.367 803.237 132.472 803.472 131.538C803.96 131.369 804.448 131.199 804.927 131.026C805.18 130.54 806.021 130.327 807.114 130.449C811.665 130.955 816.216 130.435 820.766 130.513C821.153 130.32 821.549 130.126 821.936 129.933C822.466 129.855 822.953 129.59 823.568 129.868C824.325 129.95 824.695 130.537 825.813 130.157C828.16 130.103 829.843 129.848 830.255 128.701C830.633 127.659 832.946 127.455 835.234 127.431C836.261 127.421 837.405 127.662 838.17 127.173C838.818 126.997 839.508 126.837 839.836 126.525C839.524 125.985 840.694 125.87 841.417 125.625C841.602 125.625 841.779 125.625 841.964 125.625C843.68 126.066 844.538 125.371 845.766 125.16C847.263 125.035 847.928 124.977 848.037 124.773C848.483 124.977 848.945 125.17 849.585 125.286C850.249 125.445 850.947 125.466 851.654 125.459C851.629 125.513 851.646 125.564 851.721 125.612C851.318 125.696 851.208 125.839 851.259 126.019C851.62 126.087 851.982 126.158 852.344 126.226C852.335 126.304 852.327 126.382 852.318 126.46L852.302 126.467C853.563 126.61 854.758 126.963 856.154 126.657C857.054 126.45 857.971 126.386 858.905 126.62C859.611 126.62 860.318 126.62 861.033 126.62C861.521 126.436 862.505 126.389 862.135 125.968C861.487 125.741 861.622 125.415 861.521 125.116ZM619.333 133.439C619.316 133.453 619.299 133.463 619.283 133.473C619.283 133.463 619.283 133.453 619.291 133.439C619.299 133.439 619.316 133.439 619.333 133.439Z" fill="#636363" fill-opacity="0.5"/>
<path d="M860.022 122.095C860.014 122.085 860.006 122.078 859.997 122.068C860.99 122.241 861.982 122.4 863 122.441V6.9445C861.881 6.95807 860.763 6.97165 859.644 6.98184C858.685 7.32129 857.465 7.14817 856.388 7.24661C856.212 7.24661 856.035 7.24661 855.859 7.24661C855.539 7.34505 855.186 7.42652 854.9 7.53854C854.555 7.6302 854.277 7.76258 854.008 7.90176C852.721 8.39397 851.316 7.14817 849.583 7.26698C846.597 7.1312 843.628 5.02996 840.726 5.51539C840.709 5.51539 840.701 5.51539 840.684 5.51878C837.933 5.17254 835.174 4.26958 832.432 5.52896C832.415 5.54594 832.407 5.56291 832.399 5.57988C831.406 5.73603 830.497 5.98723 829.387 6.00081C827.377 6.17054 825.249 6.79514 823.558 5.75301C822.103 5.18611 820.059 5.05033 818.418 4.61922C817.493 4.49362 816.568 4.29334 815.626 4.60564C815.567 4.64298 815.516 4.67693 815.483 4.71088C812.387 4.46307 809.376 4.38839 806.516 5.12501C805.919 5.28116 804.96 5.20988 804.169 5.24722C804.018 5.09785 803.875 4.95189 803.723 4.80253C803.723 4.80253 803.723 4.80253 803.715 4.80253C801.906 4.35105 800.493 4.1983 799.097 4.3239C798.533 4.28995 797.944 4.35105 797.692 4.54115C797.272 4.6328 796.834 4.75161 796.38 4.89418C794.916 5.35245 793.226 5.24043 791.611 4.94849C787.413 4.22545 783.233 3.52957 778.589 3.32589C774.156 3.1324 771.095 2.83029 766.906 2.21927C765.997 2.08688 765.299 1.8866 765.114 1.47925C764.172 1.3876 762.229 0.148587 761.488 0.409968C760.967 0.593274 760.429 0.637403 759.798 0.443913C757.728 -0.197658 755.508 -0.0347196 753.27 0.253818C753.228 0.230056 753.186 0.209689 753.136 0.189321C752.74 0.124825 752.379 0.155376 752.042 0.257213C750.957 0.369233 750.444 0.779975 749.603 1.01759C749.578 1.85266 747.87 2.11064 746.499 2.47725C745.902 2.6368 744.859 2.72845 744.732 2.92873C743.874 4.26279 741.132 0.807131 739.374 1.87981C738.516 2.18872 737.65 2.49762 736.783 2.80653C736.565 2.93891 736.346 3.0747 736.127 3.20709C736.136 3.20709 736.144 3.20708 736.153 3.21048C735.261 3.30553 734.681 3.5126 734.655 3.91315C734.462 3.98783 734.26 4.05912 734.067 4.1338C733.915 4.20509 733.789 4.28316 733.68 4.36802C733.646 4.8806 733.04 5.26079 732.014 5.54254C731.207 6.16035 729.188 5.92613 728.204 6.42173C728.027 6.55412 727.758 6.67633 727.522 6.80192C726.345 7.03954 725.428 7.38918 725.058 7.97984C724.452 7.95947 723.476 8.02397 723.291 7.90176C721.735 6.85963 719.447 7.42313 717.428 7.41634C714.695 6.82908 711.549 7.43331 708.764 6.92413C708.032 6.79174 707.318 6.73403 706.729 6.45568C703.171 4.77537 699.612 4.66675 695.432 6.07549C695.348 6.11622 695.264 6.15696 695.18 6.19769C695.18 6.20788 695.188 6.21467 695.188 6.22485C695.112 6.25201 695.037 6.28256 694.961 6.30971C693.464 6.41494 693.161 6.96147 692.572 7.38918C691.478 8.1869 690.082 8.49581 687.744 8.17672C685.977 7.93571 684.118 7.65056 682.15 7.83048C680.829 8.32948 679.811 7.83727 678.701 7.65396C678.171 7.65396 677.473 7.56231 677.145 7.66414C674.521 8.49581 673.082 8.08846 672.233 6.96147C669.028 5.28116 666.168 5.15556 662.988 7.16514C662.441 7.83726 661.802 8.46186 659.792 8.61462C659.094 8.66893 659.026 8.97784 658.69 9.17472C658.042 9.40555 657.083 9.08646 656.478 9.38518C656.335 9.41913 656.183 9.45308 656.032 9.48363C655.149 9.38179 654.711 9.63299 654.232 9.85363C650.901 10.4273 647.915 10.003 645.021 9.32408C644.693 9.3139 644.356 9.30371 644.028 9.29014C642.321 9.19848 641.513 8.55012 640.142 8.2548C638.426 7.96965 636.769 7.60304 634.826 7.66414C633.825 7.69469 633.177 7.44689 632.479 7.21606C631.26 6.81211 629.956 6.68311 628.593 7.12441C627.71 7.53175 626.128 7.51478 625.363 7.99341C624.799 8.13259 624.236 8.27516 623.664 8.41434C621.687 9.06949 619.904 9.84684 617.254 10.0879C617.153 10.098 617.153 10.1795 617.204 10.2644C616.876 10.2746 616.556 10.2813 616.228 10.2915C616.093 10.3492 615.95 10.4036 615.816 10.4613C615.311 10.1591 614.554 10.0335 613.755 10.1829C610.609 10.7736 608.027 10.4816 605.52 9.55491C604.637 9.22903 603.552 8.79793 602.054 8.83187C602.256 8.69609 602.239 8.57388 601.869 8.47544C601.785 8.47205 601.709 8.46865 601.625 8.46526C601.634 8.46186 601.634 8.46186 601.642 8.46186C602.105 7.99002 601.684 7.55212 600.498 7.6268C598.202 7.76937 595.956 7.77616 593.676 7.66414C593.508 7.74561 593.34 7.82708 593.163 7.90855C592.936 8.23782 591.725 8.22085 591.658 8.60444C591.296 8.80811 591.027 9.13738 590.547 9.19509C587.906 9.52436 586.989 10.4443 585.854 11.2963C582.766 11.7953 580.579 10.9569 578.174 10.4477C577.206 10.0573 576.71 9.91134 575.053 10.3221C572.891 10.8584 570.174 11.8089 567.188 10.7702C566.162 10.4137 564.925 11.0994 563.924 10.6615C562.208 10.0879 560.358 10.1557 558.457 10.485C558.406 10.5767 558.398 10.6547 558.406 10.7226C557.767 11.018 557.666 11.6018 556.303 11.5C555.26 11.4219 554.714 11.1537 554.419 10.8143C554.436 10.6276 554.444 10.4375 554.301 10.2915C554.301 10.2881 554.301 10.2881 554.301 10.2881C555.075 9.72125 553.452 9.41234 553.376 8.9371C552.981 8.66554 552.375 8.59765 551.643 8.64517C548.111 9.32408 545.991 8.1903 543.442 7.59965C542.803 7.65396 542.323 7.78635 542.079 8.04094C540.952 8.67572 540.321 8.77416 539.733 8.29892C538.891 7.61662 537.251 7.53515 535.956 7.19569C535.232 6.80871 534.299 6.70348 533.171 6.85963C532.986 6.84945 532.81 6.83587 532.625 6.82569C532.07 7.11422 531.514 7.39937 530.968 7.6879L530.959 7.68112C528.907 7.83048 528.225 8.64517 526.779 9.08986C526.779 9.08986 526.779 9.08986 526.77 9.08986C526.308 9.00499 525.971 9.1272 525.66 9.30371C525.5 9.38518 525.34 9.47005 525.172 9.55152C524.735 10.244 523.439 10.743 522.64 11.354C522.8 12.0058 520.47 12.223 520.949 12.9325C520.958 12.9325 520.958 12.9359 520.966 12.9359C520.621 13.0649 520.276 13.1973 519.932 13.3263C519.805 13.3466 519.671 13.3636 519.545 13.3738C519.284 13.7166 519.057 14.0629 518.771 14.4023C517.652 15.7228 516.289 15.9638 513.11 15.4173C512.765 15.5022 512.681 15.6549 512.529 15.7907C512.479 15.8654 512.361 15.9333 512.21 15.9978C510.241 16.49 509.022 17.3318 507.137 17.8614C506.532 17.858 506.178 17.7256 505.993 17.505C505.194 17.5627 504.463 17.5084 503.832 17.2911C503.319 17.2843 502.814 17.2741 502.301 17.2674C502.099 17.2164 501.897 17.1791 501.687 17.1553C499.668 16.7853 497.649 16.4153 495.622 16.0453C494.545 16.0725 493.729 15.8416 492.897 15.6176C492.173 14.9828 491.391 14.477 489.305 14.3752C487.833 14.3039 487.025 13.6929 486.588 13.0988C486.453 13.0751 486.319 13.0547 486.176 13.0411C485.923 12.6949 485.763 12.2875 484.477 12.627C482.432 12.8748 480.203 13.479 479.118 12.0873C478.9 11.8089 478.26 11.8972 477.882 12.1076C477.125 12.5319 476.225 12.6134 475.14 12.3181C474.248 12.2672 473.92 11.9515 473.407 11.724C471.943 11.595 470.732 11.6629 469.722 12.2162C469.277 12.4607 468.713 12.8137 467.678 12.8035C467.384 12.0703 465.248 12.3113 464.44 11.8021C463.935 11.483 462.934 11.2997 462.539 10.9161C461.294 11.1402 460.453 11.5305 459.856 12.0126C457.585 12.2298 456.676 11.4966 455.44 10.9874L455.431 10.8822L455.423 10.777C454.725 10.7226 454.153 10.5936 453.74 10.3526C453.387 10.149 452.739 10.0437 452.336 10.1456C449.669 10.8143 447.112 10.0879 444.513 10.0913C443.689 10.0913 443.537 9.83666 443.318 9.60244C443.167 9.59565 443.016 9.57867 442.873 9.55831C442.317 9.57528 441.762 9.59225 441.207 9.61262C437.397 10.2474 434.52 9.78574 432.425 8.40076V8.39397C430.827 8.47205 429.044 8.87261 427.976 7.99341C427.908 7.93571 427.875 7.87461 427.875 7.81011C427.723 7.80671 427.589 7.78635 427.462 7.7524C427.134 7.84745 426.798 7.94589 426.47 8.04094C426.091 8.13938 426.032 8.29553 426.016 8.45847C426.024 8.48563 426.041 8.51278 426.058 8.53654C423.946 9.05931 421.675 9.19848 419.219 8.94729C418.369 8.85903 417.486 8.83527 416.62 8.78095C414.34 9.24261 411.665 9.19169 409.394 9.71785C408.023 10.0369 406.963 9.81629 406.753 9.1272C406.417 9.04573 406.08 8.96426 405.752 8.88279C404.423 8.27856 402.135 8.64178 400.764 8.07828C400.604 8.0002 400.444 7.92552 400.276 7.84745C399.469 7.57928 398.602 7.35524 397.559 7.26019C395.944 8.60783 395.658 8.63499 392.613 7.71167C392.445 7.3145 391.864 7.01918 390.939 6.92413C387.288 6.54394 384.529 5.42373 380.719 5.07749C377.64 4.79574 374.747 4.77877 372.248 5.74961C371.727 5.86503 371.517 6.3165 370.591 5.99741C370.162 5.96347 369.532 5.83787 369.33 5.90915C366.571 6.89018 366.041 5.84466 365.09 5.17254C365.057 5.03336 365.031 4.89079 365.006 4.75161C362.247 4.18132 359.177 4.70748 356.35 4.35105C354.155 3.9437 351.968 3.53636 349.773 3.12901C348.427 2.36523 347.165 2.82689 345.903 3.17653C344.465 3.23764 343.245 3.00341 342.068 2.71827V2.81332C341.739 2.79974 341.42 2.78277 341.092 2.76919C338.972 2.53836 336.928 2.97625 334.791 2.87102C333.79 2.8201 332.806 2.888 332.218 2.46707C329.501 2.40597 326.817 2.92534 324.075 2.54515C323.461 2.27698 322.712 2.33808 321.955 2.40257C321.047 3.34966 319.684 3.86902 316.875 3.53636C315.874 3.41755 314.612 3.67893 313.46 3.71966C311.138 3.80453 308.766 3.93013 307.336 2.8846C307.201 2.78277 306.52 2.80313 306.099 2.76579C303.096 3.31571 300.607 4.40876 296.88 4.1983C295.804 4.23903 294.718 3.99462 293.642 4.20169C291.673 4.18132 289.764 4.27637 287.913 4.56491C286.753 4.74822 285.533 4.8806 284.372 4.53775C282.177 4.08628 279.939 3.65856 277.786 3.17653C276.617 2.91515 275.59 2.88121 274.573 3.23085C273.37 3.64498 271.889 3.54315 271.216 3.14938C270.03 2.4467 268.155 2.18872 266.657 1.6999C266.338 1.67953 266.018 1.65917 265.707 1.6354C265.505 1.57091 265.303 1.50641 265.101 1.44191C263.991 0.953097 262.931 1.47925 261.846 1.46907C261.349 1.391 260.853 1.30953 260.349 1.23145C260.298 1.16695 260.248 1.09906 260.189 1.03457C258.262 0.538961 256.9 0.837682 255.823 1.54036C254.292 2.12422 252.156 2.45689 251.34 3.33608C251.087 3.60425 250.658 3.72985 249.876 3.68572C248.194 3.59067 246.73 3.96407 245.165 4.11004C245.233 4.71766 244.165 4.884 242.995 5.0062C241.994 4.91794 241.002 5.17932 239.933 4.91455C238.672 4.60225 238.074 5.06052 237.519 5.43392C237.317 5.45089 237.116 5.46786 236.922 5.48484C237.477 6.57109 234.542 6.10264 233.818 6.61862C231.026 7.73543 227.661 7.47744 224.683 6.98184C222.917 6.68651 220.704 6.47605 219.502 5.71567C219.031 5.58328 218.568 5.44071 217.937 5.48484C217.777 5.57309 217.617 5.65796 217.449 5.74622C217.306 5.74282 217.155 5.73943 217.012 5.73603C217.012 5.72245 217.012 5.71227 217.003 5.69869C214.194 5.37281 211.376 5.86842 209.811 6.97165C208.819 7.67093 207.322 7.75919 206.236 7.09386C205.547 6.66954 204.319 6.55073 203.671 6.15017C203.536 6.1332 203.41 6.11283 203.284 6.08907C202.022 5.79035 200.752 5.44749 199.457 6.0687C199.28 6.23164 199.028 6.38439 198.868 6.54733C197.699 6.77477 196.496 6.96147 195.2 7.04294C195.049 6.89697 194.898 6.74761 194.755 6.60164C194.679 6.54394 194.612 6.48284 194.536 6.42513C194.342 6.28256 194.149 6.13999 193.955 5.99741C193.257 5.47126 192.012 5.28116 190.692 5.21327C189.893 5.17253 189.136 5.15896 188.513 4.92813C188.471 4.86363 188.421 4.79913 188.37 4.73464C188.219 4.73464 188.067 4.73124 187.916 4.72445C185.754 4.72785 183.761 4.9451 181.994 5.46447C181.599 5.74961 181.195 6.03136 180.816 6.3199C179.689 7.19569 178.629 8.06131 175.542 7.3145C174.987 7.17872 173.793 6.90037 173.313 7.48763C173.153 7.50799 172.985 7.52497 172.809 7.53175C172.615 7.66754 172.422 7.80332 172.22 7.9391C170.664 8.30232 170.697 8.97105 170.369 9.55491C170.142 9.95887 170.058 10.3594 168.763 10.4205C168.746 10.4239 168.729 10.4239 168.704 10.4239C169.023 9.86042 167.938 9.71785 166.836 9.67033C164.347 9.5617 162.841 8.99481 161.924 8.10544C161.545 7.96626 161.175 7.83048 160.797 7.6913C159.813 7.6879 158.601 7.8135 157.962 7.49102C155.716 6.35384 153.344 7.08028 150.98 7.33826C150.341 7.71167 149.458 7.85424 148.356 7.79314C148.331 7.72864 148.306 7.66414 148.289 7.59965C144.293 7.86442 140.701 7.49441 137.169 6.68651C135.091 6.20788 132.079 6.71027 130.178 5.8175C129.968 5.60704 129.649 5.43392 129.093 5.35245C128.319 4.49023 126.242 4.09306 124.517 3.99123C122.103 3.84866 120.951 3.26819 119.656 2.63001C119.613 2.49423 119.58 2.35505 119.538 2.21927C118.57 2.02578 117.654 1.75082 116.627 1.65917C114.693 1.48265 112.514 1.15677 112.127 2.5112C111.993 2.97286 110.992 3.39379 110.394 3.83508C106.231 5.53236 105.734 5.76998 102.9 5.23364C102.916 5.14877 102.942 5.06051 102.958 4.97565C102.731 4.77198 102.504 4.5683 102.277 4.36463C101.2 4.10325 100.41 4.31032 99.7452 4.63619C98.9965 5.00281 97.9955 5.09446 96.9104 5.12501C96.574 5.39318 96.0356 5.52896 95.2954 5.52896C93.2934 4.98923 92.2504 4.08628 90.3325 3.47186C88.7512 2.96607 87.7165 3.0747 86.623 3.43113C85.5631 3.77398 84.5369 3.96407 83.2163 3.91315C81.2564 3.36663 79.5572 2.90157 77.1347 3.81811C76.2683 4.14398 73.7027 4.13719 72.0793 3.65177C71.9447 3.64498 71.8269 3.62122 71.726 3.58728C71.4568 3.58049 70.9605 3.55333 70.9521 3.56691C70.2792 4.83647 66.4014 5.22006 65.922 6.53715C64.7528 7.02597 62.3302 6.93431 62.1367 7.87121C61.6573 8.04433 61.1778 8.21746 60.6984 8.39058C60.4628 8.87939 59.6301 9.09665 58.5366 8.98123C53.969 8.50599 49.4352 9.05591 44.8845 9.00839C44.506 9.20527 44.119 9.40216 43.7321 9.59565C43.2022 9.67712 42.7311 9.94529 42.1002 9.67033C41.3348 9.59225 40.9478 9.00839 39.8375 9.39876C37.4991 9.46665 35.8252 9.73482 35.455 10.8856C35.1186 11.9311 32.8138 12.1484 30.5342 12.1891C29.508 12.2061 28.3556 11.9718 27.6154 12.4674C26.9761 12.6508 26.2948 12.8137 25.9751 13.126C26.3116 13.6623 25.1424 13.7879 24.4358 14.0357C24.2507 14.0357 24.0741 14.0357 23.889 14.0391C22.1562 13.6114 21.3235 14.3107 20.1038 14.5279C18.6065 14.6637 17.9504 14.7248 17.8495 14.9319C17.3953 14.7316 16.9242 14.5415 16.2765 14.4295C15.6036 14.2767 14.9054 14.2564 14.1988 14.27C14.2241 14.2156 14.1988 14.1647 14.1315 14.1172C14.5353 14.0323 14.6362 13.8864 14.5774 13.7065C14.2157 13.6386 13.8456 13.5741 13.4839 13.5062C13.4923 13.4281 13.5007 13.35 13.5007 13.272L13.5175 13.2652C12.2558 13.1294 11.0445 12.7831 9.65656 13.1022C8.76492 13.3161 7.85647 13.3874 6.90595 13.1599C6.19937 13.1633 5.4928 13.1701 4.77781 13.1735C4.29835 13.3602 3.31418 13.4145 3.70953 13.8321C4.38246 14.0595 4.2647 14.3888 4.37405 14.6875C4.38246 14.6977 4.39087 14.7045 4.39928 14.7146C2.94407 14.4499 1.49727 14.2462 0 14.382V129.108C1.31221 129.108 2.62443 129.108 3.93664 129.108C4.92081 128.779 6.12367 128.969 7.20877 128.88C7.38542 128.884 7.56206 128.884 7.7387 128.887C8.06676 128.792 8.42005 128.714 8.71445 128.609C9.05933 128.521 9.35374 128.392 9.63132 128.256C10.9519 127.777 12.3819 127.441 14.1231 127.346C17.0924 127.512 20.0617 127.597 22.9974 127.142C23.0142 127.142 23.0226 127.142 23.0395 127.142C25.7648 127.519 28.465 128.453 31.2913 127.224C31.3081 127.207 31.3165 127.19 31.3249 127.173C32.3259 127.027 33.2512 126.786 34.3699 126.786C36.3887 126.64 38.5589 126.039 40.1824 127.098C41.6039 127.682 43.6311 127.838 45.2462 128.29C46.1631 128.426 47.0799 128.636 48.0388 128.334C48.1061 128.297 48.1566 128.263 48.1903 128.229C51.2605 128.51 54.2719 128.619 57.1823 127.913C57.7963 127.764 58.7384 127.845 59.5375 127.818C59.6721 127.967 59.8151 128.117 59.9497 128.266C59.9497 128.266 59.9497 128.266 59.9581 128.266C61.733 128.738 63.1377 128.908 64.5425 128.796C65.1061 128.836 65.7033 128.782 65.9556 128.592C66.3846 128.504 66.8304 128.392 67.2847 128.256C68.7735 127.815 70.4643 127.944 72.0541 128.256C76.201 129.023 80.3311 129.766 84.9575 130.021C89.3736 130.262 93.5121 130.975 97.6591 131.633C98.5591 131.776 99.2405 131.983 99.4003 132.394C100.334 132.496 101.167 132.428 101.924 132.173C102.454 131.997 103 131.956 103.615 132.16C105.633 132.825 107.871 132.686 110.125 132.421C110.167 132.445 110.209 132.465 110.26 132.486C110.655 132.557 111.017 132.53 111.353 132.431C112.447 132.333 112.985 131.925 113.843 131.698C113.919 130.863 115.652 130.625 117.048 130.272C117.654 130.12 118.705 130.038 118.848 129.841C119.798 128.517 122.591 127.75 124.416 126.694C125.3 126.396 126.183 126.097 127.066 125.798C127.293 125.666 127.52 125.537 127.747 125.404C127.739 125.404 127.731 125.404 127.722 125.401C128.622 125.316 129.211 125.116 129.262 124.715C129.463 124.644 129.665 124.573 129.867 124.502C130.027 124.43 130.162 124.356 130.271 124.271C130.338 123.758 130.969 123.385 132.021 123.113C132.87 122.502 134.872 122.76 135.89 122.275C136.075 122.142 136.353 122.023 136.597 121.901C137.791 121.677 138.733 121.338 139.145 120.751C139.751 120.778 140.727 120.723 140.903 120.849C142.392 121.908 144.714 121.372 146.733 121.402C149.424 122.02 152.612 121.45 155.363 121.99C156.086 122.132 156.801 122.197 157.373 122.482C160.814 124.203 164.372 124.349 168.636 122.988C168.721 122.947 168.813 122.906 168.897 122.869C168.897 122.859 168.889 122.852 168.889 122.842C168.965 122.814 169.04 122.787 169.116 122.757C170.622 122.668 170.958 122.125 171.572 121.704C172.725 120.92 174.138 120.628 176.451 120.971C178.2 121.233 180.034 121.538 182.019 121.379C183.374 120.893 184.358 121.395 185.451 121.592C185.981 121.599 186.671 121.698 187.007 121.599C189.682 120.795 191.096 121.219 191.869 122.356C194.956 124.074 197.808 124.23 201.131 122.258C201.719 121.592 202.409 120.975 204.428 120.842C205.126 120.795 205.21 120.489 205.564 120.296C206.228 120.072 207.17 120.401 207.793 120.109C207.944 120.075 208.095 120.044 208.247 120.017C209.122 120.129 209.576 119.882 210.072 119.668C213.445 119.131 216.398 119.59 219.241 120.299C219.569 120.313 219.905 120.33 220.233 120.343C220.284 120.313 220.334 120.279 220.385 120.248C220.393 120.255 220.393 120.258 220.393 120.265C220.385 120.268 220.225 120.343 220.225 120.343C221.933 120.452 222.69 121.11 224.044 121.419C225.735 121.725 227.366 122.108 229.318 122.068C230.319 122.047 230.95 122.302 231.631 122.543C232.826 122.96 234.121 123.103 235.509 122.679C236.417 122.281 237.999 122.315 238.798 121.844C239.37 121.708 239.95 121.575 240.522 121.44C242.541 120.805 244.375 120.048 247.041 119.837C247.142 119.831 247.142 119.746 247.1 119.661C247.428 119.657 247.748 119.651 248.076 119.647C248.219 119.593 248.362 119.539 248.497 119.481C248.984 119.79 249.733 119.922 250.532 119.783C253.72 119.23 256.277 119.545 258.725 120.503C259.583 120.839 260.643 121.283 262.14 121.263C261.93 121.395 261.938 121.518 262.3 121.62C262.384 121.626 262.46 121.63 262.544 121.633C262.536 121.633 262.536 121.636 262.527 121.636C262.039 122.105 262.426 122.546 263.621 122.485C265.925 122.37 268.171 122.387 270.442 122.522C270.619 122.444 270.796 122.363 270.972 122.285C271.225 121.959 272.428 121.99 272.529 121.606C272.907 121.406 273.201 121.08 273.681 121.025C276.347 120.727 277.323 119.817 278.518 118.979C281.638 118.517 283.767 119.376 286.139 119.915C287.072 120.316 287.56 120.469 289.251 120.075C291.446 119.562 294.222 118.642 297.141 119.715C298.142 120.085 299.421 119.413 300.396 119.858C302.079 120.452 303.929 120.404 305.847 120.095C305.906 120.004 305.923 119.926 305.914 119.858C306.57 119.569 306.713 118.985 308.068 119.104C309.102 119.192 309.632 119.467 309.91 119.81C309.885 119.997 309.859 120.187 309.986 120.333V120.336C309.17 120.896 310.776 121.222 310.818 121.698C311.197 121.976 311.794 122.047 312.526 122.01C316.109 121.372 318.145 122.529 320.652 123.144C321.299 123.096 321.787 122.967 322.048 122.719C323.217 122.098 323.856 122.006 324.412 122.489C325.202 123.181 326.842 123.279 328.113 123.632C328.811 124.026 329.736 124.142 330.872 123.999C331.057 124.013 331.233 124.026 331.418 124.04C331.99 123.758 332.562 123.476 333.134 123.198L333.143 123.205C335.212 123.079 335.944 122.271 337.416 121.844C337.416 121.844 337.416 121.844 337.424 121.844C337.887 121.932 338.232 121.813 338.543 121.643C338.711 121.562 338.88 121.48 339.048 121.402C339.536 120.717 340.865 120.231 341.697 119.63C341.58 118.975 343.926 118.785 343.497 118.072C343.489 118.072 343.489 118.069 343.481 118.069C343.834 117.943 344.187 117.818 344.541 117.689C344.667 117.672 344.801 117.655 344.936 117.644C345.214 117.305 345.466 116.959 345.777 116.623C346.988 115.316 348.368 115.092 351.505 115.669C351.859 115.587 351.951 115.435 352.111 115.302C352.17 115.228 352.296 115.163 352.447 115.099C354.449 114.627 355.728 113.798 357.646 113.293C358.251 113.303 358.588 113.439 358.765 113.659C359.572 113.612 360.296 113.673 360.918 113.897C361.431 113.91 361.936 113.924 362.441 113.938C362.634 113.992 362.836 114.029 363.046 114.056C365.04 114.45 367.033 114.841 369.027 115.234C370.104 115.217 370.911 115.458 371.719 115.693C372.4 116.334 373.148 116.85 375.226 116.972C376.698 117.061 377.464 117.682 377.851 118.279C377.985 118.306 378.12 118.327 378.263 118.34C378.49 118.69 378.625 119.097 379.928 118.775C381.989 118.551 384.26 117.97 385.244 119.372C385.446 119.651 386.094 119.573 386.481 119.366C387.272 118.948 388.172 118.877 389.24 119.186C390.123 119.247 390.434 119.566 390.931 119.8C392.386 119.946 393.597 119.892 394.649 119.349C395.111 119.108 395.7 118.765 396.735 118.785C396.979 119.522 399.132 119.301 399.906 119.82C400.394 120.146 401.378 120.34 401.748 120.727C403.01 120.516 403.876 120.136 404.507 119.661C406.787 119.471 407.653 120.211 408.847 120.734V120.839V120.944C409.537 121.005 410.109 121.141 410.496 121.385C410.833 121.592 411.48 121.704 411.884 121.606C414.593 120.964 417.099 121.721 419.699 121.749C420.523 121.755 420.657 122.013 420.851 122.251C421.002 122.261 421.154 122.278 421.297 122.302C421.852 122.292 422.407 122.278 422.962 122.268C426.815 121.677 429.658 122.169 431.66 123.578V123.585C433.266 123.524 435.067 123.144 436.084 124.033C436.152 124.091 436.177 124.155 436.177 124.22C436.328 124.227 436.463 124.247 436.589 124.281C436.926 124.189 437.262 124.094 437.598 124.003C437.985 123.907 438.053 123.751 438.086 123.588C438.078 123.561 438.061 123.534 438.053 123.51C440.206 123.011 442.477 122.896 444.917 123.178C445.758 123.273 446.641 123.31 447.507 123.375C449.821 122.937 452.487 123.021 454.792 122.519C456.18 122.217 457.231 122.448 457.391 123.137C457.719 123.222 458.047 123.307 458.375 123.391C459.662 124.013 461.975 123.673 463.304 124.25C463.464 124.328 463.616 124.406 463.775 124.485C464.566 124.759 465.416 124.997 466.45 125.102C468.158 123.772 468.444 123.748 471.422 124.705C471.565 125.102 472.12 125.404 473.037 125.513C476.662 125.934 479.345 127.081 483.122 127.472C486.184 127.787 489.078 127.838 491.635 126.895C492.165 126.783 492.409 126.335 493.309 126.667C493.738 126.705 494.36 126.837 494.57 126.769C497.397 125.819 497.851 126.871 498.759 127.55C498.776 127.689 498.802 127.832 498.818 127.971C501.535 128.572 504.648 128.079 507.44 128.47C509.602 128.901 511.764 129.332 513.926 129.763C515.221 130.54 516.508 130.096 517.795 129.76C519.233 129.716 520.436 129.963 521.597 130.262L521.605 130.167C521.925 130.184 522.253 130.204 522.573 130.221C524.676 130.473 526.753 130.062 528.873 130.191C529.866 130.252 530.858 130.198 531.413 130.625C534.13 130.717 536.847 130.228 539.556 130.639C540.153 130.914 540.91 130.86 541.667 130.802C542.643 129.865 544.039 129.359 546.824 129.726C547.816 129.855 549.095 129.607 550.247 129.58C552.577 129.522 554.958 129.424 556.312 130.483C556.446 130.585 557.119 130.574 557.54 130.615C560.577 130.099 563.142 129.037 566.86 129.288C567.945 129.257 569.005 129.515 570.099 129.318C572.058 129.363 573.976 129.288 575.852 129.02C577.03 128.85 578.249 128.731 579.393 129.088C581.564 129.563 583.759 130.014 585.887 130.52C587.04 130.795 588.057 130.839 589.109 130.5C590.345 130.099 591.817 130.215 592.457 130.618C593.601 131.335 595.451 131.613 596.915 132.119C597.234 132.143 597.546 132.166 597.865 132.194C598.059 132.261 598.261 132.329 598.454 132.394C599.531 132.893 600.624 132.384 601.709 132.401C602.206 132.486 602.694 132.57 603.19 132.655C603.24 132.72 603.282 132.788 603.333 132.852C605.226 133.368 606.613 133.086 607.732 132.394C609.305 131.83 611.467 131.518 612.342 130.649C612.611 130.384 613.048 130.262 613.831 130.316C615.513 130.432 616.993 130.075 618.566 129.946C618.541 129.335 619.618 129.186 620.795 129.074C621.788 129.172 622.797 128.921 623.849 129.2C625.094 129.525 625.716 129.074 626.297 128.707C626.499 128.694 626.7 128.68 626.902 128.663C626.423 127.574 629.325 128.069 630.082 127.563C632.95 126.477 636.298 126.772 639.234 127.302C640.983 127.618 643.179 127.852 644.331 128.626C644.794 128.765 645.248 128.911 645.879 128.874C646.047 128.789 646.215 128.704 646.384 128.619C646.527 128.626 646.678 128.629 646.821 128.636C646.821 128.65 646.821 128.66 646.829 128.673C649.614 129.033 652.465 128.565 654.106 127.479C655.149 126.793 656.646 126.718 657.689 127.397C658.353 127.832 659.565 127.961 660.187 128.371C660.313 128.392 660.439 128.412 660.566 128.439C661.811 128.751 663.047 129.108 664.385 128.504C664.57 128.344 664.839 128.195 665.007 128.032C666.185 127.818 667.404 127.645 668.708 127.58C668.851 127.73 668.986 127.879 669.129 128.028C669.196 128.09 669.263 128.147 669.331 128.208C669.516 128.354 669.701 128.497 669.886 128.643C670.542 129.176 671.778 129.379 673.091 129.464C673.89 129.515 674.647 129.536 675.244 129.773C675.286 129.838 675.328 129.902 675.37 129.967C675.522 129.967 675.673 129.974 675.824 129.984C677.986 130.004 679.997 129.807 681.797 129.312C682.209 129.03 682.638 128.755 683.025 128.47C684.211 127.608 685.329 126.752 688.366 127.533C688.913 127.675 690.091 127.967 690.612 127.387C690.78 127.367 690.948 127.353 691.117 127.35C691.319 127.217 691.529 127.085 691.731 126.949C693.312 126.603 693.321 125.934 693.691 125.354C693.943 124.95 694.061 124.552 695.356 124.508C695.373 124.508 695.39 124.505 695.415 124.505C695.062 125.065 696.13 125.218 697.232 125.279C699.713 125.418 701.185 125.999 702.035 126.898C702.397 127.041 702.767 127.183 703.129 127.326C704.113 127.339 705.332 127.227 705.946 127.56C708.117 128.721 710.539 128.022 712.911 127.791C713.576 127.424 714.467 127.292 715.561 127.367C715.586 127.431 715.603 127.495 715.611 127.563C719.624 127.346 723.182 127.75 726.664 128.602C728.708 129.101 731.753 128.636 733.587 129.549C733.789 129.763 734.083 129.94 734.638 130.024C735.354 130.893 737.406 131.314 739.122 131.437C741.528 131.606 742.638 132.197 743.891 132.849C743.917 132.985 743.95 133.124 743.975 133.259C744.926 133.463 745.826 133.748 746.844 133.854C748.77 134.054 750.915 134.4 751.403 133.049C751.571 132.587 752.597 132.177 753.228 131.745C757.51 130.096 758.014 129.865 760.815 130.432C760.79 130.517 760.765 130.605 760.731 130.69C760.942 130.897 761.152 131.101 761.371 131.308C762.431 131.583 763.238 131.382 763.919 131.067C764.693 130.71 765.703 130.629 766.788 130.608C767.141 130.347 767.688 130.215 768.436 130.221C770.405 130.781 771.381 131.698 773.256 132.336C774.804 132.859 775.847 132.764 776.966 132.418C778.051 132.085 779.086 131.908 780.406 131.976C782.333 132.547 783.998 133.029 786.479 132.139C787.371 131.824 789.937 131.858 791.526 132.363C791.661 132.373 791.77 132.397 791.871 132.431C792.14 132.441 792.637 132.475 792.645 132.462C793.402 131.199 797.314 130.86 797.877 129.549C799.08 129.074 801.494 129.193 801.755 128.259C802.243 128.09 802.739 127.923 803.227 127.753C803.496 127.268 804.346 127.061 805.431 127.187C809.965 127.713 814.532 127.214 819.075 127.312C819.47 127.119 819.865 126.929 820.261 126.739C820.791 126.664 821.287 126.399 821.892 126.681C822.649 126.766 822.994 127.356 824.13 126.98C826.477 126.935 828.167 126.688 828.613 125.544C829.017 124.501 831.339 124.308 833.627 124.298C834.653 124.291 835.788 124.539 836.562 124.053C837.21 123.877 837.908 123.724 838.245 123.412C837.95 122.872 839.119 122.76 839.851 122.519C840.036 122.522 840.213 122.522 840.398 122.519C842.097 122.967 842.98 122.275 844.217 122.071C845.723 121.952 846.387 121.898 846.496 121.694C846.942 121.898 847.396 122.095 848.036 122.214C848.692 122.377 849.39 122.4 850.105 122.393C850.08 122.448 850.097 122.499 850.164 122.546C849.76 122.628 849.642 122.774 849.693 122.95C850.055 123.021 850.416 123.093 850.778 123.164C850.77 123.242 850.753 123.32 850.744 123.398L850.727 123.405C851.981 123.554 853.175 123.914 854.58 123.612C855.488 123.408 856.405 123.347 857.331 123.585C858.037 123.588 858.744 123.592 859.459 123.595C859.955 123.415 860.939 123.371 860.578 122.95C859.972 122.723 860.115 122.393 860.022 122.095ZM246.209 4.71088C246.192 4.71088 246.175 4.71088 246.158 4.71427C246.175 4.70069 246.192 4.69051 246.209 4.68032C246.217 4.68711 246.209 4.6973 246.209 4.71088ZM617.624 129.346C617.607 129.359 617.591 129.369 617.574 129.379C617.574 129.369 617.582 129.359 617.582 129.346C617.591 129.346 617.607 129.346 617.624 129.346ZM643.885 9.3784C643.877 9.37161 643.877 9.36821 643.877 9.36142C643.877 9.35803 644.037 9.27995 644.037 9.27995C643.978 9.3139 643.927 9.34445 643.885 9.3784Z" fill="white"/>
</svg>
