<svg width="143" height="160" viewBox="0 0 143 160" fill="none" xmlns="http://www.w3.org/2000/svg">
<g clip-path="url(#clip0_67_4996)">
<path d="M103.729 32.9301C103.623 34.9323 104.623 41.4996 102.503 43.9423C102.503 43.9423 105.503 42.5007 107.169 39.7109L103.729 32.9301Z" fill="#E5CEC3"/>
<path d="M104.836 37.9357C104.729 39.9379 105.729 46.5052 103.609 48.9479C103.609 48.9479 106.609 47.5063 108.276 44.7166L104.836 37.9357Z" fill="#E5CEC3"/>
<path d="M68.5592 135.925C68.5592 136.526 72.1589 158.136 72.1589 158.136L74.7586 157.936C74.7586 157.936 71.5589 139.128 76.9584 134.336L68.5592 135.925Z" fill="#E8A52E"/>
<path d="M82.9579 135.925C82.9579 136.526 86.5576 158.136 86.5576 158.136L89.1574 157.936C89.1574 157.936 85.9576 139.128 91.3572 134.336L82.9579 135.925Z" fill="#E8A52E"/>
<path d="M63.7729 158.937C67.3726 155.333 73.1588 153.531 73.1588 153.531C73.1588 153.531 80.9448 155.734 83.1446 159.137L63.7729 158.937Z" fill="#E8A52E"/>
<path d="M78.3583 158.937C81.958 155.333 87.7442 153.531 87.7442 153.531C87.7442 153.531 95.5435 155.734 97.7299 159.137L78.3583 158.937Z" fill="#E8A52E"/>
<path d="M86.4243 139.929C95.8101 139.903 109.809 121.028 109.809 121.028L61.4798 124.285C61.4798 124.285 75.5052 139.969 86.4243 139.929Z" fill="#B29B8E"/>
<path d="M29.936 57.9046C19.3502 52.2983 20.7501 39.6976 15.3506 39.8978C12.1242 40.0179 16.5505 53.9001 16.5505 53.9001C16.5505 53.9001 13.9507 46.8923 10.951 48.0936C7.95124 49.295 13.1508 59.493 13.1508 59.493C13.1508 59.493 4.16491 43.4885 1.76512 56.4896C0.80521 61.6688 5.05816 67.889 10.511 73.5353C9.5111 73.2951 8.92449 73.5887 8.95115 74.7233C9.05781 78.2606 10.3377 81.3574 12.1909 84.0137C10.951 83.72 10.1377 83.9336 10.1377 84.9347C10.1377 89.7134 14.3507 93.9314 18.7769 97.0148C17.7104 97.0148 17.1638 97.6689 17.737 99.5376C18.7503 102.901 23.0832 106.105 26.8429 108.227C24.1365 107.56 21.6967 107.373 22.3233 108.548C25.5897 114.554 40.975 127.756 58.5601 132.027L29.936 57.9046Z" fill="#DBC0B4"/>
<path d="M15.2173 51.2305C15.2173 51.2305 12.6175 44.2227 9.61777 45.424C6.61804 46.6253 11.8176 56.8234 11.8176 56.8234C11.8176 56.8234 2.83171 40.8189 0.431921 53.82C-0.514661 58.9724 2.28509 65.7667 7.73794 71.3996C6.73803 71.1594 6.15141 71.453 6.17808 72.5876C6.28473 76.1249 9.00449 78.6611 10.8577 81.3174C9.61777 81.0237 8.80451 81.2373 8.80451 82.2384C8.80451 90.0071 23.4299 106.479 47.1078 108.014L28.6027 55.2349C25.243 53.4596 8.84451 21.2504 15.2173 51.2305Z" fill="#E5CEC3"/>
<path d="M123.048 10.4917C120.501 9.6641 119.248 11.7998 118.728 13.495C118.501 9.07678 115.928 -1.92215 108.262 0.293656C99.2765 2.89656 103.863 10.4917 103.863 10.4917C103.863 10.4917 102.063 7.68857 100.663 8.68968C99.2631 9.6908 100.263 11.693 100.263 11.693C100.263 11.693 92.2638 8.28924 90.8772 14.8966C89.4773 21.504 95.8768 26.8967 105.463 25.2949L124.448 22.692C124.448 22.692 129.847 12.6941 123.048 10.4917Z" fill="#CE4824"/>
<path d="M121.528 11.5062C122.581 11.1325 125.394 12.801 125.701 14.4161C126.007 16.0313 124.621 22.6787 120.555 19.8622C118.408 18.3805 118.248 12.6942 121.528 11.5062Z" fill="#EA5228"/>
<path d="M25.7363 55.3017C51.7074 69.304 95.9967 65.5264 102.863 55.7021C114.048 39.6976 94.7702 30.4206 108.462 21.6909C131.434 7.04787 136.833 39.6976 135.633 72.5075C134.993 90.1005 120.048 137.326 73.6921 134.523C9.88441 130.666 25.7363 55.3017 25.7363 55.3017Z" fill="#E5CEC3"/>
<path d="M103.289 27.484C105.103 20.4896 120.728 12.0802 127.621 23.4262C134.513 34.7722 130.447 58.4119 119.381 58.6388C108.302 58.8523 102.303 31.2616 103.289 27.484Z" fill="#F4E2D9"/>
<path d="M122.834 45.1704C123.168 49.9491 128.941 58.5186 134.167 59.186L133.727 43.5019L122.834 45.1704Z" fill="#DBC0B4"/>
<path d="M126.434 21.5173C130.234 31.969 131.22 47.8801 130.634 63.8312C129.994 81.4241 115.048 128.65 68.6925 125.847C49.4142 124.686 37.4153 116.984 30.056 106.826C36.482 121.055 49.2276 133.042 73.6921 134.523C120.048 137.326 134.993 90.1005 135.633 72.5075C136.42 51.0436 134.38 29.6331 126.434 21.5173Z" fill="#DBC0B4"/>
<path d="M110.662 64.7121C121.234 72.8412 126.514 131.814 67.626 128.263C15.1773 125.086 17.6304 64.1916 26.0697 51.7377C26.0697 51.7377 49.1076 69.5709 65.1062 69.7177C86.8776 69.9179 96.8767 54.1137 110.662 64.7121Z" fill="#DBC0B4"/>
<path d="M73.0921 141.131C82.278 141.531 103.463 125.326 103.463 125.326L47.5211 124.125C47.5211 124.125 61.8664 140.637 73.0921 141.131Z" fill="#DBC0B4"/>
<path d="M123.714 45.7043C123.114 46.7989 125.794 50.5764 128.381 50.9101C130.407 51.1771 139.526 46.0247 139.033 42.4874C139.033 42.4874 125.141 43.0881 123.714 45.7043Z" fill="#E8A52E"/>
<path d="M123.034 45.9313C121.394 44.8367 130.82 36.2405 132.66 36.2538C134.5 36.2671 143.406 40.2583 142.779 41.2727C142.113 42.3539 124.448 46.879 123.034 45.9313Z" fill="#FFC145"/>
<path d="M118.421 38.6031C120.701 38.4562 120.221 27.4974 115.928 29.0991C112.182 30.4874 116.822 38.6965 118.421 38.6031Z" fill="#4C3E29"/>
<path d="M128.367 36.4406C130.554 36.4139 131.394 27.564 127.101 28.6853C123.341 29.6597 126.821 36.454 128.367 36.4406Z" fill="#4C3E29"/>
<path d="M109.329 58.7055C119.901 66.8346 124.314 124.325 71.9589 119.72C19.6035 115.115 21.4034 67.3017 25.403 49.3083C25.403 49.3083 47.7744 63.5642 63.7596 63.7111C85.5443 63.9113 95.5434 48.107 109.329 58.7055Z" fill="#F4E2D9"/>
<path d="M109.329 58.7054C95.5435 48.107 85.5577 63.9113 63.773 63.711C48.8676 63.5775 28.4294 51.1771 25.723 49.4952C23.9365 66.0069 60.2933 117.358 114.328 93.6778C118.301 78.9547 114.582 62.75 109.329 58.7054Z" fill="#FFF0E9"/>
<path d="M64.2929 133.829C63.4663 135.551 71.3589 138.822 73.6254 138.728C77.4651 138.568 83.4645 134.724 82.9579 133.549C82.4513 132.374 64.8662 132.628 64.2929 133.829Z" fill="#E5CEC3"/>
<path d="M123.954 45.0903C122.901 44.4096 128.794 38.9501 129.967 38.9501C131.14 38.9501 139.006 40.9657 138.62 41.6064C138.206 42.2872 124.861 45.6643 123.954 45.0903Z" fill="#FFD252"/>
<path d="M91.3705 18.3271C90.8905 16.2715 91.5038 11.7865 94.6235 11.5729C97.7433 11.3594 108.516 16.9122 106.289 21.3572C104.063 25.8021 92.9037 24.8144 91.3705 18.3271Z" fill="#EA5228"/>
<path d="M104.196 3.7375C105.143 1.84206 110.502 1.07288e-06 113.022 1.81536C115.555 3.64406 118.355 14.5362 113.795 16.5251C109.249 18.514 101.223 9.69081 104.196 3.7375Z" fill="#EA5228"/>
<path d="M104.796 13.4684C104.649 13.9489 103.156 14.2426 102.25 13.6286C101.343 13.0145 99.6631 9.89106 100.903 9.53066C102.143 9.17026 105.263 11.9467 104.796 13.4684Z" fill="#EA5228"/>
<path d="M8.79117 65.1393C4.63154 60.4674 -1.54124 53.2861 2.4584 49.2816C6.45805 45.2772 17.1238 63.4574 16.6171 66.1271C16.1105 68.7967 12.9641 69.8112 8.79117 65.1393Z" fill="#F4E2D9"/>
<path d="M12.8042 53.6732C11.231 50.7366 9.37779 47.1593 10.751 45.6776C12.2842 44.0358 17.2038 54.5008 16.8705 56.0492C16.5505 57.6109 14.7373 57.2639 12.8042 53.6732Z" fill="#F4E2D9"/>
<path d="M22.4033 47.0659C23.9632 50.0158 23.9632 54.1805 20.0702 53.0726C17.9104 52.4585 14.404 40.2716 14.7373 38.7232C15.084 37.1748 20.5101 43.4618 22.4033 47.0659Z" fill="#F4E2D9"/>
<path d="M14.1907 75.1905C15.9772 76.7522 15.1373 80.6099 12.5242 79.3685C8.57785 77.4997 7.32463 73.522 7.16465 72.4141C6.99133 71.2928 12.0042 73.2684 14.1907 75.1905Z" fill="#F4E2D9"/>
<path d="M28.1228 93.5043C31.2958 96.1739 44.4547 105.01 60.6132 106.519C60.6132 106.519 47.9477 111.351 29.9493 99.6845L28.1228 93.5043Z" fill="#DBC0B4"/>
<path d="M23.2432 77.2862C26.083 80.0359 38.0419 89.3263 53.2806 91.7156C53.2806 91.7156 40.9883 95.6267 24.6164 83.3329L23.2432 77.2862Z" fill="#DBC0B4"/>
<path d="M23.2832 60.6944C25.883 63.6844 33.629 72.3207 48.7876 76.6589C48.7876 76.6589 35.2955 77.1661 22.7899 68.1427L23.2832 60.6944Z" fill="#DBC0B4"/>
<mask id="mask0_67_4996" style="mask-type:alpha" maskUnits="userSpaceOnUse" x="0" y="0" width="143" height="160">
<path d="M133.22 36.3339C133.22 36.3072 133.207 36.2805 133.207 36.2538C133.153 36.0402 133.1 35.8133 133.06 35.5997C132.913 34.9857 132.753 34.3984 132.593 33.811C132.527 33.5708 132.46 33.3305 132.38 33.0902C132.247 32.6497 132.114 32.2093 131.98 31.7821C131.914 31.5685 131.847 31.3683 131.78 31.1547C131.607 30.6342 131.42 30.1269 131.234 29.633C131.154 29.4061 131.06 29.1926 130.98 28.979C130.82 28.5785 130.647 28.1781 130.474 27.791C130.38 27.5774 130.287 27.3638 130.18 27.1636C129.994 26.7632 129.794 26.3761 129.594 25.989C129.487 25.8021 129.394 25.6152 129.287 25.4284C129.074 25.0546 128.86 24.6942 128.647 24.3471C128.54 24.1736 128.421 24.0134 128.314 23.8399C128.101 23.5329 127.887 23.2259 127.661 22.9456C127.541 22.7988 127.434 22.6519 127.314 22.5051C127.034 22.1714 126.754 21.8377 126.461 21.544C126.114 21.197 125.767 20.8766 125.407 20.5696C126.581 17.5129 127.874 12.0534 123.061 10.4917C120.515 9.66411 119.261 11.7998 118.741 13.495C118.515 9.07679 115.942 -1.92215 108.276 0.293656C99.2898 2.89656 103.876 10.4917 103.876 10.4917C103.876 10.4917 102.076 7.68857 100.676 8.68969C99.2764 9.6908 100.276 11.693 100.276 11.693C100.276 11.693 92.2771 8.28924 90.8905 14.8966C89.5573 21.197 95.3168 26.3761 104.183 25.4551C103.783 26.1358 103.476 26.8032 103.303 27.4706C103.076 28.3516 103.236 30.5541 103.743 33.3705C103.756 35.7599 104.503 41.6464 102.529 43.929C102.529 43.929 103.703 43.355 104.996 42.2471C105.036 44.7299 104.863 47.5197 103.636 48.9346C103.636 48.9346 105.009 48.2538 106.422 46.959C106.102 49.5753 105.129 52.4051 103.023 55.4752C92.1037 52.6988 82.118 63.8579 63.7863 63.6977C63.3063 63.6977 62.813 63.671 62.3197 63.6443C62.1597 63.631 61.9864 63.6176 61.8131 63.6043C61.4798 63.5776 61.1465 63.5509 60.8132 63.5242C60.6132 63.4975 60.4132 63.4708 60.2132 63.4441C59.9066 63.404 59.6 63.364 59.2933 63.3239C59.08 63.2973 58.8667 63.2572 58.6534 63.2172C58.3468 63.1638 58.0534 63.1237 57.7468 63.0703C57.5202 63.0303 57.3068 62.9902 57.0802 62.9369C56.7736 62.8835 56.4802 62.8167 56.1736 62.75C55.947 62.6966 55.7203 62.6432 55.507 62.6031C55.2004 62.5364 54.9071 62.4563 54.6004 62.3896C54.3738 62.3362 54.1471 62.2694 53.9205 62.216C53.6138 62.136 53.3072 62.0559 53.0139 61.9758C52.7872 61.909 52.5606 61.8556 52.3473 61.7889C52.0406 61.6955 51.734 61.602 51.4274 61.5086C51.2141 61.4419 51.0007 61.3751 50.7874 61.3084C50.4674 61.2016 50.1475 61.1081 49.8275 61.0014C49.6142 60.9346 49.4142 60.8679 49.2142 60.8011C48.8809 60.6944 48.561 60.5742 48.241 60.4541C48.041 60.3873 47.8544 60.3206 47.6544 60.2405C47.3077 60.1204 46.9744 59.9869 46.6278 59.8668C46.4545 59.8 46.2812 59.7333 46.1078 59.6665C45.7345 59.5197 45.3479 59.3729 44.9746 59.226C44.8413 59.1727 44.708 59.1193 44.588 59.0659C44.108 58.879 43.6414 58.6788 43.1748 58.4785C43.1481 58.4652 43.1214 58.4518 43.0948 58.4385C42.0815 58.0114 41.0816 57.5709 40.1217 57.1304C40.0417 57.0903 39.9617 57.0503 39.8817 57.0236C39.4951 56.8501 39.0951 56.6632 38.7218 56.4897C38.6018 56.4229 38.4685 56.3695 38.3485 56.3161C38.0152 56.156 37.6819 55.9958 37.362 55.8489C37.2153 55.7822 37.082 55.7155 36.9353 55.6354C36.642 55.4885 36.3354 55.3417 36.0421 55.1949C35.8954 55.1148 35.7488 55.0481 35.5888 54.968C35.3221 54.8345 35.0422 54.6877 34.7755 54.5542C34.6155 54.4741 34.4689 54.394 34.3222 54.3139C34.0689 54.1804 33.8289 54.0603 33.5756 53.9268C33.4156 53.8467 33.269 53.7666 33.1223 53.6865C32.8957 53.5664 32.669 53.4463 32.4424 53.3261C32.2957 53.246 32.1357 53.166 31.9891 53.0859C31.7758 52.9791 31.5758 52.8589 31.3758 52.7522C31.2292 52.6721 31.0825 52.592 30.9359 52.5119C30.7492 52.4051 30.5626 52.2983 30.3759 52.2049C30.2426 52.1248 30.1093 52.0581 29.9759 51.978C29.8026 51.8845 29.6293 51.7911 29.4693 51.6843C29.336 51.6042 29.2027 51.5375 29.0827 51.4574C28.936 51.3773 28.8027 51.2972 28.6561 51.2171C28.5227 51.137 28.3894 51.0703 28.2694 50.9902C28.1628 50.9235 28.0561 50.8701 27.9495 50.8033C27.8161 50.7232 27.6695 50.6431 27.5495 50.5631C27.5362 50.5497 27.5228 50.5497 27.5095 50.5364C26.6829 50.0425 26.083 49.6821 25.7497 49.4685C25.5497 49.3484 25.443 49.2816 25.443 49.2816C25.3364 49.7889 25.2164 50.3361 25.1097 50.8968C24.2298 49.6287 23.2699 48.2004 22.2966 46.7722C21.1634 44.7165 19.0303 41.9401 17.3104 40.1781C16.9771 39.8177 16.6438 39.4974 16.3372 39.2438C15.6572 38.6564 15.1239 38.3494 14.8973 38.5096C13.5241 38.5096 13.2574 41.7132 15.1906 50.9368C15.0573 50.6431 14.9106 50.3628 14.764 50.0692C14.2973 49.0547 13.5241 47.5864 12.5775 46.5452C12.1242 45.998 11.7109 45.6509 11.3643 45.5575C10.831 45.2772 10.2577 45.1971 9.67109 45.424C7.57794 46.2649 9.4711 51.4574 10.8043 54.5408C8.08456 50.8434 5.0315 47.9602 3.07167 48.8945C1.97844 49.3217 1.04519 50.7633 0.485236 53.8334C-0.461347 58.9858 2.3384 65.78 7.79125 71.413C6.79134 71.1727 6.20473 71.4664 6.23139 72.601C6.32472 75.7645 8.49786 78.1271 10.2844 80.4764C10.4044 80.7567 10.5243 81.0237 10.6577 81.2907C9.56443 81.0904 8.87116 81.3174 8.87116 82.2384C8.87116 83.947 9.57776 86.0693 10.9243 88.3652C12.0442 91.0616 14.324 93.4909 16.8971 95.5466C17.4304 96.0405 18.0037 96.5343 18.5903 97.0149C17.697 97.1217 17.2704 97.8024 17.7904 99.511C18.8036 102.875 23.1366 106.078 26.8962 108.201C24.1898 107.533 21.75 107.346 22.3766 108.521C25.363 114.007 38.4552 125.46 54.0938 130.666C58.2801 134.43 63.9062 138.715 69.2791 140.397C69.9324 144.428 70.8923 150.274 71.5322 154.132C69.5458 154.933 66.1861 156.521 63.7996 158.924L83.1845 159.124C83.1445 159.071 83.1045 159.017 83.0645 158.977L97.7699 159.124C96.0234 156.414 90.7172 154.466 88.6374 153.785C88.2374 149.901 87.9041 144.027 88.864 139.542C94.0769 138.047 100.116 132.294 104.383 127.596C127.007 114.247 135.193 85.4153 135.673 72.5075C135.7 71.5998 135.727 70.6922 135.753 69.7845C135.753 69.5576 135.767 69.3307 135.767 69.1037C135.793 68.2094 135.807 67.3151 135.807 66.4207C135.807 66.3273 135.807 66.2472 135.807 66.1538C135.807 65.3395 135.82 64.5119 135.807 63.6977C135.807 63.4708 135.807 63.2439 135.807 63.0169C135.807 62.1493 135.793 61.2817 135.78 60.414C135.78 60.2672 135.767 60.107 135.767 59.9602C135.753 59.226 135.727 58.4785 135.7 57.7444C135.687 57.5041 135.687 57.2639 135.673 57.0236C135.647 56.196 135.607 55.3684 135.567 54.5408C135.553 54.3406 135.54 54.1404 135.527 53.9402C135.487 53.2727 135.447 52.6053 135.407 51.9379C135.393 51.6977 135.367 51.444 135.353 51.2038C135.3 50.4162 135.233 49.642 135.167 48.8678C135.14 48.6409 135.127 48.4006 135.1 48.1737C135.087 48.0536 135.073 47.9201 135.06 47.8C137.233 46.2382 139.033 44.3561 139.046 42.741C141.126 42.1003 142.619 41.5397 142.806 41.246C143.353 40.3383 135.833 36.8811 133.22 36.3339ZM74.1587 141.104C76.1985 140.944 78.6916 140.143 81.3447 138.995C82.0646 139.249 82.7846 139.449 83.5045 139.609C84.1445 143.654 85.211 150.101 85.891 154.239C84.5311 154.799 82.6246 155.707 80.7981 156.948C78.6116 155.467 75.7452 154.399 74.212 153.892C73.8654 150.408 73.5587 145.349 74.1587 141.104Z" fill="url(#paint0_linear_67_4996)"/>
</mask>
<g mask="url(#mask0_67_4996)">
<path opacity="0.6" d="M133.22 36.3339C133.22 36.3072 133.207 36.2805 133.207 36.2538C133.153 36.0402 133.1 35.8133 133.06 35.5997C132.913 34.9857 132.753 34.3984 132.593 33.811C132.527 33.5708 132.46 33.3305 132.38 33.0902C132.247 32.6497 132.114 32.2093 131.98 31.7821C131.914 31.5685 131.847 31.3683 131.78 31.1547C131.607 30.6342 131.42 30.1269 131.234 29.633C131.154 29.4061 131.06 29.1926 130.98 28.979C130.82 28.5785 130.647 28.1781 130.474 27.791C130.38 27.5774 130.287 27.3638 130.18 27.1636C129.994 26.7632 129.794 26.3761 129.594 25.989C129.487 25.8021 129.394 25.6152 129.287 25.4284C129.074 25.0546 128.86 24.6942 128.647 24.3471C128.54 24.1736 128.421 24.0134 128.314 23.8399C128.101 23.5329 127.887 23.2259 127.661 22.9456C127.541 22.7988 127.434 22.6519 127.314 22.5051C127.034 22.1714 126.754 21.8377 126.461 21.544C126.114 21.197 125.767 20.8766 125.407 20.5696C126.581 17.5129 127.874 12.0534 123.061 10.4917C120.515 9.66411 119.261 11.7998 118.741 13.495C118.515 9.07679 115.942 -1.92215 108.276 0.293656C99.2898 2.89656 103.876 10.4917 103.876 10.4917C103.876 10.4917 102.076 7.68857 100.676 8.68969C99.2764 9.6908 100.276 11.693 100.276 11.693C100.276 11.693 92.2771 8.28924 90.8905 14.8966C89.5573 21.197 95.3168 26.3761 104.183 25.4551C103.783 26.1358 103.476 26.8032 103.303 27.4706C103.076 28.3516 103.236 30.5541 103.743 33.3705C103.756 35.7599 104.503 41.6464 102.529 43.929C102.529 43.929 103.703 43.355 104.996 42.2471C105.036 44.7299 104.863 47.5197 103.636 48.9346C103.636 48.9346 105.009 48.2538 106.422 46.959C106.102 49.5753 105.129 52.4051 103.023 55.4752C92.1037 52.6988 82.118 63.8579 63.7863 63.6977C63.3063 63.6977 62.813 63.671 62.3197 63.6443C62.1597 63.631 61.9864 63.6176 61.8131 63.6043C61.4798 63.5776 61.1465 63.5509 60.8132 63.5242C60.6132 63.4975 60.4132 63.4708 60.2132 63.4441C59.9066 63.404 59.6 63.364 59.2933 63.3239C59.08 63.2973 58.8667 63.2572 58.6534 63.2172C58.3468 63.1638 58.0534 63.1237 57.7468 63.0703C57.5202 63.0303 57.3068 62.9902 57.0802 62.9369C56.7736 62.8835 56.4802 62.8167 56.1736 62.75C55.947 62.6966 55.7203 62.6432 55.507 62.6031C55.2004 62.5364 54.9071 62.4563 54.6004 62.3896C54.3738 62.3362 54.1471 62.2694 53.9205 62.216C53.6138 62.136 53.3072 62.0559 53.0139 61.9758C52.7872 61.909 52.5606 61.8556 52.3473 61.7889C52.0406 61.6955 51.734 61.602 51.4274 61.5086C51.2141 61.4419 51.0007 61.3751 50.7874 61.3084C50.4674 61.2016 50.1475 61.1081 49.8275 61.0014C49.6142 60.9346 49.4142 60.8679 49.2142 60.8011C48.8809 60.6944 48.561 60.5742 48.241 60.4541C48.041 60.3873 47.8544 60.3206 47.6544 60.2405C47.3077 60.1204 46.9744 59.9869 46.6278 59.8668C46.4545 59.8 46.2812 59.7333 46.1078 59.6665C45.7345 59.5197 45.3479 59.3729 44.9746 59.226C44.8413 59.1727 44.708 59.1193 44.588 59.0659C44.108 58.879 43.6414 58.6788 43.1748 58.4785C43.1481 58.4652 43.1214 58.4518 43.0948 58.4385C42.0815 58.0114 41.0816 57.5709 40.1217 57.1304C40.0417 57.0903 39.9617 57.0503 39.8817 57.0236C39.4951 56.8501 39.0951 56.6632 38.7218 56.4897C38.6018 56.4229 38.4685 56.3695 38.3485 56.3161C38.0152 56.156 37.6819 55.9958 37.362 55.8489C37.2153 55.7822 37.082 55.7155 36.9353 55.6354C36.642 55.4885 36.3354 55.3417 36.0421 55.1949C35.8954 55.1148 35.7488 55.0481 35.5888 54.968C35.3221 54.8345 35.0422 54.6877 34.7755 54.5542C34.6155 54.4741 34.4689 54.394 34.3222 54.3139C34.0689 54.1804 33.8289 54.0603 33.5756 53.9268C33.4156 53.8467 33.269 53.7666 33.1223 53.6865C32.8957 53.5664 32.669 53.4463 32.4424 53.3261C32.2957 53.246 32.1357 53.166 31.9891 53.0859C31.7758 52.9791 31.5758 52.8589 31.3758 52.7522C31.2292 52.6721 31.0825 52.592 30.9359 52.5119C30.7492 52.4051 30.5626 52.2983 30.3759 52.2049C30.2426 52.1248 30.1093 52.0581 29.9759 51.978C29.8026 51.8845 29.6293 51.7911 29.4693 51.6843C29.336 51.6042 29.2027 51.5375 29.0827 51.4574C28.936 51.3773 28.8027 51.2972 28.6561 51.2171C28.5227 51.137 28.3894 51.0703 28.2694 50.9902C28.1628 50.9235 28.0561 50.8701 27.9495 50.8033C27.8161 50.7232 27.6695 50.6431 27.5495 50.5631C27.5362 50.5497 27.5228 50.5497 27.5095 50.5364C26.6829 50.0425 26.083 49.6821 25.7497 49.4685C25.5497 49.3484 25.443 49.2816 25.443 49.2816C25.3364 49.7889 25.2164 50.3361 25.1097 50.8968C24.2298 49.6287 23.2699 48.2004 22.2966 46.7722C21.1634 44.7165 19.0303 41.9401 17.3104 40.1781C16.9771 39.8177 16.6438 39.4974 16.3372 39.2438C15.6572 38.6564 15.1239 38.3494 14.8973 38.5096C13.5241 38.5096 13.2574 41.7132 15.1906 50.9368C15.0573 50.6431 14.9106 50.3628 14.764 50.0692C14.2973 49.0547 13.5241 47.5864 12.5775 46.5452C12.1242 45.998 11.7109 45.6509 11.3643 45.5575C10.831 45.2772 10.2577 45.1971 9.67109 45.424C7.57794 46.2649 9.4711 51.4574 10.8043 54.5408C8.08456 50.8434 5.0315 47.9602 3.07167 48.8945C1.97844 49.3217 1.04519 50.7633 0.485236 53.8334C-0.461347 58.9858 2.3384 65.78 7.79125 71.413C6.79134 71.1727 6.20473 71.4664 6.23139 72.601C6.32472 75.7645 8.49786 78.1271 10.2844 80.4764C10.4044 80.7567 10.5243 81.0237 10.6577 81.2907C9.56443 81.0904 8.87116 81.3174 8.87116 82.2384C8.87116 83.947 9.57776 86.0693 10.9243 88.3652C12.0442 91.0616 14.324 93.4909 16.8971 95.5466C17.4304 96.0405 18.0037 96.5343 18.5903 97.0149C17.697 97.1217 17.2704 97.8024 17.7904 99.511C18.8036 102.875 23.1366 106.078 26.8962 108.201C24.1898 107.533 21.75 107.346 22.3766 108.521C25.363 114.007 38.4552 125.46 54.0938 130.666C58.2801 134.43 63.9062 138.715 69.2791 140.397C69.9324 144.428 70.8923 150.274 71.5322 154.132C69.5458 154.933 66.1861 156.521 63.7996 158.924L83.1845 159.124C83.1445 159.071 83.1045 159.017 83.0645 158.977L97.7699 159.124C96.0234 156.414 90.7172 154.466 88.6374 153.785C88.2374 149.901 87.9041 144.027 88.864 139.542C94.0769 138.047 100.116 132.294 104.383 127.596C127.007 114.247 135.193 85.4153 135.673 72.5075C135.7 71.5998 135.727 70.6922 135.753 69.7845C135.753 69.5576 135.767 69.3307 135.767 69.1037C135.793 68.2094 135.807 67.3151 135.807 66.4207C135.807 66.3273 135.807 66.2472 135.807 66.1538C135.807 65.3395 135.82 64.5119 135.807 63.6977C135.807 63.4708 135.807 63.2439 135.807 63.0169C135.807 62.1493 135.793 61.2817 135.78 60.414C135.78 60.2672 135.767 60.107 135.767 59.9602C135.753 59.226 135.727 58.4785 135.7 57.7444C135.687 57.5041 135.687 57.2639 135.673 57.0236C135.647 56.196 135.607 55.3684 135.567 54.5408C135.553 54.3406 135.54 54.1404 135.527 53.9402C135.487 53.2727 135.447 52.6053 135.407 51.9379C135.393 51.6977 135.367 51.444 135.353 51.2038C135.3 50.4162 135.233 49.642 135.167 48.8678C135.14 48.6409 135.127 48.4006 135.1 48.1737C135.087 48.0536 135.073 47.9201 135.06 47.8C137.233 46.2382 139.033 44.3561 139.046 42.741C141.126 42.1003 142.619 41.5397 142.806 41.246C143.353 40.3383 135.833 36.8811 133.22 36.3339ZM74.1587 141.104C76.1985 140.944 78.6916 140.143 81.3447 138.995C82.0646 139.249 82.7846 139.449 83.5045 139.609C84.1445 143.654 85.211 150.101 85.891 154.239C84.5311 154.799 82.6246 155.707 80.7981 156.948C78.6116 155.467 75.7452 154.399 74.212 153.892C73.8654 150.408 73.5587 145.349 74.1587 141.104Z" fill="url(#paint1_linear_67_4996)"/>
</g>
</g>
<defs>
<linearGradient id="paint0_linear_67_4996" x1="71.5282" y1="6.56972" x2="71.5282" y2="158.073" gradientUnits="userSpaceOnUse">
<stop offset="0.0215" stop-color="#999999"/>
<stop offset="1" stop-color="white"/>
</linearGradient>
<linearGradient id="paint1_linear_67_4996" x1="71.5282" y1="6.56972" x2="71.5282" y2="158.073" gradientUnits="userSpaceOnUse">
<stop offset="0.0215" stop-color="#FFD995"/>
<stop offset="1" stop-color="#240043"/>
</linearGradient>
<clipPath id="clip0_67_4996">
<rect width="142.561" height="159.137" fill="white" transform="translate(0.2453)"/>
</clipPath>
</defs>
</svg>
