<svg width="540" height="140" viewBox="0 0 540 140" fill="none" xmlns="http://www.w3.org/2000/svg">
<g clip-path="url(#clip0_189_123)">
<path d="M427.039 47.7129C450.729 50.8161 474.862 54.8363 495.754 66.403C497.79 67.5315 499.986 69.0126 500.322 71.3224C501.455 79.2922 464.805 94.0151 458.218 97.665C482.652 95.3552 532.652 101.068 540 119.793C524.826 142.451 462.751 139.577 408.519 139.965C354.588 140.353 311.564 137.743 299.701 129.438C308.377 120.199 339.893 108.262 352.357 108.526C310.749 110.73 269.141 112.917 227.551 115.121C208.872 116.108 187.873 119.97 169.353 117.219C152.338 114.68 135.518 113.64 118.167 112.547C86.881 110.572 55.3475 107.186 25.7793 96.8363C16.6787 93.6448 7.31247 89.4307 1.85918 81.4962C0.761434 79.9093 -0.176957 78.0756 9.77516e-05 76.1537C0.336502 72.4156 4.47959 70.4232 8.0561 69.2066C54.6216 53.2318 102.48 50.3753 150.993 45.1209C209.438 38.7909 268.238 36.5869 326.985 39.0731C360.449 40.4836 393.841 43.3753 427.039 47.7129Z" fill="url(#paint0_linear_189_123)"/>
<path d="M409.917 101.932C402.339 82.466 389.698 64.869 370.275 49.7582H358.872L143.237 55.5063L137.182 67.9899L136.686 69.0126L132.95 76.7179L132.667 77.3174L127.408 88.1612L167.617 96.1662C167.617 96.1662 249.895 82.131 305.738 82.131C353.631 82.131 380.88 83.9647 387.679 84.4761L394.744 103.942L409.917 104.136V101.932ZM398.656 101.121L399.081 101.156L399.223 101.174L397.683 101.068L398.656 101.121Z" fill="#556E94"/>
<path d="M410.557 2.59192C402.979 25.2493 390.337 45.7204 370.914 63.2997H359.512L390.036 22.7279L395.383 3.84381L399.314 3.52643L399.739 3.49116L403.846 3.13852L404.59 3.08562L410.557 2.59192Z" fill="url(#paint1_linear_189_123)"/>
<path d="M390.035 22.7279C388.867 26.8363 387.114 30.8917 384.794 34.9118C384.458 35.4937 384.122 36.0756 383.75 36.675C381.537 40.272 378.898 43.8337 375.871 47.3602C375.41 47.9068 374.95 48.4358 374.454 48.9824C370.152 53.8136 365.124 58.6096 359.511 63.3174L143.876 56.6171L137.82 42.0881L137.325 40.8892L133.589 31.9143L133.305 31.2267L128.047 18.602L168.256 9.29218C168.256 9.29218 250.533 25.6196 306.377 25.6196C362.22 25.6196 390.035 22.7279 390.035 22.7279Z" fill="url(#paint2_linear_189_123)"/>
<path d="M390.035 22.7279C390.035 22.7279 364.823 36.2871 298.763 40.5894C236.015 44.6624 128.047 18.602 128.047 18.602L168.256 9.29218C168.256 9.29218 250.533 25.6196 306.377 25.6196C362.22 25.6196 390.035 22.7279 390.035 22.7279Z" fill="#D06919"/>
<path d="M168.574 11.743L137.943 18.7607C137.943 18.7607 238.351 38.068 289.378 38.068C340.388 38.068 378.862 24.8967 378.862 24.8967C378.862 24.8967 337.236 27.7002 294.832 27.7002C252.392 27.7179 168.574 11.743 168.574 11.743Z" fill="#56251A"/>
<path d="M195.646 22.2166L184.066 26.7834L199.86 29.2342L208.73 24.262L195.646 22.2166Z" fill="#9E5117"/>
<path d="M263.494 32.5315L276.737 33.5718L275.693 37.6977L260.59 36.6574L263.494 32.5315Z" fill="#9E5117"/>
<path d="M395.383 3.84383V0.229219L410.556 0V2.59194L395.383 3.84383Z" fill="#D06919"/>
<path d="M395.383 0.229248L388.318 22.9043V23.5567L390.036 22.728L395.383 3.84386V0.229248Z" fill="#D06919"/>
<path d="M259.067 45.7557V46.0378L243.716 45.1385L229.003 44.0453L176.435 39.7607L151.931 36.4811L140.015 33.7481L133.588 31.932L133.305 31.2267L141.343 33.3426L155.171 35.67L206.641 41.33L232.686 43.6574L245.558 44.5743L259.067 45.7557Z" fill="#863A0F"/>
<path d="M273.657 46.1788L284.634 46.6549L273.568 46.4962L273.657 46.1788Z" fill="#863A0F"/>
<path d="M284.635 46.6549L305.155 46.9547L299.844 47.3249L284.635 46.6549Z" fill="#863A0F"/>
<path d="M384.794 34.9119C384.457 35.4937 384.121 36.0756 383.749 36.6751L363.122 42.6348L319.531 47.1663L305.137 46.9547L344.195 44.257L384.794 34.9119Z" fill="#863A0F"/>
<path d="M204.233 49.7934V50.4811L187.572 50.0932L172.895 49.2292L158.907 48.0478L144.761 44.6801L137.82 42.0882L137.324 40.8892L147.363 43.6751L161.191 46.0554L175.71 48.2594L204.233 49.7934Z" fill="#863A0F"/>
<path d="M299.01 51.5214L282.42 51.3451L266.113 51.3098L249.895 50.9219L233.836 49.9345L233.783 50.3401L265.812 51.5214L282.42 51.733L299.01 51.8212V51.5214Z" fill="#863A0F"/>
<path d="M375.872 47.3426C375.411 47.8892 374.951 48.4182 374.455 48.9648L372.685 49.3174L364.912 50.4811L349.703 52.2267L317.709 53.2141V52.8791L333.732 52.0857L349.402 50.8514L365.709 48.9119L373.481 47.7129L375.872 47.3426Z" fill="#863A0F"/>
<path d="M404.572 3.08563L401.066 14.4232L395.843 26.9244L380.315 52.0151L379.695 51.6448L395.046 26.7657L400.234 13.33L403.846 3.13853L404.572 3.08563Z" fill="#863A0F"/>
<path d="M399.738 3.49121L394.16 24.6675L393.594 24.5088L399.313 3.52648L399.738 3.49121Z" fill="#863A0F"/>
<path d="M202.215 66.0327C189.945 64.7632 177.604 65.1159 165.193 65.5038C159.013 65.6977 152.817 65.8741 146.637 65.6977C143.397 65.6096 140.157 65.4333 136.97 65.0453C136.209 64.9572 135.447 64.8867 134.704 64.7456C133.73 64.5693 133.128 64.5164 133.925 63.8463C134.863 63.0529 136.492 62.8237 137.466 61.9773C137.749 61.7305 137.554 61.2015 137.041 61.272C135.678 61.4484 134.474 62.0126 133.252 62.5063C132.296 62.8942 131.251 63.2821 131.163 64.1814C130.986 65.9975 134.491 66.2091 136.156 66.4207C143.22 67.3023 150.338 67.6549 157.526 67.6549C172.275 67.6725 187.148 66.0504 201.843 67.1788C202.852 67.267 203.242 66.1385 202.215 66.0327Z" fill="#E8FAFF"/>
<path d="M304.996 64.0932C290.478 64.2343 275.959 64.7985 261.441 65.2217C247.17 65.6448 232.899 65.6625 218.629 65.8917C218.363 65.8917 218.328 66.1914 218.576 66.2267C225.286 67.3375 232.421 66.7557 239.273 66.5265C246.533 66.2796 253.774 65.8917 261.051 65.7506C275.711 65.4685 290.371 65.3451 305.032 64.7632C305.634 64.7632 305.598 64.0932 304.996 64.0932Z" fill="#E8FAFF"/>
<path d="M380.756 59.4912C378.348 59.8791 376.047 60.4786 373.603 60.7784C371.337 61.0429 369.071 61.1839 366.787 61.3074C361.882 61.5895 356.996 61.9597 352.091 62.2066C342.282 62.7003 332.473 62.8766 322.682 63.4585C322.293 63.4761 322.187 63.9698 322.611 63.9875C332.721 64.587 342.831 64.2343 352.976 63.6524C358.005 63.3527 363.033 63.0353 368.026 62.5063C372.205 62.0655 377.41 61.7129 380.916 59.7557C381.128 59.6675 380.987 59.456 380.756 59.4912Z" fill="#E8FAFF"/>
<path d="M384.705 56.3879C384.475 56.1763 384.192 55.9824 383.909 55.8061C383.732 55.7003 383.554 55.5945 383.342 55.5239C383.13 55.4534 382.917 55.4005 382.705 55.3476C382.35 55.2595 381.979 55.1889 381.607 55.1713C381.288 55.1537 380.952 55.1713 380.633 55.1889C380.332 55.2066 380.066 55.3829 380.049 55.6121C380.013 55.859 380.226 56.0177 380.509 56.1058C380.527 56.1058 380.545 56.1058 380.545 56.1058C380.562 56.1058 380.58 56.1234 380.598 56.1234C380.668 56.1411 380.722 56.1587 380.792 56.1763C380.934 56.2292 381.076 56.2645 381.2 56.3174C381.465 56.4232 381.749 56.4937 382.014 56.5995C382.138 56.6524 382.262 56.7053 382.386 56.7758C382.51 56.8287 382.651 56.8816 382.775 56.9169C383.059 57.0227 383.307 57.1461 383.572 57.2519C383.873 57.393 384.351 57.3224 384.599 57.1109C384.688 57.0227 384.758 56.9345 384.812 56.8287C384.865 56.7229 384.829 56.4937 384.705 56.3879Z" fill="#E8FAFF"/>
<path d="M150.71 71.1461C150.303 71.1814 149.913 71.1285 149.506 71.1814C149.046 71.2343 148.603 71.2872 148.125 71.2872C147.063 71.2696 146 71.0932 144.956 70.9874C142.601 70.7406 140.211 70.6348 137.856 70.4585C137.254 70.4056 136.988 71.0756 137.626 71.1814C140.211 71.6046 142.796 72.063 145.416 72.3804C147.133 72.592 150.427 73.262 151.064 71.4811C151.135 71.3048 150.94 71.1285 150.71 71.1461Z" fill="#E8FAFF"/>
<path d="M238.564 71.2167C234.527 71.2695 230.561 71.7104 226.542 71.9572C222.328 72.2041 218.256 71.9748 214.077 71.8514C205.685 71.5869 197.204 71.0756 188.865 70.4585C188.245 70.4056 187.997 71.0932 188.635 71.1814C192.884 71.7809 197.116 72.5391 201.418 72.9093C205.508 73.262 209.633 73.3854 213.741 73.3854C218.008 73.3854 222.311 72.9975 226.578 72.8565C230.668 72.7154 234.687 72.5214 238.67 71.728C239.06 71.6222 238.936 71.2167 238.564 71.2167Z" fill="#E8FAFF"/>
<path d="M320.841 69.5592C319.053 69.2771 317.247 69.3829 315.423 69.4534C313.511 69.524 311.599 69.6121 309.686 69.7179C305.862 69.9295 302.055 70.2821 298.249 70.6348C297.788 70.6701 297.806 71.1638 298.266 71.1638C302.091 71.1638 305.915 71.1638 309.74 71.0227C311.652 70.9522 313.564 70.864 315.476 70.7582C317.3 70.6524 319.106 70.5995 320.859 70.1411C321.248 70.0529 321.23 69.6298 320.841 69.5592Z" fill="#E8FAFF"/>
<path d="M408.253 58.7507C406.766 57.6575 405.048 56.7053 403.03 56.2293C401.507 55.8766 398.745 55.3829 397.346 56.1587C397.063 56.3174 397.063 56.6172 397.364 56.7582C397.984 57.0404 398.444 57.0051 399.17 57.058C400.215 57.1285 401.188 57.3225 402.18 57.587C403.596 57.9572 404.924 58.4509 406.093 59.121C401.118 60.99 395.47 61.6247 390.052 62.2595C387.059 62.6121 384.067 62.9648 381.075 63.3351C378.03 63.7053 374.931 63.9698 371.957 64.6575C371.355 64.7985 371.532 65.4509 372.134 65.4509C375.374 65.4333 378.614 64.9396 381.819 64.587C385.129 64.2167 388.44 63.8464 391.734 63.4585C397.453 62.8061 402.994 61.9774 408.111 59.8086C408.642 59.5618 408.625 59.0152 408.253 58.7507Z" fill="#E8FAFF"/>
</g>
<defs>
<linearGradient id="paint0_linear_189_123" x1="269.998" y1="38.0774" x2="269.998" y2="139.996" gradientUnits="userSpaceOnUse">
<stop stop-color="#FFF3CF"/>
<stop offset="0.0972" stop-color="#FCECD4"/>
<stop offset="0.2334" stop-color="#F3DAE3"/>
<stop offset="0.3919" stop-color="#E5BDFA"/>
<stop offset="0.4083" stop-color="#E3B9FD"/>
<stop offset="0.5144" stop-color="#CAB3F5"/>
<stop offset="0.7401" stop-color="#8AA5E2"/>
<stop offset="1" stop-color="#3A92C9"/>
</linearGradient>
<linearGradient id="paint1_linear_189_123" x1="380.662" y1="4.86048" x2="389.004" y2="58.8886" gradientUnits="userSpaceOnUse">
<stop stop-color="#A5440F"/>
<stop offset="0.4248" stop-color="#A2430F"/>
<stop offset="0.7071" stop-color="#99400F"/>
<stop offset="0.9471" stop-color="#8A3B0F"/>
<stop offset="1" stop-color="#863A0F"/>
</linearGradient>
<linearGradient id="paint2_linear_189_123" x1="128.041" y1="36.2961" x2="390.03" y2="36.2961" gradientUnits="userSpaceOnUse">
<stop stop-color="#A5440F"/>
<stop offset="0.4248" stop-color="#A2430F"/>
<stop offset="0.7071" stop-color="#99400F"/>
<stop offset="0.9471" stop-color="#8A3B0F"/>
<stop offset="1" stop-color="#863A0F"/>
</linearGradient>
<clipPath id="clip0_189_123">
<rect width="540" height="140" fill="white"/>
</clipPath>
</defs>
</svg>
