<svg width="372" height="386" viewBox="0 0 372 386" fill="none" xmlns="http://www.w3.org/2000/svg">
<g clip-path="url(#clip0_189_298)">
<path d="M82.7582 294.942L82.064 296.141C80.7354 298.443 81.3338 300.445 82.064 301.727C82.7941 302.998 84.2305 304.52 86.8877 304.52H126.255C132.958 304.52 138.392 309.963 138.392 316.676V345.902C138.392 352.615 132.958 358.057 126.255 358.057H86.8877C65.7136 358.057 46.742 347.184 36.0293 328.939" fill="#1BA88D"/>
<path d="M137.674 157.529C137.075 146.968 125.297 141.022 116.464 146.812L44.7904 193.863C35.9569 199.665 36.699 212.863 46.131 217.622L61.2365 225.247L36.3758 268.366C25.5913 287.078 25.1006 310.31 36.0407 328.939C45.1375 344.439 60.2071 354.617 77.503 357.326C53.8274 340.543 70.86 313.703 78.293 301.967C80.3638 298.682 82.7696 294.942 82.7696 294.942L109.031 249.378L122.64 256.258C132.072 261.017 143.108 253.777 142.509 243.216L137.674 157.529Z" fill="#27D8B6"/>
<path d="M204.691 103.105L204.008 101.894C202.692 99.5808 200.657 99.0893 199.185 99.0893C197.712 99.0893 195.689 99.5568 194.349 101.858L174.551 135.939C171.176 141.741 163.755 143.707 157.95 140.327L132.73 125.63C126.937 122.249 124.974 114.817 128.349 109.003L148.147 74.9223C158.799 56.5933 177.723 45.6367 198.861 45.5408" fill="#1BA88D"/>
<path d="M311.04 121.063C310.478 110.502 298.712 104.508 289.866 110.274L275.682 119.516L250.965 76.3129C240.241 57.5644 220.431 45.4569 198.862 45.5648C180.908 45.6487 164.558 53.5605 153.51 67.1784C179.903 55.1309 194.493 83.3736 200.885 95.7088C202.668 99.1613 204.691 103.117 204.691 103.117L230.797 148.766L218.013 157.097C209.168 162.863 209.862 176.062 219.27 180.857L295.66 219.768C305.068 224.563 316.139 217.359 315.577 206.798L311.04 121.063Z" fill="#27D8B6"/>
<path d="M311.231 303.993L312.62 304.053C315.277 304.173 316.773 302.722 317.575 301.488C318.365 300.253 319.06 298.275 317.839 295.913L299.753 260.886C296.677 254.916 299.011 247.592 304.959 244.499L330.873 231.085C336.834 228.004 344.148 230.341 347.236 236.299L365.322 271.327C375.041 290.159 374.107 312.037 362.856 329.946" fill="#1BA88D"/>
<path d="M368.984 280.03C364.974 308.8 333.339 305.971 319.514 304.748C315.648 304.413 311.231 303.993 311.231 303.993L258.757 301.548L258.602 286.275C258.494 275.702 247.003 269.205 237.906 274.587L164.126 318.246C155.029 323.629 155.173 336.839 164.366 342.042L239.007 384.202C248.2 389.392 259.571 382.667 259.463 372.094L259.296 355.156L308.957 357.47C330.514 358.477 351.341 348.227 362.832 329.946C372.408 314.746 374.514 296.669 368.984 280.03Z" fill="#27D8B6"/>
<path d="M229.706 272.262L232.937 338.002H221.938L225.468 272.262H229.706Z" fill="#EDF7F3"/>
<path d="M229.706 272.262L232.938 338.002H227.432V272.885L229.706 272.262Z" fill="#B8DDCF"/>
<path d="M227.433 266.604L223.566 261.701L225.015 230.018L227.433 228.627V266.604Z" fill="#D8F3EA"/>
<path d="M227.432 266.604L231.31 261.701L229.849 230.018L227.432 228.627V266.604Z" fill="#EDF7F3"/>
<path d="M224.727 270.308L221.938 275.906L192.685 288.049L190.398 286.443L224.727 270.308Z" fill="#B8DDCF"/>
<path d="M224.727 270.308L218.646 268.881L190.626 283.662L190.398 286.443L224.727 270.308Z" fill="#EDF7F3"/>
<path d="M230.197 270.871L236.122 268.881L265.376 281.013L265.866 283.77L230.197 270.871Z" fill="#D8F3EA"/>
<path d="M230.197 270.871L233.489 276.182L263.736 285.568L265.866 283.77L230.197 270.871Z" fill="#EDF7F3"/>
<path d="M231.394 269.828C231.394 272.01 229.623 273.784 227.444 273.784C225.266 273.784 223.494 272.01 223.494 269.828C223.494 267.646 225.266 265.872 227.444 265.872C229.623 265.872 231.394 267.646 231.394 269.828Z" fill="#3D7783"/>
<path d="M229.67 269.828C229.67 271.063 228.665 272.07 227.432 272.07C226.199 272.07 225.193 271.063 225.193 269.828C225.193 268.593 226.199 267.586 227.432 267.586C228.665 267.598 229.67 268.593 229.67 269.828Z" fill="#265659"/>
<path d="M326.969 272.262L330.189 338.002H319.201L322.732 272.262H326.969Z" fill="#EDF7F3"/>
<path d="M326.97 272.262L330.189 338.002H324.695V272.885L326.97 272.262Z" fill="#B8DDCF"/>
<path d="M324.696 266.604L320.83 261.701L322.278 230.018L324.696 228.627V266.604Z" fill="#B8DDCF"/>
<path d="M324.695 266.604L328.573 261.701L327.113 230.018L324.695 228.627V266.604Z" fill="#EDF7F3"/>
<path d="M321.979 270.308L319.202 275.906L289.949 288.049L287.65 286.443L321.979 270.308Z" fill="#B8DDCF"/>
<path d="M321.979 270.308L315.91 268.881L287.89 283.662L287.65 286.443L321.979 270.308Z" fill="#EDF7F3"/>
<path d="M327.461 270.871L333.374 268.881L362.639 281.013L363.13 283.77L327.461 270.871Z" fill="#B8DDCF"/>
<path d="M327.461 270.871L330.741 276.182L360.999 285.568L363.13 283.77L327.461 270.871Z" fill="#EDF7F3"/>
<path d="M328.646 269.828C328.646 272.01 326.874 273.784 324.696 273.784C322.518 273.784 320.746 272.01 320.746 269.828C320.746 267.646 322.518 265.872 324.696 265.872C326.874 265.872 328.646 267.646 328.646 269.828Z" fill="#3D7783"/>
<path d="M326.934 269.828C326.934 271.063 325.928 272.07 324.695 272.07C323.462 272.07 322.457 271.063 322.457 269.828C322.457 268.593 323.462 267.586 324.695 267.586C325.928 267.598 326.934 268.593 326.934 269.828Z" fill="#265659"/>
<path d="M279.151 239.967L282.383 332.056H271.383L274.926 239.967H279.151Z" fill="#EDF7F3"/>
<path d="M279.151 239.967L282.383 332.056H276.889V240.591L279.151 239.967Z" fill="#B8DDCF"/>
<path d="M276.89 234.309L273.012 229.406L274.472 197.723L276.89 196.321V234.309Z" fill="#B8DDCF"/>
<path d="M276.891 234.309L280.757 229.406L279.296 197.723L276.891 196.321V234.309Z" fill="#EDF7F3"/>
<path d="M274.172 238.013L271.383 243.6L242.13 255.743L239.844 254.149L274.172 238.013Z" fill="#B8DDCF"/>
<path d="M274.172 238.013L268.092 236.587L240.083 251.368L239.844 254.149L274.172 238.013Z" fill="#EDF7F3"/>
<path d="M279.643 238.565L285.567 236.587L314.821 248.718L315.312 251.464L279.643 238.565Z" fill="#B8DDCF"/>
<path d="M279.643 238.565L282.934 243.875L313.181 253.274L315.312 251.464L279.643 238.565Z" fill="#EDF7F3"/>
<path d="M276.889 241.49C279.071 241.49 280.839 239.719 280.839 237.534C280.839 235.349 279.071 233.578 276.889 233.578C274.708 233.578 272.939 235.349 272.939 237.534C272.939 239.719 274.708 241.49 276.889 241.49Z" fill="#3D7783"/>
<path d="M279.115 237.534C279.115 238.768 278.11 239.775 276.877 239.775C275.644 239.775 274.639 238.768 274.639 237.534C274.639 236.299 275.644 235.292 276.877 235.292C278.122 235.292 279.115 236.299 279.115 237.534Z" fill="#265659"/>
<path d="M205.397 339.524C212.616 339.524 218.468 333.663 218.468 326.434C218.468 319.204 212.616 313.343 205.397 313.343C198.178 313.343 192.326 319.204 192.326 326.434C192.326 333.663 198.178 339.524 205.397 339.524Z" fill="#1BA88D"/>
<path d="M205.396 319.996C211.465 319.996 216.384 315.069 216.384 308.992C216.384 302.914 211.465 297.987 205.396 297.987C199.328 297.987 194.408 302.914 194.408 308.992C194.408 315.069 199.328 319.996 205.396 319.996Z" fill="#1BA88D"/>
<path d="M205.396 332.943V346.093" stroke="#3D7783" stroke-width="2.1762" stroke-miterlimit="10" stroke-linecap="round" stroke-linejoin="round"/>
<path d="M252.998 330.833C260.217 330.833 266.069 324.972 266.069 317.743C266.069 310.513 260.217 304.652 252.998 304.652C245.78 304.652 239.928 310.513 239.928 317.743C239.928 324.972 245.78 330.833 252.998 330.833Z" fill="#1BA88D"/>
<path d="M252.998 311.305C259.066 311.305 263.986 306.378 263.986 300.301C263.986 294.223 259.066 289.296 252.998 289.296C246.929 289.296 242.01 294.223 242.01 300.301C242.01 306.378 246.929 311.305 252.998 311.305Z" fill="#1BA88D"/>
<path d="M252.998 324.252V337.402" stroke="#3D7783" stroke-width="2.1762" stroke-miterlimit="10" stroke-linecap="round" stroke-linejoin="round"/>
<path d="M298.387 343.984C305.606 343.984 311.458 338.123 311.458 330.893C311.458 323.664 305.606 317.803 298.387 317.803C291.168 317.803 285.316 323.664 285.316 330.893C285.316 338.123 291.168 343.984 298.387 343.984Z" fill="#1BA88D"/>
<path d="M298.386 324.456C304.455 324.456 309.374 319.529 309.374 313.451C309.374 307.373 304.455 302.447 298.386 302.447C292.318 302.447 287.398 307.373 287.398 313.451C287.398 319.529 292.318 324.456 298.386 324.456Z" fill="#1BA88D"/>
<path d="M298.387 337.402V350.553" stroke="#3D7783" stroke-width="2.1762" stroke-miterlimit="10" stroke-linecap="round" stroke-linejoin="round"/>
<path d="M253.61 49.8564C253.61 49.8564 223.064 58.3196 225.003 21.2061L253.61 49.8564Z" fill="#40B29C"/>
<path d="M253.609 49.8563C253.609 49.8563 262.06 19.264 225.002 21.206L253.609 49.8563Z" fill="#44EACA"/>
<path d="M289.89 0C289.89 0 296.964 40.0625 260.625 47.6147L289.89 0Z" fill="#40B29C"/>
<path d="M289.89 0C289.89 0 249.325 12.2034 260.624 47.6147L289.89 0Z" fill="#44EACA"/>
<path d="M277.992 137.234H234.076L242.598 56.917H269.47L277.992 137.234Z" fill="#3D7783"/>
<path d="M271.23 57.5044H241.306C240.133 57.5044 239.176 56.5454 239.176 55.3706C239.176 54.1958 240.133 53.2368 241.306 53.2368H271.23C272.403 53.2368 273.361 54.1958 273.361 55.3706C273.361 56.5454 272.403 57.5044 271.23 57.5044Z" fill="#2D6168"/>
<path d="M250.629 137.402H186.748V99.6168L218.695 82.6664L250.629 99.6168V137.402Z" fill="#3D7783"/>
<path d="M204.139 108.799H197.041V118.749H204.139V108.799Z" fill="#C2F2D6"/>
<path d="M216.203 108.799H209.105V118.749H216.203V108.799Z" fill="#C2F2D6"/>
<path d="M228.27 108.799H221.172V118.749H228.27V108.799Z" fill="#C2F2D6"/>
<path d="M240.334 108.799H233.236V118.749H240.334V108.799Z" fill="#C2F2D6"/>
<path d="M168.458 92.8918H168.494L161.911 79.9572C161.576 79.3098 160.642 79.3098 160.319 79.9572L153.724 92.9038H153.76C153.185 94.0306 152.838 95.2893 152.838 96.6319C152.838 101.211 156.548 104.915 161.109 104.915C165.669 104.915 169.38 101.199 169.38 96.6319C169.392 95.2773 169.033 94.0186 168.458 92.8918Z" fill="#27D8B6"/>
<path d="M162.318 102.853C161.983 102.853 161.66 102.638 161.564 102.29C161.444 101.87 161.684 101.439 162.091 101.319C163.814 100.816 165.167 99.425 165.622 97.6868C165.729 97.2672 166.16 97.0155 166.579 97.1234C166.998 97.2312 167.25 97.6628 167.142 98.0824C166.543 100.348 164.772 102.158 162.534 102.817C162.474 102.841 162.402 102.853 162.318 102.853Z" fill="#C2F2D6"/>
<path d="M134.86 80.1729H134.896L128.313 67.2383C127.978 66.591 127.044 66.591 126.721 67.2383L120.126 80.1849H120.162C119.587 81.3117 119.24 82.5704 119.24 83.913C119.24 88.4923 122.951 92.1964 127.511 92.1964C132.072 92.1964 135.782 88.4803 135.782 83.913C135.794 82.5584 135.435 81.2997 134.86 80.1729Z" fill="#27D8B6"/>
<path d="M128.72 90.1345C128.385 90.1345 128.062 89.9188 127.966 89.5711C127.847 89.1516 128.086 88.72 128.493 88.6001C130.217 88.0967 131.569 86.7061 132.024 84.9679C132.132 84.5483 132.563 84.2966 132.982 84.4045C133.401 84.5124 133.652 84.9439 133.544 85.3635C132.946 87.6291 131.174 89.4393 128.936 90.0986C128.864 90.1226 128.792 90.1345 128.72 90.1345Z" fill="#C2F2D6"/>
<path d="M157.292 44.0783H157.328L150.745 31.1437C150.41 30.4964 149.476 30.4964 149.153 31.1437L142.558 44.0903H142.594C142.019 45.2171 141.672 46.4758 141.672 47.8184C141.672 52.3977 145.382 56.1018 149.943 56.1018C154.515 56.1018 158.214 52.3857 158.214 47.8184C158.214 46.4638 157.867 45.2051 157.292 44.0783Z" fill="#27D8B6"/>
<path d="M151.152 54.0399C150.817 54.0399 150.494 53.8122 150.398 53.4765C150.278 53.057 150.518 52.6254 150.925 52.5055C152.648 52.002 154.001 50.6115 154.456 48.8733C154.563 48.4537 154.994 48.202 155.413 48.3099C155.832 48.4178 156.084 48.8493 155.976 49.2689C155.377 51.5345 153.606 53.3447 151.368 54.004C151.296 54.0279 151.224 54.0399 151.152 54.0399Z" fill="#C2F2D6"/>
<path d="M301.68 116.843C308.899 116.843 314.751 110.982 314.751 103.752C314.751 96.5228 308.899 90.662 301.68 90.662C294.461 90.662 288.609 96.5228 288.609 103.752C288.609 110.982 294.461 116.843 301.68 116.843Z" fill="#1BA88D"/>
<path d="M301.679 97.3031C307.748 97.3031 312.667 92.3762 312.667 86.2985C312.667 80.2209 307.748 75.2939 301.679 75.2939C295.611 75.2939 290.691 80.2209 290.691 86.2985C290.691 92.3762 295.611 97.3031 301.679 97.3031Z" fill="#1BA88D"/>
<path d="M301.68 110.262V123.412" stroke="#3D7783" stroke-width="2.1762" stroke-miterlimit="10" stroke-linecap="round" stroke-linejoin="round"/>
<path d="M302.866 172.933C310.084 172.933 315.936 167.072 315.936 159.842C315.936 152.613 310.084 146.752 302.866 146.752C295.647 146.752 289.795 152.613 289.795 159.842C289.795 167.072 295.647 172.933 302.866 172.933Z" fill="#1BA88D"/>
<path d="M306.87 152.641C312.519 150.421 315.302 144.035 313.085 138.378C310.869 132.72 304.493 129.933 298.844 132.152C293.195 134.372 290.412 140.758 292.628 146.415C294.844 152.073 301.22 154.86 306.87 152.641Z" fill="#1BA88D"/>
<path d="M302.865 166.352V179.502" stroke="#3D7783" stroke-width="2.1762" stroke-miterlimit="10" stroke-linecap="round" stroke-linejoin="round"/>
<path d="M274.256 145.289C281.475 145.289 287.327 139.429 287.327 132.199C287.327 124.969 281.475 119.109 274.256 119.109C267.037 119.109 261.186 124.969 261.186 132.199C261.186 139.429 267.037 145.289 274.256 145.289Z" fill="#1BA88D"/>
<path d="M274.256 125.75C280.324 125.75 285.244 120.823 285.244 114.745C285.244 108.667 280.324 103.74 274.256 103.74C268.187 103.74 263.268 108.667 263.268 114.745C263.268 120.823 268.187 125.75 274.256 125.75Z" fill="#1BA88D"/>
<path d="M274.256 138.708V151.859" stroke="#3D7783" stroke-width="2.1762" stroke-miterlimit="10" stroke-linecap="round" stroke-linejoin="round"/>
<path d="M158.979 339.68C166.198 339.68 172.05 333.819 172.05 326.589C172.05 319.36 166.198 313.499 158.979 313.499C151.76 313.499 145.908 319.36 145.908 326.589C145.908 333.819 151.76 339.68 158.979 339.68Z" fill="#1BA88D"/>
<path d="M169.809 310.902C170.783 304.903 166.718 299.249 160.728 298.273C154.738 297.297 149.093 301.368 148.118 307.367C147.144 313.366 151.209 319.02 157.199 319.996C163.188 320.972 168.834 316.9 169.809 310.902Z" fill="#1BA88D"/>
<path d="M158.979 333.099V346.261" stroke="#3D7783" stroke-width="2.1762" stroke-miterlimit="10" stroke-linecap="round" stroke-linejoin="round"/>
<path d="M78.664 279.97H7.1582V329.143H78.664V279.97Z" fill="#3D7783"/>
<path d="M29.4337 284.225H11.1562V302.53H29.4337V284.225Z" fill="#C2F2D6"/>
<path d="M52.0567 284.225H33.7793V302.53H52.0567V284.225Z" fill="#C2F2D6"/>
<path d="M74.6778 284.225H56.4004V302.53H74.6778V284.225Z" fill="#C2F2D6"/>
<path d="M29.4337 307.229H11.1562V325.535H29.4337V307.229Z" fill="#C2F2D6"/>
<path d="M52.0567 307.229H33.7793V325.535H52.0567V307.229Z" fill="#C2F2D6"/>
<path d="M74.6778 307.229H56.4004V325.535H74.6778V307.229Z" fill="#C2F2D6"/>
<path opacity="0.28" d="M29.4337 284.225V302.53H11.1562" fill="#1BA88D"/>
<path opacity="0.28" d="M52.0567 284.225V302.53H33.7793" fill="#1BA88D"/>
<path opacity="0.28" d="M74.6778 284.225V302.53H56.4004" fill="#1BA88D"/>
<path opacity="0.28" d="M29.4337 307.229V325.535H11.1562" fill="#1BA88D"/>
<path opacity="0.28" d="M52.0567 307.229V325.535H33.7793" fill="#1BA88D"/>
<path opacity="0.28" d="M74.6778 307.229V325.535H56.4004" fill="#1BA88D"/>
<path d="M46.371 327.8H39.4766V338.002H46.371V327.8Z" fill="#3D7783"/>
<path opacity="0.4" d="M46.371 329.143H39.4766V332.296H46.371V329.143Z" fill="#141414"/>
<path d="M156.25 279.97H84.7441V329.143H156.25V279.97Z" fill="#3D7783"/>
<path d="M107.02 284.225H88.7422V302.53H107.02V284.225Z" fill="#C2F2D6"/>
<path d="M129.643 284.225H111.365V302.53H129.643V284.225Z" fill="#C2F2D6"/>
<path d="M152.264 284.225H133.986V302.53H152.264V284.225Z" fill="#C2F2D6"/>
<path d="M107.02 307.229H88.7422V325.535H107.02V307.229Z" fill="#C2F2D6"/>
<path d="M129.643 307.229H111.365V325.535H129.643V307.229Z" fill="#C2F2D6"/>
<path d="M152.264 307.229H133.986V325.535H152.264V307.229Z" fill="#C2F2D6"/>
<path opacity="0.28" d="M107.02 284.225V302.53H88.7422" fill="#1BA88D"/>
<path opacity="0.28" d="M129.643 284.225V302.53H111.365" fill="#1BA88D"/>
<path opacity="0.28" d="M152.264 284.225V302.53H133.986" fill="#1BA88D"/>
<path opacity="0.28" d="M107.02 307.229V325.535H88.7422" fill="#1BA88D"/>
<path opacity="0.28" d="M129.643 307.229V325.535H111.365" fill="#1BA88D"/>
<path opacity="0.28" d="M152.264 307.229V325.535H133.986" fill="#1BA88D"/>
<path d="M123.957 327.8H117.062V338.002H123.957V327.8Z" fill="#3D7783"/>
<path opacity="0.4" d="M123.957 329.143H117.062V332.296H123.957V329.143Z" fill="#141414"/>
<path d="M83.2717 251.739C90.074 251.739 95.5883 246.216 95.5883 239.404C95.5883 232.591 90.074 227.069 83.2717 227.069C76.4694 227.069 70.9551 232.591 70.9551 239.404C70.9551 246.216 76.4694 251.739 83.2717 251.739Z" fill="#FEE789"/>
<path d="M83.2717 251.739C76.473 251.739 70.9551 246.213 70.9551 239.404C70.9551 232.595 76.473 227.069 83.2717 227.069" fill="#F9D953"/>
<path d="M83.2715 219.337V223.197" stroke="#FEE789" stroke-width="1.186" stroke-miterlimit="10" stroke-linecap="round" stroke-linejoin="round"/>
<path d="M83.2715 255.611V259.471" stroke="#FEE789" stroke-width="1.186" stroke-miterlimit="10" stroke-linecap="round" stroke-linejoin="round"/>
<path d="M103.319 239.404H99.4531" stroke="#FEE789" stroke-width="1.186" stroke-miterlimit="10" stroke-linecap="round" stroke-linejoin="round"/>
<path d="M67.0885 239.404H63.2344" stroke="#FEE789" stroke-width="1.186" stroke-miterlimit="10" stroke-linecap="round" stroke-linejoin="round"/>
<path d="M97.4439 225.211L94.7148 227.944" stroke="#FEE789" stroke-width="1.186" stroke-miterlimit="10" stroke-linecap="round" stroke-linejoin="round"/>
<path d="M71.8287 250.864L69.0996 253.597" stroke="#FEE789" stroke-width="1.186" stroke-miterlimit="10" stroke-linecap="round" stroke-linejoin="round"/>
<path d="M97.4439 253.597L94.7148 250.864" stroke="#FEE789" stroke-width="1.186" stroke-miterlimit="10" stroke-linecap="round" stroke-linejoin="round"/>
<path d="M71.8287 227.944L69.0996 225.211" stroke="#FEE789" stroke-width="1.186" stroke-miterlimit="10" stroke-linecap="round" stroke-linejoin="round"/>
<path d="M13.0707 341.742C20.2894 341.742 26.1414 335.881 26.1414 328.651C26.1414 321.422 20.2894 315.561 13.0707 315.561C5.85195 315.561 0 321.422 0 328.651C0 335.881 5.85195 341.742 13.0707 341.742Z" fill="#1BA88D"/>
<path d="M13.07 322.202C19.1385 322.202 24.058 317.275 24.058 311.197C24.058 305.12 19.1385 300.193 13.07 300.193C7.00153 300.193 2.08203 305.12 2.08203 311.197C2.08203 317.275 7.00153 322.202 13.07 322.202Z" fill="#1BA88D"/>
<path d="M13.0703 335.149V348.311" stroke="#3D7783" stroke-width="2.1762" stroke-miterlimit="10" stroke-linecap="round" stroke-linejoin="round"/>
<path d="M81.2855 342.137C88.5043 342.137 94.3562 336.277 94.3562 329.047C94.3562 321.817 88.5043 315.957 81.2855 315.957C74.0668 315.957 68.2148 321.817 68.2148 329.047C68.2148 336.277 74.0668 342.137 81.2855 342.137Z" fill="#27D8B6"/>
<path d="M85.5065 321.771C91.1077 319.432 93.7554 312.989 91.4202 307.379C89.0851 301.77 82.6514 299.118 77.0501 301.457C71.4489 303.795 68.8012 310.239 71.1364 315.848C73.4715 321.458 79.9053 324.11 85.5065 321.771Z" fill="#27D8B6"/>
<path d="M81.2852 335.556V348.707" stroke="#3D7783" stroke-width="2.1762" stroke-miterlimit="10" stroke-linecap="round" stroke-linejoin="round"/>
</g>
<defs>
<clipPath id="clip0_189_298">
<rect width="372" height="386" fill="white"/>
</clipPath>
</defs>
</svg>
