<svg width="320" height="365" viewBox="0 0 320 365" fill="none" xmlns="http://www.w3.org/2000/svg">
<g clip-path="url(#clip0_205_2)">
<path d="M268.868 88.4394C268.868 137.288 248.653 175.027 162.95 176.791C83.6327 178.422 57.0762 137.156 57.0762 88.3512C57.0762 39.5464 104.508 -0.0440812 163.038 6.26806e-06C221.524 0.0440937 268.912 39.6346 268.868 88.4394Z" fill="#152139"/>
<path d="M141.327 221.584C141.327 221.584 152.646 191.428 128.644 180.053C112.877 172.558 105.83 158.186 97.815 144.034C87.8618 149.853 81.2557 129.617 79.4941 117.008C78.8775 112.732 78.6133 108.543 78.6133 104.487C78.6133 102.812 78.6573 101.181 78.7894 99.5495C81.608 54.2276 122.081 24.2481 167.972 26.232C218.839 28.4805 242.181 61.7224 243.678 101.577C244.515 123.136 240.155 147.296 227.647 143.372C218.927 155.629 212.409 171.809 194.969 181.773C181.096 189.708 189.2 210.738 187.306 222.113C185.456 233.223 214.787 244.377 214.787 244.377C217.474 266.068 204.878 278.06 165.638 279.206C121.685 280.484 117.81 254.561 114.11 242.657C128.688 237.896 141.327 225.155 141.327 221.584Z" fill="#F9C28F"/>
<path d="M320 364.471C295.469 298.34 253.85 252.224 202.455 237.896C202.455 237.896 193.559 264.613 163.391 265.539C128.202 266.597 119.614 239.218 119.614 239.218C66.7654 250.858 29.6831 283.35 -0.000391562 363.104C-1.71798 367.822 233.063 362.046 320 364.471Z" fill="#FFA539"/>
<path d="M139.608 147.032C137.23 149.192 147.932 160.39 161.408 160.699C176.69 161.096 184.882 149.104 183.032 147.296C181.667 145.974 175.325 148.442 162.729 148.839C148.856 149.28 141.59 145.18 139.608 147.032Z" fill="#CE3045"/>
<path d="M146.346 147.296C148.592 149.765 153.789 153.292 160.835 153.865C170.436 154.703 175.809 150.382 177.659 147.252C166.516 148.795 156.211 148.707 146.346 147.296Z" fill="#F5E7D0"/>
<path d="M137.1 116.082C137.1 119.08 134.677 121.505 131.683 121.505C128.688 121.505 126.266 119.08 126.266 116.082C126.266 113.084 128.688 110.659 131.683 110.659C134.677 110.659 137.1 113.084 137.1 116.082Z" fill="#55382F"/>
<path d="M196.774 115.73C196.774 118.816 194.264 121.285 191.225 121.285C188.142 121.285 185.676 118.772 185.676 115.73C185.676 112.643 188.186 110.175 191.225 110.175C194.264 110.175 196.774 112.643 196.774 115.73Z" fill="#55382F"/>
<path d="M131.417 114.583C131.417 115.73 130.493 116.699 129.303 116.699C128.158 116.699 127.189 115.774 127.189 114.583C127.189 113.437 128.114 112.467 129.303 112.467C130.448 112.467 131.417 113.393 131.417 114.583Z" fill="white"/>
<path d="M190.873 114.495C190.873 115.685 189.904 116.655 188.715 116.655C187.526 116.655 186.557 115.685 186.557 114.495C186.557 113.305 187.526 112.335 188.715 112.335C189.904 112.335 190.873 113.305 190.873 114.495Z" fill="white"/>
<path d="M143.089 108.058H121.509C120.276 108.058 119.307 107.088 119.307 105.854L143.133 100.784C144.366 100.784 145.335 101.754 145.335 102.988V105.854C145.291 107.088 144.322 108.058 143.089 108.058Z" fill="#CF6223"/>
<path d="M203.468 107.573H181.888C180.654 107.573 179.686 106.603 179.686 105.369V102.503C179.686 101.269 180.654 100.299 181.888 100.299L205.714 105.369C205.67 106.603 204.657 107.573 203.468 107.573Z" fill="#CF6223"/>
<path d="M156.168 140.683L166.957 139.493C170.305 139.14 172.154 135.481 170.613 132.483C170.613 132.483 169.688 134.731 166.825 136.01C162.862 137.817 157.224 138.523 154.934 136.495C152.908 134.731 156.3 124.459 159.471 116.17C157.401 116.17 154.318 122.343 153.701 124.723L151.015 134.731C150.134 137.994 152.82 141.036 156.168 140.683Z" fill="#DC9F78"/>
<path d="M225.489 115.73L201.839 150.647C201.839 150.647 183.298 141.962 162.995 141.212C143.265 140.507 124.195 152.719 124.195 152.719C124.195 152.719 100.942 115.818 100.237 115.73C99.5326 115.641 94.4238 116.655 94.4238 116.655C94.4238 118.639 105.126 253.194 163.92 250.373C222.759 247.595 230.862 115.685 230.862 115.685H225.489V115.73ZM162.643 164.005C135.117 171.324 133.972 150.867 147.625 146.547C155.596 144.034 167.223 143.064 176.692 147.252C191.269 153.689 183.254 170.795 162.643 164.005Z" fill="#CF6223"/>
<path d="M166.959 53.5222C166.959 53.5222 155.244 79.3574 160.177 77.7703C174.622 73.1411 187.086 58.989 192.591 62.6483C203.337 69.7904 230.73 126.046 230.73 126.046C230.73 126.046 234.077 107.794 243.193 111.1C248.038 96.1547 246.056 69.3055 220.821 45.4982C203.513 29.1418 176.34 24.9094 160.265 26.3643C144.19 27.8192 116.444 29.9354 98.8719 50.392C88.4783 62.5601 76.7635 78.6079 78.393 108.499C87.5094 106.03 95.2606 114.716 94.4238 127.148C94.4238 127.148 105.566 110.395 119.307 92.275C130.669 77.4176 145.335 58.1954 145.335 58.1954C145.335 58.1954 133.752 87.7781 135.382 86.8523C159.428 73.4056 166.959 53.5222 166.959 53.5222Z" fill="#CF6223"/>
<path d="M250.768 363.854C245.175 299.266 240.638 249.27 240.638 249.27L219.367 241.423L226.501 344.543H99.5319L104.42 240.012L85.9233 247.022C85.9233 247.022 81.255 292.873 73.9883 365L250.768 363.854Z" fill="#152139"/>
<path d="M120.143 237.896C120.143 237.896 134.104 265.186 162.378 265.539C189.815 265.891 202.455 237.896 202.455 237.896L208.004 240.012C207.079 242.305 195.276 269.947 162.334 270.829C131.638 271.667 115.475 240.233 115.475 240.233L120.143 237.896Z" fill="#00ADF9"/>
</g>
<defs>
<clipPath id="clip0_205_2">
<rect width="320" height="365" fill="white"/>
</clipPath>
</defs>
</svg>
