<svg width="31" height="31" viewBox="0 0 31 31" fill="none" xmlns="http://www.w3.org/2000/svg">
<path d="M15.5005 0.237793C7.07133 0.237793 0.238281 7.07084 0.238281 15.5C0.238281 23.9291 7.07133 30.7621 15.5005 30.7621C23.9296 30.7621 30.7626 23.9291 30.7626 15.5C30.7626 7.07084 23.9296 0.237793 15.5005 0.237793ZM23.9794 9.05356L22.6255 10.3515C22.5088 10.4404 22.4509 10.5866 22.4749 10.7314V20.2685C22.4509 20.4134 22.5085 20.5595 22.6255 20.6484L23.9476 21.9464V22.2313H17.2977V21.9464L18.6672 20.6169C18.8018 20.4822 18.8018 20.4429 18.8018 20.237V12.5279L14.9938 22.1997H14.4792L10.0458 12.5279V19.0103C10.0088 19.283 10.0993 19.557 10.2913 19.7544L12.0726 21.9152V22.2001H7.02147V21.9152L8.80274 19.7544C8.99334 19.557 9.07847 19.2809 9.03235 19.0103V11.5148C9.05337 11.3066 8.97401 11.1011 8.81868 10.961L7.23514 9.05356V8.76867H12.1516L15.9515 17.1028L19.2926 8.76867H23.9794V9.05356Z" fill="#8B80F9"/>
</svg>
