<svg width="80" height="69" viewBox="0 0 80 69" fill="none" xmlns="http://www.w3.org/2000/svg">
<path d="M67.0049 61.3662C66.8116 61.3662 66.6183 61.3094 66.4591 61.1845L39.9554 41.8954C39.5461 41.5887 39.4438 41.0093 39.7508 40.6003C40.0578 40.1914 40.6376 40.0892 41.047 40.3959L67.5507 59.685C67.96 59.9917 68.0623 60.571 67.7553 60.98C67.5848 61.2299 67.3005 61.3662 67.0049 61.3662Z" fill="#A35702"/>
<path d="M67.5159 60.855C67.3226 60.855 67.1293 60.7982 66.9701 60.6732L40.4664 41.3841C40.1139 41.1229 40.0002 40.6685 40.1481 40.2822C39.9889 40.3504 39.8524 40.4526 39.7501 40.6003C39.4431 41.0093 39.5341 41.6 39.9548 41.8953L66.4585 61.1844C66.629 61.3094 66.8109 61.3662 67.0042 61.3662C67.2885 61.3662 67.5727 61.2299 67.7546 60.98C67.8001 60.9118 67.8342 60.855 67.8683 60.7868C67.7546 60.8323 67.6409 60.855 67.5159 60.855Z" fill="#864402"/>
<path d="M77.9205 55.7431C77.7273 55.7431 77.534 55.6863 77.3748 55.5613L50.8597 36.2836C50.4504 35.9768 50.3481 35.3975 50.6551 34.9885C50.9621 34.5796 51.5419 34.4773 51.9513 34.7841L78.4549 54.0732C78.8643 54.3799 78.9666 54.9592 78.6596 55.3682C78.4891 55.6181 78.2048 55.7431 77.9205 55.7431Z" fill="#A35702"/>
<path d="M78.4202 55.2318C78.2269 55.2318 78.0336 55.175 77.8744 55.0501L51.3707 35.7723C51.0182 35.511 50.9045 35.0566 51.0524 34.6704C50.8932 34.7386 50.7567 34.8408 50.6544 34.9885C50.3474 35.3974 50.4384 35.9882 50.8591 36.2835L77.3628 55.5726C77.5333 55.6976 77.7152 55.7544 77.9085 55.7544C78.1928 55.7544 78.477 55.6181 78.6589 55.3681C78.7044 55.3 78.7385 55.2432 78.7726 55.175C78.6589 55.2091 78.5452 55.2318 78.4202 55.2318Z" fill="#864402"/>
<path d="M49.1639 28.9223C43.4675 26.071 38.8398 19.1301 38.8398 13.4388C38.8398 7.74748 43.4788 5.43006 49.1639 8.2814C54.8603 11.1327 59.4879 18.0736 59.4879 23.7649C59.4879 29.4449 54.8603 31.7623 49.1639 28.9223ZM49.1639 10.2126C44.5363 7.89516 40.7728 9.7809 40.7728 14.4044C40.7728 19.0279 44.5363 24.6737 49.1639 26.9798C53.7915 29.2858 57.555 27.4115 57.555 22.788C57.555 18.1645 53.7915 12.5186 49.1639 10.2126Z" fill="#8B4704"/>
<path d="M51.6996 19.8686C51.6996 18.4713 50.5626 16.7673 49.1641 16.063C47.7542 15.3587 46.6172 15.9267 46.6172 17.3353C46.6172 18.744 47.7542 20.4366 49.1527 21.1409C50.5626 21.8339 51.6996 21.2659 51.6996 19.8686Z" fill="#8B4704"/>
<path d="M49.7434 28.2408L48.5723 27.6614V8.95166L49.7434 9.53101V28.2408Z" fill="#8B4704"/>
<path d="M42.9436 22.5153L42.125 21.2885L55.3712 14.677L56.1898 15.9039L42.9436 22.5153Z" fill="#8B4704"/>
<path d="M58.5215 23.8559L39.7949 14.4954V13.3367L58.5215 22.6972V23.8559Z" fill="#8B4704"/>
<path d="M55.3712 28.7293L42.125 8.88357L42.9436 8.47461L56.1898 28.309L55.3712 28.7293Z" fill="#8B4704"/>
<path d="M54.6333 30.3196L56.2706 29.6267L56.5094 28.7292L54.3945 29.8425L54.6333 30.3196Z" fill="#8B4704"/>
<path d="M49.1649 21.5725L47.9824 21.7088L48.1757 28.2408L49.4264 28.7292L49.1649 21.5725Z" fill="#8B4704"/>
<path d="M49.8809 21.652L50.2902 21.1067L51.882 22.822L55.0315 27.7863L54.2015 28.3884L49.8809 21.652Z" fill="#8B4704"/>
<path d="M45.9358 17.0852L39 13.8931V14.6769L45.8107 17.551L45.9358 17.0852Z" fill="#8B4704"/>
<path d="M42.7303 9.66724L41.832 9.78083L46.3573 16.7331L46.9031 16.8921L47.176 15.8584L42.7303 9.66724Z" fill="#8B4704"/>
<path d="M48.9261 10.7806L47.9824 10.5193L48.2439 17.2216L49.1649 17.1194L48.9261 10.7806Z" fill="#8B4704"/>
<path d="M47.8573 29.4675C42.1608 26.6162 37.5332 19.6753 37.5332 13.984C37.5332 8.29265 42.1722 5.97523 47.8573 8.82656C53.5537 11.6779 58.1813 18.6188 58.1813 24.3101C58.1927 30.0014 53.5537 32.3188 47.8573 29.4675ZM47.8573 10.7691C43.2296 8.45169 39.4661 10.3374 39.4661 14.9609C39.4661 19.5844 43.2296 25.2302 47.8573 27.5363C52.4849 29.8424 56.2484 27.968 56.2484 23.3445C56.2598 18.721 52.4849 13.0752 47.8573 10.7691Z" fill="#A35702"/>
<path d="M50.405 20.425C50.405 19.0277 49.268 17.3237 47.8695 16.6194C46.471 15.9151 45.334 16.4831 45.334 17.8917C45.334 19.3004 46.471 20.993 47.8695 21.6973C49.268 22.3902 50.405 21.8222 50.405 20.425Z" fill="#A35702"/>
<path d="M48.4371 28.7972L47.2773 28.2178V9.50806L48.4371 10.0874V28.7972Z" fill="#A35702"/>
<path d="M41.6487 23.072L40.8301 21.8451L54.0649 15.2336L54.8949 16.4605L41.6487 23.072Z" fill="#A35702"/>
<path d="M57.2266 24.4123L38.5 15.0518V13.8931L57.2266 23.2536V24.4123Z" fill="#A35702"/>
<path d="M54.0649 29.2743L40.8301 9.43996L41.6487 9.03101L54.8949 28.8654L54.0649 29.2743Z" fill="#A35702"/>
<path d="M49.4142 19.8572C49.4142 19.0847 48.7889 18.1532 48.0157 17.767C47.2425 17.3808 46.6172 17.6988 46.6172 18.4599C46.6172 19.2324 47.2425 20.1639 48.0157 20.5502C48.7889 20.9364 49.4142 20.6297 49.4142 19.8572Z" fill="#6B3401"/>
<path d="M45.9004 18.2782L47.0715 17.6648L47.424 18.1646L46.7873 18.8576L45.9004 18.2782Z" fill="#6B3401"/>
<path d="M49.0043 20.6411L47.981 21.175L47.7422 20.5729L48.8337 20.1299L49.0043 20.6411Z" fill="#6B3401"/>
<path d="M48.4025 20.3911C48.4025 19.6187 47.7772 18.6872 47.004 18.3009C46.2308 17.9147 45.6055 18.2328 45.6055 18.9939C45.6055 19.7664 46.2308 20.6979 47.004 21.0841C47.7772 21.4703 48.4025 21.1636 48.4025 20.3911Z" fill="#894502"/>
<path d="M65.4017 38.4531L27.437 11.2803L4.29883 22.8219L42.491 49.8812L65.4017 38.4531Z" fill="#FAB675"/>
<path d="M65.4017 36.5901L27.437 9.41724L4.29883 20.9702L42.491 48.0182L65.4017 36.5901Z" fill="#F7C191"/>
<path d="M4.29883 20.9702V22.8219L42.491 49.8811V48.0181L4.29883 20.9702Z" fill="#F0A461"/>
<path d="M42.4902 48.0181V49.8812L65.401 38.4531V36.5901L42.4902 48.0181Z" fill="#E8934E"/>
<path d="M28.084 0.147705V10.9055L59.329 33.1596V22.4017L28.084 0.147705Z" fill="#F0A461"/>
<path d="M28.0847 0V10.7578L7.4707 21.0385V10.2921L28.0847 0Z" fill="#E8934E"/>
<path d="M28.0847 0L7.4707 10.2921L38.8408 32.637L59.3411 22.4131L28.0847 0ZM9.23307 10.4284L28.0051 1.06783L57.5787 22.1745L38.8067 31.5351L9.23307 10.4284Z" fill="#F7C191"/>
<path d="M7.4707 10.292V21.0385L38.9204 43.3379L38.8408 32.6255L7.4707 10.292Z" fill="#F0A461"/>
<path d="M59.3288 22.4016V33.1594L38.9194 43.3379L38.8398 32.6255L59.3288 22.4016Z" fill="#E8934E"/>
<path d="M10.767 23.3786L10.3008 23.0492V12.3027L10.767 12.6322V23.3786Z" fill="#D1700D"/>
<path d="M14.8724 26.2867L14.4062 25.9573V15.2222L14.8724 15.5516V26.2867Z" fill="#D1700D"/>
<path d="M18.9646 29.1948L18.5098 28.8653V18.1416L18.9646 18.4824V29.1948Z" fill="#D1700D"/>
<path d="M23.0697 32.0916L22.6035 31.7735V21.0725L23.0697 21.4019V32.0916Z" fill="#D1700D"/>
<path d="M27.1732 35.0113L26.707 34.6818V24.0149L27.1732 24.3216V35.0113Z" fill="#D1700D"/>
<path d="M31.2787 37.9194L30.8125 37.5899V26.9116L31.2787 27.2411V37.9194Z" fill="#D1700D"/>
<path d="M35.3841 40.8274L34.918 40.498V29.8311L35.3841 30.1605V40.8274Z" fill="#D1700D"/>
<path d="M15.521 45.2465C9.82455 42.3952 5.18555 35.4543 5.18555 29.763C5.18555 24.0717 9.82455 21.7543 15.521 24.6056C21.2174 27.4569 25.845 34.3978 25.845 40.0892C25.845 45.7805 21.2174 48.0979 15.521 45.2465ZM15.521 26.5482C10.8933 24.2307 7.12983 26.1165 7.12983 30.74C7.12983 35.3634 10.8933 41.0093 15.521 43.3154C20.1486 45.6328 23.9121 43.747 23.9121 39.1236C23.9121 34.5001 20.1486 28.8542 15.521 26.5482Z" fill="#8B4704"/>
<path d="M18.0574 36.204C18.0574 34.8068 16.9204 33.1028 15.5219 32.3985C14.1233 31.6942 12.9863 32.2622 12.9863 33.6708C12.9863 35.068 14.1233 36.772 15.5219 37.4763C16.9204 38.1693 18.0574 37.6013 18.0574 36.204Z" fill="#8B4704"/>
<path d="M16.1012 44.5762L14.9414 43.9969V25.2871L16.1012 25.8665V44.5762Z" fill="#8B4704"/>
<path d="M9.31244 38.851L8.48242 37.6242L21.7286 31.0127L22.5472 32.2396L9.31244 38.851Z" fill="#8B4704"/>
<path d="M24.8789 40.1914L6.15234 30.8308V29.6721L24.8789 39.0327V40.1914Z" fill="#8B4704"/>
<path d="M21.7286 45.0534L8.48242 25.219L9.31244 24.8101L22.5472 44.6444L21.7286 45.0534Z" fill="#8B4704"/>
<path d="M21.0005 46.6552L22.6264 45.9623L22.8652 45.0535L20.7617 46.1667L21.0005 46.6552Z" fill="#8B4704"/>
<path d="M15.5204 37.908L14.3379 38.0443L14.5312 44.5762L15.7819 45.0533L15.5204 37.908Z" fill="#8B4704"/>
<path d="M16.2363 37.9877L16.6457 37.4424L18.2375 39.1577L21.387 44.122L20.5683 44.7241L16.2363 37.9877Z" fill="#8B4704"/>
<path d="M12.2912 33.4209L5.35547 30.2288V31.0126L12.1775 33.8866L12.2912 33.4209Z" fill="#8B4704"/>
<path d="M9.08574 26.0029L8.1875 26.1165L12.7128 33.0688L13.2586 33.2165L13.5428 32.1941L9.08574 26.0029Z" fill="#8B4704"/>
<path d="M15.2816 27.1163L14.3379 26.855L14.5994 33.546L15.5204 33.4551L15.2816 27.1163Z" fill="#8B4704"/>
<path d="M14.2241 45.8032C8.52767 42.9632 3.88867 36.011 3.88867 30.3197C3.88867 24.6283 8.52767 22.3109 14.2127 25.1623C19.9091 28.0136 24.5481 34.9545 24.5481 40.6458C24.5481 46.3371 19.9091 48.6545 14.2241 45.8032ZM14.2241 27.1048C9.59646 24.7874 5.83296 26.6731 5.83296 31.2966C5.83296 35.9201 9.59646 41.5659 14.2241 43.872C18.8517 46.1894 22.6152 44.3037 22.6152 39.6802C22.6152 35.0567 18.8517 29.4109 14.2241 27.1048Z" fill="#A35702"/>
<path d="M16.7605 36.7494C16.7605 35.3522 15.6235 33.6482 14.225 32.9439C12.8265 32.2396 11.6895 32.8076 11.6895 34.2162C11.6895 35.6135 12.8265 37.3174 14.225 38.0218C15.6235 38.7261 16.7605 38.1581 16.7605 36.7494Z" fill="#A35702"/>
<path d="M14.8039 45.1329L13.6328 44.5535V25.8438L14.8039 26.4231V45.1329Z" fill="#A35702"/>
<path d="M8.00419 39.4077L7.18555 38.1808L20.4317 31.5693L21.2504 32.7962L8.00419 39.4077Z" fill="#A35702"/>
<path d="M23.582 40.748L4.85547 31.3875V30.2288L23.582 39.578V40.748Z" fill="#A35702"/>
<path d="M20.4317 45.6102L7.18555 25.7644L8.00419 25.3555L21.2504 45.2012L20.4317 45.6102Z" fill="#A35702"/>
<path d="M15.7697 36.1927C15.7697 35.4202 15.1443 34.4887 14.3712 34.1024C13.598 33.7162 12.9727 34.0343 12.9727 34.7954C12.9727 35.5679 13.598 36.4994 14.3712 36.8856C15.1443 37.2719 15.7697 36.9651 15.7697 36.1927Z" fill="#6B3401"/>
<path d="M12.2676 34.6136L13.4273 33.9888L13.7798 34.5L13.1431 35.1816L12.2676 34.6136Z" fill="#6B3401"/>
<path d="M15.3597 36.9765L14.3364 37.5104L14.0977 36.9084L15.1892 36.4653L15.3597 36.9765Z" fill="#6B3401"/>
<path d="M14.758 36.7266C14.758 35.9541 14.1326 35.0226 13.3595 34.6364C12.5863 34.2501 11.9609 34.5682 11.9609 35.3293C11.9609 36.1018 12.5863 37.0333 13.3595 37.4196C14.1326 37.8058 14.758 37.4877 14.758 36.7266Z" fill="#894502"/>
</svg>
