<svg width="32" height="33" viewBox="0 0 32 33" fill="none" xmlns="http://www.w3.org/2000/svg">
<path d="M26.8876 7.76744C26.8876 12.0577 24.8661 15.3723 16.2961 15.5271C8.36456 15.6704 5.70898 12.0461 5.70898 7.7597C5.70898 3.47327 10.452 -0.00388414 16.3049 -1.2028e-05C22.1533 0.00386008 26.892 3.48101 26.8876 7.76744Z" fill="#152139"/>
<path d="M14.1345 19.4612C14.1345 19.4612 15.2663 16.8127 12.8662 15.8137C11.2895 15.1554 10.5849 13.8931 9.7834 12.6502C8.78811 13.1613 8.12752 11.384 7.95136 10.2766C7.8897 9.90097 7.86328 9.53311 7.86328 9.17688C7.86328 9.02974 7.86768 8.88647 7.8809 8.7432C8.16275 4.76268 12.21 2.12964 16.7989 2.30389C21.8854 2.50136 24.2195 5.42093 24.3693 8.92132C24.4529 10.8148 24.0169 12.9367 22.7662 12.5921C21.8942 13.6685 21.2425 15.0896 19.4985 15.9647C18.1113 16.6617 18.9216 18.5087 18.7322 19.5077C18.5472 20.4834 21.4803 21.4631 21.4803 21.4631C21.7489 23.3682 20.4894 24.4214 16.5655 24.5221C12.1703 24.6343 11.7828 22.3575 11.4129 21.3121C12.8706 20.8939 14.1345 19.7748 14.1345 19.4612Z" fill="#F9C28F"/>
<path d="M32 32.0107C29.547 26.2026 25.3853 22.1523 20.2459 20.8939C20.2459 20.8939 19.3563 23.2404 16.3396 23.3217C12.8208 23.4146 11.9621 21.0101 11.9621 21.0101C6.67732 22.0323 2.9692 24.886 0.000937379 31.8907C-0.170816 32.305 23.3066 31.7978 32 32.0107Z" fill="#FFA539"/>
<path d="M22.5475 10.1643L20.1826 13.231C20.1826 13.231 18.3286 12.4682 16.2983 12.4023C14.3254 12.3404 12.4185 13.413 12.4185 13.413C12.4185 13.413 10.0932 10.172 10.0227 10.1643C9.95226 10.1565 9.44141 10.2456 9.44141 10.2456C9.44141 10.4198 10.5116 22.2375 16.3908 21.9897C22.2745 21.7457 23.0848 10.1604 23.0848 10.1604H22.5475V10.1643ZM16.2631 14.4042C13.5107 15.047 13.3961 13.2503 14.7614 12.8709C15.5585 12.6502 16.7211 12.565 17.668 12.9328C19.1257 13.4981 18.3242 15.0005 16.2631 14.4042Z" fill="#CF6223"/>
<path d="M16.6958 4.70075C16.6958 4.70075 15.5244 6.9698 16.0176 6.83041C17.4621 6.42384 18.7084 5.18089 19.2589 5.50228C20.3335 6.12956 23.0727 11.0704 23.0727 11.0704C23.0727 11.0704 23.4074 9.46732 24.3191 9.75772C24.8035 8.44508 24.6053 6.08696 22.0818 3.99602C20.3511 2.55947 17.6339 2.18775 16.0264 2.31553C14.419 2.44331 11.6445 2.62917 9.88733 4.42583C8.848 5.49453 7.67655 6.90398 7.83949 9.52927C8.75111 9.31243 9.52621 10.0752 9.44253 11.1672C9.44253 11.1672 10.5567 9.69577 11.9308 8.10433C13.067 6.79943 14.5335 5.11119 14.5335 5.11119C14.5335 5.11119 13.3753 7.70938 13.5382 7.62806C15.9428 6.44707 16.6958 4.70075 16.6958 4.70075Z" fill="#CF6223"/>
<path d="M25.0778 31.9565C24.5185 26.2839 24.0649 21.8929 24.0649 21.8929L21.9378 21.2036L22.6513 30.2605H9.95468L10.4435 21.0797L8.59386 21.6954C8.59386 21.6954 8.12704 25.7224 7.40039 32.0572L25.0778 31.9565Z" fill="#152139"/>
</svg>
